<?xml version="1.0" encoding="UTF-8" ?>
<!DOCTYPE svg PUBLIC "-//W3C//DTD SVG 1.1//EN" "http://www.w3.org/Graphics/SVG/1.1/DTD/svg11.dtd">
<svg width="500pt" height="500pt" viewBox="0 0 500 500" version="1.1" xmlns="http://www.w3.org/2000/svg">
<g id="#ffffffff">
</g>
<g id="#eaa2b1ff">
<path fill="#eaa2b1" opacity="1.00" d=" M 187.78 14.57 C 211.06 8.68 236.50 10.45 260.02 15.94 C 261.17 16.57 264.39 16.43 263.72 18.33 C 260.89 17.87 258.08 17.32 255.27 16.77 C 252.25 15.73 249.12 15.03 245.92 14.96 C 242.60 14.46 239.30 14.02 235.97 13.78 C 219.95 12.46 203.72 12.22 187.78 14.57 Z" />
</g>
<g id="#bf586eff">
<path fill="#bf586e" opacity="1.00" d=" M 187.78 14.57 C 203.72 12.22 219.95 12.46 235.97 13.78 C 232.64 14.52 229.36 15.69 226.58 17.69 C 238.32 20.13 251.25 18.99 261.97 25.11 C 219.40 13.84 174.52 21.34 132.93 33.06 C 130.62 33.01 122.29 38.99 124.96 33.90 C 143.99 22.49 166.12 17.92 187.78 14.57 Z" />
</g>
<g id="#ce3354ff">
<path fill="#ce3354" opacity="1.00" d=" M 226.58 17.69 C 229.36 15.69 232.64 14.52 235.97 13.78 C 239.22 14.56 242.56 15.03 245.92 14.96 C 248.49 17.34 252.03 16.60 255.27 16.77 C 258.08 17.32 260.89 17.87 263.72 18.33 C 269.01 19.20 275.32 21.19 279.49 23.81 C 300.53 37.64 325.77 51.70 339.11 74.92 C 340.23 76.69 342.23 77.40 344.09 78.15 C 351.98 88.82 352.11 102.39 352.92 115.05 C 353.11 118.53 353.50 122.01 354.20 125.43 C 354.03 128.69 353.89 131.97 353.85 135.23 C 352.37 118.89 344.25 103.42 334.51 90.52 C 332.33 87.51 328.65 84.62 326.15 88.94 C 325.36 86.70 324.51 84.42 323.02 82.54 C 322.09 81.87 321.07 81.34 320.08 80.78 C 318.39 73.77 315.98 67.19 311.73 61.32 C 312.60 52.78 309.38 58.52 307.55 60.15 C 304.41 55.59 301.83 50.37 297.50 46.79 C 293.32 43.81 288.82 41.27 285.00 37.82 C 278.28 32.14 269.86 28.86 261.97 25.11 C 251.25 18.99 238.32 20.13 226.58 17.69 Z" />
</g>
<g id="#ce6173ff">
<path fill="#ce6173" opacity="1.00" d=" M 235.97 13.78 C 239.30 14.02 242.60 14.46 245.92 14.96 C 242.56 15.03 239.22 14.56 235.97 13.78 Z" />
</g>
<g id="#d2536eff">
<path fill="#d2536e" opacity="1.00" d=" M 245.92 14.96 C 249.12 15.03 252.25 15.73 255.27 16.77 C 252.03 16.60 248.49 17.34 245.92 14.96 Z" />
</g>
<g id="#f4f9feff">
<path fill="#f4f9fe" opacity="1.00" d=" M 132.93 33.06 C 174.52 21.34 219.40 13.84 261.97 25.11 C 269.86 28.86 278.28 32.14 285.00 37.82 C 284.05 43.46 293.24 43.12 291.88 48.74 C 277.21 58.53 265.28 71.74 248.92 78.93 C 242.20 85.51 233.52 75.00 227.79 83.73 C 223.08 98.64 204.98 85.77 194.43 88.62 C 148.79 87.13 122.91 135.26 118.32 174.84 C 117.78 181.08 121.32 199.45 108.89 194.32 C 98.47 194.75 100.05 181.62 104.96 175.86 C 94.74 154.51 100.43 128.16 94.64 105.62 C 97.37 101.12 97.46 95.65 95.70 90.78 C 95.92 89.26 96.14 87.74 96.37 86.23 C 98.84 78.46 100.48 70.37 104.16 63.04 C 105.59 53.89 116.72 49.03 117.50 40.64 C 118.75 37.94 121.74 34.79 124.96 33.90 C 122.29 38.99 130.62 33.01 132.93 33.06 Z" />
</g>
<g id="#d46774ff">
<path fill="#d46774" opacity="1.00" d=" M 339.11 74.92 C 325.77 51.70 300.53 37.64 279.49 23.81 L 280.47 24.08 C 293.27 27.49 303.68 36.22 315.61 41.65 C 320.14 48.54 329.50 51.18 332.11 59.41 C 335.36 66.11 340.76 71.50 344.09 78.15 C 342.23 77.40 340.23 76.69 339.11 74.92 Z" />
</g>
<g id="#c3bc9eff">
<path fill="#c3bc9e" opacity="1.00" d=" M 280.47 24.08 C 304.55 26.03 328.76 32.17 350.05 43.87 C 364.89 53.10 381.42 62.01 387.10 79.73 C 377.14 83.01 388.71 94.65 385.86 102.30 C 380.55 87.23 369.77 74.65 358.55 63.60 C 351.96 61.16 345.89 57.65 339.96 53.93 C 331.89 58.86 340.65 69.71 347.10 71.85 C 354.10 72.31 362.01 76.66 360.01 85.01 C 362.35 93.57 349.48 77.32 356.28 79.52 C 356.01 73.57 351.00 77.91 348.74 80.12 C 355.07 82.85 355.43 91.10 362.96 91.13 C 367.74 101.26 370.13 112.80 374.60 123.38 C 376.27 126.62 371.88 126.29 369.89 127.15 C 367.49 120.63 365.23 114.03 363.90 107.20 C 368.94 106.27 362.55 101.79 363.90 107.20 C 363.20 106.47 362.49 105.76 361.76 105.07 C 349.45 96.24 359.73 116.05 352.92 115.05 C 352.11 102.39 351.98 88.82 344.09 78.15 C 340.76 71.50 335.36 66.11 332.11 59.41 C 342.94 50.58 320.33 47.09 315.61 41.65 C 303.68 36.22 293.27 27.49 280.47 24.08 Z" />
</g>
<g id="#dce9f9ff">
<path fill="#dce9f9" opacity="1.00" d=" M 285.00 37.82 C 288.82 41.27 293.32 43.81 297.50 46.79 C 277.14 64.04 255.06 82.20 237.35 103.30 C 232.21 110.42 226.87 99.58 221.29 97.78 C 204.00 86.09 180.06 88.17 162.67 98.69 C 135.35 117.73 120.08 152.34 123.54 185.34 C 123.96 195.93 127.58 205.75 131.64 215.37 C 123.67 238.66 111.50 260.67 98.82 281.91 C 96.97 283.79 96.12 291.46 93.23 287.75 C 87.69 270.07 94.61 251.80 91.16 233.94 C 92.62 191.91 90.77 149.79 92.79 107.75 C 93.30 102.02 94.25 96.34 95.70 90.78 C 97.46 95.65 97.37 101.12 94.64 105.62 C 100.43 128.16 94.74 154.51 104.96 175.86 C 100.05 181.62 98.47 194.75 108.89 194.32 C 121.32 199.45 117.78 181.08 118.32 174.84 C 122.91 135.26 148.79 87.13 194.43 88.62 C 204.98 85.77 223.08 98.64 227.79 83.73 C 233.52 75.00 242.20 85.51 248.92 78.93 C 265.28 71.74 277.21 58.53 291.88 48.74 C 293.24 43.12 284.05 43.46 285.00 37.82 Z" />
</g>
<g id="#cdb5b9ff">
<path fill="#cdb5b9" opacity="1.00" d=" M 100.96 62.07 C 104.03 53.48 111.50 47.25 117.50 40.64 C 116.72 49.03 105.59 53.89 104.16 63.04 C 104.83 59.35 103.00 60.23 100.96 62.07 Z" />
</g>
<g id="#b89f82ff">
<path fill="#b89f82" opacity="1.00" d=" M 315.61 41.65 C 320.33 47.09 342.94 50.58 332.11 59.41 C 329.50 51.18 320.14 48.54 315.61 41.65 Z" />
</g>
<g id="#f07e5fff">
<path fill="#f07e5f" opacity="1.00" d=" M 297.50 46.79 C 301.83 50.37 304.41 55.59 307.55 60.15 C 309.64 63.93 311.73 67.73 313.42 71.72 C 314.80 82.19 301.76 79.07 297.31 85.42 C 286.85 95.59 269.70 94.15 262.55 107.52 C 255.98 112.49 253.48 120.49 251.96 128.09 C 247.54 120.16 255.52 108.63 248.71 100.13 C 242.95 98.59 241.06 105.72 236.62 107.64 C 230.90 108.86 225.64 105.82 220.91 103.14 C 216.56 102.25 220.77 107.92 222.04 109.65 C 217.47 109.78 213.55 112.18 210.37 115.22 C 211.73 121.76 217.01 126.31 220.13 131.99 C 214.60 126.70 208.80 121.68 201.98 118.13 C 198.65 113.39 192.26 115.48 188.03 112.75 C 188.05 108.28 195.16 107.81 195.44 102.42 C 198.79 90.44 212.80 94.08 221.29 97.78 C 226.87 99.58 232.21 110.42 237.35 103.30 C 255.06 82.20 277.14 64.04 297.50 46.79 Z" />
</g>
<g id="#a6a67bff">
<path fill="#a6a67b" opacity="1.00" d=" M 347.10 71.85 C 340.65 69.71 331.89 58.86 339.96 53.93 C 345.89 57.65 351.96 61.16 358.55 63.60 C 369.77 74.65 380.55 87.23 385.86 102.30 C 388.71 94.65 377.14 83.01 387.10 79.73 C 388.54 80.70 389.72 82.07 390.29 83.73 C 385.12 86.89 390.12 101.54 391.78 109.28 C 395.58 128.61 397.44 148.23 400.38 167.69 C 400.25 170.62 399.98 176.48 399.84 179.41 C 395.61 172.10 398.56 162.01 394.69 154.32 C 387.49 152.56 377.65 148.42 378.70 139.36 C 373.40 137.45 371.40 132.17 369.89 127.15 C 371.88 126.29 376.27 126.62 374.60 123.38 C 370.13 112.80 367.74 101.26 362.96 91.13 C 355.43 91.10 355.07 82.85 348.74 80.12 C 351.00 77.91 356.01 73.57 356.28 79.52 C 349.48 77.32 362.35 93.57 360.01 85.01 C 362.01 76.66 354.10 72.31 347.10 71.85 Z" />
</g>
<g id="#c63c21ff">
<path fill="#c63c21" opacity="1.00" d=" M 307.55 60.15 C 309.38 58.52 312.60 52.78 311.73 61.32 C 315.98 67.19 318.39 73.77 320.08 80.78 C 315.18 95.08 297.46 98.65 288.75 109.76 C 283.02 122.55 277.66 135.55 272.57 148.61 C 271.83 152.34 268.39 157.16 271.92 160.21 C 287.42 150.59 289.29 128.76 305.11 119.13 C 309.96 117.03 316.75 108.87 321.18 115.27 C 321.07 117.89 320.99 120.52 320.94 123.15 C 320.88 124.44 320.81 125.73 320.72 127.03 C 318.59 115.95 303.94 120.06 300.40 128.33 C 290.10 145.14 283.25 165.74 264.91 175.88 C 260.49 178.28 252.14 183.86 247.93 178.89 C 253.91 160.48 267.23 145.22 274.12 127.05 C 279.68 110.70 292.66 98.37 308.01 91.04 C 312.53 88.28 319.81 85.58 316.43 78.85 C 315.56 76.42 314.45 74.09 313.42 71.72 C 311.73 67.73 309.64 63.93 307.55 60.15 Z" />
</g>
<g id="#a62e4eff">
<path fill="#a62e4e" opacity="1.00" d=" M 100.96 62.07 C 103.00 60.23 104.83 59.35 104.16 63.04 C 100.48 70.37 98.84 78.46 96.37 86.23 C 96.25 85.37 95.99 83.64 95.86 82.78 C 83.01 99.09 86.27 120.61 84.76 139.98 C 81.18 167.18 83.81 194.65 80.82 221.93 C 73.05 266.93 77.09 311.86 75.77 357.23 C 72.46 274.68 71.05 191.50 83.51 109.53 C 84.66 102.47 87.63 95.88 89.09 88.90 C 92.16 79.62 95.60 70.29 100.96 62.07 Z" />
</g>
<g id="#e66644ff">
<path fill="#e66644" opacity="1.00" d=" M 313.42 71.72 C 314.45 74.09 315.56 76.42 316.43 78.85 C 309.53 90.40 293.06 92.74 283.92 102.92 C 264.85 119.49 260.41 146.16 242.75 163.74 C 231.26 167.82 236.52 189.07 248.01 187.10 C 279.64 182.11 292.20 149.91 307.16 126.21 C 318.15 117.25 316.32 139.17 315.91 144.95 C 312.59 156.44 318.64 171.04 309.03 179.94 C 313.51 182.99 316.12 187.56 315.45 193.26 C 314.95 195.78 313.94 198.15 312.93 200.50 C 307.84 207.63 297.35 217.93 305.63 226.21 C 308.22 242.58 293.41 250.62 284.87 261.84 C 272.72 274.69 260.94 288.53 251.21 303.17 C 250.59 297.70 249.54 292.27 248.21 286.92 C 247.25 283.03 245.60 279.33 244.88 275.38 C 251.49 276.85 255.03 270.90 259.03 267.03 C 264.99 256.06 277.12 250.70 286.73 243.70 C 287.80 242.07 283.93 240.81 284.57 239.15 C 293.73 228.42 293.43 212.94 304.13 203.12 C 308.33 199.39 316.06 187.54 303.95 190.18 C 293.38 193.48 287.41 179.74 297.40 174.49 C 307.89 168.35 306.70 156.28 305.84 145.92 C 290.90 156.05 286.60 176.72 268.47 183.48 C 258.57 191.56 243.55 192.13 238.86 205.83 C 226.19 208.87 223.04 224.07 226.69 234.54 C 220.13 238.82 223.53 245.80 229.84 247.29 C 225.64 257.34 230.43 267.49 227.74 277.69 C 224.66 280.82 219.64 280.56 215.72 281.78 C 183.44 281.15 151.15 282.72 118.94 280.10 C 106.27 279.73 103.89 300.80 112.96 306.92 C 108.87 314.81 127.90 311.59 122.79 317.96 C 119.28 317.64 114.54 314.13 112.19 318.19 C 110.98 331.94 94.13 335.71 88.29 347.35 C 88.01 344.70 87.45 339.41 87.17 336.77 C 83.35 323.42 90.50 311.09 90.23 297.81 C 94.39 311.89 96.72 289.96 99.15 284.17 C 110.77 270.10 123.75 256.48 125.44 237.37 C 129.22 223.77 141.85 216.17 152.32 208.25 C 154.29 208.10 156.23 208.61 158.16 208.94 C 186.51 225.39 226.43 206.65 230.92 173.92 C 234.50 159.14 229.15 143.73 220.13 131.99 C 217.01 126.31 211.73 121.76 210.37 115.22 C 213.55 112.18 217.47 109.78 222.04 109.65 C 220.77 107.92 216.56 102.25 220.91 103.14 C 225.64 105.82 230.90 108.86 236.62 107.64 C 241.06 105.72 242.95 98.59 248.71 100.13 C 255.52 108.63 247.54 120.16 251.96 128.09 C 253.48 120.49 255.98 112.49 262.55 107.52 C 269.70 94.15 286.85 95.59 297.31 85.42 C 301.76 79.07 314.80 82.19 313.42 71.72 Z" />
</g>
<g id="#dc5132ff">
<path fill="#dc5132" opacity="1.00" d=" M 316.43 78.85 C 319.81 85.58 312.53 88.28 308.01 91.04 C 292.66 98.37 279.68 110.70 274.12 127.05 C 267.23 145.22 253.91 160.48 247.93 178.89 C 252.14 183.86 260.49 178.28 264.91 175.88 C 283.25 165.74 290.10 145.14 300.40 128.33 C 303.94 120.06 318.59 115.95 320.72 127.03 C 318.12 149.03 318.81 171.33 315.45 193.26 C 316.12 187.56 313.51 182.99 309.03 179.94 C 318.64 171.04 312.59 156.44 315.91 144.95 C 316.32 139.17 318.15 117.25 307.16 126.21 C 292.20 149.91 279.64 182.11 248.01 187.10 C 236.52 189.07 231.26 167.82 242.75 163.74 C 260.41 146.16 264.85 119.49 283.92 102.92 C 293.06 92.74 309.53 90.40 316.43 78.85 Z" />
</g>
<g id="#ac2b15ff">
<path fill="#ac2b15" opacity="1.00" d=" M 320.08 80.78 C 321.07 81.34 322.09 81.87 323.02 82.54 C 319.08 86.78 317.21 92.38 314.17 97.22 C 312.16 102.37 320.07 98.12 321.91 101.35 C 322.14 105.98 322.49 110.75 321.18 115.27 C 316.75 108.87 309.96 117.03 305.11 119.13 C 289.29 128.76 287.42 150.59 271.92 160.21 C 268.39 157.16 271.83 152.34 272.57 148.61 C 277.66 135.55 283.02 122.55 288.75 109.76 C 297.46 98.65 315.18 95.08 320.08 80.78 Z" />
</g>
<g id="#80102eff">
<path fill="#80102e" opacity="1.00" d=" M 84.76 139.98 C 86.27 120.61 83.01 99.09 95.86 82.78 C 95.99 83.64 96.25 85.37 96.37 86.23 C 96.14 87.74 95.92 89.26 95.70 90.78 C 94.25 96.34 93.30 102.02 92.79 107.75 C 88.46 159.47 91.78 211.26 89.02 262.98 C 88.74 274.59 88.84 286.25 90.23 297.81 C 90.50 311.09 83.35 323.42 87.17 336.77 C 87.66 358.61 89.52 380.70 84.18 402.15 C 82.84 407.17 90.09 406.93 93.14 407.89 C 130.46 412.51 168.14 413.29 205.53 417.37 C 236.73 421.76 268.20 424.12 299.68 424.36 C 305.38 425.94 325.78 431.50 322.46 424.21 C 311.22 374.34 305.46 321.30 310.23 269.83 C 312.08 275.59 308.97 281.55 311.33 287.23 C 318.48 276.87 317.47 263.92 316.33 252.13 C 317.31 247.19 317.69 240.62 323.71 239.98 C 319.33 234.43 329.05 222.01 333.84 227.21 C 330.54 232.27 335.25 235.05 339.28 237.99 C 330.05 241.12 344.16 253.06 349.08 248.09 C 348.89 250.28 348.51 253.08 351.38 251.15 C 355.61 253.15 350.14 260.04 350.91 264.30 C 352.11 267.40 351.66 270.65 350.85 273.79 C 350.52 274.25 349.86 275.18 349.53 275.64 C 337.77 320.41 342.08 370.18 339.00 417.01 C 342.09 430.47 328.72 442.45 336.12 455.31 C 335.20 456.64 334.28 457.97 333.32 459.28 C 332.72 458.99 331.51 458.40 330.90 458.11 C 331.47 457.15 333.28 456.52 332.90 455.23 C 326.39 449.61 309.05 442.46 316.98 431.75 C 310.63 429.08 302.47 430.12 295.63 429.04 C 299.67 431.92 299.95 436.21 300.12 440.83 C 303.57 440.07 313.13 440.31 306.67 443.62 C 299.10 444.13 298.38 455.91 290.57 450.48 C 285.29 445.92 278.55 442.21 274.22 436.68 C 271.24 428.40 287.72 432.08 284.95 427.50 C 243.82 430.35 203.31 415.93 162.35 419.31 C 155.32 426.00 168.53 429.59 170.20 434.97 C 159.77 433.91 148.73 427.46 141.07 422.15 C 156.67 418.15 133.58 412.54 127.79 416.30 C 113.26 413.37 97.07 413.95 83.80 407.10 C 80.72 400.87 77.44 394.03 76.99 387.00 C 77.17 377.05 76.01 367.16 75.77 357.23 C 77.09 311.86 73.05 266.93 80.82 221.93 C 83.81 194.65 81.18 167.18 84.76 139.98 Z" />
</g>
<g id="#8a0d29ff">
<path fill="#8a0d29" opacity="1.00" d=" M 314.17 97.22 C 317.21 92.38 319.08 86.78 323.02 82.54 C 324.51 84.42 325.36 86.70 326.15 88.94 C 323.41 92.37 321.15 98.30 327.51 98.62 C 334.12 106.23 346.12 111.78 347.05 122.87 C 338.38 122.11 329.47 124.34 320.94 123.15 C 320.99 120.52 321.07 117.89 321.18 115.27 C 322.49 110.75 322.14 105.98 321.91 101.35 C 320.07 98.12 312.16 102.37 314.17 97.22 Z" />
</g>
<g id="#5e5849ff">
<path fill="#5e5849" opacity="1.00" d=" M 391.78 109.28 C 390.12 101.54 385.12 86.89 390.29 83.73 C 393.45 87.47 396.87 91.05 399.79 95.00 C 406.61 106.01 415.67 115.39 422.88 126.14 C 427.71 135.31 433.21 144.47 434.99 154.85 C 440.86 181.79 435.12 209.13 429.62 235.59 C 426.20 259.34 434.60 282.31 435.02 305.93 C 432.62 312.31 440.12 310.46 442.36 314.11 C 438.73 325.79 428.96 334.65 420.11 342.60 C 428.90 347.53 423.76 359.45 427.81 367.11 C 429.88 371.57 430.08 379.77 424.05 381.20 C 431.88 373.94 418.11 367.09 418.17 358.98 C 419.46 353.33 414.23 346.98 418.57 342.18 C 415.46 339.10 416.93 336.19 418.67 332.94 C 414.82 322.48 433.42 320.52 426.50 308.84 C 425.78 289.11 421.39 269.82 420.04 250.17 C 423.29 249.77 427.28 248.09 423.48 244.85 C 424.01 250.54 416.56 246.75 420.05 242.00 C 423.34 213.69 432.20 184.62 424.66 156.21 C 419.94 135.11 407.27 116.77 393.39 100.63 C 388.72 95.48 392.72 106.57 391.78 109.28 Z" />
</g>
<g id="#b4163dff">
<path fill="#b4163d" opacity="1.00" d=" M 326.15 88.94 C 328.65 84.62 332.33 87.51 334.51 90.52 C 344.25 103.42 352.37 118.89 353.85 135.23 C 353.88 143.35 354.42 151.52 353.71 159.62 C 352.22 166.35 349.48 172.76 348.23 179.56 C 341.52 180.64 340.36 172.08 335.14 170.88 C 326.06 194.62 321.35 219.90 308.37 242.32 C 308.01 241.91 307.31 241.10 306.96 240.70 C 309.01 227.34 314.24 214.16 312.93 200.50 C 313.94 198.15 314.95 195.78 315.45 193.26 C 318.81 171.33 318.12 149.03 320.72 127.03 C 320.81 125.73 320.88 124.44 320.94 123.15 C 329.47 124.34 338.38 122.11 347.05 122.87 C 346.12 111.78 334.12 106.23 327.51 98.62 C 321.15 98.30 323.41 92.37 326.15 88.94 Z" />
</g>
<g id="#d496a5ff">
<path fill="#d496a5" opacity="1.00" d=" M 83.62 101.63 C 85.31 97.39 85.78 92.15 89.09 88.90 C 87.63 95.88 84.66 102.47 83.51 109.53 C 71.05 191.50 72.46 274.68 75.77 357.23 C 76.01 367.16 77.17 377.05 76.99 387.00 C 70.96 293.68 67.96 195.68 83.62 101.63 Z" />
</g>
<g id="#f49880ff">
<path fill="#f49880" opacity="1.00" d=" M 162.67 98.69 C 180.06 88.17 204.00 86.09 221.29 97.78 C 212.80 94.08 198.79 90.44 195.44 102.42 C 195.16 107.81 188.05 108.28 188.03 112.75 C 192.26 115.48 198.65 113.39 201.98 118.13 C 188.31 112.02 171.83 113.67 160.15 123.13 C 143.10 139.26 134.37 165.73 141.15 188.92 C 137.30 176.96 136.79 163.83 131.93 151.92 C 129.39 152.51 128.32 154.81 128.40 157.24 C 128.17 166.87 123.68 175.70 123.54 185.34 C 120.08 152.34 135.35 117.73 162.67 98.69 Z" />
</g>
<g id="#b2afaaff">
<path fill="#b2afaa" opacity="1.00" d=" M 399.79 95.00 C 408.24 104.27 417.92 114.60 422.88 126.14 C 415.67 115.39 406.61 106.01 399.79 95.00 Z" />
</g>
<g id="#2e2d1aff">
<path fill="#2e2d1a" opacity="1.00" d=" M 391.78 109.28 C 392.72 106.57 388.72 95.48 393.39 100.63 C 407.27 116.77 419.94 135.11 424.66 156.21 C 432.20 184.62 423.34 213.69 420.05 242.00 C 416.56 246.75 424.01 250.54 423.48 244.85 C 427.28 248.09 423.29 249.77 420.04 250.17 C 421.39 269.82 425.78 289.11 426.50 308.84 C 425.15 312.86 420.38 314.73 421.69 307.49 C 422.16 298.39 413.54 292.79 410.15 285.03 C 409.48 279.37 408.70 272.19 401.88 271.06 C 402.27 266.94 402.73 262.85 402.86 258.72 C 405.32 228.39 403.31 197.90 400.38 167.69 C 397.44 148.23 395.58 128.61 391.78 109.28 Z" />
</g>
<g id="#a49a7bff">
<path fill="#a49a7b" opacity="1.00" d=" M 352.92 115.05 C 359.73 116.05 349.45 96.24 361.76 105.07 C 348.04 102.82 363.79 109.38 360.05 114.98 C 366.70 141.00 367.66 168.08 368.08 194.83 C 367.39 210.61 365.45 226.40 361.85 241.80 C 359.99 240.70 356.21 240.06 357.10 237.18 C 360.27 219.53 361.70 201.54 360.84 183.62 C 359.58 163.21 357.76 142.76 357.60 122.36 C 356.26 116.95 356.32 123.26 354.20 125.43 C 353.50 122.01 353.11 118.53 352.92 115.05 Z" />
</g>
<g id="#8e8870ff">
<path fill="#8e8870" opacity="1.00" d=" M 363.90 107.20 C 368.94 106.27 362.55 101.79 363.90 107.20 Z" />
</g>
<g id="#817e56ff">
<path fill="#817e56" opacity="1.00" d=" M 360.05 114.98 C 363.79 109.38 348.04 102.82 361.76 105.07 C 362.49 105.76 363.20 106.47 363.90 107.20 C 365.23 114.03 367.49 120.63 369.89 127.15 C 371.40 132.17 373.40 137.45 378.70 139.36 C 377.65 148.42 387.49 152.56 394.69 154.32 C 398.56 162.01 395.61 172.10 399.84 179.41 C 399.98 176.48 400.25 170.62 400.38 167.69 C 403.31 197.90 405.32 228.39 402.86 258.72 C 402.40 261.07 401.46 265.00 400.14 260.87 C 397.61 242.51 396.43 223.86 393.57 205.62 C 393.95 197.93 389.05 206.43 387.99 209.44 C 383.44 202.50 377.02 195.16 368.08 194.83 C 367.66 168.08 366.70 141.00 360.05 114.98 Z" />
</g>
<g id="#d1959aff">
<path fill="#d1959a" opacity="1.00" d=" M 89.02 262.98 C 91.78 211.26 88.46 159.47 92.79 107.75 C 90.77 149.79 92.62 191.91 91.16 233.94 C 94.61 251.80 87.69 270.07 93.23 287.75 C 96.12 291.46 96.97 283.79 98.82 281.91 C 98.90 282.47 99.07 283.60 99.15 284.17 C 96.72 289.96 94.39 311.89 90.23 297.81 C 88.84 286.25 88.74 274.59 89.02 262.98 Z" />
</g>
<g id="#d0e2f8ff">
<path fill="#d0e2f8" opacity="1.00" d=" M 160.15 123.13 C 171.83 113.67 188.31 112.02 201.98 118.13 C 208.80 121.68 214.60 126.70 220.13 131.99 C 229.15 143.73 234.50 159.14 230.92 173.92 C 226.43 206.65 186.51 225.39 158.16 208.94 C 150.49 204.29 143.94 197.61 141.15 188.92 C 134.37 165.73 143.10 139.26 160.15 123.13 M 181.46 116.50 C 151.12 123.35 135.00 159.86 143.79 188.14 C 145.69 193.75 154.19 208.96 159.91 198.93 C 174.85 174.29 189.36 149.20 205.02 125.89 C 201.26 118.63 189.75 113.97 181.46 116.50 Z" />
</g>
<g id="#eaf5ffff">
<path fill="#eaf5ff" opacity="1.00" d=" M 181.46 116.50 C 189.75 113.97 201.26 118.63 205.02 125.89 C 189.36 149.20 174.85 174.29 159.91 198.93 C 154.19 208.96 145.69 193.75 143.79 188.14 C 135.00 159.86 151.12 123.35 181.46 116.50 Z" />
</g>
<g id="#9e7169ff">
<path fill="#9e7169" opacity="1.00" d=" M 354.20 125.43 C 356.32 123.26 356.26 116.95 357.60 122.36 C 357.76 142.76 359.58 163.21 360.84 183.62 C 358.01 205.22 356.89 229.02 351.38 251.15 C 348.51 253.08 348.89 250.28 349.08 248.09 C 353.44 218.85 356.46 189.18 353.71 159.62 C 354.42 151.52 353.88 143.35 353.85 135.23 C 353.89 131.97 354.03 128.69 354.20 125.43 Z" />
</g>
<g id="#f07451ff">
<path fill="#f07451" opacity="1.00" d=" M 268.47 183.48 C 286.60 176.72 290.90 156.05 305.84 145.92 C 306.70 156.28 307.89 168.35 297.40 174.49 C 287.41 179.74 293.38 193.48 303.95 190.18 C 316.06 187.54 308.33 199.39 304.13 203.12 C 293.43 212.94 293.73 228.42 284.57 239.15 C 283.93 240.81 287.80 242.07 286.73 243.70 C 277.12 250.70 264.99 256.06 259.03 267.03 C 255.03 270.90 251.49 276.85 244.88 275.38 C 245.60 279.33 247.25 283.03 248.21 286.92 C 240.05 277.86 226.26 283.58 215.72 281.78 C 219.64 280.56 224.66 280.82 227.74 277.69 C 230.43 267.49 225.64 257.34 229.84 247.29 C 223.53 245.80 220.13 238.82 226.69 234.54 C 223.04 224.07 226.19 208.87 238.86 205.83 C 243.55 192.13 258.57 191.56 268.47 183.48 Z" />
</g>
<g id="#ef8568ff">
<path fill="#ef8568" opacity="1.00" d=" M 128.40 157.24 C 128.32 154.81 129.39 152.51 131.93 151.92 C 136.79 163.83 137.30 176.96 141.15 188.92 C 143.94 197.61 150.49 204.29 158.16 208.94 C 156.23 208.61 154.29 208.10 152.32 208.25 C 141.85 216.17 129.22 223.77 125.44 237.37 C 123.75 256.48 110.77 270.10 99.15 284.17 C 99.07 283.60 98.90 282.47 98.82 281.91 C 111.50 260.67 123.67 238.66 131.64 215.37 C 127.58 205.75 123.96 195.93 123.54 185.34 C 123.68 175.70 128.17 166.87 128.40 157.24 Z" />
</g>
<g id="#a29e98ff">
<path fill="#a29e98" opacity="1.00" d=" M 434.99 154.85 C 443.32 176.27 436.95 201.98 433.54 224.63 C 425.85 248.90 434.35 273.63 435.84 298.05 C 435.51 304.32 441.31 308.26 442.36 314.11 C 440.12 310.46 432.62 312.31 435.02 305.93 C 434.60 282.31 426.20 259.34 429.62 235.59 C 435.12 209.13 440.86 181.79 434.99 154.85 Z" />
</g>
<g id="#991237ff">
<path fill="#991237" opacity="1.00" d=" M 348.23 179.56 C 349.48 172.76 352.22 166.35 353.71 159.62 C 356.46 189.18 353.44 218.85 349.08 248.09 C 344.16 253.06 330.05 241.12 339.28 237.99 C 335.25 235.05 330.54 232.27 333.84 227.21 C 329.05 222.01 319.33 234.43 323.71 239.98 C 317.69 240.62 317.31 247.19 316.33 252.13 C 317.47 263.92 318.48 276.87 311.33 287.23 C 308.97 281.55 312.08 275.59 310.23 269.83 C 308.58 261.77 308.65 253.45 306.77 245.45 C 307.31 244.41 307.84 243.36 308.37 242.32 C 321.35 219.90 326.06 194.62 335.14 170.88 C 340.36 172.08 341.52 180.64 348.23 179.56 Z" />
</g>
<g id="#6a6342ff">
<path fill="#6a6342" opacity="1.00" d=" M 351.38 251.15 C 356.89 229.02 358.01 205.22 360.84 183.62 C 361.70 201.54 360.27 219.53 357.10 237.18 C 356.21 240.06 359.99 240.70 361.85 241.80 C 365.45 226.40 367.39 210.61 368.08 194.83 C 377.02 195.16 383.44 202.50 387.99 209.44 C 389.05 206.43 393.95 197.93 393.57 205.62 C 396.43 223.86 397.61 242.51 400.14 260.87 C 401.46 265.00 402.40 261.07 402.86 258.72 C 402.73 262.85 402.27 266.94 401.88 271.06 C 389.31 267.82 376.31 267.63 363.58 265.50 C 359.88 265.40 356.74 259.90 353.52 264.04 C 364.08 273.33 387.32 262.84 392.19 278.90 C 378.21 279.94 364.11 278.37 350.85 273.79 C 351.66 270.65 352.11 267.40 350.91 264.30 C 350.14 260.04 355.61 253.15 351.38 251.15 Z" />
</g>
<g id="#cc452bff">
<path fill="#cc452b" opacity="1.00" d=" M 305.63 226.21 C 297.35 217.93 307.84 207.63 312.93 200.50 C 314.24 214.16 309.01 227.34 306.96 240.70 C 292.18 258.17 288.38 281.91 272.80 298.81 C 269.67 306.33 258.95 302.83 255.71 308.89 C 265.24 309.29 274.80 308.62 284.33 309.19 C 277.75 313.20 268.89 308.92 262.60 314.03 C 265.17 315.82 268.75 316.33 270.51 319.13 C 266.58 325.70 255.24 333.78 259.12 342.85 C 275.50 346.06 280.18 364.07 290.79 374.32 C 295.24 377.21 303.28 368.93 305.32 376.68 C 307.00 392.07 307.75 411.20 320.17 422.03 C 320.93 422.74 321.70 423.47 322.46 424.21 C 325.78 431.50 305.38 425.94 299.68 424.36 C 268.20 424.12 236.73 421.76 205.53 417.37 C 168.14 413.29 130.46 412.51 93.14 407.89 C 90.09 406.93 82.84 407.17 84.18 402.15 C 89.52 380.70 87.66 358.61 87.17 336.77 C 87.45 339.41 88.01 344.70 88.29 347.35 C 94.13 335.71 110.98 331.94 112.19 318.19 C 114.54 314.13 119.28 317.64 122.79 317.96 C 127.90 311.59 108.87 314.81 112.96 306.92 C 152.62 307.86 192.13 310.46 231.81 310.71 C 238.71 307.70 254.23 316.78 251.21 303.17 C 260.94 288.53 272.72 274.69 284.87 261.84 C 293.41 250.62 308.22 242.58 305.63 226.21 Z" />
</g>
<g id="#af2e19ff">
<path fill="#af2e19" opacity="1.00" d=" M 272.80 298.81 C 288.38 281.91 292.18 258.17 306.96 240.70 C 307.31 241.10 308.01 241.91 308.37 242.32 C 307.84 243.36 307.31 244.41 306.77 245.45 C 293.62 263.14 306.84 289.12 290.54 306.46 C 286.03 310.63 304.79 305.74 296.76 309.74 C 286.81 314.11 296.91 313.36 300.95 316.33 C 298.90 330.85 298.93 346.10 302.67 360.34 C 312.99 365.49 307.75 378.65 310.12 387.90 C 313.12 399.38 315.07 411.23 320.17 422.03 C 307.75 411.20 307.00 392.07 305.32 376.68 C 303.28 368.93 295.24 377.21 290.79 374.32 C 280.18 364.07 275.50 346.06 259.12 342.85 C 255.24 333.78 266.58 325.70 270.51 319.13 C 268.75 316.33 265.17 315.82 262.60 314.03 C 268.89 308.92 277.75 313.20 284.33 309.19 C 274.80 308.62 265.24 309.29 255.71 308.89 C 258.95 302.83 269.67 306.33 272.80 298.81 Z" />
</g>
<g id="#8a1313ff">
<path fill="#8a1313" opacity="1.00" d=" M 290.54 306.46 C 306.84 289.12 293.62 263.14 306.77 245.45 C 308.65 253.45 308.58 261.77 310.23 269.83 C 305.46 321.30 311.22 374.34 322.46 424.21 C 321.70 423.47 320.93 422.74 320.17 422.03 C 315.07 411.23 313.12 399.38 310.12 387.90 C 307.75 378.65 312.99 365.49 302.67 360.34 C 298.93 346.10 298.90 330.85 300.95 316.33 C 296.91 313.36 286.81 314.11 296.76 309.74 C 304.79 305.74 286.03 310.63 290.54 306.46 Z" />
</g>
<g id="#867d5fff">
<path fill="#867d5f" opacity="1.00" d=" M 353.52 264.04 C 356.74 259.90 359.88 265.40 363.58 265.50 C 376.31 267.63 389.31 267.82 401.88 271.06 C 408.70 272.19 409.48 279.37 410.15 285.03 C 405.47 289.86 395.03 281.84 388.14 281.75 C 375.16 281.09 361.71 280.73 349.53 275.64 C 349.86 275.18 350.52 274.25 350.85 273.79 C 364.11 278.37 378.21 279.94 392.19 278.90 C 387.32 262.84 364.08 273.33 353.52 264.04 Z" />
</g>
<g id="#3b3220ff">
<path fill="#3b3220" opacity="1.00" d=" M 339.00 417.01 C 342.08 370.18 337.77 320.41 349.53 275.64 C 361.71 280.73 375.16 281.09 388.14 281.75 C 384.30 322.25 391.01 363.88 377.18 403.14 C 374.64 419.01 362.61 433.74 362.95 448.81 C 355.04 452.16 365.83 456.75 369.91 454.86 C 375.53 451.27 385.24 447.94 379.04 457.11 C 372.79 458.17 366.39 457.94 360.18 456.79 C 355.44 453.13 349.15 450.70 351.21 443.22 C 359.65 423.42 373.61 405.54 374.84 383.28 C 369.99 378.91 371.35 388.57 369.80 390.99 C 365.57 391.05 361.28 388.30 362.22 383.71 C 360.05 379.29 353.97 379.37 351.00 382.92 C 341.59 383.08 346.87 392.58 345.00 397.98 C 341.83 414.43 343.48 432.64 336.09 447.87 C 336.98 450.47 341.62 455.48 336.12 455.31 C 328.72 442.45 342.09 430.47 339.00 417.01 M 354.90 332.25 C 340.71 333.87 348.95 345.89 343.99 353.94 C 346.40 357.26 347.80 360.17 343.91 363.03 C 348.79 366.92 347.12 375.50 353.68 377.04 C 354.96 371.05 360.37 366.90 356.98 360.01 C 352.65 351.00 365.30 337.74 354.90 332.25 Z" />
</g>
<g id="#bd8067ff">
<path fill="#bd8067" opacity="1.00" d=" M 112.96 306.92 C 103.89 300.80 106.27 279.73 118.94 280.10 C 151.15 282.72 183.44 281.15 215.72 281.78 C 226.26 283.58 240.05 277.86 248.21 286.92 C 249.54 292.27 250.59 297.70 251.21 303.17 C 254.23 316.78 238.71 307.70 231.81 310.71 C 192.13 310.46 152.62 307.86 112.96 306.92 M 117.37 283.28 C 111.80 286.14 107.81 299.75 114.31 302.74 C 157.97 302.91 202.79 310.14 246.67 305.68 C 248.87 301.39 247.75 292.40 243.79 288.20 C 232.28 280.00 217.75 288.28 204.95 285.18 C 175.72 287.54 146.58 282.82 117.37 283.28 Z" />
</g>
<g id="#4a452bff">
<path fill="#4a452b" opacity="1.00" d=" M 388.14 281.75 C 395.03 281.84 405.47 289.86 410.15 285.03 C 413.54 292.79 422.16 298.39 421.69 307.49 C 420.38 314.73 425.15 312.86 426.50 308.84 C 433.42 320.52 414.82 322.48 418.67 332.94 C 416.93 336.19 415.46 339.10 418.57 342.18 C 414.23 346.98 419.46 353.33 418.17 358.98 C 418.11 367.09 431.88 373.94 424.05 381.20 C 407.05 392.90 415.14 416.76 404.79 431.79 C 394.62 434.40 392.70 446.09 388.90 453.85 C 385.62 454.95 382.48 456.54 379.04 457.11 C 385.24 447.94 375.53 451.27 369.91 454.86 C 365.83 456.75 355.04 452.16 362.95 448.81 C 362.61 433.74 374.64 419.01 377.18 403.14 C 391.01 363.88 384.30 322.25 388.14 281.75 Z" />
</g>
<g id="#a99b85ff">
<path fill="#a99b85" opacity="1.00" d=" M 117.37 283.28 C 146.58 282.82 175.72 287.54 204.95 285.18 C 217.75 288.28 232.28 280.00 243.79 288.20 C 247.75 292.40 248.87 301.39 246.67 305.68 C 202.79 310.14 157.97 302.91 114.31 302.74 C 107.81 299.75 111.80 286.14 117.37 283.28 Z" />
</g>
<g id="#aca698ff">
<path fill="#aca698" opacity="1.00" d=" M 442.36 314.11 C 445.76 322.30 448.45 336.03 441.40 344.21 C 442.50 356.77 425.20 354.11 427.81 367.11 C 423.76 359.45 428.90 347.53 420.11 342.60 C 428.96 334.65 438.73 325.79 442.36 314.11 Z" />
</g>
<g id="#bbab86ff">
<path fill="#bbab86" opacity="1.00" d=" M 354.90 332.25 C 365.30 337.74 352.65 351.00 356.98 360.01 C 360.37 366.90 354.96 371.05 353.68 377.04 C 347.12 375.50 348.79 366.92 343.91 363.03 C 347.80 360.17 346.40 357.26 343.99 353.94 C 348.95 345.89 340.71 333.87 354.90 332.25 Z" />
</g>
<g id="#4c452cff">
<path fill="#4c452c" opacity="1.00" d=" M 351.00 382.92 C 353.97 379.37 360.05 379.29 362.22 383.71 C 361.28 388.30 365.57 391.05 369.80 390.99 C 371.35 388.57 369.99 378.91 374.84 383.28 C 373.61 405.54 359.65 423.42 351.21 443.22 C 349.15 450.70 355.44 453.13 360.18 456.79 C 356.24 455.99 353.08 457.60 350.04 459.65 C 344.26 456.59 338.07 455.42 332.84 459.97 L 333.32 459.28 C 334.28 457.97 335.20 456.64 336.12 455.31 C 341.62 455.48 336.98 450.47 336.09 447.87 C 343.48 432.64 341.83 414.43 345.00 397.98 C 346.87 392.58 341.59 383.08 351.00 382.92 Z" />
</g>
<g id="#87153aff">
<path fill="#87153a" opacity="1.00" d=" M 83.80 407.10 C 97.07 413.95 113.26 413.37 127.79 416.30 C 133.58 412.54 156.67 418.15 141.07 422.15 C 148.73 427.46 159.77 433.91 170.20 434.97 C 168.53 429.59 155.32 426.00 162.35 419.31 C 203.31 415.93 243.82 430.35 284.95 427.50 C 287.72 432.08 271.24 428.40 274.22 436.68 C 278.55 442.21 285.29 445.92 290.57 450.48 C 298.38 455.91 299.10 444.13 306.67 443.62 C 313.13 440.31 303.57 440.07 300.12 440.83 C 299.95 436.21 299.67 431.92 295.63 429.04 C 302.47 430.12 310.63 429.08 316.98 431.75 C 309.05 442.46 326.39 449.61 332.90 455.23 C 333.28 456.52 331.47 457.15 330.90 458.11 C 295.50 457.00 260.48 451.38 225.18 448.80 C 197.59 442.11 169.13 446.91 140.99 442.09 C 135.49 443.24 121.14 435.96 120.87 441.07 C 119.19 440.62 117.55 439.97 116.14 438.95 C 110.15 434.60 104.50 429.82 98.95 424.93 C 94.86 418.18 88.11 413.29 83.80 407.10 Z" />
</g>
<g id="#bf8b9cff">
<path fill="#bf8b9c" opacity="1.00" d=" M 98.95 424.93 C 104.50 429.82 110.15 434.60 116.14 438.95 C 109.93 436.30 101.75 431.60 98.95 424.93 Z" />
</g>
<g id="#511721ff">
<path fill="#511721" opacity="1.00" d=" M 120.87 441.07 C 121.14 435.96 135.49 443.24 140.99 442.09 C 169.13 446.91 197.59 442.11 225.18 448.80 C 260.48 451.38 295.50 457.00 330.90 458.11 C 331.51 458.40 332.72 458.99 333.32 459.28 L 332.84 459.97 C 300.58 461.61 268.58 453.65 236.31 452.70 C 198.04 446.29 158.93 449.28 120.87 441.07 Z" />
</g>
<g id="#756858ff">
<path fill="#756858" opacity="1.00" d=" M 120.87 441.07 C 158.93 449.28 198.04 446.29 236.31 452.70 C 268.58 453.65 300.58 461.61 332.84 459.97 C 338.07 455.42 344.26 456.59 350.04 459.65 C 353.08 457.60 356.24 455.99 360.18 456.79 C 366.39 457.94 372.79 458.17 379.04 457.11 C 382.48 456.54 385.62 454.95 388.90 453.85 C 388.48 460.92 383.61 471.44 375.05 470.15 C 333.26 476.10 290.99 472.12 249.14 468.77 C 212.69 466.50 176.88 459.30 141.89 449.13 C 134.40 448.08 127.05 445.44 120.87 441.07 Z" />
</g>
</svg>
