<?xml version="1.0" encoding="UTF-8" ?>
<!DOCTYPE svg PUBLIC "-//W3C//DTD SVG 1.1//EN" "http://www.w3.org/Graphics/SVG/1.1/DTD/svg11.dtd">
<svg width="200pt" height="156pt" viewBox="0 0 200 156" version="1.1" xmlns="http://www.w3.org/2000/svg">
<g id="#151c1dff">
<path fill="#151c1d" opacity="1.00" d=" M 108.14 4.21 C 115.04 2.84 122.20 2.43 129.15 3.67 C 126.35 3.65 123.55 3.82 120.75 3.93 C 113.87 4.01 107.10 5.79 100.84 8.57 C 96.17 10.56 92.54 14.23 88.96 17.71 C 89.64 18.46 90.32 19.21 90.98 19.98 L 90.97 20.92 C 88.43 20.89 85.90 21.04 83.37 21.20 C 82.59 22.46 81.83 23.73 81.00 24.96 C 80.74 25.31 80.21 26.01 79.95 26.36 C 74.90 29.88 69.40 33.21 66.49 38.89 C 65.79 39.99 65.12 41.11 64.45 42.22 C 71.56 45.40 79.42 46.22 86.56 49.30 L 85.62 49.26 C 77.43 48.80 69.70 45.66 61.88 43.44 C 57.66 47.86 53.40 52.68 51.79 58.73 C 50.80 62.43 51.75 66.30 53.11 69.78 C 52.40 69.67 51.00 69.44 50.30 69.33 C 49.81 67.13 49.26 64.93 48.46 62.82 C 48.15 62.72 47.52 62.50 47.20 62.39 C 48.47 60.61 49.66 58.79 50.76 56.91 C 46.71 56.71 42.00 56.51 39.38 60.22 C 35.59 59.88 30.66 59.64 28.57 63.57 C 25.03 69.95 24.74 77.82 26.70 84.76 C 31.37 83.73 36.23 83.02 40.94 84.20 C 42.69 84.64 44.42 85.16 46.15 85.68 C 46.43 84.50 46.72 83.33 46.96 82.15 C 47.55 79.56 47.98 76.95 48.30 74.32 C 48.52 74.43 48.95 74.65 49.17 74.76 C 49.37 75.44 49.77 76.78 49.97 77.45 C 50.46 77.64 51.43 78.02 51.92 78.21 C 52.24 78.32 52.89 78.55 53.22 78.66 C 51.35 80.45 48.91 82.16 48.76 85.01 C 47.99 90.86 48.19 96.82 48.91 102.67 C 49.27 106.10 50.60 109.38 52.71 112.10 L 53.19 112.73 C 49.50 112.87 45.82 112.33 42.13 112.42 C 38.67 113.93 35.77 116.53 32.83 118.87 C 29.22 121.85 27.33 127.70 21.88 127.72 C 11.29 127.36 2.73 117.34 2.61 106.99 C 2.82 104.68 4.44 102.85 5.61 100.95 C 5.59 101.86 5.58 102.77 5.56 103.68 C 7.32 104.17 9.08 104.66 10.84 105.14 C 10.17 106.46 8.88 107.87 9.59 109.44 C 10.99 113.30 13.75 116.59 16.96 119.10 C 18.37 120.33 20.33 120.01 22.05 120.03 L 22.22 120.71 C 22.73 122.77 23.33 124.81 23.96 126.85 C 25.85 124.17 27.52 121.34 29.06 118.45 C 33.52 116.65 38.23 114.13 40.59 109.78 C 40.95 105.76 38.75 102.02 36.32 98.98 C 34.94 97.54 33.48 96.17 31.96 94.87 C 28.79 92.11 24.65 93.18 21.53 95.41 C 20.49 92.74 18.57 90.62 15.97 89.40 C 15.96 91.65 15.97 93.91 16.03 96.17 C 17.00 96.51 17.98 96.86 18.95 97.21 C 17.94 97.96 16.93 98.71 15.92 99.46 C 17.27 100.78 18.64 102.10 20.01 103.41 C 19.76 103.64 19.27 104.09 19.02 104.31 C 17.78 103.34 16.52 102.39 15.21 101.50 C 13.27 100.41 11.21 99.53 9.17 98.64 C 11.18 98.41 13.19 98.20 15.20 97.94 C 15.06 95.41 14.91 92.88 14.75 90.35 C 11.24 89.96 7.72 89.67 4.20 89.48 C 3.08 85.76 2.33 81.90 2.51 78.00 C 2.44 70.04 6.30 62.82 10.07 56.06 C 14.30 48.56 20.89 42.78 27.80 37.83 C 35.70 32.54 45.16 30.58 54.26 28.45 C 62.14 27.13 69.97 25.23 78.01 25.18 C 80.62 22.06 83.39 19.05 86.77 16.74 C 93.49 11.99 99.80 5.90 108.14 4.21 M 23.03 74.13 C 23.44 71.37 23.91 68.61 24.48 65.88 C 22.86 68.32 20.41 71.46 23.03 74.13 M 42.89 111.00 C 44.92 111.12 46.96 111.22 49.00 111.31 C 48.62 109.43 48.25 107.56 47.86 105.68 C 46.13 107.39 44.47 109.16 42.89 111.00 Z" />
</g>
<g id="#a0a5a3ff">
<path fill="#a0a5a3" opacity="1.00" d=" M 100.84 8.57 C 107.10 5.79 113.87 4.01 120.75 3.93 C 125.85 4.63 130.86 5.92 135.61 7.92 C 128.78 10.22 121.58 11.72 115.41 15.64 C 112.34 10.59 106.48 8.65 100.84 8.57 Z" />
</g>
<g id="#252927ff">
<path fill="#252927" opacity="1.00" d=" M 120.75 3.93 C 123.55 3.82 126.35 3.65 129.15 3.67 C 135.52 5.42 142.33 8.27 145.96 14.13 C 140.98 12.06 135.50 11.78 130.29 13.12 C 132.38 16.29 134.83 19.33 136.03 22.99 C 137.04 26.86 136.31 30.89 136.10 34.82 C 142.31 37.36 148.83 38.94 155.28 40.73 C 155.30 37.43 155.37 34.13 155.20 30.83 C 156.45 34.52 156.38 38.59 157.92 42.15 C 160.71 45.21 164.79 46.57 168.10 48.95 C 174.27 53.31 180.13 58.21 184.86 64.13 C 189.08 69.34 194.50 74.20 195.91 81.04 C 197.68 89.63 197.24 99.41 191.39 106.43 C 187.73 111.61 181.48 113.55 176.55 117.14 C 176.50 113.77 176.07 110.40 176.27 107.02 C 176.61 103.05 179.62 99.23 177.94 95.19 C 176.35 90.58 170.32 91.50 166.48 90.65 L 166.81 89.89 C 169.85 89.90 172.89 89.99 175.94 90.08 C 173.42 84.53 170.63 79.01 166.53 74.45 C 162.76 70.18 157.84 67.22 153.56 63.53 C 151.50 61.44 149.10 59.72 146.55 58.28 C 142.35 55.96 140.59 51.03 136.56 48.48 C 132.09 45.24 125.68 42.84 125.06 36.53 C 123.43 37.25 121.83 38.14 120.06 38.45 C 116.39 37.53 113.25 35.25 109.95 33.50 C 112.06 32.55 114.17 31.61 116.34 30.80 C 122.69 31.51 128.88 33.23 135.24 33.93 C 134.59 27.14 133.42 19.30 127.96 14.64 C 120.24 16.93 113.30 21.43 106.92 26.24 C 105.67 25.31 104.43 24.39 103.19 23.46 C 107.04 20.51 111.23 18.06 115.41 15.64 C 121.58 11.72 128.78 10.22 135.61 7.92 C 130.86 5.92 125.85 4.63 120.75 3.93 M 180.65 94.68 C 180.13 100.40 179.89 106.16 180.07 111.91 C 180.78 111.89 182.21 111.86 182.92 111.85 L 182.50 111.41 C 188.19 108.18 192.64 103.00 194.16 96.55 L 194.76 96.81 C 194.72 93.59 194.75 90.38 194.82 87.16 C 193.55 88.55 192.27 89.93 190.99 91.31 C 191.25 89.90 191.52 88.50 191.79 87.11 C 188.79 90.56 185.13 93.45 180.65 94.68 Z" />
</g>
<g id="#e1e3dcff">
<path fill="#e1e3dc" opacity="1.00" d=" M 88.96 17.71 C 92.54 14.23 96.17 10.56 100.84 8.57 C 106.48 8.65 112.34 10.59 115.41 15.64 C 111.23 18.06 107.04 20.51 103.19 23.46 C 99.11 22.33 95.17 20.71 90.98 19.98 C 90.32 19.21 89.64 18.46 88.96 17.71 Z" />
</g>
<g id="#494b4bff">
<path fill="#494b4b" opacity="1.00" d=" M 130.29 13.12 C 135.50 11.78 140.98 12.06 145.96 14.13 C 151.09 18.11 153.84 24.63 155.20 30.83 C 155.37 34.13 155.30 37.43 155.28 40.73 C 148.83 38.94 142.31 37.36 136.10 34.82 C 136.31 30.89 137.04 26.86 136.03 22.99 C 134.83 19.33 132.38 16.29 130.29 13.12 Z" />
</g>
<g id="#1b2121ff">
<path fill="#1b2121" opacity="1.00" d=" M 90.98 19.98 C 95.17 20.71 99.11 22.33 103.19 23.46 C 104.43 24.39 105.67 25.31 106.92 26.24 C 105.80 27.44 104.77 28.71 103.74 29.97 C 107.94 30.22 112.16 30.32 116.34 30.80 C 114.17 31.61 112.06 32.55 109.95 33.50 C 113.25 35.25 116.39 37.53 120.06 38.45 C 121.83 38.14 123.43 37.25 125.06 36.53 C 125.68 42.84 132.09 45.24 136.56 48.48 C 140.59 51.03 142.35 55.96 146.55 58.28 C 149.10 59.72 151.50 61.44 153.56 63.53 C 152.42 63.34 151.28 63.17 150.14 63.00 C 153.73 69.02 158.30 74.47 161.06 80.96 C 162.58 84.15 163.70 87.85 166.81 89.89 L 166.48 90.65 C 165.82 96.23 167.04 101.85 166.34 107.43 C 165.76 112.13 164.08 116.61 162.37 121.00 C 167.24 120.30 171.99 119.00 176.55 117.14 C 172.63 120.82 167.22 121.74 162.06 122.06 C 157.74 127.69 153.65 133.57 148.41 138.41 C 146.98 139.56 145.33 141.14 143.32 140.68 C 140.08 138.75 138.08 135.35 135.01 133.19 C 133.73 134.19 132.59 135.34 131.44 136.48 C 130.69 136.18 129.94 135.88 129.19 135.59 C 130.55 134.10 131.92 132.61 133.28 131.11 C 130.42 127.65 127.20 124.50 123.71 121.67 C 122.47 123.37 121.02 124.99 120.32 127.00 C 120.82 128.82 121.82 130.44 122.85 132.01 C 121.23 131.37 119.62 130.72 118.00 130.09 C 113.99 132.27 109.52 133.30 104.96 133.31 C 101.51 133.02 99.37 136.04 97.00 138.01 C 94.08 140.77 90.15 142.68 88.44 146.52 C 87.02 149.66 84.45 152.40 80.96 153.12 C 76.97 153.76 72.63 153.10 69.23 150.81 C 62.33 146.50 58.48 138.67 56.80 130.96 C 55.46 124.38 63.27 122.22 67.68 119.67 C 63.41 116.17 57.06 116.69 53.19 112.73 L 52.71 112.10 C 58.60 113.04 64.07 115.77 69.97 116.54 C 72.36 115.77 74.27 114.02 76.19 112.47 C 80.63 109.58 79.81 103.13 84.07 100.18 C 85.63 98.96 87.33 97.91 88.74 96.51 C 90.27 91.55 85.48 86.16 88.39 81.39 C 91.11 78.25 95.51 77.49 99.23 76.05 C 102.20 75.75 105.19 75.89 108.18 75.98 C 109.22 69.54 109.20 62.64 106.43 56.62 C 105.30 53.83 101.79 54.30 99.38 53.64 C 95.46 53.09 91.57 52.27 87.83 50.98 C 87.28 50.55 86.17 49.69 85.62 49.26 L 86.56 49.30 C 91.78 49.70 96.79 51.30 101.92 52.18 C 102.27 50.50 102.62 48.83 102.91 47.14 C 103.28 43.27 104.39 38.64 101.60 35.38 C 99.72 33.20 97.41 31.21 94.63 30.33 C 92.16 29.99 89.69 30.64 87.24 30.92 C 85.03 29.08 82.60 27.51 79.95 26.36 C 80.21 26.01 80.74 25.31 81.00 24.96 C 85.83 25.89 90.53 27.44 95.38 28.21 C 97.22 28.65 98.12 26.50 99.36 25.55 C 96.61 23.92 93.86 22.27 90.97 20.92 L 90.98 19.98 M 97.78 29.91 C 99.04 30.24 100.30 30.56 101.56 30.89 C 102.10 29.93 102.64 28.97 103.19 28.02 C 102.80 27.49 102.04 26.42 101.66 25.89 C 100.36 27.23 99.06 28.55 97.78 29.91 M 110.71 76.63 C 117.44 79.52 123.56 83.45 129.27 88.02 C 125.42 81.28 119.50 75.84 112.59 72.33 C 111.95 73.76 111.32 75.19 110.71 76.63 M 93.60 82.63 C 91.05 88.55 90.50 95.07 90.22 101.43 C 98.22 101.98 106.15 104.73 111.95 110.43 C 113.12 111.40 114.11 113.15 115.87 112.82 C 118.30 112.25 119.97 110.01 121.09 107.92 C 123.02 109.25 124.95 110.58 126.89 111.92 C 131.04 108.09 132.65 102.66 133.14 97.19 C 131.37 101.02 127.86 103.32 124.09 104.86 C 123.86 103.95 123.63 103.04 123.41 102.13 C 122.25 101.84 121.10 101.55 119.94 101.28 C 118.17 98.70 116.52 95.43 118.32 92.40 C 119.54 89.26 123.12 88.77 125.98 88.09 C 119.57 82.39 111.42 78.86 102.98 77.58 C 99.29 77.21 94.92 78.91 93.60 82.63 M 89.12 88.39 C 90.82 85.99 91.61 83.12 92.02 80.23 C 88.49 81.52 88.39 85.27 89.12 88.39 M 120.37 92.31 C 122.15 93.59 124.13 94.58 126.29 95.07 C 126.76 95.99 127.34 96.86 127.89 97.75 C 127.08 97.46 126.27 97.17 125.47 96.88 C 123.52 96.22 121.42 93.34 119.41 95.07 C 119.71 97.64 121.71 99.30 123.62 100.77 C 126.73 101.22 129.53 99.05 129.72 95.88 C 130.16 92.94 126.92 91.73 125.00 90.33 C 123.45 90.98 121.91 91.63 120.37 92.31 M 67.91 121.45 C 68.48 121.69 69.62 122.16 70.19 122.40 C 66.43 123.01 62.30 123.39 59.37 126.08 C 61.81 126.71 64.29 127.21 66.79 127.50 C 65.87 128.15 64.94 128.80 64.01 129.44 C 65.53 137.36 71.07 145.05 79.01 147.41 C 79.40 146.16 79.75 144.89 80.06 143.62 C 80.35 144.33 80.92 145.76 81.21 146.48 C 82.22 147.72 83.23 148.96 84.25 150.20 C 86.50 148.13 87.56 145.26 88.29 142.37 C 91.07 140.00 94.75 138.21 96.49 134.90 C 96.11 130.37 93.61 126.39 91.26 122.63 C 89.29 120.24 87.16 117.98 85.05 115.71 C 83.18 114.74 81.36 113.24 79.16 113.27 C 75.09 115.52 71.73 118.83 67.91 121.45 Z" />
</g>
<g id="#125e95ff">
<path fill="#125e95" opacity="1.00" d=" M 83.37 21.20 C 85.90 21.04 88.43 20.89 90.97 20.92 C 93.86 22.27 96.61 23.92 99.36 25.55 C 98.12 26.50 97.22 28.65 95.38 28.21 C 90.53 27.44 85.83 25.89 81.00 24.96 C 81.83 23.73 82.59 22.46 83.37 21.20 Z" />
</g>
<g id="#1c3166ff">
<path fill="#1c3166" opacity="1.00" d=" M 97.78 29.91 C 99.06 28.55 100.36 27.23 101.66 25.89 C 102.04 26.42 102.80 27.49 103.19 28.02 C 102.64 28.97 102.10 29.93 101.56 30.89 C 100.30 30.56 99.04 30.24 97.78 29.91 Z" />
</g>
<g id="#d23738ff">
<path fill="#d23738" opacity="1.00" d=" M 66.49 38.89 C 69.40 33.21 74.90 29.88 79.95 26.36 C 82.60 27.51 85.03 29.08 87.24 30.92 C 89.69 30.64 92.16 29.99 94.63 30.33 C 97.41 31.21 99.72 33.20 101.60 35.38 C 104.39 38.64 103.28 43.27 102.91 47.14 C 98.25 47.37 93.57 46.91 89.05 45.77 C 81.43 43.84 73.68 42.16 66.49 38.89 Z" />
</g>
<g id="#b53436ff">
<path fill="#b53436" opacity="1.00" d=" M 64.45 42.22 C 65.12 41.11 65.79 39.99 66.49 38.89 C 73.68 42.16 81.43 43.84 89.05 45.77 C 93.57 46.91 98.25 47.37 102.91 47.14 C 102.62 48.83 102.27 50.50 101.92 52.18 C 96.79 51.30 91.78 49.70 86.56 49.30 C 79.42 46.22 71.56 45.40 64.45 42.22 Z" />
</g>
<g id="#f5f8f5ff">
<path fill="#f5f8f5" opacity="1.00" d=" M 51.79 58.73 C 53.40 52.68 57.66 47.86 61.88 43.44 C 69.70 45.66 77.43 48.80 85.62 49.26 C 86.17 49.69 87.28 50.55 87.83 50.98 C 88.33 51.49 89.32 52.50 89.82 53.00 C 84.79 54.33 79.95 51.98 75.12 50.95 C 71.05 50.04 67.10 48.64 62.99 47.89 C 61.60 47.56 60.33 48.55 59.34 49.39 C 58.64 57.33 60.02 66.09 55.65 73.21 C 54.79 72.07 53.92 70.95 53.11 69.78 C 51.75 66.30 50.80 62.43 51.79 58.73 Z" />
</g>
<g id="#383b31ff">
<path fill="#383b31" opacity="1.00" d=" M 59.34 49.39 C 60.33 48.55 61.60 47.56 62.99 47.89 C 67.10 48.64 71.05 50.04 75.12 50.95 C 79.95 51.98 84.79 54.33 89.82 53.00 C 92.19 54.08 95.43 55.62 94.59 58.82 C 92.12 64.89 87.22 69.75 85.16 76.04 C 84.39 78.54 84.57 81.25 83.64 83.71 C 82.60 84.33 81.48 84.80 80.38 85.30 C 76.50 82.77 72.10 81.17 67.57 80.28 C 62.84 79.26 57.91 79.98 53.22 78.66 C 52.89 78.55 52.24 78.32 51.92 78.21 C 52.14 77.69 52.58 76.64 52.80 76.12 C 51.58 75.68 50.37 75.25 49.17 74.76 C 48.95 74.65 48.52 74.43 48.30 74.32 C 47.98 76.95 47.55 79.56 46.96 82.15 C 47.24 77.69 46.79 72.74 50.30 69.33 C 51.00 69.44 52.40 69.67 53.11 69.78 C 53.92 70.95 54.79 72.07 55.65 73.21 C 60.02 66.09 58.64 57.33 59.34 49.39 M 67.43 51.85 C 67.76 52.30 68.41 53.18 68.74 53.62 C 66.71 55.51 64.12 56.45 61.42 56.85 C 60.64 59.99 59.79 63.12 59.47 66.35 C 58.92 69.72 61.52 72.37 62.75 75.27 C 66.01 79.14 71.39 79.43 76.00 80.37 C 76.12 79.66 76.35 78.24 76.47 77.52 C 77.72 77.12 78.93 76.56 80.15 76.05 C 80.75 76.14 81.95 76.31 82.55 76.40 C 85.56 72.37 87.59 67.70 89.78 63.20 C 88.87 62.78 87.97 62.37 87.07 61.95 C 86.80 61.44 86.25 60.42 85.98 59.90 C 85.82 58.40 85.66 56.91 85.49 55.41 C 79.68 53.38 73.65 51.62 67.43 51.85 M 49.52 73.84 C 50.83 74.19 52.14 74.53 53.45 74.87 C 52.92 73.39 52.38 71.92 51.83 70.45 C 51.06 71.58 50.29 72.71 49.52 73.84 Z" />
</g>
<g id="#d6d8d4ff">
<path fill="#d6d8d4" opacity="1.00" d=" M 87.83 50.98 C 91.57 52.27 95.46 53.09 99.38 53.64 C 101.15 56.09 103.12 58.74 102.83 61.94 C 102.74 66.81 102.29 72.05 99.23 76.05 C 95.51 77.49 91.11 78.25 88.39 81.39 C 85.48 86.16 90.27 91.55 88.74 96.51 C 87.33 97.91 85.63 98.96 84.07 100.18 C 79.81 103.13 80.63 109.58 76.19 112.47 C 76.48 104.43 81.19 97.52 82.42 89.71 C 82.96 87.86 81.59 86.46 80.38 85.30 C 81.48 84.80 82.60 84.33 83.64 83.71 C 84.57 81.25 84.39 78.54 85.16 76.04 C 87.22 69.75 92.12 64.89 94.59 58.82 C 95.43 55.62 92.19 54.08 89.82 53.00 C 89.32 52.50 88.33 51.49 87.83 50.98 Z" />
</g>
<g id="#9b9d97ff">
<path fill="#9b9d97" opacity="1.00" d=" M 67.43 51.85 C 73.65 51.62 79.68 53.38 85.49 55.41 C 85.66 56.91 85.82 58.40 85.98 59.90 C 84.19 57.87 81.70 56.69 79.12 55.99 C 78.14 55.77 77.15 55.58 76.15 55.44 C 75.89 55.58 75.38 55.87 75.12 56.01 C 72.57 57.57 70.10 59.27 67.57 60.86 C 69.26 58.62 71.28 56.66 73.31 54.73 C 71.78 54.39 70.25 54.05 68.74 53.62 C 68.41 53.18 67.76 52.30 67.43 51.85 Z" />
</g>
<g id="#f8faf5ff">
<path fill="#f8faf5" opacity="1.00" d=" M 68.74 53.62 C 70.25 54.05 71.78 54.39 73.31 54.73 C 71.28 56.66 69.26 58.62 67.57 60.86 C 67.44 63.84 67.71 66.83 67.83 69.81 C 67.43 70.08 66.62 70.62 66.21 70.88 C 65.36 71.45 64.52 72.03 63.68 72.62 C 64.70 73.78 65.72 74.94 66.75 76.10 C 65.42 75.82 64.08 75.54 62.75 75.27 C 61.52 72.37 58.92 69.72 59.47 66.35 C 59.79 63.12 60.64 59.99 61.42 56.85 C 64.12 56.45 66.71 55.51 68.74 53.62 Z" />
</g>
<g id="#aaababff">
<path fill="#aaabab" opacity="1.00" d=" M 99.38 53.64 C 101.79 54.30 105.30 53.83 106.43 56.62 C 109.20 62.64 109.22 69.54 108.18 75.98 C 105.19 75.89 102.20 75.75 99.23 76.05 C 102.29 72.05 102.74 66.81 102.83 61.94 C 103.12 58.74 101.15 56.09 99.38 53.64 Z" />
</g>
<g id="#767b78ff">
<path fill="#767b78" opacity="1.00" d=" M 75.12 56.01 C 75.38 55.87 75.89 55.58 76.15 55.44 C 77.15 55.58 78.14 55.77 79.12 55.99 C 79.28 56.73 79.61 58.20 79.77 58.94 C 77.95 60.10 76.13 61.27 74.33 62.46 C 75.11 67.71 74.58 73.15 71.30 77.51 C 73.02 77.55 74.74 77.60 76.47 77.52 C 76.35 78.24 76.12 79.66 76.00 80.37 C 71.39 79.43 66.01 79.14 62.75 75.27 C 64.08 75.54 65.42 75.82 66.75 76.10 C 65.72 74.94 64.70 73.78 63.68 72.62 C 64.52 72.03 65.36 71.45 66.21 70.88 C 67.21 72.73 68.44 74.44 69.77 76.06 C 70.96 74.47 72.45 73.01 73.16 71.12 C 73.44 68.31 72.51 65.51 72.79 62.70 C 73.91 60.83 75.58 59.38 77.08 57.82 C 76.43 57.21 75.78 56.61 75.12 56.01 Z" />
</g>
<g id="#f5e146ff">
<path fill="#f5e146" opacity="1.00" d=" M 75.12 56.01 C 75.78 56.61 76.43 57.21 77.08 57.82 C 75.58 59.38 73.91 60.83 72.79 62.70 C 72.51 65.51 73.44 68.31 73.16 71.12 C 72.45 73.01 70.96 74.47 69.77 76.06 C 68.44 74.44 67.21 72.73 66.21 70.88 C 66.62 70.62 67.43 70.08 67.83 69.81 C 68.35 69.47 69.38 68.79 69.90 68.45 C 69.11 65.92 68.33 63.39 67.57 60.86 C 70.10 59.27 72.57 57.57 75.12 56.01 Z" />
<path fill="#f5e146" opacity="1.00" d=" M 23.03 74.13 C 20.41 71.46 22.86 68.32 24.48 65.88 C 23.91 68.61 23.44 71.37 23.03 74.13 Z" />
</g>
<g id="#f9faf7ff">
<path fill="#f9faf7" opacity="1.00" d=" M 79.12 55.99 C 81.70 56.69 84.19 57.87 85.98 59.90 C 86.25 60.42 86.80 61.44 87.07 61.95 C 84.36 66.44 82.05 71.16 80.15 76.05 C 78.93 76.56 77.72 77.12 76.47 77.52 C 74.74 77.60 73.02 77.55 71.30 77.51 C 74.58 73.15 75.11 67.71 74.33 62.46 C 76.13 61.27 77.95 60.10 79.77 58.94 C 79.61 58.20 79.28 56.73 79.12 55.99 Z" />
</g>
<g id="#3f4646ff">
<path fill="#3f4646" opacity="1.00" d=" M 39.38 60.22 C 42.00 56.51 46.71 56.71 50.76 56.91 C 49.66 58.79 48.47 60.61 47.20 62.39 C 44.62 61.58 42.01 60.86 39.38 60.22 Z" />
</g>
<g id="#fcfcfaff">
<path fill="#fcfcfa" opacity="1.00" d=" M 28.57 63.57 C 30.66 59.64 35.59 59.88 39.38 60.22 C 42.01 60.86 44.62 61.58 47.20 62.39 C 47.52 62.50 48.15 62.72 48.46 62.82 C 43.88 69.06 41.71 76.58 40.94 84.20 C 36.23 83.02 31.37 83.73 26.70 84.76 C 24.74 77.82 25.03 69.95 28.57 63.57 Z" />
</g>
<g id="#4d4f51ff">
<path fill="#4d4f51" opacity="1.00" d=" M 67.83 69.81 C 67.71 66.83 67.44 63.84 67.57 60.86 C 68.33 63.39 69.11 65.92 69.90 68.45 C 69.38 68.79 68.35 69.47 67.83 69.81 Z" />
<path fill="#4d4f51" opacity="1.00" d=" M 15.97 89.40 C 18.57 90.62 20.49 92.74 21.53 95.41 C 20.66 95.98 19.80 96.59 18.95 97.21 C 17.98 96.86 17.00 96.51 16.03 96.17 C 15.97 93.91 15.96 91.65 15.97 89.40 Z" />
</g>
<g id="#d3d5d1ff">
<path fill="#d3d5d1" opacity="1.00" d=" M 87.07 61.95 C 87.97 62.37 88.87 62.78 89.78 63.20 C 87.59 67.70 85.56 72.37 82.55 76.40 C 81.95 76.31 80.75 76.14 80.15 76.05 C 82.05 71.16 84.36 66.44 87.07 61.95 Z" />
</g>
<g id="#dadbd6ff">
<path fill="#dadbd6" opacity="1.00" d=" M 48.46 62.82 C 49.26 64.93 49.81 67.13 50.30 69.33 C 46.79 72.74 47.24 77.69 46.96 82.15 C 46.72 83.33 46.43 84.50 46.15 85.68 C 44.42 85.16 42.69 84.64 40.94 84.20 C 41.71 76.58 43.88 69.06 48.46 62.82 Z" />
</g>
<g id="#c78d49ff">
<path fill="#c78d49" opacity="1.00" d=" M 49.52 73.84 C 50.29 72.71 51.06 71.58 51.83 70.45 C 52.38 71.92 52.92 73.39 53.45 74.87 C 52.14 74.53 50.83 74.19 49.52 73.84 Z" />
</g>
<g id="#676d6bff">
<path fill="#676d6b" opacity="1.00" d=" M 110.71 76.63 C 111.32 75.19 111.95 73.76 112.59 72.33 C 119.50 75.84 125.42 81.28 129.27 88.02 C 123.56 83.45 117.44 79.52 110.71 76.63 Z" />
</g>
<g id="#ab773dff">
<path fill="#ab773d" opacity="1.00" d=" M 49.17 74.76 C 50.37 75.25 51.58 75.68 52.80 76.12 C 52.58 76.64 52.14 77.69 51.92 78.21 C 51.43 78.02 50.46 77.64 49.97 77.45 C 49.77 76.78 49.37 75.44 49.17 74.76 Z" />
</g>
<g id="#f3f4f1ff">
<path fill="#f3f4f1" opacity="1.00" d=" M 93.60 82.63 C 94.92 78.91 99.29 77.21 102.98 77.58 C 111.42 78.86 119.57 82.39 125.98 88.09 C 123.12 88.77 119.54 89.26 118.32 92.40 C 116.52 95.43 118.17 98.70 119.94 101.28 C 117.54 104.55 114.84 107.59 111.95 110.43 C 106.15 104.73 98.22 101.98 90.22 101.43 C 90.50 95.07 91.05 88.55 93.60 82.63 Z" />
</g>
<g id="#f8faf7ff">
<path fill="#f8faf7" opacity="1.00" d=" M 53.22 78.66 C 57.91 79.98 62.84 79.26 67.57 80.28 C 72.10 81.17 76.50 82.77 80.38 85.30 C 81.59 86.46 82.96 87.86 82.42 89.71 C 81.19 97.52 76.48 104.43 76.19 112.47 C 74.27 114.02 72.36 115.77 69.97 116.54 C 64.07 115.77 58.60 113.04 52.71 112.10 C 50.60 109.38 49.27 106.10 48.91 102.67 C 48.19 96.82 47.99 90.86 48.76 85.01 C 48.91 82.16 51.35 80.45 53.22 78.66 Z" />
</g>
<g id="#b49b61ff">
<path fill="#b49b61" opacity="1.00" d=" M 89.12 88.39 C 88.39 85.27 88.49 81.52 92.02 80.23 C 91.61 83.12 90.82 85.99 89.12 88.39 Z" />
</g>
<g id="#585852ff">
<path fill="#585852" opacity="1.00" d=" M 180.65 94.68 C 185.13 93.45 188.79 90.56 191.79 87.11 C 191.52 88.50 191.25 89.90 190.99 91.31 C 192.27 89.93 193.55 88.55 194.82 87.16 C 194.75 90.38 194.72 93.59 194.76 96.81 L 194.16 96.55 C 190.61 94.41 185.49 93.71 182.66 97.40 C 181.48 100.81 182.48 104.49 183.06 107.93 C 182.46 108.66 181.87 109.39 181.28 110.12 C 181.58 110.44 182.20 111.09 182.50 111.41 L 182.92 111.85 C 182.21 111.86 180.78 111.89 180.07 111.91 C 179.89 106.16 180.13 100.40 180.65 94.68 Z" />
</g>
<g id="#d5c496ff">
<path fill="#d5c496" opacity="1.00" d=" M 120.37 92.31 C 121.91 91.63 123.45 90.98 125.00 90.33 C 125.41 91.91 125.81 93.50 126.29 95.07 C 124.13 94.58 122.15 93.59 120.37 92.31 Z" />
</g>
<g id="#bf8c45ff">
<path fill="#bf8c45" opacity="1.00" d=" M 125.00 90.33 C 126.92 91.73 130.16 92.94 129.72 95.88 C 129.53 99.05 126.73 101.22 123.62 100.77 C 124.24 99.47 124.85 98.17 125.47 96.88 C 126.27 97.17 127.08 97.46 127.89 97.75 C 127.34 96.86 126.76 95.99 126.29 95.07 C 125.81 93.50 125.41 91.91 125.00 90.33 Z" />
</g>
<g id="#c93f3dff">
<path fill="#c93f3d" opacity="1.00" d=" M 166.34 107.43 C 167.04 101.85 165.82 96.23 166.48 90.65 C 170.32 91.50 176.35 90.58 177.94 95.19 C 179.62 99.23 176.61 103.05 176.27 107.02 C 176.07 110.40 176.50 113.77 176.55 117.14 C 171.99 119.00 167.24 120.30 162.37 121.00 C 164.08 116.61 165.76 112.13 166.34 107.43 Z" />
</g>
<g id="#b33942ff">
<path fill="#b33942" opacity="1.00" d=" M 21.53 95.41 C 24.65 93.18 28.79 92.11 31.96 94.87 C 31.27 94.98 29.89 95.21 29.20 95.33 C 30.80 97.11 32.40 98.90 34.00 100.69 C 34.77 100.12 35.55 99.55 36.32 98.98 C 38.75 102.02 40.95 105.76 40.59 109.78 C 38.23 114.13 33.52 116.65 29.06 118.45 C 28.40 117.14 27.75 115.82 27.07 114.52 L 26.74 113.90 C 24.83 111.07 22.83 108.32 20.71 105.65 C 21.98 105.93 23.27 106.14 24.55 106.36 C 25.47 105.84 26.39 105.32 27.32 104.82 C 29.28 103.80 31.29 102.87 33.28 101.92 C 31.61 100.14 29.92 98.35 27.95 96.89 C 27.33 96.67 26.71 96.45 26.09 96.24 C 24.35 98.86 22.38 101.34 20.01 103.41 C 18.64 102.10 17.27 100.78 15.92 99.46 C 16.93 98.71 17.94 97.96 18.95 97.21 C 19.80 96.59 20.66 95.98 21.53 95.41 Z" />
</g>
<g id="#eadebcff">
<path fill="#eadebc" opacity="1.00" d=" M 119.41 95.07 C 121.42 93.34 123.52 96.22 125.47 96.88 C 124.85 98.17 124.24 99.47 123.62 100.77 C 121.71 99.30 119.71 97.64 119.41 95.07 Z" />
</g>
<g id="#c9cac2ff">
<path fill="#c9cac2" opacity="1.00" d=" M 182.66 97.40 C 185.49 93.71 190.61 94.41 194.16 96.55 C 192.64 103.00 188.19 108.18 182.50 111.41 C 182.20 111.09 181.58 110.44 181.28 110.12 C 181.87 109.39 182.46 108.66 183.06 107.93 C 182.48 104.49 181.48 100.81 182.66 97.40 Z" />
</g>
<g id="#eec5c2ff">
<path fill="#eec5c2" opacity="1.00" d=" M 29.20 95.33 C 29.89 95.21 31.27 94.98 31.96 94.87 C 33.48 96.17 34.94 97.54 36.32 98.98 C 35.55 99.55 34.77 100.12 34.00 100.69 C 32.40 98.90 30.80 97.11 29.20 95.33 Z" />
<path fill="#eec5c2" opacity="1.00" d=" M 25.25 99.87 C 26.15 98.88 27.04 97.88 27.95 96.89 C 29.92 98.35 31.61 100.14 33.28 101.92 C 31.29 102.87 29.28 103.80 27.32 104.82 C 26.63 103.17 25.94 101.52 25.25 99.87 Z" />
</g>
<g id="#e2a2a9ff">
<path fill="#e2a2a9" opacity="1.00" d=" M 26.09 96.24 C 26.71 96.45 27.33 96.67 27.95 96.89 C 27.04 97.88 26.15 98.88 25.25 99.87 C 25.94 101.52 26.63 103.17 27.32 104.82 C 26.39 105.32 25.47 105.84 24.55 106.36 C 23.27 106.14 21.98 105.93 20.71 105.65 C 20.15 105.20 19.59 104.75 19.02 104.31 C 19.27 104.09 19.76 103.64 20.01 103.41 C 22.38 101.34 24.35 98.86 26.09 96.24 Z" />
</g>
<g id="#5c5c5aff">
<path fill="#5c5c5a" opacity="1.00" d=" M 124.09 104.86 C 127.86 103.32 131.37 101.02 133.14 97.19 C 132.65 102.66 131.04 108.09 126.89 111.92 C 124.95 110.58 123.02 109.25 121.09 107.92 C 121.96 106.03 122.68 104.08 123.41 102.13 C 123.63 103.04 123.86 103.95 124.09 104.86 Z" />
</g>
<g id="#434749ff">
<path fill="#434749" opacity="1.00" d=" M 5.61 100.95 C 6.80 100.19 7.99 99.41 9.17 98.64 C 11.21 99.53 13.27 100.41 15.21 101.50 C 13.94 102.52 12.67 103.53 11.43 104.59 L 10.84 105.14 C 9.08 104.66 7.32 104.17 5.56 103.68 C 5.58 102.77 5.59 101.86 5.61 100.95 Z" />
</g>
<g id="#c2c4c1ff">
<path fill="#c2c4c1" opacity="1.00" d=" M 119.94 101.28 C 121.10 101.55 122.25 101.84 123.41 102.13 C 122.68 104.08 121.96 106.03 121.09 107.92 C 119.97 110.01 118.30 112.25 115.87 112.82 C 114.11 113.15 113.12 111.40 111.95 110.43 C 114.84 107.59 117.54 104.55 119.94 101.28 Z" />
</g>
<g id="#e0e3dfff">
<path fill="#e0e3df" opacity="1.00" d=" M 11.43 104.59 C 12.67 103.53 13.94 102.52 15.21 101.50 C 16.52 102.39 17.78 103.34 19.02 104.31 C 19.59 104.75 20.15 105.20 20.71 105.65 C 22.83 108.32 24.83 111.07 26.74 113.90 C 24.95 114.99 23.15 116.08 21.34 117.16 C 19.44 112.03 15.61 107.98 11.43 104.59 Z" />
</g>
<g id="#203b7eff">
<path fill="#203b7e" opacity="1.00" d=" M 10.84 105.14 L 11.43 104.59 C 15.61 107.98 19.44 112.03 21.34 117.16 C 21.52 117.87 21.87 119.31 22.05 120.03 C 20.33 120.01 18.37 120.33 16.96 119.10 C 13.75 116.59 10.99 113.30 9.59 109.44 C 8.88 107.87 10.17 106.46 10.84 105.14 Z" />
</g>
<g id="#575550ff">
<path fill="#575550" opacity="1.00" d=" M 42.89 111.00 C 44.47 109.16 46.13 107.39 47.86 105.68 C 48.25 107.56 48.62 109.43 49.00 111.31 C 46.96 111.22 44.92 111.12 42.89 111.00 Z" />
</g>
<g id="#c73d4cff">
<path fill="#c73d4c" opacity="1.00" d=" M 67.91 121.45 C 71.73 118.83 75.09 115.52 79.16 113.27 C 81.36 113.24 83.18 114.74 85.05 115.71 C 84.28 117.02 83.50 118.33 82.73 119.64 C 81.00 119.27 79.27 118.91 77.55 118.54 C 78.21 120.28 78.89 122.02 79.58 123.75 C 77.99 123.93 76.40 124.12 74.81 124.32 C 73.30 123.60 71.75 122.98 70.19 122.40 C 69.62 122.16 68.48 121.69 67.91 121.45 Z" />
</g>
<g id="#8c9090ff">
<path fill="#8c9090" opacity="1.00" d=" M 26.74 113.90 L 27.07 114.52 C 26.84 116.02 26.72 117.63 25.90 118.96 C 24.77 119.73 23.46 120.16 22.22 120.71 L 22.05 120.03 C 21.87 119.31 21.52 117.87 21.34 117.16 C 23.15 116.08 24.95 114.99 26.74 113.90 Z" />
</g>
<g id="#383b3cff">
<path fill="#383b3c" opacity="1.00" d=" M 27.07 114.52 C 27.75 115.82 28.40 117.14 29.06 118.45 C 27.52 121.34 25.85 124.17 23.96 126.85 C 23.33 124.81 22.73 122.77 22.22 120.71 C 23.46 120.16 24.77 119.73 25.90 118.96 C 26.72 117.63 26.84 116.02 27.07 114.52 Z" />
</g>
<g id="#e9d0cbff">
<path fill="#e9d0cb" opacity="1.00" d=" M 82.73 119.64 C 83.50 118.33 84.28 117.02 85.05 115.71 C 87.16 117.98 89.29 120.24 91.26 122.63 C 89.67 122.93 88.09 123.24 86.50 123.54 C 86.09 124.89 85.67 126.23 85.25 127.57 C 84.21 127.16 83.18 126.74 82.14 126.33 C 82.11 126.98 82.08 127.63 82.05 128.28 C 81.50 128.64 80.41 129.37 79.86 129.73 C 78.44 127.70 76.70 125.91 74.81 124.32 C 76.40 124.12 77.99 123.93 79.58 123.75 C 78.89 122.02 78.21 120.28 77.55 118.54 C 79.27 118.91 81.00 119.27 82.73 119.64 Z" />
</g>
<g id="#555555ff">
<path fill="#555555" opacity="1.00" d=" M 70.19 122.40 C 71.75 122.98 73.30 123.60 74.81 124.32 C 76.70 125.91 78.44 127.70 79.86 129.73 C 79.96 130.07 80.16 130.76 80.26 131.11 C 77.47 129.07 74.80 126.75 71.61 125.36 C 69.69 124.50 68.29 126.66 66.79 127.50 C 64.29 127.21 61.81 126.71 59.37 126.08 C 62.30 123.39 66.43 123.01 70.19 122.40 Z" />
</g>
<g id="#5c5d5cff">
<path fill="#5c5d5c" opacity="1.00" d=" M 120.32 127.00 C 121.02 124.99 122.47 123.37 123.71 121.67 C 127.20 124.50 130.42 127.65 133.28 131.11 C 131.92 132.61 130.55 134.10 129.19 135.59 C 127.03 134.49 124.76 133.53 122.85 132.01 C 121.82 130.44 120.82 128.82 120.32 127.00 Z" />
</g>
<g id="#b03b42ff">
<path fill="#b03b42" opacity="1.00" d=" M 86.50 123.54 C 88.09 123.24 89.67 122.93 91.26 122.63 C 93.61 126.39 96.11 130.37 96.49 134.90 C 94.75 138.21 91.07 140.00 88.29 142.37 C 86.11 138.78 83.72 135.33 81.00 132.14 C 80.81 131.88 80.45 131.37 80.26 131.11 C 80.16 130.76 79.96 130.07 79.86 129.73 C 80.41 129.37 81.50 128.64 82.05 128.28 C 82.08 127.63 82.11 126.98 82.14 126.33 C 83.18 126.74 84.21 127.16 85.25 127.57 C 85.67 126.23 86.09 124.89 86.50 123.54 Z" />
</g>
<g id="#e2e3dfff">
<path fill="#e2e3df" opacity="1.00" d=" M 66.79 127.50 C 68.29 126.66 69.69 124.50 71.61 125.36 C 74.80 126.75 77.47 129.07 80.26 131.11 C 80.45 131.37 80.81 131.88 81.00 132.14 C 82.55 135.21 84.33 138.33 84.69 141.81 C 83.86 143.58 82.45 144.99 81.21 146.48 C 80.92 145.76 80.35 144.33 80.06 143.62 C 77.88 136.75 72.85 131.24 66.79 127.50 Z" />
</g>
<g id="#223a7fff">
<path fill="#223a7f" opacity="1.00" d=" M 66.79 127.50 C 72.85 131.24 77.88 136.75 80.06 143.62 C 79.75 144.89 79.40 146.16 79.01 147.41 C 71.07 145.05 65.53 137.36 64.01 129.44 C 64.94 128.80 65.87 128.15 66.79 127.50 Z" />
</g>
<g id="#5d6263ff">
<path fill="#5d6263" opacity="1.00" d=" M 81.00 132.14 C 83.72 135.33 86.11 138.78 88.29 142.37 C 87.56 145.26 86.50 148.13 84.25 150.20 C 83.23 148.96 82.22 147.72 81.21 146.48 C 82.45 144.99 83.86 143.58 84.69 141.81 C 84.33 138.33 82.55 135.21 81.00 132.14 Z" />
</g>
</svg>
