<?xml version="1.0" encoding="UTF-8" ?>
<!DOCTYPE svg PUBLIC "-//W3C//DTD SVG 1.1//EN" "http://www.w3.org/Graphics/SVG/1.1/DTD/svg11.dtd">
<svg width="341pt" height="341pt" viewBox="0 0 341 341" version="1.1" xmlns="http://www.w3.org/2000/svg">
<g id="#33433eff">
</g>
<g id="#d5e8eeff">
<path fill="#d5e8ee" opacity="1.00" d=" M 215.92 20.22 C 229.39 20.12 242.86 19.91 256.33 20.08 C 256.44 21.45 256.55 22.81 256.66 24.17 C 243.79 26.06 230.76 25.58 217.82 26.57 C 210.03 27.04 202.21 26.75 194.42 27.40 C 184.95 28.18 175.45 27.69 165.96 28.08 C 153.63 28.40 141.31 28.93 128.97 29.01 C 117.97 29.14 106.76 31.35 95.92 28.49 C 101.14 23.57 108.64 26.06 114.97 24.98 C 120.53 23.77 126.29 24.92 131.83 23.55 C 137.44 22.22 143.25 21.64 149.01 22.09 C 154.37 22.61 159.56 20.73 164.95 20.96 C 179.29 21.16 193.65 21.11 208.00 21.15 C 210.63 20.80 213.24 20.15 215.92 20.22 Z" />
</g>
<g id="#b8d8e9ff">
<path fill="#b8d8e9" opacity="1.00" d=" M 256.33 20.08 C 257.03 20.13 258.43 20.23 259.13 20.27 C 259.02 20.81 258.80 21.89 258.69 22.43 C 256.57 32.85 257.18 43.60 255.20 54.05 C 251.40 65.34 252.06 77.46 250.08 89.11 C 249.20 98.47 244.56 106.77 240.66 115.13 C 240.17 112.93 239.67 110.74 239.29 108.53 C 240.45 89.57 242.71 70.70 243.94 51.75 C 244.33 45.42 246.00 39.02 244.75 32.69 C 240.35 30.98 235.56 31.32 230.94 31.52 C 217.40 32.41 203.84 33.06 190.27 33.33 C 184.85 33.04 179.42 32.60 173.99 32.90 C 154.02 34.11 134.00 33.46 114.03 34.67 C 110.52 34.85 106.95 34.67 103.52 35.53 C 102.05 35.68 101.75 37.16 101.41 38.31 C 100.32 42.18 100.21 46.25 99.08 50.11 C 97.87 54.17 94.67 57.34 93.77 61.53 C 92.90 65.28 92.32 69.19 90.19 72.49 C 87.66 66.16 90.67 59.44 90.32 52.92 C 91.69 46.70 89.67 40.16 91.92 34.08 C 92.62 32.08 93.31 30.08 93.90 28.05 C 94.40 28.16 95.42 28.38 95.92 28.49 C 106.76 31.35 117.97 29.14 128.97 29.01 C 141.31 28.93 153.63 28.40 165.96 28.08 C 175.45 27.69 184.95 28.18 194.42 27.40 C 202.21 26.75 210.03 27.04 217.82 26.57 C 230.76 25.58 243.79 26.06 256.66 24.17 C 256.55 22.81 256.44 21.45 256.33 20.08 Z" />
</g>
<g id="#6d9bbfff">
<path fill="#6d9bbf" opacity="1.00" d=" M 258.69 22.43 C 261.69 23.47 265.12 25.28 265.20 28.92 C 265.28 43.06 263.34 57.12 262.04 71.19 C 262.10 78.20 260.70 85.11 260.85 92.13 C 259.70 103.10 259.03 114.10 257.95 125.08 C 257.78 131.07 255.97 136.91 256.18 142.93 C 256.30 147.91 256.57 153.01 254.98 157.82 C 253.68 161.82 254.21 166.19 252.73 170.14 C 252.21 170.27 251.16 170.53 250.64 170.66 C 248.01 170.31 245.36 170.12 242.71 170.01 C 245.02 166.21 246.35 161.90 246.55 157.46 C 247.47 142.86 249.76 128.37 249.97 113.73 C 251.25 104.21 252.23 94.64 252.89 85.06 C 253.55 74.71 255.02 64.43 255.20 54.05 C 257.18 43.60 256.57 32.85 258.69 22.43 Z" />
</g>
<g id="#648ba9ff">
<path fill="#648ba9" opacity="1.00" d=" M 190.27 33.33 C 203.84 33.06 217.40 32.41 230.94 31.52 C 235.56 31.32 240.35 30.98 244.75 32.69 C 234.14 33.90 223.41 33.01 212.79 34.22 C 198.13 34.60 183.51 35.77 168.84 35.70 C 164.97 35.77 161.11 35.94 157.26 36.17 C 139.65 36.43 122.05 37.14 104.48 38.24 C 104.21 41.76 104.05 45.28 103.82 48.81 C 102.33 60.82 102.03 72.93 101.07 84.99 C 100.74 90.47 100.23 95.94 99.92 101.42 C 99.56 116.67 96.97 131.80 97.35 147.07 C 96.93 146.98 96.09 146.79 95.66 146.70 C 94.06 140.17 95.28 133.46 95.69 126.87 C 96.42 118.19 96.92 109.50 97.14 100.79 C 99.69 79.79 99.90 58.57 102.54 37.57 C 110.65 36.48 118.83 36.39 126.99 36.22 C 148.08 35.11 169.20 34.75 190.27 33.33 Z" />
</g>
<g id="#a8cde2ff">
<path fill="#a8cde2" opacity="1.00" d=" M 114.03 34.67 C 134.00 33.46 154.02 34.11 173.99 32.90 C 179.42 32.60 184.85 33.04 190.27 33.33 C 169.20 34.75 148.08 35.11 126.99 36.22 C 118.83 36.39 110.65 36.48 102.54 37.57 C 99.90 58.57 99.69 79.79 97.14 100.79 C 95.37 107.70 95.02 114.85 93.76 121.85 C 92.71 128.18 89.58 133.92 88.53 140.25 C 87.87 144.10 87.08 147.98 85.27 151.48 C 83.72 148.58 83.76 145.17 83.27 141.98 C 84.67 135.96 83.15 129.75 84.11 123.68 C 85.65 116.52 86.03 109.19 87.03 101.94 C 87.39 92.90 89.03 83.96 89.13 74.91 C 89.39 74.31 89.92 73.09 90.19 72.49 C 92.32 69.19 92.90 65.28 93.77 61.53 C 94.67 57.34 97.87 54.17 99.08 50.11 C 100.21 46.25 100.32 42.18 101.41 38.31 C 101.75 37.16 102.05 35.68 103.52 35.53 C 106.95 34.67 110.52 34.85 114.03 34.67 Z" />
</g>
<g id="#2e2c5cff">
<path fill="#2e2c5c" opacity="1.00" d=" M 212.79 34.22 C 223.41 33.01 234.14 33.90 244.75 32.69 C 246.00 39.02 244.33 45.42 243.94 51.75 C 242.71 70.70 240.45 89.57 239.29 108.53 C 237.41 122.92 236.91 137.44 235.37 151.87 C 235.12 153.95 234.71 156.05 233.75 157.93 C 230.57 158.73 227.25 158.33 224.03 158.14 C 195.81 155.70 167.60 153.25 139.38 150.97 C 125.39 149.37 111.28 149.10 97.35 147.07 C 96.97 131.80 99.56 116.67 99.92 101.42 C 101.63 102.02 104.19 101.73 105.06 103.66 C 106.26 106.70 106.37 110.04 106.56 113.27 C 105.79 122.30 105.29 131.34 105.15 140.41 C 145.26 143.42 185.34 146.82 225.47 149.54 C 227.34 135.42 227.93 121.16 229.37 107.00 C 231.09 87.13 232.56 67.26 234.56 47.42 C 232.27 45.79 229.98 43.74 227.04 43.59 C 220.44 43.18 213.82 43.70 207.23 44.03 C 196.87 43.93 186.50 43.65 176.14 44.10 C 173.58 42.08 170.99 40.07 168.41 38.08 C 168.51 37.48 168.73 36.29 168.84 35.70 C 183.51 35.77 198.13 34.60 212.79 34.22 Z" />
</g>
<g id="#476095ff">
<path fill="#476095" opacity="1.00" d=" M 104.48 38.24 C 122.05 37.14 139.65 36.43 157.26 36.17 C 153.50 36.53 149.76 37.10 146.01 37.55 C 150.60 39.44 155.07 41.67 159.84 43.12 C 165.11 44.75 170.70 44.33 176.14 44.10 C 186.50 43.65 196.87 43.93 207.23 44.03 C 195.45 45.34 183.58 44.15 171.78 45.10 C 163.29 45.27 154.78 45.58 146.30 45.05 C 136.54 40.41 125.15 39.73 114.83 42.82 C 110.34 44.21 107.12 47.82 103.70 50.84 C 103.73 50.33 103.79 49.32 103.82 48.81 C 104.05 45.28 104.21 41.76 104.48 38.24 Z" />
</g>
<g id="#324480ff">
<path fill="#324480" opacity="1.00" d=" M 157.26 36.17 C 161.11 35.94 164.97 35.77 168.84 35.70 C 168.73 36.29 168.51 37.48 168.41 38.08 C 170.99 40.07 173.58 42.08 176.14 44.10 C 170.70 44.33 165.11 44.75 159.84 43.12 C 155.07 41.67 150.60 39.44 146.01 37.55 C 149.76 37.10 153.50 36.53 157.26 36.17 Z" />
</g>
<g id="#5773a8ff">
<path fill="#5773a8" opacity="1.00" d=" M 114.83 42.82 C 125.15 39.73 136.54 40.41 146.30 45.05 C 139.78 45.09 133.27 45.51 126.77 45.79 C 121.79 46.18 116.47 45.63 111.83 47.75 C 108.74 56.53 109.61 66.07 109.20 75.23 C 108.74 80.05 108.55 84.89 108.44 89.74 C 108.25 92.57 107.83 95.39 107.63 98.23 C 107.72 92.84 106.13 87.61 103.34 83.04 C 102.58 83.69 101.83 84.34 101.07 84.99 C 102.03 72.93 102.33 60.82 103.82 48.81 C 103.79 49.32 103.73 50.33 103.70 50.84 C 107.12 47.82 110.34 44.21 114.83 42.82 Z" />
</g>
<g id="#337ebfff">
<path fill="#337ebf" opacity="1.00" d=" M 207.23 44.03 C 213.82 43.70 220.44 43.18 227.04 43.59 C 229.98 43.74 232.27 45.79 234.56 47.42 C 224.44 47.62 214.31 47.27 204.22 48.15 C 195.27 48.05 186.32 48.27 177.37 48.03 C 175.49 47.08 173.67 46.02 171.78 45.10 C 183.58 44.15 195.45 45.34 207.23 44.03 Z" />
</g>
<g id="#56a3d9ff">
<path fill="#56a3d9" opacity="1.00" d=" M 126.77 45.79 C 133.27 45.51 139.78 45.09 146.30 45.05 C 154.78 45.58 163.29 45.27 171.78 45.10 C 173.67 46.02 175.49 47.08 177.37 48.03 C 171.03 48.27 164.64 48.75 158.37 47.52 C 147.97 45.34 137.30 46.16 126.77 45.79 Z" />
</g>
<g id="#86bbe3ff">
<path fill="#86bbe3" opacity="1.00" d=" M 111.83 47.75 C 116.47 45.63 121.79 46.18 126.77 45.79 C 137.30 46.16 147.97 45.34 158.37 47.52 C 164.64 48.75 171.03 48.27 177.37 48.03 C 186.32 48.27 195.27 48.05 204.22 48.15 C 188.41 49.16 172.54 48.44 156.72 49.47 C 141.71 49.74 126.67 49.15 111.70 50.67 C 110.56 58.82 110.18 67.06 109.20 75.23 C 109.61 66.07 108.74 56.53 111.83 47.75 Z" />
</g>
<g id="#e4e5e6ff">
<path fill="#e4e5e6" opacity="1.00" d=" M 204.22 48.15 C 214.31 47.27 224.44 47.62 234.56 47.42 C 232.56 67.26 231.09 87.13 229.37 107.00 C 227.93 121.16 227.34 135.42 225.47 149.54 C 185.34 146.82 145.26 143.42 105.15 140.41 C 105.29 131.34 105.79 122.30 106.56 113.27 C 106.93 108.26 107.45 103.25 107.63 98.23 C 107.83 95.39 108.25 92.57 108.44 89.74 C 108.60 94.69 108.50 99.71 109.59 104.57 C 110.24 107.92 114.41 108.16 117.16 108.56 C 120.10 108.98 122.14 106.45 124.18 104.79 C 124.81 105.01 125.45 105.23 126.08 105.45 C 127.50 103.19 128.88 100.91 130.29 98.64 C 130.44 100.36 130.60 102.08 130.75 103.80 C 132.81 103.90 134.87 104.00 136.94 104.10 C 135.51 102.82 134.08 101.55 132.64 100.30 C 135.98 99.63 139.22 98.61 142.48 97.62 C 137.64 97.35 132.79 97.17 127.98 96.55 C 132.99 93.67 138.75 95.45 144.11 95.99 C 144.28 97.24 144.46 98.49 144.64 99.74 C 146.34 99.62 148.03 99.50 149.73 99.38 C 148.78 98.34 147.82 97.30 146.87 96.26 C 151.46 95.49 156.12 95.35 160.72 94.69 C 162.12 94.34 163.81 94.26 164.88 93.17 C 165.66 89.50 165.38 85.71 165.75 81.99 C 165.73 82.39 165.70 83.18 165.68 83.58 C 165.71 85.06 165.80 86.54 165.94 88.02 L 166.08 88.96 C 176.03 89.30 185.97 90.07 195.94 89.92 C 195.99 87.26 196.04 84.61 196.09 81.96 C 192.67 81.80 189.25 81.67 185.83 81.55 C 188.90 81.03 191.97 80.44 195.06 80.04 L 195.89 79.98 C 195.99 78.04 196.09 76.10 196.21 74.17 C 196.24 73.67 196.31 72.67 196.34 72.17 L 196.41 71.25 C 196.53 69.56 196.64 67.86 196.75 66.16 C 195.59 66.05 194.43 65.96 193.27 65.90 C 189.80 65.67 186.33 65.64 182.86 65.76 C 180.87 65.84 178.88 65.98 176.90 66.12 C 175.88 66.19 174.87 66.26 173.86 66.34 C 173.23 68.41 172.58 70.47 171.93 72.53 C 170.21 72.72 168.50 72.89 166.79 73.12 C 167.31 70.33 167.01 67.16 168.60 64.69 C 171.72 62.81 175.24 61.70 178.40 59.88 C 186.51 59.64 194.62 59.46 202.72 59.77 C 201.45 79.25 199.30 98.67 198.02 118.16 C 187.65 118.75 177.35 117.07 166.99 117.01 C 157.88 116.91 148.78 115.81 139.67 116.58 C 149.13 119.97 159.32 119.62 169.20 120.42 C 178.83 120.27 188.58 121.72 198.11 119.65 C 199.69 117.29 201.69 114.88 204.84 115.10 C 208.02 115.18 211.20 115.23 214.38 115.24 C 214.84 115.24 215.76 115.24 216.22 115.24 C 216.59 115.10 217.32 114.81 217.69 114.67 C 217.84 112.57 217.88 110.47 217.94 108.38 C 216.71 108.18 215.49 107.98 214.26 107.78 C 212.08 107.26 209.94 106.56 207.78 105.97 C 211.26 105.98 214.74 105.81 218.22 105.70 C 218.26 103.79 218.29 101.88 218.32 99.97 C 216.96 99.91 215.59 99.85 214.23 99.79 C 210.34 99.57 206.49 98.95 202.67 98.22 C 207.97 97.78 213.29 97.91 218.60 97.98 L 218.76 97.18 C 219.07 95.33 219.31 93.47 219.57 91.61 C 219.17 91.54 218.37 91.41 217.97 91.35 C 212.97 90.33 208.04 88.98 203.06 87.86 C 202.83 85.50 202.61 83.13 202.42 80.77 C 209.30 80.26 216.21 80.44 223.10 80.63 C 222.18 100.70 219.45 120.63 218.39 140.70 C 201.14 140.05 183.97 138.25 166.74 137.32 C 157.66 136.84 148.63 135.62 139.54 135.50 C 141.98 137.38 144.71 139.13 147.91 139.15 C 159.28 139.68 170.62 140.74 181.99 141.33 C 194.57 142.14 207.11 143.65 219.72 143.78 C 222.00 131.66 221.95 119.29 223.20 107.06 C 223.98 98.29 225.35 89.52 224.92 80.70 C 224.84 78.93 224.75 77.16 224.67 75.39 C 220.20 75.40 215.72 75.43 211.25 75.32 C 208.73 74.94 206.23 74.42 203.73 73.95 C 203.49 67.33 204.45 60.76 204.79 54.17 L 203.83 53.95 C 194.16 53.08 184.48 54.86 174.78 54.31 C 179.25 53.20 183.79 52.43 188.38 52.02 C 178.10 49.02 167.27 50.25 156.72 49.47 C 172.54 48.44 188.41 49.16 204.22 48.15 M 126.51 108.08 C 129.31 110.64 133.04 109.69 136.29 108.78 C 133.18 107.50 129.77 107.09 126.51 108.08 M 165.06 107.91 C 162.22 110.11 158.56 109.48 155.23 109.48 C 159.03 110.61 163.06 110.15 166.97 110.39 C 166.33 109.56 165.70 108.73 165.06 107.91 M 172.68 123.12 C 171.63 124.83 174.66 126.05 175.58 124.56 C 176.62 122.84 173.60 121.62 172.68 123.12 M 155.38 128.66 C 158.89 129.17 162.44 129.34 165.99 129.37 C 166.24 128.72 166.74 127.42 166.99 126.77 C 163.09 126.61 158.18 124.96 155.38 128.66 M 146.12 129.49 C 146.22 130.03 146.43 131.10 146.54 131.64 C 150.65 132.19 154.82 132.42 158.95 131.96 C 154.69 131.05 150.40 130.26 146.12 129.49 M 110.86 131.86 C 109.37 133.91 110.67 136.49 111.63 138.47 C 114.96 138.40 118.29 138.47 121.62 138.53 C 121.62 137.56 121.63 136.60 121.64 135.64 C 120.11 135.24 118.59 134.83 117.08 134.41 C 116.45 133.06 115.82 131.70 114.95 130.50 C 113.42 130.39 111.61 130.15 110.86 131.86 M 175.06 131.52 C 175.00 132.12 174.88 133.31 174.82 133.91 C 179.13 133.94 183.45 134.03 187.75 133.77 C 187.11 132.86 186.41 131.98 185.67 131.16 C 182.13 130.93 178.59 131.41 175.06 131.52 Z" />
</g>
<g id="#fefefeff">
<path fill="#fefefe" opacity="1.00" d=" M 111.70 50.67 C 126.67 49.15 141.71 49.74 156.72 49.47 C 167.27 50.25 178.10 49.02 188.38 52.02 C 183.79 52.43 179.25 53.20 174.78 54.31 C 170.35 54.58 165.90 54.68 161.46 54.76 C 156.97 54.71 152.48 54.64 148.00 54.71 C 141.09 54.78 134.20 55.30 127.31 55.66 C 127.17 56.98 127.24 58.30 127.41 59.61 C 144.41 59.61 161.41 59.43 178.40 59.88 C 175.24 61.70 171.72 62.81 168.60 64.69 C 167.01 67.16 167.31 70.33 166.79 73.12 L 166.66 74.01 C 166.40 75.96 166.16 77.91 165.95 79.87 C 165.90 80.40 165.80 81.46 165.75 81.99 C 165.38 85.71 165.66 89.50 164.88 93.17 C 163.81 94.26 162.12 94.34 160.72 94.69 C 156.12 95.35 151.46 95.49 146.87 96.26 C 147.82 97.30 148.78 98.34 149.73 99.38 C 148.03 99.50 146.34 99.62 144.64 99.74 C 144.46 98.49 144.28 97.24 144.11 95.99 C 138.75 95.45 132.99 93.67 127.98 96.55 C 132.79 97.17 137.64 97.35 142.48 97.62 C 139.22 98.61 135.98 99.63 132.64 100.30 C 134.08 101.55 135.51 102.82 136.94 104.10 C 134.87 104.00 132.81 103.90 130.75 103.80 C 130.60 102.08 130.44 100.36 130.29 98.64 C 128.88 100.91 127.50 103.19 126.08 105.45 C 125.45 105.23 124.81 105.01 124.18 104.79 C 122.14 106.45 120.10 108.98 117.16 108.56 C 114.41 108.16 110.24 107.92 109.59 104.57 C 108.50 99.71 108.60 94.69 108.44 89.74 C 108.55 84.89 108.74 80.05 109.20 75.23 C 110.18 67.06 110.56 58.82 111.70 50.67 M 129.48 67.19 C 128.91 72.26 128.99 77.42 127.73 82.39 C 127.81 84.55 127.91 86.71 128.04 88.87 C 133.28 88.93 138.30 90.55 142.83 93.12 C 141.84 91.98 140.87 90.83 139.91 89.67 C 146.90 89.55 153.90 89.69 160.89 89.74 C 161.21 86.46 161.40 83.17 161.48 79.88 C 161.66 76.51 161.92 73.15 162.03 69.78 C 162.54 67.76 162.44 65.65 162.55 63.59 C 157.06 63.47 151.57 63.54 146.09 63.70 C 141.20 63.56 136.32 63.70 131.44 63.46 C 130.67 64.63 129.57 65.71 129.48 67.19 Z" />
</g>
<g id="#3e8bcaff">
<path fill="#3e8bca" opacity="1.00" d=" M 161.46 54.76 C 165.90 54.68 170.35 54.58 174.78 54.31 C 184.48 54.86 194.16 53.08 203.83 53.95 C 203.76 55.52 203.68 57.09 203.61 58.67 C 191.46 58.76 179.29 58.41 167.14 58.93 C 164.93 58.02 163.11 56.45 161.46 54.76 Z" />
</g>
<g id="#b6b7c6ff">
<path fill="#b6b7c6" opacity="1.00" d=" M 203.83 53.95 L 204.79 54.17 C 204.45 60.76 203.49 67.33 203.73 73.95 C 206.23 74.42 208.73 74.94 211.25 75.32 C 208.17 75.34 205.09 75.44 202.02 75.51 C 202.14 77.26 202.27 79.02 202.42 80.77 C 202.61 83.13 202.83 85.50 203.06 87.86 C 208.04 88.98 212.97 90.33 217.97 91.35 C 212.29 91.02 206.59 91.31 200.90 91.40 C 200.85 93.16 200.79 94.91 200.74 96.67 C 203.56 96.80 206.38 96.92 209.20 97.08 C 212.38 97.33 215.57 97.31 218.76 97.18 L 218.60 97.98 C 213.29 97.91 207.97 97.78 202.67 98.22 C 206.49 98.95 210.34 99.57 214.23 99.79 C 212.90 99.76 211.56 99.74 210.23 99.75 C 206.87 99.77 203.52 99.81 200.17 99.86 C 200.15 101.53 200.13 103.20 200.11 104.88 C 201.32 105.01 202.54 105.14 203.76 105.26 C 205.10 105.47 206.44 105.72 207.78 105.97 C 209.94 106.56 212.08 107.26 214.26 107.78 C 210.08 107.77 205.90 108.11 201.74 108.49 C 202.13 110.94 202.48 113.70 204.84 115.10 C 201.69 114.88 199.69 117.29 198.11 119.65 C 188.58 121.72 178.83 120.27 169.20 120.42 C 159.32 119.62 149.13 119.97 139.67 116.58 C 148.78 115.81 157.88 116.91 166.99 117.01 C 177.35 117.07 187.65 118.75 198.02 118.16 C 199.30 98.67 201.45 79.25 202.72 59.77 C 194.62 59.46 186.51 59.64 178.40 59.88 C 161.41 59.43 144.41 59.61 127.41 59.61 C 127.24 58.30 127.17 56.98 127.31 55.66 C 127.55 56.50 128.01 58.18 128.25 59.01 C 134.47 59.45 140.71 59.44 146.94 59.31 C 153.68 59.36 160.42 59.34 167.14 58.93 C 179.29 58.41 191.46 58.76 203.61 58.67 C 203.68 57.09 203.76 55.52 203.83 53.95 Z" />
</g>
<g id="#abcee1ff">
<path fill="#abcee1" opacity="1.00" d=" M 250.08 89.11 C 252.06 77.46 251.40 65.34 255.20 54.05 C 255.02 64.43 253.55 74.71 252.89 85.06 C 252.23 94.64 251.25 104.21 249.97 113.73 C 247.74 125.77 246.37 137.94 245.15 150.12 C 244.66 155.50 243.41 160.76 241.86 165.92 C 233.76 166.23 225.71 165.31 217.70 164.31 C 182.78 160.78 147.94 156.66 113.05 152.86 C 106.08 152.12 98.67 152.35 92.45 148.59 C 93.52 147.96 94.59 147.33 95.66 146.70 C 96.09 146.79 96.93 146.98 97.35 147.07 C 111.28 149.10 125.39 149.37 139.38 150.97 C 167.60 153.25 195.81 155.70 224.03 158.14 C 227.25 158.33 230.57 158.73 233.75 157.93 C 234.71 156.05 235.12 153.95 235.37 151.87 C 236.91 137.44 237.41 122.92 239.29 108.53 C 239.67 110.74 240.17 112.93 240.66 115.13 C 244.56 106.77 249.20 98.47 250.08 89.11 Z" />
</g>
<g id="#9acaecff">
<path fill="#9acaec" opacity="1.00" d=" M 127.31 55.66 C 134.20 55.30 141.09 54.78 148.00 54.71 C 147.12 55.51 146.24 56.31 145.36 57.10 C 145.89 57.84 146.42 58.57 146.94 59.31 C 140.71 59.44 134.47 59.45 128.25 59.01 C 128.01 58.18 127.55 56.50 127.31 55.66 Z" />
</g>
<g id="#7cb7e2ff">
<path fill="#7cb7e2" opacity="1.00" d=" M 148.00 54.71 C 152.48 54.64 156.97 54.71 161.46 54.76 C 163.11 56.45 164.93 58.02 167.14 58.93 C 160.42 59.34 153.68 59.36 146.94 59.31 C 146.42 58.57 145.89 57.84 145.36 57.10 C 146.24 56.31 147.12 55.51 148.00 54.71 Z" />
</g>
<g id="#b3d8eeff">
<path fill="#b3d8ee" opacity="1.00" d=" M 129.48 67.19 C 129.57 65.71 130.67 64.63 131.44 63.46 C 131.04 65.09 130.63 66.72 130.22 68.35 C 132.55 69.59 134.84 71.02 137.42 71.69 C 140.41 72.64 142.05 69.21 144.00 67.61 C 141.42 71.86 139.19 76.32 137.54 81.01 C 134.19 80.29 130.65 80.40 127.73 82.39 C 128.99 77.42 128.91 72.26 129.48 67.19 Z" />
</g>
<g id="#8dc5e8ff">
<path fill="#8dc5e8" opacity="1.00" d=" M 131.44 63.46 C 136.32 63.70 141.20 63.56 146.09 63.70 C 147.08 66.16 147.60 69.42 150.38 70.52 C 153.64 71.99 157.24 72.40 160.72 73.07 C 161.17 71.98 161.61 70.88 162.03 69.78 C 161.92 73.15 161.66 76.51 161.48 79.88 C 158.49 79.45 154.71 80.48 152.32 78.34 C 153.04 76.88 153.91 75.52 154.75 74.14 C 151.99 74.73 149.21 75.27 146.45 75.87 C 145.95 72.93 145.49 69.98 145.20 67.01 C 144.90 67.16 144.30 67.46 144.00 67.61 C 142.05 69.21 140.41 72.64 137.42 71.69 C 134.84 71.02 132.55 69.59 130.22 68.35 C 130.63 66.72 131.04 65.09 131.44 63.46 Z" />
</g>
<g id="#67a7dbff">
<path fill="#67a7db" opacity="1.00" d=" M 146.09 63.70 C 151.57 63.54 157.06 63.47 162.55 63.59 C 162.44 65.65 162.54 67.76 162.03 69.78 C 161.61 70.88 161.17 71.98 160.72 73.07 C 157.24 72.40 153.64 71.99 150.38 70.52 C 147.60 69.42 147.08 66.16 146.09 63.70 Z" />
</g>
<g id="#cbcfd7ff">
<path fill="#cbcfd7" opacity="1.00" d=" M 173.86 66.34 C 174.87 66.26 175.88 66.19 176.90 66.12 C 177.12 67.94 177.34 69.76 177.56 71.58 C 180.78 71.60 184.01 71.59 187.24 71.68 C 190.27 71.87 193.30 72.01 196.34 72.17 C 196.31 72.67 196.24 73.67 196.21 74.17 C 186.36 74.37 176.51 74.00 166.66 74.01 L 166.79 73.12 C 168.50 72.89 170.21 72.72 171.93 72.53 C 172.58 70.47 173.23 68.41 173.86 66.34 Z" />
</g>
<g id="#9fa4adff">
<path fill="#9fa4ad" opacity="1.00" d=" M 176.90 66.12 C 178.88 65.98 180.87 65.84 182.86 65.76 C 182.22 67.39 181.58 69.03 180.95 70.66 C 183.04 71.03 185.13 71.42 187.24 71.68 C 184.01 71.59 180.78 71.60 177.56 71.58 C 177.34 69.76 177.12 67.94 176.90 66.12 Z" />
</g>
<g id="#6c6f74ff">
<path fill="#6c6f74" opacity="1.00" d=" M 182.86 65.76 C 186.33 65.64 189.80 65.67 193.27 65.90 C 191.30 66.39 189.36 66.95 187.40 67.49 C 187.41 68.50 187.43 69.51 187.44 70.52 C 190.43 70.76 193.42 71.00 196.41 71.25 L 196.34 72.17 C 193.30 72.01 190.27 71.87 187.24 71.68 C 185.13 71.42 183.04 71.03 180.95 70.66 C 181.58 69.03 182.22 67.39 182.86 65.76 Z" />
</g>
<g id="#222325ff">
<path fill="#222325" opacity="1.00" d=" M 193.27 65.90 C 194.43 65.96 195.59 66.05 196.75 66.16 C 196.64 67.86 196.53 69.56 196.41 71.25 C 193.42 71.00 190.43 70.76 187.44 70.52 C 187.43 69.51 187.41 68.50 187.40 67.49 C 189.36 66.95 191.30 66.39 193.27 65.90 Z" />
</g>
<g id="#f7fafbff">
<path fill="#f7fafb" opacity="1.00" d=" M 144.00 67.61 C 144.30 67.46 144.90 67.16 145.20 67.01 C 145.49 69.98 145.95 72.93 146.45 75.87 C 145.05 77.65 143.80 79.63 141.95 81.00 C 140.53 81.51 138.99 81.11 137.54 81.01 C 139.19 76.32 141.42 71.86 144.00 67.61 Z" />
</g>
<g id="#9babb7ff">
<path fill="#9babb7" opacity="1.00" d=" M 146.45 75.87 C 149.21 75.27 151.99 74.73 154.75 74.14 C 153.91 75.52 153.04 76.88 152.32 78.34 C 154.71 80.48 158.49 79.45 161.48 79.88 C 161.40 83.17 161.21 86.46 160.89 89.74 C 153.90 89.69 146.90 89.55 139.91 89.67 C 140.87 90.83 141.84 91.98 142.83 93.12 C 138.30 90.55 133.28 88.93 128.04 88.87 C 127.91 86.71 127.81 84.55 127.73 82.39 C 130.65 80.40 134.19 80.29 137.54 81.01 C 138.99 81.11 140.53 81.51 141.95 81.00 C 143.80 79.63 145.05 77.65 146.45 75.87 M 142.97 84.20 C 138.36 84.25 133.76 82.97 129.14 83.82 C 129.12 85.13 129.09 86.45 129.07 87.76 C 139.47 87.87 149.79 89.56 160.20 89.23 C 160.20 86.58 160.20 83.93 160.19 81.28 C 154.37 81.83 148.65 82.91 142.97 84.20 Z" />
</g>
<g id="#9cc98aff">
<path fill="#9cc98a" opacity="1.00" d=" M 165.95 79.87 C 166.16 77.91 166.40 75.96 166.66 74.01 C 176.51 74.00 186.36 74.37 196.21 74.17 C 196.09 76.10 195.99 78.04 195.89 79.98 L 195.06 80.04 C 185.36 79.90 175.65 80.00 165.95 79.87 M 167.00 75.00 C 167.00 76.33 167.00 77.66 167.00 79.00 C 171.59 78.91 176.18 79.02 180.78 78.97 C 183.46 78.98 186.15 78.96 188.84 78.93 C 188.83 77.65 188.82 76.38 188.82 75.11 C 186.13 75.06 183.45 75.01 180.76 75.02 C 176.17 75.09 171.59 74.95 167.00 75.00 Z" />
</g>
<g id="#4d753fff">
<path fill="#4d753f" opacity="1.00" d=" M 167.00 75.00 C 171.59 74.95 176.17 75.09 180.76 75.02 C 180.76 76.34 180.77 77.65 180.78 78.97 C 176.18 79.02 171.59 78.91 167.00 79.00 C 167.00 77.66 167.00 76.33 167.00 75.00 Z" />
</g>
<g id="#7ec050ff">
<path fill="#7ec050" opacity="1.00" d=" M 180.76 75.02 C 183.45 75.01 186.13 75.06 188.82 75.11 C 188.82 76.38 188.83 77.65 188.84 78.93 C 186.15 78.96 183.46 78.98 180.78 78.97 C 180.77 77.65 180.76 76.34 180.76 75.02 Z" />
</g>
<g id="#3880c1ff">
<path fill="#3880c1" opacity="1.00" d=" M 202.02 75.51 C 205.09 75.44 208.17 75.34 211.25 75.32 C 215.72 75.43 220.20 75.40 224.67 75.39 C 224.75 77.16 224.84 78.93 224.92 80.70 C 224.46 80.68 223.55 80.65 223.10 80.63 C 216.21 80.44 209.30 80.26 202.42 80.77 C 202.27 79.02 202.14 77.26 202.02 75.51 Z" />
</g>
<g id="#ced2d4ff">
<path fill="#ced2d4" opacity="1.00" d=" M 165.95 79.87 C 175.65 80.00 185.36 79.90 195.06 80.04 C 191.97 80.44 188.90 81.03 185.83 81.55 C 189.25 81.67 192.67 81.80 196.09 81.96 C 196.04 84.61 195.99 87.26 195.94 89.92 C 185.97 90.07 176.03 89.30 166.08 88.96 L 165.94 88.02 C 170.24 88.36 174.56 88.50 178.87 88.52 C 180.14 88.52 181.42 88.51 182.70 88.50 C 186.77 88.63 190.83 88.96 194.89 89.24 C 195.06 87.05 195.22 84.86 195.36 82.67 C 192.29 82.63 189.22 82.61 186.16 82.59 C 183.72 82.57 181.30 82.55 178.87 82.53 C 174.45 82.46 170.02 82.74 165.68 83.58 C 165.70 83.18 165.73 82.39 165.75 81.99 C 165.80 81.46 165.90 80.40 165.95 79.87 Z" />
</g>
<g id="#71777eff">
<path fill="#71777e" opacity="1.00" d=" M 142.97 84.20 C 148.65 82.91 154.37 81.83 160.19 81.28 C 160.20 83.93 160.20 86.58 160.20 89.23 C 149.79 89.56 139.47 87.87 129.07 87.76 C 129.09 86.45 129.12 85.13 129.14 83.82 C 133.76 82.97 138.36 84.25 142.97 84.20 Z" />
</g>
<g id="#c0c7d5ff">
<path fill="#c0c7d5" opacity="1.00" d=" M 223.10 80.63 C 223.55 80.65 224.46 80.68 224.92 80.70 C 225.35 89.52 223.98 98.29 223.20 107.06 C 221.95 119.29 222.00 131.66 219.72 143.78 C 207.11 143.65 194.57 142.14 181.99 141.33 C 170.62 140.74 159.28 139.68 147.91 139.15 C 144.71 139.13 141.98 137.38 139.54 135.50 C 148.63 135.62 157.66 136.84 166.74 137.32 C 183.97 138.25 201.14 140.05 218.39 140.70 C 219.45 120.63 222.18 100.70 223.10 80.63 Z" />
</g>
<g id="#3a4f8bff">
<path fill="#3a4f8b" opacity="1.00" d=" M 101.07 84.99 C 101.83 84.34 102.58 83.69 103.34 83.04 C 106.13 87.61 107.72 92.84 107.63 98.23 C 107.45 103.25 106.93 108.26 106.56 113.27 C 106.37 110.04 106.26 106.70 105.06 103.66 C 104.19 101.73 101.63 102.02 99.92 101.42 C 100.23 95.94 100.74 90.47 101.07 84.99 Z" />
</g>
<g id="#eae64eff">
<path fill="#eae64e" opacity="1.00" d=" M 165.68 83.58 C 170.02 82.74 174.45 82.46 178.87 82.53 C 178.86 84.53 178.86 86.52 178.87 88.52 C 174.56 88.50 170.24 88.36 165.94 88.02 C 165.80 86.54 165.71 85.06 165.68 83.58 Z" />
</g>
<g id="#b1cd3bff">
<path fill="#b1cd3b" opacity="1.00" d=" M 178.87 82.53 C 181.30 82.55 183.72 82.57 186.16 82.59 C 185.97 84.41 185.78 86.24 185.61 88.07 C 184.88 88.17 183.43 88.39 182.70 88.50 C 181.42 88.51 180.14 88.52 178.87 88.52 C 178.86 86.52 178.86 84.53 178.87 82.53 Z" />
</g>
<g id="#71b446ff">
<path fill="#71b446" opacity="1.00" d=" M 186.16 82.59 C 189.22 82.61 192.29 82.63 195.36 82.67 C 195.22 84.86 195.06 87.05 194.89 89.24 C 190.83 88.96 186.77 88.63 182.70 88.50 C 183.43 88.39 184.88 88.17 185.61 88.07 C 185.78 86.24 185.97 84.41 186.16 82.59 Z" />
</g>
<g id="#72757cff">
<path fill="#72757c" opacity="1.00" d=" M 200.90 91.40 C 206.59 91.31 212.29 91.02 217.97 91.35 C 218.37 91.41 219.17 91.54 219.57 91.61 L 218.41 91.65 C 215.84 91.74 213.28 91.82 210.72 91.88 C 209.19 91.92 207.66 91.96 206.13 92.00 C 206.00 92.79 205.72 94.39 205.59 95.18 C 206.79 95.82 207.97 96.49 209.20 97.08 C 206.38 96.92 203.56 96.80 200.74 96.67 C 200.79 94.91 200.85 93.16 200.90 91.40 Z" />
</g>
<g id="#515255ff">
<path fill="#515255" opacity="1.00" d=" M 206.13 92.00 C 207.66 91.96 209.19 91.92 210.72 91.88 C 210.62 93.17 210.52 94.46 210.42 95.75 C 212.91 96.00 215.39 96.25 217.88 96.49 C 218.05 94.88 218.23 93.26 218.41 91.65 L 219.57 91.61 C 219.31 93.47 219.07 95.33 218.76 97.18 C 215.57 97.31 212.38 97.33 209.20 97.08 C 207.97 96.49 206.79 95.82 205.59 95.18 C 205.72 94.39 206.00 92.79 206.13 92.00 Z" />
</g>
<g id="#191b1cff">
<path fill="#191b1c" opacity="1.00" d=" M 210.72 91.88 C 213.28 91.82 215.84 91.74 218.41 91.65 C 218.23 93.26 218.05 94.88 217.88 96.49 C 215.39 96.25 212.91 96.00 210.42 95.75 C 210.52 94.46 210.62 93.17 210.72 91.88 Z" />
</g>
<g id="#6ab14aff">
<path fill="#6ab14a" opacity="1.00" d=" M 200.17 99.86 C 203.52 99.81 206.87 99.77 210.23 99.75 C 210.44 101.37 210.66 103.00 210.87 104.63 C 208.50 104.86 206.14 105.12 203.76 105.26 C 202.54 105.14 201.32 105.01 200.11 104.88 C 200.13 103.20 200.15 101.53 200.17 99.86 Z" />
</g>
<g id="#93c181ff">
<path fill="#93c181" opacity="1.00" d=" M 210.23 99.75 C 211.56 99.74 212.90 99.76 214.23 99.79 C 215.59 99.85 216.96 99.91 218.32 99.97 C 218.29 101.88 218.26 103.79 218.22 105.70 C 214.74 105.81 211.26 105.98 207.78 105.97 C 206.44 105.72 205.10 105.47 203.76 105.26 C 206.14 105.12 208.50 104.86 210.87 104.63 C 210.66 103.00 210.44 101.37 210.23 99.75 Z" />
</g>
<g id="#9cc3daff">
<path fill="#9cc3da" opacity="1.00" d=" M 93.76 121.85 C 95.02 114.85 95.37 107.70 97.14 100.79 C 96.92 109.50 96.42 118.19 95.69 126.87 C 95.28 133.46 94.06 140.17 95.66 146.70 C 94.59 147.33 93.52 147.96 92.45 148.59 C 98.67 152.35 106.08 152.12 113.05 152.86 C 147.94 156.66 182.78 160.78 217.70 164.31 C 225.71 165.31 233.76 166.23 241.86 165.92 C 243.41 160.76 244.66 155.50 245.15 150.12 C 246.37 137.94 247.74 125.77 249.97 113.73 C 249.76 128.37 247.47 142.86 246.55 157.46 C 246.35 161.90 245.02 166.21 242.71 170.01 C 245.36 170.12 248.01 170.31 250.64 170.66 L 252.49 171.23 C 251.58 171.88 249.76 173.17 248.86 173.82 C 237.57 173.44 226.31 171.68 215.01 170.96 C 210.83 171.13 206.78 169.88 202.63 169.81 C 200.59 169.97 199.20 168.33 197.66 167.31 C 193.04 164.25 187.29 164.53 182.00 164.07 C 173.69 163.80 165.49 162.27 157.23 161.59 C 154.91 161.45 152.56 161.49 150.42 162.50 C 145.50 165.02 140.09 162.25 134.88 162.75 C 127.56 161.52 120.07 162.94 112.80 161.32 C 106.03 160.12 99.16 159.64 92.37 158.62 L 91.68 157.87 C 91.19 157.74 90.21 157.49 89.72 157.36 C 85.77 159.94 82.40 154.61 85.27 151.48 C 87.08 147.98 87.87 144.10 88.53 140.25 C 89.58 133.92 92.71 128.18 93.76 121.85 Z" />
</g>
<g id="#c8cacdff">
<path fill="#c8cacd" opacity="1.00" d=" M 126.51 108.08 C 129.77 107.09 133.18 107.50 136.29 108.78 C 133.04 109.69 129.31 110.64 126.51 108.08 Z" />
</g>
<g id="#757e88ff">
<path fill="#757e88" opacity="1.00" d=" M 165.06 107.91 C 165.70 108.73 166.33 109.56 166.97 110.39 C 163.06 110.15 159.03 110.61 155.23 109.48 C 158.56 109.48 162.22 110.11 165.06 107.91 Z" />
<path fill="#757e88" opacity="1.00" d=" M 146.12 129.49 C 150.40 130.26 154.69 131.05 158.95 131.96 C 154.82 132.42 150.65 132.19 146.54 131.64 C 146.43 131.10 146.22 130.03 146.12 129.49 Z" />
<path fill="#757e88" opacity="1.00" d=" M 283.73 274.16 C 291.21 274.91 298.85 274.28 306.03 271.96 C 302.28 278.76 295.24 283.34 287.60 284.42 C 283.41 284.93 278.73 285.34 274.94 283.11 C 274.49 281.29 274.26 279.42 273.97 277.58 C 280.09 277.48 286.23 277.08 292.23 275.82 C 289.41 275.21 286.58 274.61 283.73 274.16 Z" />
</g>
<g id="#da7981ff">
<path fill="#da7981" opacity="1.00" d=" M 201.74 108.49 C 205.90 108.11 210.08 107.77 214.26 107.78 C 215.49 107.98 216.71 108.18 217.94 108.38 C 217.88 110.47 217.84 112.57 217.69 114.67 C 217.32 114.81 216.59 115.10 216.22 115.24 C 216.55 113.10 216.86 110.96 217.17 108.82 C 213.99 108.81 210.66 108.24 207.59 109.30 C 206.87 110.58 206.35 111.95 205.79 113.30 C 208.65 113.97 211.50 114.67 214.38 115.24 C 211.20 115.23 208.02 115.18 204.84 115.10 C 202.48 113.70 202.13 110.94 201.74 108.49 Z" />
</g>
<g id="#d5232aff">
<path fill="#d5232a" opacity="1.00" d=" M 207.59 109.30 C 210.66 108.24 213.99 108.81 217.17 108.82 C 216.86 110.96 216.55 113.10 216.22 115.24 C 215.76 115.24 214.84 115.24 214.38 115.24 C 211.50 114.67 208.65 113.97 205.79 113.30 C 206.35 111.95 206.87 110.58 207.59 109.30 Z" />
</g>
<g id="#b4b6b9ff">
<path fill="#b4b6b9" opacity="1.00" d=" M 172.68 123.12 C 173.60 121.62 176.62 122.84 175.58 124.56 C 174.66 126.05 171.63 124.83 172.68 123.12 Z" />
</g>
<g id="#bcbfc2ff">
<path fill="#bcbfc2" opacity="1.00" d=" M 155.38 128.66 C 158.18 124.96 163.09 126.61 166.99 126.77 C 166.74 127.42 166.24 128.72 165.99 129.37 C 162.44 129.34 158.89 129.17 155.38 128.66 Z" />
</g>
<g id="#323886ff">
<path fill="#323886" opacity="1.00" d=" M 110.86 131.86 C 111.61 130.15 113.42 130.39 114.95 130.50 C 115.82 131.70 116.45 133.06 117.08 134.41 C 115.25 135.74 113.44 137.11 111.63 138.47 C 110.67 136.49 109.37 133.91 110.86 131.86 Z" />
</g>
<g id="#b4b7baff">
<path fill="#b4b7ba" opacity="1.00" d=" M 175.06 131.52 C 178.59 131.41 182.13 130.93 185.67 131.16 C 186.41 131.98 187.11 132.86 187.75 133.77 C 183.45 134.03 179.13 133.94 174.82 133.91 C 174.88 133.31 175.00 132.12 175.06 131.52 Z" />
</g>
<g id="#b2393aff">
<path fill="#b2393a" opacity="1.00" d=" M 111.63 138.47 C 113.44 137.11 115.25 135.74 117.08 134.41 C 118.59 134.83 120.11 135.24 121.64 135.64 C 121.63 136.60 121.62 137.56 121.62 138.53 C 118.29 138.47 114.96 138.40 111.63 138.47 Z" />
</g>
<g id="#c1e1e0ff">
<path fill="#c1e1e0" opacity="1.00" d=" M 89.72 157.36 C 90.21 157.49 91.19 157.74 91.68 157.87 L 91.04 158.47 L 90.02 158.21 L 89.72 157.36 Z" />
</g>
<g id="#9bb8c7ff">
<path fill="#9bb8c7" opacity="1.00" d=" M 150.42 162.50 C 152.56 161.49 154.91 161.45 157.23 161.59 C 155.90 161.47 154.61 161.63 153.37 162.06 C 153.05 166.74 153.11 171.48 152.68 176.17 C 162.97 178.19 173.43 178.99 183.82 180.26 C 188.54 180.75 193.95 181.69 197.80 178.15 C 201.12 175.02 206.65 177.00 210.32 178.54 L 208.82 179.56 C 206.25 181.20 203.47 182.92 202.32 185.90 C 202.08 185.32 201.61 184.17 201.37 183.59 C 182.01 181.56 162.56 180.08 143.40 176.47 C 143.40 175.17 143.38 172.57 143.38 171.27 C 145.81 171.55 148.24 171.95 150.60 172.63 C 148.60 169.61 148.59 165.59 150.42 162.50 Z" />
</g>
<g id="#759ab0ff">
<path fill="#759ab0" opacity="1.00" d=" M 153.37 162.06 C 154.61 161.63 155.90 161.47 157.23 161.59 C 165.49 162.27 173.69 163.80 182.00 164.07 C 187.29 164.53 193.04 164.25 197.66 167.31 C 200.57 170.26 200.39 175.06 197.80 178.15 C 193.95 181.69 188.54 180.75 183.82 180.26 C 173.43 178.99 162.97 178.19 152.68 176.17 C 153.11 171.48 153.05 166.74 153.37 162.06 Z" />
</g>
<g id="#c8d5dcff">
<path fill="#c8d5dc" opacity="1.00" d=" M 130.35 174.37 C 133.23 172.01 137.20 173.08 140.54 173.49 C 137.30 175.00 133.78 175.85 130.35 174.37 Z" />
<path fill="#c8d5dc" opacity="1.00" d=" M 142.60 173.15 C 142.80 172.68 143.18 171.74 143.38 171.27 C 143.38 172.57 143.40 175.17 143.40 176.47 C 162.56 180.08 182.01 181.56 201.37 183.59 C 201.61 184.17 202.08 185.32 202.32 185.90 C 201.71 187.55 201.19 189.24 200.65 190.92 C 180.73 188.12 160.72 186.04 140.78 183.41 C 140.60 182.03 140.42 180.65 140.25 179.27 C 139.09 178.87 137.95 178.44 136.79 178.07 C 138.18 177.90 139.56 177.68 140.95 177.49 C 141.50 176.04 142.05 174.59 142.60 173.15 Z" />
</g>
<g id="#eff7f6ff">
<path fill="#eff7f6" opacity="1.00" d=" M 140.54 173.49 C 141.06 173.40 142.09 173.23 142.60 173.15 C 142.05 174.59 141.50 176.04 140.95 177.49 C 139.56 177.68 138.18 177.90 136.79 178.07 C 132.34 178.44 128.00 179.55 123.74 180.80 C 118.63 182.28 113.77 184.43 108.98 186.71 C 109.18 187.22 109.59 188.24 109.79 188.75 C 106.51 189.85 103.42 191.51 100.77 193.74 C 102.23 191.90 103.58 189.97 104.94 188.05 C 101.41 189.02 97.89 190.04 94.40 191.13 C 95.17 189.40 95.91 187.66 96.62 185.90 C 97.27 183.23 100.21 182.53 102.43 181.65 C 107.73 179.55 113.72 180.27 118.94 177.87 C 122.69 176.58 126.08 172.93 130.35 174.37 C 133.78 175.85 137.30 175.00 140.54 173.49 Z" />
</g>
<g id="#83adc6ff">
<path fill="#83adc6" opacity="1.00" d=" M 123.74 180.80 C 128.00 179.55 132.34 178.44 136.79 178.07 C 137.95 178.44 139.09 178.87 140.25 179.27 C 140.42 180.65 140.60 182.03 140.78 183.41 C 160.72 186.04 180.73 188.12 200.65 190.92 C 204.58 191.99 208.08 189.85 210.34 186.75 C 212.36 185.93 213.79 183.35 216.23 184.47 C 218.59 185.15 221.47 185.06 223.23 187.03 C 223.73 187.13 224.72 187.35 225.22 187.46 C 228.72 185.52 233.29 187.90 233.74 191.83 C 233.19 195.04 232.10 198.39 229.32 200.37 C 223.32 205.09 217.41 210.07 210.67 213.73 C 206.58 216.07 201.79 214.82 197.44 214.15 C 197.55 214.65 197.77 215.64 197.87 216.13 C 191.89 215.36 185.93 214.44 180.04 213.14 C 180.17 212.43 180.41 211.00 180.54 210.29 C 182.11 210.20 183.68 210.07 185.26 210.03 C 193.31 211.05 201.32 212.48 209.43 212.93 L 210.48 213.00 C 210.14 209.11 209.80 205.22 209.47 201.33 C 211.84 199.48 214.20 197.61 216.54 195.72 C 209.15 194.17 201.63 193.40 194.12 192.76 C 174.16 191.27 154.44 187.71 134.53 185.85 C 134.76 189.33 135.10 192.81 135.51 196.27 C 133.61 193.56 132.31 190.49 130.97 187.48 C 126.07 190.25 126.43 196.66 122.56 200.30 C 122.45 197.00 122.40 193.71 122.36 190.41 C 125.01 188.69 127.65 186.95 130.27 185.19 C 127.59 184.57 124.91 183.98 122.23 183.41 C 122.73 182.54 123.23 181.66 123.74 180.80 Z" />
</g>
<g id="#bcd8e5ff">
<path fill="#bcd8e5" opacity="1.00" d=" M 108.98 186.71 C 113.77 184.43 118.63 182.28 123.74 180.80 C 123.23 181.66 122.73 182.54 122.23 183.41 C 124.91 183.98 127.59 184.57 130.27 185.19 C 127.65 186.95 125.01 188.69 122.36 190.41 C 122.40 193.71 122.45 197.00 122.56 200.30 C 122.29 200.56 121.76 201.10 121.49 201.37 C 119.55 201.01 117.64 200.58 115.71 200.20 C 117.55 200.25 119.39 200.20 121.23 200.18 C 121.26 197.05 121.27 193.92 121.28 190.79 C 117.49 189.90 113.67 189.11 109.79 188.75 C 109.59 188.24 109.18 187.22 108.98 186.71 Z" />
</g>
<g id="#618aa9ff">
<path fill="#618aa9" opacity="1.00" d=" M 202.32 185.90 C 203.47 182.92 206.25 181.20 208.82 179.56 C 210.68 181.55 211.90 184.17 210.34 186.75 C 208.08 189.85 204.58 191.99 200.65 190.92 C 201.19 189.24 201.71 187.55 202.32 185.90 Z" />
</g>
<g id="#eaeef0ff">
<path fill="#eaeef0" opacity="1.00" d=" M 134.53 185.85 C 154.44 187.71 174.16 191.27 194.12 192.76 C 194.34 193.12 194.77 193.85 194.99 194.21 C 194.51 196.06 194.01 197.91 193.52 199.76 C 190.64 200.46 187.85 201.65 185.52 203.52 C 180.82 202.13 175.97 201.34 171.10 200.85 C 159.20 199.64 147.43 197.31 135.51 196.27 C 135.10 192.81 134.76 189.33 134.53 185.85 Z" />
</g>
<g id="#c2deeaff">
<path fill="#c2deea" opacity="1.00" d=" M 91.12 188.48 C 91.98 186.03 94.44 186.04 96.62 185.90 C 95.91 187.66 95.17 189.40 94.40 191.13 C 97.89 190.04 101.41 189.02 104.94 188.05 C 103.58 189.97 102.23 191.90 100.77 193.74 C 100.17 194.44 99.57 195.15 98.98 195.87 C 99.67 196.66 100.35 197.47 101.03 198.27 C 99.50 198.31 97.97 198.39 96.44 198.50 C 97.62 199.68 98.77 200.92 100.15 201.88 C 112.98 207.74 127.43 205.27 141.03 206.80 C 153.12 207.23 164.92 210.10 176.40 213.75 C 183.50 216.08 190.88 217.40 198.24 218.59 C 203.08 219.37 208.11 219.28 212.81 217.78 C 217.91 216.01 221.72 211.96 225.99 208.85 C 233.79 207.50 241.72 208.86 249.26 210.91 C 243.23 217.41 235.86 222.41 229.24 228.27 C 226.97 230.09 224.78 232.28 221.90 233.09 C 217.37 232.38 213.16 230.18 208.51 230.03 L 207.74 229.93 C 203.79 229.70 199.93 228.86 196.05 228.13 C 195.28 228.08 193.75 227.98 192.99 227.93 C 188.02 227.93 183.05 227.71 178.17 226.81 C 137.62 220.18 97.00 214.00 56.47 207.25 C 57.47 211.57 59.00 216.02 58.00 220.49 C 56.77 226.95 57.79 233.49 58.15 239.98 C 56.86 241.22 55.56 242.46 54.25 243.68 C 54.79 237.41 53.06 231.30 53.23 225.04 C 53.25 218.50 52.58 211.90 53.46 205.40 C 58.95 199.80 67.00 198.16 74.04 195.32 C 77.36 194.28 80.48 192.34 84.02 192.19 C 84.50 191.95 85.48 191.49 85.97 191.26 C 86.41 191.06 87.28 190.65 87.72 190.45 C 87.88 190.43 88.22 190.38 88.38 190.36 C 89.50 190.14 90.57 189.50 91.12 188.48 Z" />
</g>
<g id="#769db8ff">
<path fill="#769db8" opacity="1.00" d=" M 122.56 200.30 C 126.43 196.66 126.07 190.25 130.97 187.48 C 132.31 190.49 133.61 193.56 135.51 196.27 C 137.60 197.39 139.78 198.35 141.96 199.28 C 138.99 199.75 136.01 200.26 133.12 201.11 C 128.49 202.78 123.80 204.94 118.73 204.18 C 119.64 203.23 120.55 202.29 121.49 201.37 C 121.76 201.10 122.29 200.56 122.56 200.30 Z" />
</g>
<g id="#b5dfdaff">
<path fill="#b5dfda" opacity="1.00" d=" M 223.23 187.03 L 223.85 186.40 L 224.88 186.62 L 225.22 187.46 C 224.72 187.35 223.73 187.13 223.23 187.03 Z" />
</g>
<g id="#a5dad2ff">
<path fill="#a5dad2" opacity="1.00" d=" M 88.38 190.36 C 87.49 188.87 90.09 187.12 91.12 188.48 C 90.57 189.50 89.50 190.14 88.38 190.36 Z" />
<path fill="#a5dad2" opacity="1.00" d=" M 87.72 190.45 C 87.88 190.43 88.22 190.38 88.38 190.36 C 88.22 190.38 87.88 190.43 87.72 190.45 Z" />
<path fill="#a5dad2" opacity="1.00" d=" M 84.02 192.19 C 84.31 191.84 84.89 191.15 85.18 190.80 L 85.97 191.26 C 85.48 191.49 84.50 191.95 84.02 192.19 Z" />
</g>
<g id="#f8fcfdff">
<path fill="#f8fcfd" opacity="1.00" d=" M 100.77 193.74 C 103.42 191.51 106.51 189.85 109.79 188.75 C 113.67 189.11 117.49 189.90 121.28 190.79 C 121.27 193.92 121.26 197.05 121.23 200.18 C 119.39 200.20 117.55 200.25 115.71 200.20 C 110.84 199.42 105.98 198.40 101.03 198.27 C 100.35 197.47 99.67 196.66 98.98 195.87 C 99.57 195.15 100.17 194.44 100.77 193.74 Z" />
</g>
<g id="#bbd8e4ff">
<path fill="#bbd8e4" opacity="1.00" d=" M 194.12 192.76 C 201.63 193.40 209.15 194.17 216.54 195.72 C 214.20 197.61 211.84 199.48 209.47 201.33 C 209.80 205.22 210.14 209.11 210.48 213.00 L 209.43 212.93 C 209.03 209.11 208.50 205.31 207.79 201.53 C 203.04 200.88 198.30 200.12 193.52 199.76 C 194.01 197.91 194.51 196.06 194.99 194.21 C 194.77 193.85 194.34 193.12 194.12 192.76 Z" />
</g>
<g id="#628cabff">
<path fill="#628cab" opacity="1.00" d=" M 229.32 200.37 C 232.10 198.39 233.19 195.04 233.74 191.83 L 234.01 192.23 C 235.17 194.52 238.00 196.82 236.87 199.63 C 234.09 203.57 229.64 205.83 225.99 208.85 C 221.72 211.96 217.91 216.01 212.81 217.78 C 207.78 217.74 202.83 216.83 197.87 216.13 C 197.77 215.64 197.55 214.65 197.44 214.15 C 201.79 214.82 206.58 216.07 210.67 213.73 C 217.41 210.07 223.32 205.09 229.32 200.37 Z" />
</g>
<g id="#88b4ceff">
<path fill="#88b4ce" opacity="1.00" d=" M 234.01 192.23 C 235.83 191.85 237.69 191.36 239.57 191.66 C 249.60 192.44 259.71 193.23 269.53 195.48 C 269.25 196.00 268.68 197.04 268.40 197.57 C 264.11 201.92 259.15 205.53 254.63 209.64 C 245.83 217.61 235.91 224.22 226.79 231.81 C 223.53 234.24 223.04 238.48 222.27 242.16 C 220.86 242.19 219.46 242.23 218.07 242.20 C 216.36 241.60 214.69 240.90 212.95 240.40 C 212.71 237.47 212.50 234.54 212.33 231.60 C 211.06 231.06 209.80 230.51 208.51 230.03 C 213.16 230.18 217.37 232.38 221.90 233.09 C 224.78 232.28 226.97 230.09 229.24 228.27 C 235.86 222.41 243.23 217.41 249.26 210.91 C 241.72 208.86 233.79 207.50 225.99 208.85 C 229.64 205.83 234.09 203.57 236.87 199.63 C 238.00 196.82 235.17 194.52 234.01 192.23 Z" />
</g>
<g id="#82a6bdff">
<path fill="#82a6bd" opacity="1.00" d=" M 135.51 196.27 C 147.43 197.31 159.20 199.64 171.10 200.85 C 175.97 201.34 180.82 202.13 185.52 203.52 C 184.08 204.87 182.70 206.28 181.31 207.68 C 174.00 205.10 166.15 204.78 158.56 203.44 C 150.13 202.35 141.67 199.95 133.12 201.11 C 136.01 200.26 138.99 199.75 141.96 199.28 C 139.78 198.35 137.60 197.39 135.51 196.27 Z" />
</g>
<g id="#8aaec5ff">
<path fill="#8aaec5" opacity="1.00" d=" M 96.44 198.50 C 97.97 198.39 99.50 198.31 101.03 198.27 C 105.98 198.40 110.84 199.42 115.71 200.20 C 117.64 200.58 119.55 201.01 121.49 201.37 C 120.55 202.29 119.64 203.23 118.73 204.18 C 112.52 203.51 106.31 202.82 100.15 201.88 C 98.77 200.92 97.62 199.68 96.44 198.50 Z" />
</g>
<g id="#5882a6ff">
<path fill="#5882a6" opacity="1.00" d=" M 254.63 209.64 C 259.15 205.53 264.11 201.92 268.40 197.57 C 269.56 201.18 270.22 205.07 269.22 208.81 C 273.31 207.77 277.85 207.61 281.65 209.69 L 280.28 210.47 C 273.48 212.06 266.37 209.60 259.69 211.96 C 261.61 212.50 263.54 213.03 265.47 213.56 C 265.37 216.51 265.32 219.47 265.30 222.44 C 264.28 222.49 263.25 222.55 262.23 222.62 C 263.69 225.98 265.46 229.33 265.66 233.06 C 265.89 237.43 265.64 241.83 266.34 246.17 C 263.84 249.87 261.87 253.89 259.81 257.84 C 257.61 262.26 255.34 266.67 253.60 271.29 C 253.23 268.78 252.88 266.26 252.22 263.81 C 251.95 262.90 251.70 261.96 251.83 261.00 C 252.56 255.93 251.91 250.80 250.64 245.87 C 246.57 244.06 243.00 241.27 238.89 239.58 C 233.39 240.42 228.93 245.44 227.89 250.82 C 226.32 258.42 226.40 266.23 225.64 273.92 C 225.27 279.09 223.97 284.78 227.30 289.32 L 227.81 290.28 C 227.34 290.30 226.39 290.35 225.92 290.37 C 224.36 290.45 222.81 290.57 221.27 290.69 C 222.87 275.82 221.75 260.74 224.29 245.97 C 222.87 245.62 221.45 245.28 220.03 244.96 C 222.70 244.92 225.41 244.27 227.42 242.42 C 232.97 237.64 238.56 232.86 243.38 227.32 C 238.83 230.77 234.56 234.58 230.39 238.48 C 228.36 240.27 226.34 242.20 223.80 243.23 C 221.84 243.72 219.90 242.76 218.07 242.20 C 219.46 242.23 220.86 242.19 222.27 242.16 C 223.04 238.48 223.53 234.24 226.79 231.81 C 235.91 224.22 245.83 217.61 254.63 209.64 M 254.23 220.04 C 253.78 222.97 253.93 225.95 254.03 228.91 C 254.79 228.90 256.32 228.89 257.08 228.88 C 257.47 226.97 257.97 225.06 258.10 223.11 C 258.28 221.14 256.16 219.12 254.23 220.04 Z" />
</g>
<g id="#f9fcfdff">
<path fill="#f9fcfd" opacity="1.00" d=" M 185.52 203.52 C 187.85 201.65 190.64 200.46 193.52 199.76 C 198.30 200.12 203.04 200.88 207.79 201.53 C 208.50 205.31 209.03 209.11 209.43 212.93 C 201.32 212.48 193.31 211.05 185.26 210.03 C 183.94 209.26 182.64 208.43 181.31 207.68 C 182.70 206.28 184.08 204.87 185.52 203.52 Z" />
</g>
<g id="#b5d1dfff">
<path fill="#b5d1df" opacity="1.00" d=" M 118.73 204.18 C 123.80 204.94 128.49 202.78 133.12 201.11 C 141.67 199.95 150.13 202.35 158.56 203.44 C 166.15 204.78 174.00 205.10 181.31 207.68 C 182.64 208.43 183.94 209.26 185.26 210.03 C 183.68 210.07 182.11 210.20 180.54 210.29 C 180.41 211.00 180.17 212.43 180.04 213.14 C 185.93 214.44 191.89 215.36 197.87 216.13 C 202.83 216.83 207.78 217.74 212.81 217.78 C 208.11 219.28 203.08 219.37 198.24 218.59 C 190.88 217.40 183.50 216.08 176.40 213.75 C 164.92 210.10 153.12 207.23 141.03 206.80 C 127.43 205.27 112.98 207.74 100.15 201.88 C 106.31 202.82 112.52 203.51 118.73 204.18 Z" />
</g>
<g id="#8ab1caff">
<path fill="#8ab1ca" opacity="1.00" d=" M 56.47 207.25 C 97.00 214.00 137.62 220.18 178.17 226.81 C 183.05 227.71 188.02 227.93 192.99 227.93 C 192.60 231.04 192.27 234.16 191.93 237.28 C 190.54 237.35 189.15 237.41 187.76 237.45 C 186.58 237.33 185.41 237.21 184.24 237.08 C 178.36 235.59 172.40 234.53 166.40 233.65 C 136.25 228.37 106.01 223.53 75.85 218.28 C 70.64 217.32 65.38 216.08 60.06 216.70 C 66.85 219.54 74.28 220.04 81.46 221.35 C 104.77 225.45 128.15 229.18 151.44 233.41 C 160.53 234.74 169.50 236.84 178.64 237.83 C 182.44 238.48 186.22 239.23 190.01 239.89 C 191.05 240.11 192.09 240.36 193.12 240.61 C 192.87 241.50 192.63 242.40 192.40 243.30 C 190.59 249.44 189.76 255.89 186.96 261.70 C 185.65 257.32 185.43 252.57 183.43 248.42 C 180.85 246.77 177.70 246.48 174.76 245.97 C 161.75 244.23 149.00 240.65 135.84 240.10 C 135.18 240.00 133.84 239.82 133.18 239.72 C 130.43 239.29 127.69 238.84 124.95 238.43 C 124.25 242.52 123.63 246.63 123.23 250.76 C 122.13 249.12 121.02 247.48 119.80 245.92 C 112.99 243.22 105.59 242.82 98.50 241.28 C 97.91 239.95 97.54 238.55 97.38 237.11 C 97.28 234.43 97.30 231.75 97.25 229.08 C 85.70 226.93 74.16 224.64 62.51 223.08 C 62.95 226.06 63.38 229.04 63.85 232.01 C 63.99 232.99 64.14 233.98 64.16 234.98 C 63.89 238.45 63.57 241.91 63.44 245.39 C 75.30 248.12 87.25 250.44 99.15 252.97 C 94.88 252.53 90.59 252.76 86.33 253.18 C 86.03 253.17 85.43 253.15 85.14 253.14 C 82.09 252.84 79.06 252.45 76.01 252.13 C 75.56 252.08 74.65 251.97 74.20 251.92 C 71.95 251.63 69.70 251.35 67.44 251.28 C 67.82 250.51 68.20 249.74 68.59 248.97 C 65.24 248.12 61.89 247.24 58.54 246.39 C 58.41 244.25 58.28 242.11 58.15 239.98 C 57.79 233.49 56.77 226.95 58.00 220.49 C 59.00 216.02 57.47 211.57 56.47 207.25 Z" />
</g>
<g id="#3a6aa6ff">
<path fill="#3a6aa6" opacity="1.00" d=" M 259.69 211.96 C 266.37 209.60 273.48 212.06 280.28 210.47 C 282.92 210.18 285.32 211.69 287.70 212.64 C 295.47 216.37 303.47 219.62 311.44 222.90 C 312.86 223.70 315.13 224.24 315.08 226.27 C 315.36 228.12 315.60 229.98 316.00 231.82 C 313.30 231.09 309.62 228.58 307.31 231.30 C 305.40 234.88 306.55 239.14 306.77 242.98 C 302.45 240.66 297.98 238.65 293.46 236.76 C 292.82 237.96 292.19 239.16 291.56 240.37 C 282.84 239.71 273.56 240.85 266.34 246.17 C 265.64 241.83 265.89 237.43 265.66 233.06 C 265.46 229.33 263.69 225.98 262.23 222.62 C 263.25 222.55 264.28 222.49 265.30 222.44 C 265.32 219.47 265.37 216.51 265.47 213.56 C 263.54 213.03 261.61 212.50 259.69 211.96 M 275.60 225.07 C 275.93 226.47 275.68 228.15 276.63 229.33 C 278.28 229.76 279.98 229.97 281.67 230.23 C 281.58 228.98 281.50 227.73 281.42 226.48 C 279.48 226.00 277.54 225.52 275.60 225.07 Z" />
</g>
<g id="#263135ff">
<path fill="#263135" opacity="1.00" d=" M 60.06 216.70 C 65.38 216.08 70.64 217.32 75.85 218.28 C 106.01 223.53 136.25 228.37 166.40 233.65 C 172.40 234.53 178.36 235.59 184.24 237.08 C 182.36 237.30 180.51 237.61 178.64 237.83 C 169.50 236.84 160.53 234.74 151.44 233.41 C 128.15 229.18 104.77 225.45 81.46 221.35 C 74.28 220.04 66.85 219.54 60.06 216.70 Z" />
</g>
<g id="#8bb2c9ff">
<path fill="#8bb2c9" opacity="1.00" d=" M 254.23 220.04 C 256.16 219.12 258.28 221.14 258.10 223.11 C 257.97 225.06 257.47 226.97 257.08 228.88 C 256.32 228.89 254.79 228.90 254.03 228.91 C 253.93 225.95 253.78 222.97 254.23 220.04 Z" />
</g>
<g id="#a6a86bff">
<path fill="#a6a86b" opacity="1.00" d=" M 62.51 223.08 C 74.16 224.64 85.70 226.93 97.25 229.08 C 95.65 231.61 94.13 234.19 92.71 236.82 C 82.99 235.88 73.55 233.18 63.85 232.01 C 63.38 229.04 62.95 226.06 62.51 223.08 M 66.57 227.24 C 71.01 229.82 76.24 229.84 81.13 230.88 C 84.55 231.59 88.03 231.98 91.53 231.92 C 86.72 229.33 81.21 228.93 75.94 227.94 C 72.85 227.38 69.70 227.18 66.57 227.24 Z" />
</g>
<g id="#739fcaff">
<path fill="#739fca" opacity="1.00" d=" M 275.60 225.07 C 277.54 225.52 279.48 226.00 281.42 226.48 C 281.50 227.73 281.58 228.98 281.67 230.23 C 279.98 229.97 278.28 229.76 276.63 229.33 C 275.68 228.15 275.93 226.47 275.60 225.07 Z" />
</g>
<g id="#80825bff">
<path fill="#80825b" opacity="1.00" d=" M 66.57 227.24 C 69.70 227.18 72.85 227.38 75.94 227.94 C 81.21 228.93 86.72 229.33 91.53 231.92 C 88.03 231.98 84.55 231.59 81.13 230.88 C 76.24 229.84 71.01 229.82 66.57 227.24 Z" />
</g>
<g id="#0f1616ff">
<path fill="#0f1616" opacity="1.00" d=" M 230.39 238.48 C 234.56 234.58 238.83 230.77 243.38 227.32 C 238.56 232.86 232.97 237.64 227.42 242.42 C 225.41 244.27 222.70 244.92 220.03 244.96 C 217.72 244.51 215.43 244.02 213.11 243.65 C 211.38 243.35 209.65 243.04 207.92 242.76 C 205.36 242.34 202.80 241.86 200.24 241.49 C 196.85 240.85 193.43 240.35 190.01 239.89 C 186.22 239.23 182.44 238.48 178.64 237.83 C 180.51 237.61 182.36 237.30 184.24 237.08 C 185.41 237.21 186.58 237.33 187.76 237.45 C 191.69 237.99 195.65 238.18 199.59 238.57 C 201.95 239.18 204.26 239.98 206.66 240.44 C 208.76 240.46 210.85 240.38 212.95 240.40 C 214.69 240.90 216.36 241.60 218.07 242.20 C 219.90 242.76 221.84 243.72 223.80 243.23 C 226.34 242.20 228.36 240.27 230.39 238.48 Z" />
</g>
<g id="#4e7aa4ff">
<path fill="#4e7aa4" opacity="1.00" d=" M 315.08 226.27 C 319.46 227.10 320.73 231.83 322.45 235.29 C 324.63 240.75 328.13 246.38 326.46 252.48 C 325.47 259.36 325.35 266.31 325.44 273.24 C 326.54 266.73 327.11 260.14 328.23 253.63 C 330.29 255.29 332.98 256.98 332.93 259.98 C 333.86 273.47 330.72 286.85 331.09 300.35 C 332.93 300.82 334.76 301.30 336.60 301.78 C 336.45 302.22 336.15 303.11 335.99 303.55 L 335.22 303.45 C 329.39 302.28 323.65 304.37 317.86 304.77 C 308.56 305.83 299.15 304.85 289.86 306.01 C 285.87 306.40 281.82 306.33 277.90 305.40 C 281.23 305.34 284.25 303.88 286.95 302.05 C 292.48 298.25 299.41 298.19 305.75 296.84 C 311.97 295.56 319.23 295.18 323.41 289.69 C 320.90 290.43 318.41 291.27 316.04 292.37 C 316.62 290.71 317.23 289.07 317.88 287.44 C 318.97 284.73 320.26 282.02 320.57 279.08 C 321.20 272.72 319.67 266.36 320.31 260.00 C 320.61 256.72 321.31 253.50 321.91 250.26 C 322.40 250.08 323.38 249.71 323.87 249.52 C 322.87 242.93 318.28 237.89 316.00 231.82 C 315.60 229.98 315.36 228.12 315.08 226.27 Z" />
</g>
<g id="#4c779fff">
<path fill="#4c779f" opacity="1.00" d=" M 192.99 227.93 C 193.75 227.98 195.28 228.08 196.05 228.13 C 197.27 231.60 198.41 235.09 199.59 238.57 C 195.65 238.18 191.69 237.99 187.76 237.45 C 189.15 237.41 190.54 237.35 191.93 237.28 C 192.27 234.16 192.60 231.04 192.99 227.93 Z" />
</g>
<g id="#87aec7ff">
<path fill="#87aec7" opacity="1.00" d=" M 196.05 228.13 C 199.93 228.86 203.79 229.70 207.74 229.93 C 207.30 233.42 206.95 236.93 206.66 240.44 C 204.26 239.98 201.95 239.18 199.59 238.57 C 198.41 235.09 197.27 231.60 196.05 228.13 Z" />
</g>
<g id="#838852ff">
<path fill="#838852" opacity="1.00" d=" M 92.71 236.82 C 94.13 234.19 95.65 231.61 97.25 229.08 C 97.30 231.75 97.28 234.43 97.38 237.11 C 95.82 237.02 94.26 236.93 92.71 236.82 Z" />
</g>
<g id="#4d789fff">
<path fill="#4d789f" opacity="1.00" d=" M 207.74 229.93 L 208.51 230.03 C 209.80 230.51 211.06 231.06 212.33 231.60 C 212.50 234.54 212.71 237.47 212.95 240.40 C 210.85 240.38 208.76 240.46 206.66 240.44 C 206.95 236.93 207.30 233.42 207.74 229.93 Z" />
</g>
<g id="#40588eff">
<path fill="#40588e" opacity="1.00" d=" M 307.31 231.30 C 309.62 228.58 313.30 231.09 316.00 231.82 C 318.28 237.89 322.87 242.93 323.87 249.52 C 323.38 249.71 322.40 250.08 321.91 250.26 C 316.73 248.13 311.71 245.63 306.77 242.98 C 306.55 239.14 305.40 234.88 307.31 231.30 Z" />
</g>
<g id="#87a8b8ff">
<path fill="#87a8b8" opacity="1.00" d=" M 63.85 232.01 C 73.55 233.18 82.99 235.88 92.71 236.82 C 94.26 236.93 95.82 237.02 97.38 237.11 C 97.54 238.55 97.91 239.95 98.50 241.28 C 87.05 239.21 75.67 236.71 64.16 234.98 C 64.14 233.98 63.99 232.99 63.85 232.01 Z" />
</g>
<g id="#454649ff">
<path fill="#454649" opacity="1.00" d=" M 63.44 245.39 C 63.57 241.91 63.89 238.45 64.16 234.98 C 75.67 236.71 87.05 239.21 98.50 241.28 C 105.59 242.82 112.99 243.22 119.80 245.92 C 119.74 249.75 120.28 253.96 117.90 257.26 C 111.69 255.67 105.45 254.18 99.15 252.97 C 87.25 250.44 75.30 248.12 63.44 245.39 M 112.20 247.13 C 111.01 249.44 110.72 252.05 110.30 254.58 C 112.23 254.60 114.15 254.63 116.07 254.65 C 115.02 252.21 115.46 247.53 112.20 247.13 Z" />
</g>
<g id="#7b9cb4ff">
<path fill="#7b9cb4" opacity="1.00" d=" M 293.46 236.76 C 297.98 238.65 302.45 240.66 306.77 242.98 C 311.71 245.63 316.73 248.13 321.91 250.26 C 321.31 253.50 320.61 256.72 320.31 260.00 C 319.67 266.36 321.20 272.72 320.57 279.08 C 320.26 282.02 318.97 284.73 317.88 287.44 C 313.96 284.45 309.95 281.57 305.97 278.67 C 307.14 275.64 308.09 272.51 308.71 269.31 C 304.74 265.88 305.80 260.50 305.34 255.88 C 304.64 253.99 303.84 252.15 302.93 250.35 C 300.99 246.31 297.35 243.56 293.49 241.50 C 293.01 241.21 292.04 240.65 291.56 240.37 C 292.19 239.16 292.82 237.96 293.46 236.76 Z" />
</g>
<g id="#81a7bdff">
<path fill="#81a7bd" opacity="1.00" d=" M 124.95 238.43 C 127.69 238.84 130.43 239.29 133.18 239.72 C 131.54 239.69 129.90 239.74 128.27 239.78 C 128.02 242.10 127.76 244.41 127.63 246.73 C 127.40 250.09 127.21 253.45 127.05 256.81 C 131.19 257.63 135.35 258.38 139.47 259.28 C 140.30 259.47 141.12 259.67 141.95 259.87 C 149.29 261.41 156.75 262.36 164.01 264.31 C 164.36 264.39 165.06 264.54 165.41 264.62 C 164.06 265.91 162.69 267.19 161.46 268.60 C 156.67 265.76 151.07 265.26 145.64 265.78 C 145.26 265.71 144.51 265.58 144.13 265.52 C 141.89 265.13 139.67 264.62 137.52 263.89 C 136.64 263.57 135.76 263.25 134.88 262.94 C 132.58 262.14 130.20 261.59 127.82 261.09 C 126.89 260.69 125.95 260.31 125.01 259.94 C 122.32 259.18 119.50 259.24 116.73 259.26 C 116.92 258.93 117.30 258.26 117.49 257.93 L 117.90 257.26 C 120.28 253.96 119.74 249.75 119.80 245.92 C 121.02 247.48 122.13 249.12 123.23 250.76 C 123.63 246.63 124.25 242.52 124.95 238.43 Z" />
</g>
<g id="#4d769aff">
<path fill="#4d769a" opacity="1.00" d=" M 227.89 250.82 C 228.93 245.44 233.39 240.42 238.89 239.58 C 243.00 241.27 246.57 244.06 250.64 245.87 C 251.91 250.80 252.56 255.93 251.83 261.00 C 248.24 267.68 242.34 272.58 237.53 278.34 C 234.25 282.12 231.49 286.45 227.30 289.32 C 223.97 284.78 225.27 279.09 225.64 273.92 C 226.40 266.23 226.32 258.42 227.89 250.82 Z" />
</g>
<g id="#c9e5f0ff">
<path fill="#c9e5f0" opacity="1.00" d=" M 54.25 243.68 C 55.56 242.46 56.86 241.22 58.15 239.98 C 58.28 242.11 58.41 244.25 58.54 246.39 C 61.89 247.24 65.24 248.12 68.59 248.97 C 68.20 249.74 67.82 250.51 67.44 251.28 C 66.74 251.39 65.34 251.61 64.64 251.72 C 64.50 251.43 64.23 250.86 64.09 250.58 C 61.43 250.14 58.23 248.91 55.88 250.85 C 52.59 253.62 52.79 258.30 51.04 261.93 C 48.05 262.92 44.81 262.87 41.87 264.00 C 39.36 265.74 38.65 268.96 37.46 271.61 C 40.04 271.87 42.62 272.12 45.20 272.28 C 47.56 272.45 49.94 272.41 52.29 272.16 C 52.35 273.08 52.40 274.01 52.44 274.94 C 52.47 276.75 52.42 278.56 52.37 280.38 C 62.37 281.83 72.60 282.60 82.14 286.18 C 86.43 287.74 90.82 288.99 95.27 290.02 C 98.64 287.76 102.10 285.60 105.13 282.90 C 111.13 285.02 117.16 287.07 123.15 289.23 L 123.92 289.49 C 128.60 291.79 133.08 295.93 138.62 295.37 C 144.88 293.48 150.06 289.25 155.59 285.91 C 154.52 282.96 153.62 279.94 153.19 276.82 C 155.28 276.77 157.38 276.71 159.47 276.65 C 161.23 279.32 163.08 281.93 165.03 284.46 C 164.37 285.32 163.71 286.18 163.02 287.01 C 155.26 294.81 147.12 302.29 140.24 310.91 C 141.20 311.88 142.17 312.86 143.14 313.84 C 133.68 312.90 125.13 308.42 115.99 306.15 C 87.71 298.60 59.38 291.18 31.00 284.01 C 22.77 281.74 13.61 281.17 6.82 275.42 C 8.82 271.01 12.91 268.21 16.51 265.22 C 21.71 261.12 28.34 259.73 34.06 256.58 C 38.20 254.38 41.18 250.28 45.83 249.01 C 49.09 248.07 51.83 246.00 54.25 243.68 Z" />
</g>
<g id="#434546ff">
<path fill="#434546" opacity="1.00" d=" M 128.27 239.78 C 129.90 239.74 131.54 239.69 133.18 239.72 C 133.84 239.82 135.18 240.00 135.84 240.10 C 145.15 242.78 154.81 243.75 164.27 245.75 C 170.28 247.04 176.67 247.15 182.33 249.74 C 182.99 251.33 183.24 253.07 183.47 254.78 C 181.97 255.33 180.48 255.90 178.99 256.48 C 178.59 258.28 178.28 260.13 177.60 261.86 C 175.32 262.43 172.95 262.51 170.65 262.91 C 172.80 262.03 175.11 261.27 176.87 259.67 C 176.87 258.58 176.72 257.50 176.53 256.44 C 176.14 256.20 175.36 255.73 174.97 255.49 C 173.22 253.01 171.75 250.30 169.64 248.10 C 168.58 248.17 167.54 248.39 166.51 248.64 C 165.85 249.65 165.20 250.68 164.56 251.71 C 160.54 251.51 156.53 251.20 152.51 250.94 C 152.10 253.06 151.66 255.17 151.25 257.29 C 149.05 257.79 146.84 258.29 144.68 258.94 C 146.84 257.38 149.04 255.77 150.70 253.66 C 149.02 249.71 146.75 245.62 143.11 243.18 C 139.83 245.03 136.48 247.40 134.30 250.42 C 135.56 253.22 137.31 255.78 138.89 258.42 C 136.46 254.44 131.67 255.18 127.77 255.74 C 127.67 252.74 127.56 249.74 127.63 246.73 C 127.76 244.41 128.02 242.10 128.27 239.78 M 155.70 246.97 C 155.04 249.84 158.84 249.29 160.60 250.19 C 160.61 249.30 160.65 247.52 160.67 246.63 C 159.01 246.67 157.34 246.69 155.70 246.97 Z" />
</g>
<g id="#7fa6bfff">
<path fill="#7fa6bf" opacity="1.00" d=" M 135.84 240.10 C 149.00 240.65 161.75 244.23 174.76 245.97 C 177.70 246.48 180.85 246.77 183.43 248.42 C 185.43 252.57 185.65 257.32 186.96 261.70 C 189.76 255.89 190.59 249.44 192.40 243.30 C 192.51 254.75 191.81 266.22 192.20 277.67 C 195.10 276.22 197.97 274.59 200.22 272.21 C 200.28 269.94 200.21 267.67 200.18 265.40 C 200.18 264.86 200.18 263.77 200.18 263.22 C 200.15 261.01 200.01 258.80 199.91 256.59 C 199.95 256.25 200.02 255.57 200.06 255.23 C 200.47 251.85 200.34 248.43 199.94 245.05 C 197.30 247.62 197.02 251.29 197.74 254.71 L 196.81 254.48 C 196.62 250.24 196.91 246.00 197.18 241.78 C 197.94 241.71 199.47 241.57 200.24 241.49 C 202.80 241.86 205.36 242.34 207.92 242.76 C 205.61 255.13 206.76 267.81 206.79 280.31 C 207.64 280.21 209.35 279.99 210.21 279.89 C 211.73 279.45 214.20 279.58 214.43 277.51 C 215.57 271.69 216.58 264.35 212.11 259.65 C 212.34 259.32 212.79 258.66 213.01 258.33 C 215.43 255.88 215.59 252.47 214.47 249.38 C 213.41 247.57 212.21 245.84 211.18 244.01 C 211.66 243.92 212.63 243.74 213.11 243.65 C 215.43 244.02 217.72 244.51 220.03 244.96 C 221.45 245.28 222.87 245.62 224.29 245.97 C 221.75 260.74 222.87 275.82 221.27 290.69 C 222.81 290.57 224.36 290.45 225.92 290.37 C 226.25 291.35 226.91 293.32 227.25 294.31 C 224.47 295.61 221.52 294.49 218.73 293.96 C 214.35 293.09 210.02 291.84 206.01 289.84 C 200.38 287.20 194.18 286.22 188.12 285.04 C 184.56 284.26 180.98 283.55 177.37 283.00 C 178.95 281.27 180.94 279.49 181.15 277.00 C 181.23 273.63 180.08 270.42 179.19 267.22 C 180.41 267.11 181.63 266.99 182.85 266.88 C 183.20 262.85 183.51 258.82 183.47 254.78 C 183.24 253.07 182.99 251.33 182.33 249.74 C 176.67 247.15 170.28 247.04 164.27 245.75 C 154.81 243.75 145.15 242.78 135.84 240.10 Z" />
</g>
<g id="#487299ff">
<path fill="#487299" opacity="1.00" d=" M 190.01 239.89 C 193.43 240.35 196.85 240.85 200.24 241.49 C 199.47 241.57 197.94 241.71 197.18 241.78 C 196.91 246.00 196.62 250.24 196.81 254.48 L 197.74 254.71 C 198.32 254.84 199.48 255.10 200.06 255.23 C 200.02 255.57 199.95 256.25 199.91 256.59 C 198.70 258.72 197.55 260.89 196.62 263.16 C 197.80 263.18 198.99 263.20 200.18 263.22 C 200.18 263.77 200.18 264.86 200.18 265.40 C 198.70 267.17 197.52 269.16 196.52 271.24 C 197.45 271.49 199.29 271.97 200.22 272.21 C 197.97 274.59 195.10 276.22 192.20 277.67 C 191.81 266.22 192.51 254.75 192.40 243.30 C 192.63 242.40 192.87 241.50 193.12 240.61 C 192.09 240.36 191.05 240.11 190.01 239.89 Z" />
</g>
<g id="#b8242aff">
<path fill="#b8242a" opacity="1.00" d=" M 266.34 246.17 C 273.56 240.85 282.84 239.71 291.56 240.37 C 292.04 240.65 293.01 241.21 293.49 241.50 C 291.89 247.52 292.27 254.40 288.70 259.72 C 283.03 264.41 274.57 263.60 268.17 260.90 C 266.73 260.15 265.33 259.33 263.93 258.52 C 262.64 259.25 261.35 259.98 260.07 260.72 C 260.01 260.00 259.88 258.56 259.81 257.84 C 261.87 253.89 263.84 249.87 266.34 246.17 M 276.28 251.24 C 275.33 252.65 275.34 254.44 274.96 256.04 C 276.70 255.56 278.98 255.83 280.25 254.32 C 280.59 252.94 280.68 251.52 280.86 250.13 C 279.34 250.48 277.60 250.34 276.28 251.24 Z" />
</g>
<g id="#a12328ff">
<path fill="#a12328" opacity="1.00" d=" M 293.49 241.50 C 297.35 243.56 300.99 246.31 302.93 250.35 C 300.76 251.93 298.28 253.43 297.24 256.04 C 295.26 259.92 294.31 264.82 290.41 267.33 C 286.69 269.21 282.42 269.47 278.41 270.38 C 275.72 269.83 273.06 269.17 270.39 268.57 C 270.04 267.37 269.68 266.16 269.34 264.96 C 268.97 263.60 268.56 262.25 268.17 260.90 C 274.57 263.60 283.03 264.41 288.70 259.72 C 292.27 254.40 291.89 247.52 293.49 241.50 Z" />
</g>
<g id="#2c2d5dff">
<path fill="#2c2d5d" opacity="1.00" d=" M 134.30 250.42 C 136.48 247.40 139.83 245.03 143.11 243.18 C 146.75 245.62 149.02 249.71 150.70 253.66 C 149.04 255.77 146.84 257.38 144.68 258.94 C 143.77 259.25 142.86 259.56 141.95 259.87 C 141.12 259.67 140.30 259.47 139.47 259.28 L 138.89 258.42 C 137.31 255.78 135.56 253.22 134.30 250.42 Z" />
</g>
<g id="#487399ff">
<path fill="#487399" opacity="1.00" d=" M 207.92 242.76 C 209.65 243.04 211.38 243.35 213.11 243.65 C 212.63 243.74 211.66 243.92 211.18 244.01 C 212.21 245.84 213.41 247.57 214.47 249.38 C 213.87 249.37 212.68 249.34 212.09 249.33 C 212.36 252.33 212.58 255.34 213.01 258.33 C 212.79 258.66 212.34 259.32 212.11 259.65 C 209.38 266.02 211.05 273.17 210.21 279.89 C 209.35 279.99 207.64 280.21 206.79 280.31 C 206.76 267.81 205.61 255.13 207.92 242.76 Z" />
</g>
<g id="#68302fff">
<path fill="#68302f" opacity="1.00" d=" M 155.70 246.97 C 157.34 246.69 159.01 246.67 160.67 246.63 C 160.65 247.52 160.61 249.30 160.60 250.19 C 158.84 249.29 155.04 249.84 155.70 246.97 Z" />
</g>
<g id="#485d33ff">
<path fill="#485d33" opacity="1.00" d=" M 197.74 254.71 C 197.02 251.29 197.30 247.62 199.94 245.05 C 200.34 248.43 200.47 251.85 200.06 255.23 C 199.48 255.10 198.32 254.84 197.74 254.71 Z" />
</g>
<g id="#202223ff">
<path fill="#202223" opacity="1.00" d=" M 112.20 247.13 C 115.46 247.53 115.02 252.21 116.07 254.65 C 114.15 254.63 112.23 254.60 110.30 254.58 C 110.72 252.05 111.01 249.44 112.20 247.13 Z" />
</g>
<g id="#62666bff">
<path fill="#62666b" opacity="1.00" d=" M 127.05 256.81 C 127.21 253.45 127.40 250.09 127.63 246.73 C 127.56 249.74 127.67 252.74 127.77 255.74 C 131.67 255.18 136.46 254.44 138.89 258.42 L 139.47 259.28 C 135.35 258.38 131.19 257.63 127.05 256.81 Z" />
</g>
<g id="#642827ff">
<path fill="#642827" opacity="1.00" d=" M 166.51 248.64 C 167.54 248.39 168.58 248.17 169.64 248.10 C 171.75 250.30 173.22 253.01 174.97 255.49 C 172.26 254.38 169.99 252.49 168.67 249.85 C 167.95 249.44 167.23 249.04 166.51 248.64 Z" />
</g>
<g id="#b42428ff">
<path fill="#b42428" opacity="1.00" d=" M 166.51 248.64 C 167.23 249.04 167.95 249.44 168.67 249.85 C 169.99 252.49 172.26 254.38 174.97 255.49 C 175.36 255.73 176.14 256.20 176.53 256.44 C 173.88 258.60 171.45 261.01 168.94 263.32 C 168.57 263.41 167.84 263.58 167.48 263.67 C 166.32 263.87 165.17 264.09 164.01 264.31 C 164.21 263.00 164.40 261.69 164.60 260.39 C 162.70 258.98 160.72 257.65 159.10 255.92 C 159.74 253.39 162.56 252.82 164.56 251.71 C 165.20 250.68 165.85 249.65 166.51 248.64 Z" />
</g>
<g id="#521d1dff">
<path fill="#521d1d" opacity="1.00" d=" M 212.09 249.33 C 212.68 249.34 213.87 249.37 214.47 249.38 C 215.59 252.47 215.43 255.88 213.01 258.33 C 212.58 255.34 212.36 252.33 212.09 249.33 Z" />
</g>
<g id="#3e9fc1ff">
<path fill="#3e9fc1" opacity="1.00" d=" M 55.88 250.85 C 58.23 248.91 61.43 250.14 64.09 250.58 C 61.16 253.26 57.61 255.12 53.78 256.13 C 56.51 256.54 59.22 257.09 61.89 257.79 C 58.25 261.28 53.10 262.13 49.02 264.91 C 46.16 266.85 43.00 268.23 39.71 269.25 C 39.60 269.56 39.39 270.20 39.29 270.52 C 41.25 271.13 43.21 271.75 45.20 272.28 C 42.62 272.12 40.04 271.87 37.46 271.61 C 38.65 268.96 39.36 265.74 41.87 264.00 C 44.81 262.87 48.05 262.92 51.04 261.93 C 52.79 258.30 52.59 253.62 55.88 250.85 Z" />
</g>
<g id="#c86575ff">
<path fill="#c86575" opacity="1.00" d=" M 276.28 251.24 C 277.60 250.34 279.34 250.48 280.86 250.13 C 280.68 251.52 280.59 252.94 280.25 254.32 C 278.98 255.83 276.70 255.56 274.96 256.04 C 275.34 254.44 275.33 252.65 276.28 251.24 Z" />
</g>
<g id="#38668dff">
<path fill="#38668d" opacity="1.00" d=" M 53.78 256.13 C 57.61 255.12 61.16 253.26 64.09 250.58 C 64.23 250.86 64.50 251.43 64.64 251.72 C 64.79 252.72 65.09 254.71 65.23 255.71 C 68.77 256.14 71.82 254.39 74.20 251.92 C 74.65 251.97 75.56 252.08 76.01 252.13 C 75.64 253.72 75.27 255.31 74.90 256.91 C 78.82 257.38 82.19 255.51 85.14 253.14 C 85.43 253.15 86.03 253.17 86.33 253.18 C 85.94 255.08 85.57 256.98 85.21 258.88 C 89.13 258.12 92.89 256.65 96.08 254.21 C 96.18 256.09 95.30 257.87 95.60 259.76 C 99.79 260.46 103.41 258.21 106.59 255.77 C 106.17 257.82 105.74 259.88 105.34 261.94 C 109.76 262.12 113.81 260.18 117.49 257.93 C 117.30 258.26 116.92 258.93 116.73 259.26 C 114.92 263.77 110.77 266.47 107.83 270.12 C 109.18 271.78 111.79 273.49 113.72 271.67 C 117.93 268.22 121.21 263.81 125.01 259.94 C 125.95 260.31 126.89 260.69 127.82 261.09 C 125.00 265.47 121.70 269.52 118.21 273.39 C 120.06 274.41 121.93 275.42 123.79 276.44 C 127.44 271.90 131.06 267.33 134.88 262.94 C 135.76 263.25 136.64 263.57 137.52 263.89 C 134.44 268.71 131.33 273.52 127.87 278.08 C 125.71 278.31 123.16 277.76 121.37 279.28 C 118.90 281.41 116.52 283.65 113.89 285.59 C 114.43 281.87 116.34 278.62 118.83 275.87 C 116.50 275.29 114.06 273.99 111.63 274.61 C 108.92 276.56 107.49 279.73 105.55 282.36 C 103.66 281.65 101.78 280.94 99.94 280.12 C 102.81 277.91 105.49 275.46 107.92 272.77 C 105.75 272.16 103.59 271.41 101.33 271.22 C 98.72 272.88 97.25 275.73 95.55 278.21 C 92.14 277.71 89.51 279.99 87.39 282.35 C 86.54 283.19 85.69 284.05 84.76 284.83 C 84.09 284.74 82.74 284.58 82.07 284.49 C 82.82 282.74 83.56 281.00 84.31 279.26 C 84.78 278.15 85.25 277.05 85.73 275.95 C 84.22 275.02 82.70 274.08 81.19 273.15 C 82.22 271.28 83.23 269.41 84.23 267.53 C 82.40 267.17 80.54 266.39 78.65 266.67 C 76.44 268.20 75.01 270.55 73.42 272.67 C 72.27 272.38 71.11 272.10 69.96 271.82 C 70.86 269.68 71.77 267.56 72.67 265.43 C 70.67 265.32 68.64 265.05 66.65 265.37 C 63.99 267.57 61.97 271.09 58.04 270.87 C 58.93 268.66 59.87 266.47 60.82 264.28 C 58.81 263.96 56.78 263.37 54.73 263.64 C 53.17 264.95 52.02 266.66 50.82 268.28 C 52.24 269.18 53.66 270.08 55.06 271.02 C 54.14 271.41 53.22 271.79 52.29 272.16 C 49.94 272.41 47.56 272.45 45.20 272.28 C 43.21 271.75 41.25 271.13 39.29 270.52 C 39.39 270.20 39.60 269.56 39.71 269.25 C 43.00 268.23 46.16 266.85 49.02 264.91 C 53.10 262.13 58.25 261.28 61.89 257.79 C 59.22 257.09 56.51 256.54 53.78 256.13 M 63.43 261.87 C 65.58 262.45 67.74 263.01 69.90 263.56 C 70.96 261.94 72.02 260.32 73.07 258.70 C 71.43 258.15 69.81 257.53 68.10 257.25 C 65.67 257.51 64.79 260.21 63.43 261.87 M 78.97 257.91 C 77.48 259.90 76.05 261.93 74.69 264.01 C 76.67 264.24 78.67 264.66 80.68 264.47 C 82.15 263.48 83.32 262.11 84.57 260.87 C 82.71 259.87 80.84 258.88 78.97 257.91 M 90.27 260.41 C 88.31 261.48 87.26 263.62 85.90 265.31 C 87.85 265.68 89.85 266.75 91.86 266.26 C 93.77 265.14 95.10 263.32 96.58 261.72 C 94.51 261.17 92.44 260.32 90.27 260.41 M 96.79 267.73 C 98.87 268.25 100.95 268.74 103.03 269.24 C 104.57 267.36 106.10 265.46 107.61 263.55 C 105.48 263.22 103.32 262.55 101.15 262.87 C 99.13 263.85 98.11 266.02 96.79 267.73 M 85.81 273.81 C 87.81 274.30 89.82 274.78 91.83 275.27 C 93.33 273.69 94.84 272.11 96.33 270.53 C 94.03 269.63 91.69 268.28 89.14 268.74 C 87.77 270.24 86.81 272.05 85.81 273.81 Z" />
</g>
<g id="#439fc0ff">
<path fill="#439fc0" opacity="1.00" d=" M 67.44 251.28 C 69.70 251.35 71.95 251.63 74.20 251.92 C 71.82 254.39 68.77 256.14 65.23 255.71 C 65.09 254.71 64.79 252.72 64.64 251.72 C 65.34 251.61 66.74 251.39 67.44 251.28 Z" />
</g>
<g id="#58595cff">
<path fill="#58595c" opacity="1.00" d=" M 152.51 250.94 C 156.53 251.20 160.54 251.51 164.56 251.71 C 162.56 252.82 159.74 253.39 159.10 255.92 C 160.72 257.65 162.70 258.98 164.60 260.39 C 164.40 261.69 164.21 263.00 164.01 264.31 C 156.75 262.36 149.29 261.41 141.95 259.87 C 142.86 259.56 143.77 259.25 144.68 258.94 C 146.84 258.29 149.05 257.79 151.25 257.29 C 151.66 255.17 152.10 253.06 152.51 250.94 Z" />
</g>
<g id="#851f21ff">
<path fill="#851f21" opacity="1.00" d=" M 302.93 250.35 C 303.84 252.15 304.64 253.99 305.34 255.88 C 302.28 260.77 299.06 265.73 294.62 269.48 C 291.11 271.71 286.66 271.14 282.70 271.15 C 281.04 270.95 279.40 270.69 277.76 270.50 L 278.41 270.38 C 282.42 269.47 286.69 269.21 290.41 267.33 C 294.31 264.82 295.26 259.92 297.24 256.04 C 298.28 253.43 300.76 251.93 302.93 250.35 Z" />
</g>
<g id="#3f9dbfff">
<path fill="#3f9dbf" opacity="1.00" d=" M 76.01 252.13 C 79.06 252.45 82.09 252.84 85.14 253.14 C 82.19 255.51 78.82 257.38 74.90 256.91 C 75.27 255.31 75.64 253.72 76.01 252.13 Z" />
</g>
<g id="#409bbcff">
<path fill="#409bbc" opacity="1.00" d=" M 86.33 253.18 C 90.59 252.76 94.88 252.53 99.15 252.97 C 105.45 254.18 111.69 255.67 117.90 257.26 L 117.49 257.93 C 113.81 260.18 109.76 262.12 105.34 261.94 C 105.74 259.88 106.17 257.82 106.59 255.77 C 103.41 258.21 99.79 260.46 95.60 259.76 C 95.30 257.87 96.18 256.09 96.08 254.21 C 92.89 256.65 89.13 258.12 85.21 258.88 C 85.57 256.98 85.94 255.08 86.33 253.18 Z" />
</g>
<g id="#6a97b8ff">
<path fill="#6a97b8" opacity="1.00" d=" M 326.46 252.48 C 330.66 249.73 335.57 251.02 339.40 253.77 C 338.38 260.45 338.56 267.22 338.95 273.95 C 339.03 278.01 339.68 282.28 338.04 286.15 C 335.69 291.05 337.52 296.60 336.60 301.78 C 334.76 301.30 332.93 300.82 331.09 300.35 C 330.72 286.85 333.86 273.47 332.93 259.98 C 332.98 256.98 330.29 255.29 328.23 253.63 C 327.11 260.14 326.54 266.73 325.44 273.24 C 325.35 266.31 325.47 259.36 326.46 252.48 Z" />
</g>
<g id="#5b5e64ff">
<path fill="#5b5e64" opacity="1.00" d=" M 178.99 256.48 C 180.48 255.90 181.97 255.33 183.47 254.78 C 183.51 258.82 183.20 262.85 182.85 266.88 C 181.63 266.99 180.41 267.11 179.19 267.22 C 177.20 266.04 175.21 264.86 173.14 263.83 C 171.26 263.66 169.36 263.60 167.48 263.67 C 167.84 263.58 168.57 263.41 168.94 263.32 C 169.36 263.22 170.22 263.01 170.65 262.91 C 172.95 262.51 175.32 262.43 177.60 261.86 C 178.28 260.13 178.59 258.28 178.99 256.48 Z" />
</g>
<g id="#5a2020ff">
<path fill="#5a2020" opacity="1.00" d=" M 176.53 256.44 C 176.72 257.50 176.87 258.58 176.87 259.67 C 175.11 261.27 172.80 262.03 170.65 262.91 C 170.22 263.01 169.36 263.22 168.94 263.32 C 171.45 261.01 173.88 258.60 176.53 256.44 Z" />
</g>
<g id="#60191aff">
<path fill="#60191a" opacity="1.00" d=" M 305.34 255.88 C 305.80 260.50 304.74 265.88 308.71 269.31 C 308.42 269.38 307.85 269.51 307.57 269.58 C 299.38 271.07 291.01 272.70 282.70 271.15 C 286.66 271.14 291.11 271.71 294.62 269.48 C 299.06 265.73 302.28 260.77 305.34 255.88 Z" />
</g>
<g id="#3c9dc0ff">
<path fill="#3c9dc0" opacity="1.00" d=" M 63.43 261.87 C 64.79 260.21 65.67 257.51 68.10 257.25 C 69.81 257.53 71.43 258.15 73.07 258.70 C 72.02 260.32 70.96 261.94 69.90 263.56 C 67.74 263.01 65.58 262.45 63.43 261.87 Z" />
</g>
<g id="#3b454cff">
<path fill="#3b454c" opacity="1.00" d=" M 196.62 263.16 C 197.55 260.89 198.70 258.72 199.91 256.59 C 200.01 258.80 200.15 261.01 200.18 263.22 C 198.99 263.20 197.80 263.18 196.62 263.16 Z" />
</g>
<g id="#3c9bbeff">
<path fill="#3c9bbe" opacity="1.00" d=" M 78.97 257.91 C 80.84 258.88 82.71 259.87 84.57 260.87 C 83.32 262.11 82.15 263.48 80.68 264.47 C 78.67 264.66 76.67 264.24 74.69 264.01 C 76.05 261.93 77.48 259.90 78.97 257.91 Z" />
</g>
<g id="#436e9eff">
<path fill="#436e9e" opacity="1.00" d=" M 253.60 271.29 C 255.34 266.67 257.61 262.26 259.81 257.84 C 259.88 258.56 260.01 260.00 260.07 260.72 C 260.48 264.50 261.06 268.27 262.09 271.94 C 262.49 273.40 262.88 274.88 263.37 276.33 C 259.90 277.31 256.41 278.15 252.90 278.94 C 253.11 276.39 253.34 273.84 253.60 271.29 Z" />
</g>
<g id="#3799bcff">
<path fill="#3799bc" opacity="1.00" d=" M 116.73 259.26 C 119.50 259.24 122.32 259.18 125.01 259.94 C 121.21 263.81 117.93 268.22 113.72 271.67 C 111.79 273.49 109.18 271.78 107.83 270.12 C 110.77 266.47 114.92 263.77 116.73 259.26 Z" />
</g>
<g id="#648ca9ff">
<path fill="#648ca9" opacity="1.00" d=" M 210.21 279.89 C 211.05 273.17 209.38 266.02 212.11 259.65 C 216.58 264.35 215.57 271.69 214.43 277.51 C 214.20 279.58 211.73 279.45 210.21 279.89 Z" />
</g>
<g id="#596574ff">
<path fill="#596574" opacity="1.00" d=" M 260.07 260.72 C 261.35 259.98 262.64 259.25 263.93 258.52 C 265.33 259.33 266.73 260.15 268.17 260.90 C 268.56 262.25 268.97 263.60 269.34 264.96 C 270.00 268.86 268.09 272.25 264.98 274.46 C 263.99 273.64 263.03 272.80 262.09 271.94 C 261.06 268.27 260.48 264.50 260.07 260.72 Z" />
</g>
<g id="#3a9cbfff">
<path fill="#3a9cbf" opacity="1.00" d=" M 90.27 260.41 C 92.44 260.32 94.51 261.17 96.58 261.72 C 95.10 263.32 93.77 265.14 91.86 266.26 C 89.85 266.75 87.85 265.68 85.90 265.31 C 87.26 263.62 88.31 261.48 90.27 260.41 Z" />
<path fill="#3a9cbf" opacity="1.00" d=" M 85.81 273.81 C 86.81 272.05 87.77 270.24 89.14 268.74 C 91.69 268.28 94.03 269.63 96.33 270.53 C 94.84 272.11 93.33 273.69 91.83 275.27 C 89.82 274.78 87.81 274.30 85.81 273.81 Z" />
</g>
<g id="#3398bbff">
<path fill="#3398bb" opacity="1.00" d=" M 127.82 261.09 C 130.20 261.59 132.58 262.14 134.88 262.94 C 131.06 267.33 127.44 271.90 123.79 276.44 C 121.93 275.42 120.06 274.41 118.21 273.39 C 121.70 269.52 125.00 265.47 127.82 261.09 Z" />
</g>
<g id="#369cbfff">
<path fill="#369cbf" opacity="1.00" d=" M 54.73 263.64 C 56.78 263.37 58.81 263.96 60.82 264.28 C 59.87 266.47 58.93 268.66 58.04 270.87 C 61.97 271.09 63.99 267.57 66.65 265.37 C 68.64 265.05 70.67 265.32 72.67 265.43 C 71.77 267.56 70.86 269.68 69.96 271.82 C 71.11 272.10 72.27 272.38 73.42 272.67 C 75.01 270.55 76.44 268.20 78.65 266.67 C 80.54 266.39 82.40 267.17 84.23 267.53 C 83.23 269.41 82.22 271.28 81.19 273.15 C 82.70 274.08 84.22 275.02 85.73 275.95 C 85.25 277.05 84.78 278.15 84.31 279.26 C 79.99 279.40 75.68 278.84 71.48 277.89 C 65.20 276.48 58.82 275.65 52.44 274.94 C 52.40 274.01 52.35 273.08 52.29 272.16 C 53.22 271.79 54.14 271.41 55.06 271.02 C 53.66 270.08 52.24 269.18 50.82 268.28 C 52.02 266.66 53.17 264.95 54.73 263.64 Z" />
</g>
<g id="#389cbeff">
<path fill="#389cbe" opacity="1.00" d=" M 96.79 267.73 C 98.11 266.02 99.13 263.85 101.15 262.87 C 103.32 262.55 105.48 263.22 107.61 263.55 C 106.10 265.46 104.57 267.36 103.03 269.24 C 100.95 268.74 98.87 268.25 96.79 267.73 Z" />
</g>
<g id="#3397bbff">
<path fill="#3397bb" opacity="1.00" d=" M 137.52 263.89 C 139.67 264.62 141.89 265.13 144.13 265.52 C 141.83 269.11 139.91 272.96 137.21 276.27 C 134.47 279.50 129.74 279.75 126.75 282.63 C 125.14 284.58 124.24 286.98 123.15 289.23 C 117.16 287.07 111.13 285.02 105.13 282.90 L 105.55 282.36 C 107.49 279.73 108.92 276.56 111.63 274.61 C 114.06 273.99 116.50 275.29 118.83 275.87 C 116.34 278.62 114.43 281.87 113.89 285.59 C 116.52 283.65 118.90 281.41 121.37 279.28 C 123.16 277.76 125.71 278.31 127.87 278.08 C 131.33 273.52 134.44 268.71 137.52 263.89 Z" />
</g>
<g id="#3b89aeff">
<path fill="#3b89ae" opacity="1.00" d=" M 164.01 264.31 C 165.17 264.09 166.32 263.87 167.48 263.67 C 169.36 263.60 171.26 263.66 173.14 263.83 C 175.88 268.72 178.38 274.26 176.58 279.95 C 174.21 278.48 171.88 276.96 169.54 275.46 C 167.77 278.30 166.41 281.38 165.80 284.69 C 164.85 285.43 163.92 286.20 163.02 287.01 C 163.71 286.18 164.37 285.32 165.03 284.46 C 163.08 281.93 161.23 279.32 159.47 276.65 C 159.60 276.00 159.86 274.70 160.00 274.05 C 162.98 273.46 166.06 273.05 168.85 271.77 C 169.83 269.83 169.98 267.62 170.40 265.53 C 168.73 265.24 167.06 264.94 165.41 264.62 C 165.06 264.54 164.36 264.39 164.01 264.31 Z" />
</g>
<g id="#426b93ff">
<path fill="#426b93" opacity="1.00" d=" M 173.14 263.83 C 175.21 264.86 177.20 266.04 179.19 267.22 C 180.08 270.42 181.23 273.63 181.15 277.00 C 180.94 279.49 178.95 281.27 177.37 283.00 C 176.99 283.38 176.25 284.13 175.87 284.51 C 172.89 283.63 169.76 284.01 166.75 284.53 L 165.80 284.69 C 166.41 281.38 167.77 278.30 169.54 275.46 C 171.88 276.96 174.21 278.48 176.58 279.95 C 178.38 274.26 175.88 268.72 173.14 263.83 Z" />
</g>
<g id="#739fbaff">
<path fill="#739fba" opacity="1.00" d=" M 251.71 263.43 L 252.22 263.81 C 252.88 266.26 253.23 268.78 253.60 271.29 C 253.34 273.84 253.11 276.39 252.90 278.94 C 256.41 278.15 259.90 277.31 263.37 276.33 C 267.52 281.91 274.04 284.88 279.96 288.19 C 281.08 288.78 282.20 289.40 283.33 290.01 C 281.55 291.14 279.77 292.26 278.00 293.39 C 278.45 295.40 278.91 297.40 279.37 299.41 C 277.36 298.99 275.35 298.57 273.34 298.12 C 271.46 295.55 269.45 292.99 266.72 291.27 C 261.56 287.94 256.44 284.55 251.33 281.17 C 248.98 278.10 250.24 273.71 249.35 270.12 C 248.50 267.47 250.09 265.35 251.71 263.43 Z" />
</g>
<g id="#b1cddbff">
<path fill="#b1cddb" opacity="1.00" d=" M 145.64 265.78 C 151.07 265.26 156.67 265.76 161.46 268.60 C 160.86 270.38 160.40 272.21 160.00 274.05 C 159.86 274.70 159.60 276.00 159.47 276.65 C 157.38 276.71 155.28 276.77 153.19 276.82 C 155.10 275.70 156.92 274.45 158.74 273.20 C 157.73 271.88 156.73 270.57 155.68 269.30 C 152.93 268.08 150.06 267.19 147.21 266.24 C 146.82 266.13 146.03 265.89 145.64 265.78 Z" />
</g>
<g id="#39a6c9ff">
<path fill="#39a6c9" opacity="1.00" d=" M 165.41 264.62 C 167.06 264.94 168.73 265.24 170.40 265.53 C 169.98 267.62 169.83 269.83 168.85 271.77 C 166.06 273.05 162.98 273.46 160.00 274.05 C 160.40 272.21 160.86 270.38 161.46 268.60 C 162.69 267.19 164.06 265.91 165.41 264.62 M 166.16 269.20 C 165.63 270.82 166.18 271.38 167.82 270.86 C 168.34 269.23 167.79 268.68 166.16 269.20 Z" />
</g>
<g id="#313242ff">
<path fill="#313242" opacity="1.00" d=" M 269.34 264.96 C 269.68 266.16 270.04 267.37 270.39 268.57 C 273.06 269.17 275.72 269.83 278.41 270.38 L 277.76 270.50 C 277.45 270.56 276.83 270.68 276.52 270.74 C 276.80 271.55 277.10 272.37 277.41 273.18 C 275.32 272.76 273.24 272.29 271.15 271.84 C 269.77 273.27 268.39 274.70 267.00 276.12 C 266.32 275.57 265.64 275.02 264.98 274.46 C 268.09 272.25 270.00 268.86 269.34 264.96 Z" />
</g>
<g id="#437095ff">
<path fill="#437095" opacity="1.00" d=" M 144.13 265.52 C 144.51 265.58 145.26 265.71 145.64 265.78 C 146.03 265.89 146.82 266.13 147.21 266.24 C 145.40 269.44 144.03 272.87 143.36 276.50 C 138.17 281.20 130.45 282.80 127.11 289.49 C 126.04 289.50 124.98 289.51 123.92 289.49 L 123.15 289.23 C 124.24 286.98 125.14 284.58 126.75 282.63 C 129.74 279.75 134.47 279.50 137.21 276.27 C 139.91 272.96 141.83 269.11 144.13 265.52 Z" />
</g>
<g id="#2f3436ff">
<path fill="#2f3436" opacity="1.00" d=" M 196.52 271.24 C 197.52 269.16 198.70 267.17 200.18 265.40 C 200.21 267.67 200.28 269.94 200.22 272.21 C 199.29 271.97 197.45 271.49 196.52 271.24 Z" />
</g>
<g id="#3296b9ff">
<path fill="#3296b9" opacity="1.00" d=" M 147.21 266.24 C 150.06 267.19 152.93 268.08 155.68 269.30 C 153.30 271.05 151.19 273.14 149.30 275.40 C 149.99 275.91 151.37 276.91 152.06 277.41 C 150.08 277.38 148.10 277.19 146.14 276.93 C 145.21 276.78 144.29 276.63 143.36 276.50 C 144.03 272.87 145.40 269.44 147.21 266.24 Z" />
</g>
<g id="#b4deedff">
<path fill="#b4deed" opacity="1.00" d=" M 166.16 269.20 C 167.79 268.68 168.34 269.23 167.82 270.86 C 166.18 271.38 165.63 270.82 166.16 269.20 Z" />
</g>
<g id="#2d2b39ff">
<path fill="#2d2b39" opacity="1.00" d=" M 282.70 271.15 C 291.01 272.70 299.38 271.07 307.57 269.58 C 307.18 270.17 306.41 271.36 306.03 271.96 C 298.85 274.28 291.21 274.91 283.73 274.16 C 281.61 273.86 279.51 273.56 277.41 273.18 C 277.10 272.37 276.80 271.55 276.52 270.74 C 276.83 270.68 277.45 270.56 277.76 270.50 C 279.40 270.69 281.04 270.95 282.70 271.15 Z" />
</g>
<g id="#8e9ca8ff">
<path fill="#8e9ca8" opacity="1.00" d=" M 308.71 269.31 C 308.09 272.51 307.14 275.64 305.97 278.67 C 302.93 280.61 300.07 282.82 297.10 284.85 C 291.81 287.53 285.85 288.53 279.96 288.19 C 274.04 284.88 267.52 281.91 263.37 276.33 C 262.88 274.88 262.49 273.40 262.09 271.94 C 263.03 272.80 263.99 273.64 264.98 274.46 C 265.64 275.02 266.32 275.57 267.00 276.12 C 268.39 274.70 269.77 273.27 271.15 271.84 C 273.24 272.29 275.32 272.76 277.41 273.18 C 279.51 273.56 281.61 273.86 283.73 274.16 C 286.58 274.61 289.41 275.21 292.23 275.82 C 286.23 277.08 280.09 277.48 273.97 277.58 C 274.26 279.42 274.49 281.29 274.94 283.11 C 278.73 285.34 283.41 284.93 287.60 284.42 C 295.24 283.34 302.28 278.76 306.03 271.96 C 306.41 271.36 307.18 270.17 307.57 269.58 C 307.85 269.51 308.42 269.38 308.71 269.31 Z" />
</g>
<g id="#476d95ff">
<path fill="#476d95" opacity="1.00" d=" M 149.30 275.40 C 151.19 273.14 153.30 271.05 155.68 269.30 C 156.73 270.57 157.73 271.88 158.74 273.20 C 156.92 274.45 155.10 275.70 153.19 276.82 C 152.91 276.97 152.34 277.27 152.06 277.41 C 151.37 276.91 149.99 275.91 149.30 275.40 Z" />
</g>
<g id="#379abeff">
<path fill="#379abe" opacity="1.00" d=" M 101.33 271.22 C 103.59 271.41 105.75 272.16 107.92 272.77 C 105.49 275.46 102.81 277.91 99.94 280.12 C 99.59 279.96 98.89 279.64 98.54 279.48 C 97.79 279.16 96.30 278.53 95.55 278.21 C 97.25 275.73 98.72 272.88 101.33 271.22 Z" />
</g>
<g id="#3883a8ff">
<path fill="#3883a8" opacity="1.00" d=" M 52.44 274.94 C 58.82 275.65 65.20 276.48 71.48 277.89 C 75.68 278.84 79.99 279.40 84.31 279.26 C 83.56 281.00 82.82 282.74 82.07 284.49 C 82.74 284.58 84.09 284.74 84.76 284.83 C 83.90 285.29 83.02 285.74 82.14 286.18 C 72.60 282.60 62.37 281.83 52.37 280.38 C 52.42 278.56 52.47 276.75 52.44 274.94 Z" />
</g>
<g id="#e3f2f7ff">
<path fill="#e3f2f7" opacity="1.00" d=" M 5.82 274.68 L 6.82 275.42 C 13.61 281.17 22.77 281.74 31.00 284.01 C 59.38 291.18 87.71 298.60 115.99 306.15 C 125.13 308.42 133.68 312.90 143.14 313.84 C 145.32 314.19 147.50 314.61 149.65 315.15 C 155.68 317.73 162.05 319.43 168.57 320.17 C 167.80 320.95 167.01 321.72 166.26 322.53 C 160.30 321.95 154.34 321.14 148.56 319.53 C 106.23 308.02 63.79 296.93 21.42 285.55 C 15.31 283.70 7.71 283.91 3.79 277.99 C 4.46 276.88 5.14 275.78 5.82 274.68 Z" />
</g>
<g id="#e6e7e8ff">
<path fill="#e6e7e8" opacity="1.00" d=" M 143.36 276.50 C 144.29 276.63 145.21 276.78 146.14 276.93 C 148.11 277.87 149.99 278.96 151.89 280.03 C 146.25 284.47 138.60 286.81 135.43 293.82 C 132.63 292.43 129.85 290.98 127.11 289.49 C 130.45 282.80 138.17 281.20 143.36 276.50 Z" />
</g>
<g id="#8b949cff">
<path fill="#8b949c" opacity="1.00" d=" M 146.14 276.93 C 148.10 277.19 150.08 277.38 152.06 277.41 C 152.34 277.27 152.91 276.97 153.19 276.82 C 153.62 279.94 154.52 282.96 155.59 285.91 C 150.06 289.25 144.88 293.48 138.62 295.37 C 133.08 295.93 128.60 291.79 123.92 289.49 C 124.98 289.51 126.04 289.50 127.11 289.49 C 129.85 290.98 132.63 292.43 135.43 293.82 C 138.60 286.81 146.25 284.47 151.89 280.03 C 149.99 278.96 148.11 277.87 146.14 276.93 Z" />
</g>
<g id="#c0dae6ff">
<path fill="#c0dae6" opacity="1.00" d=" M 2.91 277.03 L 3.79 277.99 C 7.71 283.91 15.31 283.70 21.42 285.55 C 63.79 296.93 106.23 308.02 148.56 319.53 C 154.34 321.14 160.30 321.95 166.26 322.53 C 164.45 324.50 162.97 326.73 161.46 328.93 C 151.91 328.89 142.91 325.49 133.79 323.11 C 112.36 317.38 91.06 311.19 69.68 305.26 C 52.34 300.69 35.11 295.72 17.82 291.01 C 12.37 289.56 6.52 286.29 1.00 289.40 L 0.01 289.75 C 0.18 285.35 1.76 281.22 2.91 277.03 Z" />
</g>
<g id="#e7e9eaff">
<path fill="#e7e9ea" opacity="1.00" d=" M 87.39 282.35 C 89.51 279.99 92.14 277.71 95.55 278.21 C 96.30 278.53 97.79 279.16 98.54 279.48 C 97.46 280.92 96.35 282.32 95.26 283.75 C 93.82 284.41 92.34 285.32 90.70 285.20 C 89.43 284.46 88.45 283.33 87.39 282.35 Z" />
</g>
<g id="#99a2aaff">
<path fill="#99a2aa" opacity="1.00" d=" M 98.54 279.48 C 98.89 279.64 99.59 279.96 99.94 280.12 C 101.78 280.94 103.66 281.65 105.55 282.36 L 105.13 282.90 C 102.10 285.60 98.64 287.76 95.27 290.02 C 95.23 287.93 95.17 285.84 95.26 283.75 C 96.35 282.32 97.46 280.92 98.54 279.48 Z" />
</g>
<g id="#9cbcceff">
<path fill="#9cbcce" opacity="1.00" d=" M 297.10 284.85 C 300.07 282.82 302.93 280.61 305.97 278.67 C 309.95 281.57 313.96 284.45 317.88 287.44 C 317.23 289.07 316.62 290.71 316.04 292.37 C 315.27 292.74 314.50 293.13 313.75 293.53 C 308.72 289.80 303.70 285.20 297.10 284.85 Z" />
</g>
<g id="#bdc7cdff">
<path fill="#bdc7cd" opacity="1.00" d=" M 84.76 284.83 C 85.69 284.05 86.54 283.19 87.39 282.35 C 88.45 283.33 89.43 284.46 90.70 285.20 C 92.34 285.32 93.82 284.41 95.26 283.75 C 95.17 285.84 95.23 287.93 95.27 290.02 C 90.82 288.99 86.43 287.74 82.14 286.18 C 83.02 285.74 83.90 285.29 84.76 284.83 Z" />
</g>
<g id="#84acc4ff">
<path fill="#84acc4" opacity="1.00" d=" M 251.33 281.17 C 256.44 284.55 261.56 287.94 266.72 291.27 C 269.45 292.99 271.46 295.55 273.34 298.12 C 275.35 298.57 277.36 298.99 279.37 299.41 C 278.91 297.40 278.45 295.40 278.00 293.39 C 279.77 292.26 281.55 291.14 283.33 290.01 C 282.20 289.40 281.08 288.78 279.96 288.19 C 285.85 288.53 291.81 287.53 297.10 284.85 C 303.70 285.20 308.72 289.80 313.75 293.53 C 314.50 293.13 315.27 292.74 316.04 292.37 C 318.41 291.27 320.90 290.43 323.41 289.69 C 319.23 295.18 311.97 295.56 305.75 296.84 C 299.41 298.19 292.48 298.25 286.95 302.05 C 284.25 303.88 281.23 305.34 277.90 305.40 C 267.89 302.51 258.98 296.63 251.96 288.98 C 252.19 292.53 251.70 296.72 254.66 299.33 C 260.93 305.55 268.76 310.23 277.21 312.81 C 280.42 315.31 281.99 319.16 283.27 322.90 C 271.42 321.52 260.62 314.77 252.38 306.39 C 247.87 302.07 248.70 295.50 249.07 289.86 C 249.22 286.84 249.95 283.87 251.33 281.17 Z" />
</g>
<g id="#354677ff">
<path fill="#354677" opacity="1.00" d=" M 166.75 284.53 C 169.76 284.01 172.89 283.63 175.87 284.51 C 181.32 286.31 186.59 288.58 191.75 291.07 C 185.19 294.03 178.69 289.61 172.93 286.84 C 171.60 286.02 170.23 285.27 168.81 284.64 C 168.29 284.61 167.26 284.56 166.75 284.53 Z" />
</g>
<g id="#bad0dfff">
<path fill="#bad0df" opacity="1.00" d=" M 175.87 284.51 C 176.25 284.13 176.99 283.38 177.37 283.00 C 180.98 283.55 184.56 284.26 188.12 285.04 C 187.28 285.14 185.59 285.34 184.75 285.45 C 188.40 287.57 192.28 289.28 196.28 290.60 C 196.57 292.36 196.77 294.13 197.03 295.90 C 196.86 295.38 196.50 294.33 196.32 293.80 C 194.92 292.70 193.28 291.97 191.75 291.07 C 186.59 288.58 181.32 286.31 175.87 284.51 Z" />
</g>
<g id="#2f2e62ff">
<path fill="#2f2e62" opacity="1.00" d=" M 165.80 284.69 L 166.75 284.53 C 167.26 284.56 168.29 284.61 168.81 284.64 C 168.83 288.21 168.81 291.78 168.85 295.35 C 166.44 297.58 162.09 299.18 161.91 302.84 C 163.34 306.48 168.06 306.55 171.33 307.24 C 173.61 307.19 175.88 307.00 178.13 306.65 C 179.54 305.17 180.92 303.63 181.90 301.83 C 180.84 298.88 177.88 297.30 175.89 295.04 C 173.61 292.95 173.64 289.63 172.93 286.84 C 178.69 289.61 185.19 294.03 191.75 291.07 C 189.57 294.86 186.99 298.41 184.12 301.71 C 179.96 306.35 176.01 311.17 171.62 315.58 C 170.06 316.97 168.37 318.86 166.06 318.43 C 160.48 317.96 155.12 316.19 149.65 315.15 C 147.50 314.61 145.32 314.19 143.14 313.84 C 142.17 312.86 141.20 311.88 140.24 310.91 C 147.12 302.29 155.26 294.81 163.02 287.01 C 163.92 286.20 164.85 285.43 165.80 284.69 Z" />
</g>
<g id="#111515ff">
<path fill="#111515" opacity="1.00" d=" M 168.81 284.64 C 170.23 285.27 171.60 286.02 172.93 286.84 C 173.64 289.63 173.61 292.95 175.89 295.04 C 177.88 297.30 180.84 298.88 181.90 301.83 C 180.92 303.63 179.54 305.17 178.13 306.65 C 175.51 303.28 172.80 299.99 170.02 296.76 C 169.73 296.41 169.14 295.70 168.85 295.35 C 168.81 291.78 168.83 288.21 168.81 284.64 Z" />
</g>
<g id="#edf7f6ff">
<path fill="#edf7f6" opacity="1.00" d=" M 184.75 285.45 C 185.59 285.34 187.28 285.14 188.12 285.04 C 194.18 286.22 200.38 287.20 206.01 289.84 C 205.82 292.00 202.97 292.43 201.20 292.77 C 201.19 294.67 200.26 298.79 197.68 296.53 L 197.03 295.90 C 196.77 294.13 196.57 292.36 196.28 290.60 C 192.28 289.28 188.40 287.57 184.75 285.45 Z" />
</g>
<g id="#aac9dbff">
<path fill="#aac9db" opacity="1.00" d=" M 1.00 289.40 C 6.52 286.29 12.37 289.56 17.82 291.01 C 35.11 295.72 52.34 300.69 69.68 305.26 C 91.06 311.19 112.36 317.38 133.79 323.11 C 142.91 325.49 151.91 328.89 161.46 328.93 C 162.97 326.73 164.45 324.50 166.26 322.53 C 167.01 321.72 167.80 320.95 168.57 320.17 C 162.05 319.43 155.68 317.73 149.65 315.15 C 155.12 316.19 160.48 317.96 166.06 318.43 C 168.37 318.86 170.06 316.97 171.62 315.58 C 176.01 311.17 179.96 306.35 184.12 301.71 C 185.14 302.11 186.16 302.52 187.18 302.93 C 181.89 309.68 176.51 316.47 169.64 321.72 C 165.87 324.48 164.34 329.04 163.04 333.33 C 166.36 332.72 169.67 332.02 172.92 331.11 C 172.67 331.79 172.17 333.15 171.92 333.83 C 165.05 334.98 157.88 334.24 151.26 332.10 C 141.06 329.36 130.91 326.40 120.57 324.24 C 112.70 322.09 105.05 319.16 97.05 317.52 C 86.66 315.47 76.78 311.43 66.34 309.57 C 58.14 307.53 49.99 305.31 41.86 303.00 C 32.67 299.96 23.48 296.85 14.09 294.48 C 11.13 293.61 7.79 294.14 5.11 292.42 C 3.63 291.57 2.30 290.49 1.00 289.40 Z" />
</g>
<g id="#2a3161ff">
<path fill="#2a3161" opacity="1.00" d=" M 251.96 288.98 C 258.98 296.63 267.89 302.51 277.90 305.40 C 281.82 306.33 285.87 306.40 289.86 306.01 C 288.70 306.41 287.56 306.85 286.42 307.29 C 286.33 309.12 286.24 310.95 286.15 312.79 C 287.84 312.90 289.54 313.03 291.25 313.09 C 289.42 313.33 287.59 313.56 285.76 313.70 C 282.89 313.61 280.03 313.30 277.21 312.81 C 268.76 310.23 260.93 305.55 254.66 299.33 C 251.70 296.72 252.19 292.53 251.96 288.98 Z" />
</g>
<g id="#729cb9ff">
<path fill="#729cb9" opacity="1.00" d=" M 191.75 291.07 C 193.28 291.97 194.92 292.70 196.32 293.80 C 191.03 299.14 187.10 305.61 182.78 311.71 C 179.94 315.54 178.09 320.08 178.13 324.90 C 178.06 327.89 175.39 329.93 172.92 331.11 C 169.67 332.02 166.36 332.72 163.04 333.33 C 164.34 329.04 165.87 324.48 169.64 321.72 C 176.51 316.47 181.89 309.68 187.18 302.93 C 186.16 302.52 185.14 302.11 184.12 301.71 C 186.99 298.41 189.57 294.86 191.75 291.07 Z" />
</g>
<g id="#50789aff">
<path fill="#50789a" opacity="1.00" d=" M 182.78 311.71 C 187.10 305.61 191.03 299.14 196.32 293.80 C 196.50 294.33 196.86 295.38 197.03 295.90 C 197.58 298.63 199.91 301.40 198.19 304.19 C 195.84 308.65 191.59 311.61 188.13 315.15 C 184.73 318.34 182.42 322.73 178.13 324.90 C 178.09 320.08 179.94 315.54 182.78 311.71 Z" />
</g>
<g id="#666867ff">
<path fill="#666867" opacity="1.00" d=" M 161.91 302.84 C 162.09 299.18 166.44 297.58 168.85 295.35 C 169.14 295.70 169.73 296.41 170.02 296.76 C 170.82 300.20 171.13 303.72 171.33 307.24 C 168.06 306.55 163.34 306.48 161.91 302.84 Z" />
</g>
<g id="#383837ff">
<path fill="#383837" opacity="1.00" d=" M 170.02 296.76 C 172.80 299.99 175.51 303.28 178.13 306.65 C 175.88 307.00 173.61 307.19 171.33 307.24 C 171.13 303.72 170.82 300.20 170.02 296.76 Z" />
</g>
<g id="#1f2346ff">
<path fill="#1f2346" opacity="1.00" d=" M 317.86 304.77 C 323.65 304.37 329.39 302.28 335.22 303.45 C 334.35 303.74 332.60 304.30 331.73 304.59 C 323.44 307.30 314.79 308.54 306.28 310.29 C 301.27 311.25 296.31 312.46 291.25 313.09 C 289.54 313.03 287.84 312.90 286.15 312.79 C 286.24 310.95 286.33 309.12 286.42 307.29 C 287.56 306.85 288.70 306.41 289.86 306.01 C 299.15 304.85 308.56 305.83 317.86 304.77 Z" />
</g>
<g id="#6b91b1ff">
<path fill="#6b91b1" opacity="1.00" d=" M 331.73 304.59 C 332.60 304.30 334.35 303.74 335.22 303.45 C 335.81 305.65 336.07 307.92 336.28 310.19 C 333.69 311.42 330.95 312.51 328.03 312.44 C 329.18 309.78 330.42 307.17 331.73 304.59 Z" />
</g>
<g id="#4a769fff">
<path fill="#4a769f" opacity="1.00" d=" M 306.28 310.29 C 314.79 308.54 323.44 307.30 331.73 304.59 C 330.42 307.17 329.18 309.78 328.03 312.44 C 315.47 315.97 302.73 318.83 289.95 321.40 C 288.29 318.98 286.88 316.41 285.76 313.70 C 287.59 313.56 289.42 313.33 291.25 313.09 C 296.31 312.46 301.27 311.25 306.28 310.29 Z" />
</g>
<g id="#6891b0ff">
<path fill="#6891b0" opacity="1.00" d=" M 277.21 312.81 C 280.03 313.30 282.89 313.61 285.76 313.70 C 286.88 316.41 288.29 318.98 289.95 321.40 L 290.66 322.49 C 288.20 322.71 285.74 322.82 283.27 322.90 C 281.99 319.16 280.42 315.31 277.21 312.81 Z" />
</g>
</svg>
