<?xml version="1.0" encoding="UTF-8" ?>
<!DOCTYPE svg PUBLIC "-//W3C//DTD SVG 1.1//EN" "http://www.w3.org/Graphics/SVG/1.1/DTD/svg11.dtd">
<svg width="650pt" height="650pt" viewBox="0 0 650 650" version="1.1" xmlns="http://www.w3.org/2000/svg">
<path fill="#3d020c" d=" M 155.53 36.42 C 156.93 33.16 160.32 30.30 164.08 31.37 C 174.07 34.39 183.98 37.74 193.84 41.21 C 195.87 41.74 197.83 42.52 199.84 43.15 C 200.83 43.55 201.84 43.88 202.88 44.13 C 210.67 46.56 218.33 49.39 226.10 51.91 C 227.12 52.20 228.13 52.52 229.14 52.86 C 235.41 54.87 241.66 56.96 247.87 59.18 C 249.63 59.70 251.37 60.30 253.12 60.87 C 254.14 61.16 255.14 61.48 256.14 61.85 C 264.44 64.48 272.67 67.34 280.89 70.20 C 281.64 70.37 282.40 70.56 283.16 70.74 C 331.64 87.06 380.23 103.03 428.74 119.26 C 431.20 120.22 433.57 122.10 434.15 124.81 C 435.21 128.96 436.67 132.99 437.89 137.09 C 438.64 140.04 439.98 142.86 440.31 145.90 C 440.36 149.69 439.18 153.35 437.85 156.86 C 437.48 157.84 437.15 158.84 436.86 159.85 C 434.04 167.63 430.99 175.34 428.09 183.09 C 427.76 184.16 427.47 185.24 427.19 186.32 C 437.76 189.37 448.16 192.98 458.68 196.17 C 459.70 196.56 460.75 196.90 461.82 197.19 C 462.39 197.34 463.53 197.64 464.10 197.79 C 471.43 200.16 478.74 202.62 486.10 204.91 C 495.20 207.61 504.16 210.79 513.18 213.76 C 515.63 214.81 518.13 215.97 519.99 217.95 C 523.69 221.43 525.00 226.49 527.17 230.91 C 530.23 238.04 533.74 244.97 536.78 252.11 C 539.17 257.43 541.69 262.69 544.10 268.00 C 546.15 272.54 549.66 276.58 554.36 278.46 C 561.50 281.01 568.61 283.69 575.77 286.23 C 584.17 289.00 592.39 292.29 600.75 295.21 C 610.84 298.58 620.71 302.59 630.80 306.00 C 635.05 307.78 639.90 308.61 643.37 311.86 C 643.43 315.28 644.44 318.61 644.36 322.04 C 638.17 336.48 632.77 351.26 626.82 365.81 C 618.01 388.28 609.07 410.70 600.23 433.16 C 599.73 434.36 599.25 435.56 598.79 436.78 C 593.13 451.12 587.49 465.46 581.78 479.78 C 575.53 495.84 569.09 511.83 562.83 527.89 C 554.09 549.84 545.55 571.87 536.81 593.82 C 534.64 599.59 532.49 605.40 529.98 611.03 C 526.92 615.73 520.39 613.60 516.20 611.77 C 498.83 605.57 481.54 599.14 464.22 592.79 C 448.08 586.98 432.00 581.01 415.88 575.13 C 414.66 574.68 413.42 574.23 412.21 573.79 C 396.09 567.95 380.02 561.96 363.88 556.15 C 356.31 553.42 348.80 550.54 341.24 547.80 C 323.83 541.56 306.51 535.05 289.11 528.79 C 286.96 528.06 284.84 527.23 282.73 526.40 C 280.43 529.07 277.78 531.68 274.23 532.54 C 267.13 534.86 259.53 533.07 252.84 530.32 C 250.29 528.94 247.99 527.19 245.52 525.69 C 241.55 523.72 237.24 522.55 233.16 520.83 C 217.36 515.04 201.66 509.00 185.89 503.14 C 177.84 500.26 169.93 497.01 161.88 494.13 C 145.88 488.14 129.89 482.11 113.89 476.12 C 105.84 473.25 97.93 469.98 89.88 467.13 C 73.89 461.10 57.88 455.13 41.89 449.12 C 34.37 446.47 27.00 443.45 19.51 440.75 C 15.43 439.16 11.18 436.95 8.86 433.08 C 7.12 429.42 5.70 425.61 4.24 421.83 C 3.03 419.02 1.45 416.22 1.59 413.06 C 1.24 409.02 3.41 405.45 4.78 401.82 C 11.11 387.17 17.51 372.55 23.79 357.87 C 26.85 350.59 30.22 343.44 33.19 336.12 C 35.44 330.75 37.90 325.48 40.19 320.13 C 43.16 312.60 46.74 305.32 49.77 297.81 C 52.67 290.80 55.95 283.96 58.80 276.93 C 62.02 269.20 65.62 261.64 68.77 253.88 C 74.30 241.31 79.61 228.66 85.18 216.11 C 88.18 208.61 91.68 201.33 94.77 193.87 C 97.64 186.81 100.92 179.94 103.84 172.90 C 106.83 165.59 110.20 158.44 113.26 151.15 C 116.48 143.21 120.21 135.48 123.41 127.52 C 124.95 123.48 121.16 119.93 121.58 115.88 C 123.88 112.78 124.76 108.93 126.46 105.51 C 130.90 94.94 135.35 84.36 139.76 73.78 C 142.85 66.24 146.13 58.79 149.25 51.26 C 151.21 46.26 153.32 41.31 155.53 36.42 Z" />
<path fill="#dc0a2d" d=" M 155.69 39.89 C 156.90 36.94 158.38 33.35 161.92 32.69 C 165.56 32.96 168.91 34.63 172.40 35.61 C 257.48 63.93 342.58 92.20 427.67 120.52 C 429.36 121.23 431.42 122.13 431.97 124.07 C 432.91 126.62 431.19 129.04 430.45 131.41 C 425.33 145.01 419.95 158.51 414.84 172.12 C 391.83 164.17 369.13 155.29 346.25 146.93 C 335.55 142.78 324.68 139.10 314.03 134.84 C 309.10 132.63 303.16 132.84 298.44 135.48 C 285.90 142.61 273.39 149.81 260.84 156.93 C 254.62 159.22 247.70 158.04 241.84 155.25 C 202.73 141.47 163.21 128.86 124.00 115.37 C 134.65 90.24 145.08 65.03 155.69 39.89 Z" />
<path fill="#000306" d=" M 189.84 59.29 C 199.48 58.41 209.78 61.35 216.64 68.39 C 223.27 74.62 226.66 84.00 225.74 93.04 C 224.65 109.81 208.54 123.31 191.99 122.71 C 175.33 123.51 158.98 109.07 159.33 92.08 C 158.31 75.22 173.42 60.34 189.84 59.29 Z" />
<path fill="#dedede" d=" M 160.49 90.01 C 160.99 75.24 173.74 62.57 188.14 60.64 C 194.24 60.10 200.44 60.48 206.18 62.76 C 213.86 66.30 220.50 72.72 223.08 80.91 C 224.94 85.72 224.80 90.99 224.20 96.03 C 223.39 98.81 222.49 101.56 221.33 104.20 C 213.88 118.44 195.32 125.31 180.39 119.42 C 168.44 115.19 159.64 102.80 160.49 90.01 Z" />
<path fill="#383d41" d=" M 165.41 88.98 C 164.41 74.24 178.08 59.99 192.96 61.25 C 195.05 61.30 197.13 61.51 199.21 61.71 C 205.98 64.29 212.42 68.56 215.87 75.12 C 220.43 82.95 220.53 93.12 216.01 100.99 C 210.98 111.00 198.98 116.93 187.98 114.91 C 175.64 112.99 165.29 101.63 165.41 88.98 Z" />
<path fill="#28aafd" d=" M 175.47 69.43 C 184.73 60.55 200.95 61.01 209.94 70.08 C 213.66 73.74 216.13 78.59 217.19 83.67 C 217.11 83.96 216.96 84.54 216.88 84.83 C 214.75 78.46 210.56 72.52 204.27 69.73 C 199.47 67.27 193.97 67.20 188.74 67.79 C 192.33 69.39 196.24 71.39 197.62 75.38 C 200.40 81.51 196.63 89.25 190.29 91.20 C 185.77 92.55 180.49 91.20 177.48 87.47 C 175.14 84.82 175.05 81.10 174.39 77.80 C 170.66 84.12 169.16 92.00 172.03 98.95 C 173.10 102.55 176.17 105.07 177.42 108.56 C 164.63 99.98 163.59 79.22 175.47 69.43 Z" />
<path fill="#196a9e" d=" M 188.74 67.79 C 193.97 67.20 199.47 67.27 204.27 69.73 C 210.56 72.52 214.75 78.46 216.88 84.83 C 216.96 84.54 217.11 83.96 217.19 83.67 C 218.49 86.28 217.82 89.24 217.32 91.97 C 216.06 98.61 212.41 104.95 206.75 108.78 C 198.39 114.89 186.03 115.01 177.59 109.03 L 177.42 108.56 C 176.17 105.07 173.10 102.55 172.03 98.95 C 169.16 92.00 170.66 84.12 174.39 77.80 C 175.05 81.10 175.14 84.82 177.48 87.47 C 180.49 91.20 185.77 92.55 190.29 91.20 C 196.63 89.25 200.40 81.51 197.62 75.38 C 196.24 71.39 192.33 69.39 188.74 67.79 Z" />
<path fill="#2c0208" d=" M 245.44 69.64 C 250.70 67.64 256.26 73.75 253.78 78.76 C 251.88 83.69 244.21 83.94 241.76 79.38 C 239.32 75.93 241.58 70.83 245.44 69.64 Z" />
<path fill="#ff002b" d=" M 245.22 71.88 C 245.36 71.55 245.63 70.90 245.77 70.57 C 247.23 70.87 248.70 71.16 250.18 71.42 C 249.54 73.32 249.81 75.76 248.36 77.29 C 246.91 77.75 245.54 76.76 244.19 76.38 C 243.80 76.97 243.02 78.15 242.64 78.74 C 242.45 76.42 241.95 73.57 244.40 72.08 L 244.16 72.93 C 244.04 73.32 243.81 74.10 243.69 74.49 C 244.98 74.60 246.27 74.72 247.56 74.84 C 247.54 74.16 247.49 72.81 247.47 72.13 C 246.91 72.07 245.79 71.94 245.22 71.88 Z" />
<path fill="#a1dafe" d=" M 182.41 72.52 C 185.61 69.58 190.93 73.56 189.66 77.49 C 189.09 81.40 182.90 82.05 181.19 78.75 C 179.81 76.75 180.45 73.88 182.41 72.52 Z" />
<path fill="#dedede" d=" M 244.16 72.93 C 244.43 72.67 244.96 72.14 245.22 71.88 C 245.79 71.94 246.91 72.07 247.47 72.13 C 247.49 72.81 247.54 74.16 247.56 74.84 C 246.27 74.72 244.98 74.60 243.69 74.49 C 243.81 74.10 244.04 73.32 244.16 72.93 Z" />
<path fill="#a0001b" d=" M 250.18 71.42 C 253.41 73.28 253.40 78.39 250.20 80.28 C 247.67 81.50 244.49 80.84 242.64 78.74 C 243.02 78.15 243.80 76.97 244.19 76.38 C 245.54 76.76 246.91 77.75 248.36 77.29 C 249.81 75.76 249.54 73.32 250.18 71.42 Z" />
<path fill="#291505" d=" M 266.37 77.33 C 271.19 74.24 278.02 79.65 276.05 85.05 C 274.95 90.08 267.62 91.43 264.55 87.54 C 261.78 84.53 262.71 79.19 266.37 77.33 Z" />
<path fill="#ffdf17" d=" M 265.22 80.77 C 265.97 77.64 269.76 78.25 272.18 78.36 C 271.82 80.05 271.47 81.75 271.12 83.44 C 269.07 83.61 267.00 83.70 264.94 83.50 C 265.01 82.82 265.15 81.45 265.22 80.77 Z" />
<path fill="#fff6c1" d=" M 266.41 81.17 C 265.79 78.89 268.37 79.40 269.62 79.15 C 269.62 79.81 269.62 81.15 269.61 81.82 C 268.49 81.79 267.42 81.57 266.41 81.17 Z" />
<path fill="#9f8b0f" d=" M 272.18 78.36 C 275.92 80.47 275.31 87.04 270.98 88.02 C 267.00 89.84 261.68 84.12 265.22 80.77 C 265.15 81.45 265.01 82.82 264.94 83.50 C 267.00 83.70 269.07 83.61 271.12 83.44 C 271.47 81.75 271.82 80.05 272.18 78.36 Z" />
<path fill="#000306" d=" M 290.39 84.52 C 294.89 83.12 299.93 87.32 298.82 92.07 C 298.71 97.53 290.69 99.70 287.43 95.63 C 283.65 92.32 285.75 85.74 290.39 84.52 Z" />
<path fill="#51ae5f" d=" M 289.37 86.17 C 291.09 85.84 292.82 85.63 294.57 85.59 C 294.32 87.68 293.82 89.74 293.02 91.69 C 291.57 91.49 290.12 91.30 288.68 91.11 C 288.42 92.27 288.18 93.45 287.96 94.62 C 286.23 92.21 286.29 88.09 289.42 86.91 C 289.47 87.58 289.57 88.90 289.62 89.56 C 290.64 89.49 291.66 89.43 292.69 89.36 C 292.67 87.41 291.16 86.46 289.37 86.17 Z" />
<path fill="#336c3b" d=" M 294.57 85.59 C 297.57 87.42 298.79 91.65 296.41 94.49 C 294.92 96.64 292.19 96.47 289.89 96.54 C 289.22 95.91 288.58 95.27 287.96 94.62 C 288.18 93.45 288.42 92.27 288.68 91.11 C 290.12 91.30 291.57 91.49 293.02 91.69 C 293.82 89.74 294.32 87.68 294.57 85.59 Z" />
<path fill="#dedede" d=" M 289.42 86.91 L 289.37 86.17 C 291.16 86.46 292.67 87.41 292.69 89.36 C 291.66 89.43 290.64 89.49 289.62 89.56 C 289.57 88.90 289.47 87.58 289.42 86.91 Z" />
<path fill="#89061c" d=" M 123.48 117.60 C 124.78 117.91 126.08 118.25 127.38 118.62 C 165.27 131.42 203.31 143.77 241.06 156.98 C 247.63 160.04 255.55 161.60 262.32 158.29 C 274.18 151.44 286.13 144.75 297.97 137.87 C 302.10 135.39 307.29 134.33 311.90 136.11 C 334.67 144.74 357.55 153.09 380.35 161.66 C 384.75 163.32 389.35 164.55 393.49 166.84 C 390.84 167.65 388.19 168.49 385.59 169.46 C 384.04 167.33 381.50 166.59 379.12 165.80 C 357.91 157.98 336.58 150.49 315.39 142.63 C 311.30 141.26 306.43 140.27 302.45 142.48 C 289.96 150.31 276.68 156.78 263.67 163.70 C 258.67 166.45 252.40 167.14 247.13 164.75 C 237.49 160.76 227.39 158.09 217.62 154.48 C 187.01 144.32 156.31 134.44 125.68 124.36 C 124.76 122.17 124.02 119.91 123.48 117.60 Z" />
<path fill="#dc0a2d" d=" M 82.07 227.07 C 96.73 193.54 110.97 159.83 125.80 126.38 C 164.32 139.13 203.02 151.38 241.41 164.55 C 245.53 166.01 249.54 168.23 254.03 168.22 C 257.61 168.04 261.19 167.17 264.35 165.46 C 277.64 158.48 291.06 151.71 303.88 143.90 C 307.85 142.39 312.29 143.50 316.12 144.94 C 338.35 153.16 360.71 161.01 382.94 169.23 C 371.11 198.32 358.61 227.14 346.53 256.12 C 311.63 338.90 276.70 421.67 241.86 504.48 C 204.38 491.45 167.23 477.44 129.86 464.10 C 89.20 449.16 48.39 434.63 7.85 419.39 C 2.67 417.51 2.32 410.89 4.48 406.59 C 30.28 346.72 56.26 286.93 82.07 227.07 Z" />
<path fill="#89061c" d=" M 415.60 174.64 C 422.13 159.62 427.32 144.04 433.58 128.91 C 435.03 133.65 436.46 138.40 437.98 143.12 C 439.28 146.74 438.15 150.59 437.05 154.10 C 433.67 164.52 429.20 174.54 425.71 184.93 C 424.31 184.77 422.91 184.65 421.51 184.55 C 420.81 180.59 418.69 177.17 415.60 174.64 Z" />
<path fill="#2c0208" d=" M 126.63 136.48 C 127.41 134.03 130.27 133.97 132.30 134.74 C 166.86 146.12 201.44 157.45 235.98 168.93 C 241.65 170.44 247.07 173.31 253.04 173.39 C 259.59 173.44 265.12 169.57 270.71 166.71 C 282.45 160.09 294.51 154.03 306.06 147.11 C 309.25 145.36 312.81 147.00 315.89 148.14 C 336.01 155.17 355.95 162.72 376.01 169.92 C 376.37 170.44 377.08 171.47 377.43 171.99 C 375.51 177.96 372.84 183.64 370.39 189.40 C 327.85 289.21 285.35 389.03 242.74 488.80 C 241.41 493.17 236.76 496.81 232.11 495.00 C 160.16 468.31 87.86 442.53 15.67 416.45 C 13.46 415.64 11.04 414.36 10.28 411.95 C 9.03 409.15 10.98 406.35 11.88 403.75 C 50.00 314.61 88.37 225.56 126.63 136.48 Z" />
<path fill="#dc0a2d" d=" M 127.42 138.60 C 127.88 137.35 128.71 136.30 129.77 135.50 C 168.17 148.36 206.69 160.87 245.14 173.61 C 251.29 175.96 258.32 175.29 264.02 172.04 C 277.29 165.00 290.47 157.78 303.58 150.47 C 306.22 148.36 309.72 147.28 312.94 148.81 C 333.97 156.24 354.96 163.81 375.79 171.76 C 374.13 177.14 371.69 182.24 369.48 187.40 C 327.70 285.58 285.80 383.70 244.00 481.87 C 242.42 485.05 241.45 488.56 239.47 491.54 C 237.77 493.87 234.55 494.11 232.00 493.29 C 160.09 466.46 87.71 440.89 15.59 414.64 C 11.89 413.85 10.50 409.64 12.46 406.56 C 50.58 317.15 89.17 227.95 127.42 138.60 Z" />
<path fill="#211f1f" d=" M 138.00 167.89 C 138.96 165.06 140.77 162.21 143.95 161.65 C 147.79 162.00 151.30 163.85 154.95 165.00 C 211.78 184.88 268.61 204.80 325.39 224.83 C 328.60 226.30 329.19 230.15 330.49 233.07 C 311.01 280.32 290.99 327.35 271.38 374.55 C 270.09 377.32 269.20 380.79 266.17 382.19 C 263.06 383.46 259.88 381.74 256.97 380.74 C 206.14 363.03 155.38 345.14 104.57 327.39 C 99.60 325.52 95.42 321.37 93.89 316.24 C 92.02 310.58 89.93 304.99 87.78 299.43 C 86.33 294.90 88.75 290.44 90.36 286.31 C 106.17 246.81 122.02 207.32 138.00 167.89 Z" />
<path fill="#dedede" d=" M 142.73 163.61 C 145.52 162.71 148.24 164.34 150.84 165.16 C 208.55 185.32 266.22 205.62 323.90 225.86 C 326.04 226.48 328.06 228.66 327.40 231.02 C 326.51 233.66 325.25 236.16 324.15 238.71 C 305.26 283.39 286.66 328.19 267.85 372.91 C 267.08 374.62 266.35 376.60 264.59 377.54 C 262.40 378.28 260.14 377.43 258.01 376.94 C 248.54 373.92 239.32 370.18 229.85 367.16 C 204.20 358.11 178.52 349.12 152.83 340.17 C 137.00 334.54 121.12 329.04 105.27 323.45 C 101.04 322.37 97.26 319.44 95.47 315.42 C 93.25 310.49 91.87 305.24 89.73 300.28 C 87.96 297.33 88.98 293.91 90.16 290.97 C 106.38 250.19 122.82 209.51 139.22 168.81 C 140.03 166.88 140.75 164.67 142.73 163.61 Z" />
<path fill="#e9667c" d=" M 390.21 169.57 C 392.87 169.22 395.55 168.81 398.24 169.14 C 394.73 177.10 391.66 185.25 388.14 193.20 C 385.51 193.28 382.89 193.40 380.28 193.71 C 383.16 185.65 386.70 177.84 390.04 169.96 L 390.21 169.57 Z" />
<path fill="#dc0a2d" d=" M 398.24 169.14 C 402.71 169.94 407.18 171.21 411.07 173.64 C 407.42 181.45 404.91 189.79 400.67 197.30 C 396.69 195.37 392.47 193.76 388.02 193.54 L 388.14 193.20 C 391.66 185.25 394.73 177.10 398.24 169.14 Z" />
<path fill="#dc0a2d" d=" M 383.02 174.93 C 384.33 172.17 387.16 170.58 390.04 169.96 C 386.70 177.84 383.16 185.65 380.28 193.71 C 379.64 193.89 379.01 194.13 378.40 194.37 C 376.90 194.94 375.41 195.49 373.90 196.03 C 376.56 188.84 379.58 181.78 383.02 174.93 Z" />
<path fill="#89061c" d=" M 411.07 173.64 C 413.96 175.76 416.96 178.06 418.52 181.38 C 419.33 184.14 418.74 187.08 417.65 189.67 C 415.19 195.76 412.67 201.82 410.03 207.83 C 407.70 203.74 405.01 199.50 400.57 197.46 L 400.67 197.30 C 404.91 189.79 407.42 181.45 411.07 173.64 Z" />
<path fill="#dc0a2d" d=" M 420.93 186.06 C 441.77 192.29 462.46 199.01 483.19 205.60 C 493.35 208.70 503.42 212.09 513.45 215.60 C 518.44 217.31 521.77 221.75 523.55 226.54 C 528.56 238.09 534.01 249.44 539.10 260.96 C 541.85 266.34 543.69 272.51 548.46 276.54 C 551.98 279.87 556.86 280.86 561.22 282.62 C 587.19 292.00 613.25 301.14 639.12 310.81 C 641.04 311.11 641.79 313.11 640.74 314.70 C 603.29 409.30 566.05 503.99 528.48 598.55 C 527.74 599.95 527.47 602.04 525.82 602.68 C 523.26 603.82 520.57 602.41 518.13 601.65 C 440.81 573.53 363.58 545.18 286.21 517.23 C 329.19 411.57 372.29 305.95 415.29 200.30 C 417.26 195.59 419.28 190.90 420.93 186.06 Z" />
<path fill="#2c0208" d=" M 425.45 192.54 C 426.48 192.37 427.52 192.39 428.57 192.60 C 450.06 199.85 471.73 206.65 493.25 213.87 C 502.28 216.91 512.63 219.35 518.59 227.44 C 523.84 237.07 528.04 247.25 533.09 257.00 C 536.80 264.19 539.85 271.81 544.77 278.31 C 546.78 280.95 549.16 283.49 552.28 284.80 C 578.92 294.44 605.55 304.13 632.21 313.69 C 634.38 314.36 635.99 316.79 635.16 319.05 C 599.55 406.52 564.03 494.04 528.57 581.58 C 526.79 585.79 525.81 591.12 521.34 593.38 C 518.77 594.04 515.98 593.97 513.45 593.22 C 444.23 567.20 374.97 541.31 305.77 515.24 C 303.29 514.30 300.41 513.36 299.20 510.76 C 297.31 507.09 298.76 502.84 300.21 499.28 C 341.13 397.79 382.03 296.28 422.85 194.75 C 423.31 193.68 424.21 192.67 425.45 192.54 Z" />
<path fill="#472229" d=" M 378.40 194.37 C 379.01 194.13 379.64 193.89 380.28 193.71 C 382.89 193.40 385.51 193.28 388.14 193.20 L 388.02 193.54 C 387.70 194.58 387.41 195.63 387.17 196.70 C 387.60 196.97 388.47 197.51 388.90 197.78 C 388.23 197.69 386.90 197.52 386.24 197.43 C 383.68 197.29 381.14 197.57 378.64 198.03 C 378.59 196.81 378.53 195.59 378.40 194.37 Z" />
<path fill="#89061c" d=" M 421.79 201.75 C 423.30 199.04 423.53 193.25 427.91 194.28 C 450.70 201.77 473.55 209.14 496.34 216.65 C 501.77 218.62 507.79 220.01 512.14 224.03 C 504.29 220.45 496.04 217.89 487.87 215.14 C 476.70 211.85 465.85 207.59 454.70 204.24 C 445.73 201.57 437.11 197.79 428.02 195.54 C 425.43 195.09 424.99 198.40 424.03 200.08 C 386.38 293.13 348.74 386.17 311.18 479.24 C 307.69 489.28 302.25 498.66 300.25 509.17 C 299.66 504.56 301.78 500.37 303.35 496.21 C 342.82 398.06 382.55 300.01 421.79 201.75 Z" />
<path fill="#242424" d=" M 157.76 196.79 C 162.36 197.21 166.62 199.56 171.01 200.95 C 211.48 215.46 251.88 230.17 292.29 244.84 C 295.63 246.04 296.04 250.13 294.61 252.97 C 283.50 281.64 271.87 310.12 260.46 338.68 C 259.74 340.72 258.37 342.70 256.17 343.32 C 254.58 343.23 253.10 342.62 251.60 342.15 C 208.83 326.92 166.00 311.85 123.24 296.59 C 120.14 295.63 118.31 292.08 119.85 289.07 C 130.74 260.31 142.05 231.70 153.06 202.97 C 154.01 200.55 154.88 197.50 157.76 196.79 Z" />
<path fill="#e9667c" d=" M 378.64 198.03 C 381.14 197.57 383.68 197.29 386.24 197.43 C 373.44 229.29 359.88 260.85 346.81 292.60 C 321.97 352.26 297.10 411.91 272.31 471.59 C 269.31 471.67 266.32 471.80 263.34 472.02 C 270.14 454.27 278.03 436.94 285.19 419.33 C 305.77 370.53 326.20 321.67 346.78 272.87 C 357.09 247.93 367.89 223.19 377.97 198.15 L 378.64 198.03 Z" />
<path fill="#dc0a2d" d=" M 386.24 197.43 C 386.90 197.52 388.23 197.69 388.90 197.78 C 392.64 198.43 396.25 199.80 399.46 201.85 C 361.41 293.50 323.81 385.34 285.94 477.07 C 281.69 474.58 277.10 472.59 272.19 471.88 L 272.31 471.59 C 297.10 411.91 321.97 352.26 346.81 292.60 C 359.88 260.85 373.44 229.29 386.24 197.43 Z" />
<path fill="#dc0a2d" d=" M 303.55 502.80 C 344.60 400.95 385.80 299.15 426.97 197.35 C 428.37 197.43 429.74 197.68 431.09 198.10 C 452.32 205.29 473.62 212.25 494.89 219.33 C 500.74 221.53 507.20 222.70 512.18 226.72 C 516.71 230.06 517.98 235.82 520.44 240.57 C 524.68 249.07 528.39 257.82 532.63 266.32 C 534.65 270.27 536.01 274.61 538.82 278.11 C 542.64 282.93 546.88 287.96 552.98 289.85 C 579.77 299.72 606.65 309.34 633.47 319.12 C 596.72 408.92 560.40 498.91 523.88 588.79 C 522.15 592.38 517.58 593.37 514.13 591.75 C 445.08 565.79 375.97 539.97 306.94 513.96 C 301.90 513.05 301.86 506.56 303.55 502.80 Z" />
<path fill="#232323" d=" M 157.38 199.28 C 159.04 198.18 161.21 199.65 162.97 200.04 C 176.71 205.51 190.81 209.93 204.59 215.28 C 213.31 218.01 221.79 221.43 230.36 224.60 C 239.85 227.48 248.86 231.73 258.37 234.55 C 269.24 238.20 279.72 242.96 290.70 246.30 C 292.37 246.65 293.66 248.23 293.00 249.98 C 291.11 257.82 287.73 265.20 284.55 272.59 C 281.81 280.03 278.96 287.44 275.79 294.72 C 271.76 306.10 266.68 317.06 262.48 328.38 C 260.58 332.26 259.51 336.56 257.20 340.22 C 256.88 340.43 256.24 340.84 255.92 341.05 C 247.40 338.47 238.92 335.65 230.63 332.38 C 220.93 329.32 211.31 326.00 201.87 322.21 C 188.15 317.75 174.71 312.56 161.04 307.95 C 151.61 304.14 141.79 301.41 132.34 297.65 C 128.82 296.29 124.70 295.77 121.94 292.98 C 120.75 291.34 122.10 289.29 122.53 287.62 C 125.15 281.70 126.64 275.36 129.53 269.56 C 136.56 251.33 143.42 233.03 150.81 214.93 C 152.96 209.74 153.82 203.71 157.38 199.28 Z" />
<path fill="#dc0a2d" d=" M 369.91 205.01 C 371.15 201.41 374.58 199.38 377.97 198.15 C 367.89 223.19 357.09 247.93 346.78 272.87 C 326.20 321.67 305.77 370.53 285.19 419.33 C 278.03 436.94 270.14 454.27 263.34 472.02 L 263.20 472.42 C 260.82 473.17 258.48 474.02 256.19 475.01 C 293.99 384.97 332.08 295.05 369.91 205.01 Z" />
<path fill="#2c0208" d=" M 216.46 200.59 C 220.17 199.22 223.54 204.85 220.24 207.32 C 217.79 209.96 213.04 207.40 213.59 203.99 C 213.53 202.34 215.13 201.22 216.46 200.59 Z" />
<path fill="#89061c" d=" M 399.46 201.85 C 403.25 204.89 406.80 208.93 407.15 214.01 C 406.93 216.94 405.38 219.53 404.33 222.22 C 369.96 306.52 335.63 390.83 301.26 475.13 C 299.43 479.78 297.66 484.46 295.44 488.95 C 293.95 485.27 291.92 481.75 288.78 479.24 C 287.86 478.46 286.91 477.74 285.94 477.07 C 323.81 385.34 361.41 293.50 399.46 201.85 Z" />
<path fill="#ff002b" d=" M 215.52 206.48 C 215.34 205.07 215.30 203.65 215.71 202.29 C 216.63 202.28 218.47 202.27 219.39 202.26 C 219.69 203.68 219.69 205.13 219.55 206.57 C 218.20 206.50 216.86 206.47 215.52 206.48 Z" />
<path fill="#2c0208" d=" M 239.36 213.14 C 239.19 211.06 241.54 210.44 242.96 209.56 C 244.01 210.02 245.05 210.48 246.11 210.95 C 246.53 211.98 246.96 213.01 247.41 214.04 C 246.60 215.51 245.88 217.68 243.85 217.66 C 241.22 218.27 238.62 215.82 239.36 213.14 Z" />
<path fill="#ff002b" d=" M 240.79 213.00 C 241.79 211.14 244.44 211.11 245.53 212.92 C 246.16 214.98 244.41 215.88 242.93 216.76 C 242.04 215.72 239.68 214.73 240.79 213.00 Z" />
<path fill="#dc0a2d" d=" M 512.80 224.63 C 514.95 225.42 516.65 227.07 517.70 229.08 C 524.87 243.62 531.72 258.32 539.21 272.71 C 541.90 277.88 545.83 282.22 550.13 286.11 C 548.15 285.62 546.40 284.53 545.09 282.98 C 542.57 280.13 539.90 277.33 537.99 274.00 C 531.84 261.14 525.94 248.15 519.78 235.28 C 518.42 231.15 515.86 227.67 512.80 224.63 Z" />
<path fill="#dedede" d=" M 324.84 241.41 C 326.18 238.62 326.95 235.54 328.74 232.99 C 313.48 270.76 297.24 308.17 281.75 345.86 C 280.07 350.10 277.75 354.09 276.58 358.52 C 277.38 352.24 281.27 346.89 283.36 341.00 C 286.86 331.41 291.47 322.28 295.05 312.72 C 305.03 288.97 315.12 265.27 324.84 241.41 Z" />
<path fill="#38383b" d=" M 267.85 372.91 C 286.66 328.19 305.26 283.39 324.15 238.71 C 324.32 239.38 324.66 240.73 324.84 241.41 C 315.12 265.27 305.03 288.97 295.05 312.72 C 291.47 322.28 286.86 331.41 283.36 341.00 C 281.27 346.89 277.38 352.24 276.58 358.52 L 276.54 358.96 C 276.38 360.79 275.74 362.49 274.46 363.84 C 271.13 367.80 270.35 373.14 267.60 377.42 C 264.55 381.39 259.12 379.33 255.35 377.72 C 256.01 377.53 257.34 377.14 258.01 376.94 C 260.14 377.43 262.40 378.28 264.59 377.54 C 266.35 376.60 267.08 374.62 267.85 372.91 Z" />
<path fill="#000306" d=" M 417.95 270.78 C 422.15 269.39 426.10 271.99 430.02 273.14 C 484.06 291.73 538.04 310.48 592.02 329.23 C 594.50 329.83 597.33 332.20 596.24 335.02 C 590.37 351.11 584.27 367.13 578.20 383.14 C 577.30 386.30 573.49 386.07 571.01 385.20 C 514.78 365.15 458.43 345.43 402.15 325.49 C 400.12 324.91 397.57 323.61 398.50 321.03 C 402.47 309.79 407.37 298.85 411.56 287.67 C 413.63 282.02 416.38 276.61 417.95 270.78 Z" />
<path fill="#232323" d=" M 403.89 310.93 C 409.34 297.82 414.21 284.48 419.81 271.43 C 435.82 276.32 451.48 282.28 467.39 287.49 C 504.23 300.37 541.15 313.02 578.01 325.88 C 582.87 327.86 588.03 329.04 592.82 331.22 C 594.49 331.80 595.18 333.74 594.52 335.33 C 589.81 348.80 584.46 362.05 579.64 375.49 C 578.60 378.13 577.89 380.96 576.31 383.35 C 574.94 385.44 572.38 384.10 570.54 383.59 C 549.81 375.74 528.73 368.86 507.92 361.24 C 481.00 351.79 454.09 342.38 427.23 332.75 C 418.31 329.80 409.44 326.64 400.68 323.28 C 400.53 322.95 400.23 322.29 400.08 321.96 C 400.59 318.07 402.56 314.58 403.89 310.93 Z" />
<path fill="#89061c" d=" M 551.58 286.83 C 560.23 288.72 568.19 292.80 576.60 295.50 C 586.04 298.50 595.12 302.48 604.55 305.54 C 612.48 308.13 620.13 311.51 628.09 314.01 C 629.97 314.69 632.16 315.13 633.35 316.93 C 618.79 312.45 604.73 306.51 590.28 301.71 C 578.21 296.91 565.79 293.10 553.75 288.24 C 553.21 287.89 552.12 287.18 551.58 286.83 Z" />
<path fill="#4f3d40" d=" M 115.38 304.51 C 120.65 302.73 126.11 308.83 123.68 313.83 C 121.92 318.68 114.69 319.68 111.74 315.44 C 108.82 311.73 110.83 305.69 115.38 304.51 Z" />
<path fill="#ff002b" d=" M 115.32 306.37 C 118.58 305.21 122.48 307.43 122.50 311.01 C 122.85 315.08 117.64 318.10 114.38 315.53 C 111.04 313.56 111.54 307.50 115.32 306.37 Z" />
<path fill="#89061c" d=" M 641.56 317.76 C 642.77 318.95 642.84 320.72 642.24 322.23 C 606.43 412.74 570.65 503.26 534.99 593.83 C 532.69 599.54 530.87 605.52 527.93 610.94 C 524.64 613.43 520.30 611.41 516.86 610.25 C 439.09 581.82 361.35 553.33 283.57 524.96 C 284.18 523.01 284.81 521.07 285.47 519.14 C 296.78 522.61 307.69 527.23 318.88 531.07 C 385.62 555.37 452.34 579.74 519.09 604.01 C 522.34 605.46 527.24 605.79 529.01 602.01 C 532.23 594.46 535.30 586.84 538.23 579.17 C 572.75 492.06 607.12 404.89 641.56 317.76 Z" />
<path fill="#dedede" d=" M 101.79 324.33 C 104.48 324.63 106.99 325.69 109.52 326.60 C 120.27 330.86 131.45 333.94 142.20 338.22 C 156.08 342.65 169.60 348.09 183.48 352.52 C 195.70 357.25 208.28 360.95 220.51 365.66 C 232.24 369.34 243.65 373.96 255.35 377.72 C 259.12 379.33 264.55 381.39 267.60 377.42 C 270.35 373.14 271.13 367.80 274.46 363.84 C 271.70 368.82 270.23 374.43 267.20 379.26 C 265.98 381.36 263.15 380.91 261.16 380.49 C 218.73 365.73 176.36 350.80 133.95 335.97 C 123.33 331.84 112.20 328.99 101.79 324.33 Z" />
<path fill="#000306" d=" M 63.50 333.79 C 68.29 332.69 73.85 332.88 77.74 336.24 C 81.66 339.69 85.20 344.50 84.78 350.00 C 85.71 358.57 77.47 366.48 68.99 365.72 C 60.16 365.78 53.44 357.25 52.72 348.95 C 52.69 342.31 57.16 335.89 63.50 333.79 Z" />
<path fill="#00312b" d=" M 68.23 334.45 C 75.96 334.13 82.80 341.29 82.45 348.95 C 82.44 356.42 75.51 362.92 68.09 362.62 C 60.95 362.52 54.31 356.14 54.32 348.93 C 53.86 341.38 60.70 334.33 68.23 334.45 Z" />
<path fill="#00060a" d=" M 390.94 338.90 C 392.17 338.18 393.56 337.21 395.03 338.02 C 404.30 341.09 413.58 344.20 422.62 347.89 C 421.83 347.89 420.25 347.87 419.47 347.87 C 411.80 345.40 404.34 342.35 396.69 339.87 C 395.31 339.43 393.85 339.12 392.42 339.47 C 389.36 347.60 385.77 355.53 382.65 363.65 C 382.42 364.22 382.19 364.80 381.96 365.38 C 379.12 372.24 376.19 379.06 373.47 385.97 C 372.89 387.38 372.48 388.88 372.57 390.42 C 373.00 391.64 373.43 392.85 373.88 394.07 C 383.54 397.54 393.09 401.32 402.82 404.57 C 402.81 403.85 402.79 402.41 402.78 401.69 C 404.32 404.22 406.55 406.18 409.05 407.75 C 398.62 404.24 388.33 400.30 377.99 396.54 C 375.62 395.67 372.71 395.00 371.63 392.42 C 370.30 389.01 372.14 385.62 373.47 382.55 C 377.21 372.98 381.36 363.59 385.07 354.01 C 386.95 348.95 389.56 344.15 390.94 338.90 Z" />
<path fill="#28aafd" d=" M 392.42 339.47 C 393.85 339.12 395.31 339.43 396.69 339.87 C 404.34 342.35 411.80 345.40 419.47 347.87 C 420.59 348.43 421.71 349.01 422.83 349.61 C 419.44 357.92 416.60 366.46 413.10 374.73 C 402.98 370.95 392.80 367.32 382.65 363.65 C 385.77 355.53 389.36 347.60 392.42 339.47 Z" />
<path fill="#2c0208" d=" M 102.91 346.92 C 101.32 344.61 104.82 341.73 106.96 343.32 C 115.30 346.69 123.81 349.65 132.24 352.82 C 134.63 353.66 133.59 356.69 133.53 358.58 C 131.87 358.71 130.14 358.86 128.55 358.22 C 121.72 355.78 115.08 352.83 108.23 350.46 C 106.24 349.70 103.80 349.11 102.91 346.92 Z" />
<path fill="#242424" d=" M 237.12 343.13 C 243.33 345.39 249.45 347.87 255.71 349.97 C 255.69 350.42 255.66 351.32 255.64 351.77 C 249.66 349.16 243.31 347.47 237.38 344.75 C 237.31 344.35 237.19 343.54 237.12 343.13 Z" />
<path fill="#ff002b" d=" M 104.72 344.75 C 107.29 345.04 109.67 346.10 112.06 347.02 C 117.81 349.28 123.68 351.22 129.43 353.46 C 130.90 353.91 131.98 355.01 133.01 356.11 C 132.51 356.41 131.53 357.02 131.03 357.33 C 123.76 355.04 116.86 351.72 109.63 349.30 C 107.77 348.43 103.10 347.54 104.72 344.75 Z" />
<path fill="#242424" d=" M 235.27 348.32 C 235.72 348.43 236.63 348.66 237.09 348.77 C 242.80 351.15 248.86 352.76 254.40 355.53 C 254.53 355.85 254.78 356.48 254.91 356.80 C 248.25 355.24 242.20 351.79 235.58 350.09 C 235.50 349.65 235.35 348.76 235.27 348.32 Z" />
<path fill="#013045" d=" M 419.47 347.87 C 420.25 347.87 421.83 347.89 422.62 347.89 C 424.00 348.11 425.29 348.67 426.56 349.24 C 428.87 350.34 431.09 351.63 433.36 352.80 C 430.42 351.94 427.48 351.06 424.60 349.99 C 421.12 358.33 418.16 366.87 414.88 375.29 C 425.11 378.91 435.22 382.89 445.49 386.38 C 446.57 386.59 448.42 387.69 448.72 385.84 C 451.88 378.03 454.61 370.05 457.51 362.14 C 458.60 362.21 459.70 362.28 460.78 362.48 C 460.42 362.67 459.71 363.06 459.35 363.26 C 458.36 364.14 458.11 365.47 457.66 366.66 C 455.27 373.84 452.41 380.85 449.90 387.99 C 462.14 392.44 474.35 397.04 486.71 401.16 C 489.72 393.38 492.05 385.35 495.41 377.71 L 497.14 377.26 C 494.23 385.53 491.13 393.72 488.36 402.04 C 500.04 405.97 511.50 410.54 523.16 414.53 C 525.83 407.57 527.97 400.42 530.68 393.47 C 531.38 391.70 531.74 389.83 532.02 387.96 C 533.40 388.43 534.75 388.99 536.11 389.56 C 535.60 389.50 534.56 389.40 534.05 389.35 C 530.78 397.86 527.82 406.50 524.93 415.15 C 536.07 419.33 547.27 423.38 558.54 427.20 C 561.50 418.74 565.48 410.60 567.60 401.87 C 569.92 406.27 567.98 410.82 566.64 415.17 L 566.62 415.21 C 564.19 419.50 562.79 424.25 560.95 428.80 C 559.94 428.54 558.92 428.29 557.92 428.04 C 557.98 428.58 558.11 429.68 558.17 430.22 C 558.63 430.35 559.55 430.60 560.01 430.73 C 556.84 438.62 554.26 446.76 550.71 454.49 C 548.82 454.90 546.94 455.39 545.03 455.59 C 541.55 454.64 538.40 452.59 534.70 452.51 C 527.92 450.56 521.18 448.30 514.77 445.35 C 514.89 444.64 515.12 443.23 515.24 442.53 C 524.87 446.11 534.58 449.45 544.18 453.12 C 545.77 453.95 548.11 453.80 548.76 451.83 C 552.11 444.37 554.64 436.57 557.72 429.00 C 546.59 424.81 535.40 420.81 524.17 416.92 C 521.11 425.04 518.42 433.30 515.47 441.46 C 515.02 441.52 514.13 441.63 513.69 441.69 C 516.51 433.12 519.53 424.62 522.56 416.13 C 514.81 413.36 507.02 410.70 499.33 407.75 C 495.43 406.28 491.54 404.72 487.44 403.89 C 484.37 412.26 481.51 420.70 478.33 429.03 C 489.67 433.01 500.88 437.37 512.21 441.38 C 512.77 442.48 513.33 443.60 513.90 444.71 C 509.36 443.94 505.23 441.77 500.72 440.88 L 500.46 440.79 C 493.41 437.54 486.02 435.11 478.76 432.40 C 478.23 431.17 477.70 429.95 477.18 428.73 C 476.76 429.62 476.33 430.52 475.92 431.42 C 470.03 429.68 464.58 426.50 458.45 425.65 C 456.75 425.36 455.15 424.71 453.64 423.90 C 450.11 421.93 446.33 420.40 442.31 419.81 C 441.97 419.74 441.27 419.61 440.93 419.54 C 440.60 418.89 439.95 417.59 439.63 416.94 C 440.34 416.69 441.76 416.19 442.47 415.94 C 453.84 420.13 465.31 424.06 476.60 428.50 C 479.97 420.08 482.84 411.48 485.89 402.95 C 473.63 398.50 461.45 393.80 449.04 389.81 C 446.14 398.36 442.96 406.81 439.60 415.19 C 439.35 415.17 438.84 415.13 438.59 415.11 C 438.56 415.69 438.50 416.85 438.47 417.43 C 434.52 416.27 430.64 414.89 426.65 413.88 L 426.47 413.81 C 421.16 411.45 415.80 408.81 409.99 408.04 L 409.05 407.75 C 406.55 406.18 404.32 404.22 402.78 401.69 C 402.79 402.41 402.81 403.85 402.82 404.57 C 393.09 401.32 383.54 397.54 373.88 394.07 C 373.43 392.85 373.00 391.64 372.57 390.42 C 382.71 394.03 392.77 397.84 402.92 401.42 C 406.16 393.15 409.24 384.82 412.50 376.55 C 402.46 372.46 392.21 368.89 381.96 365.38 C 382.19 364.80 382.42 364.22 382.65 363.65 C 392.80 367.32 402.98 370.95 413.10 374.73 C 416.60 366.46 419.44 357.92 422.83 349.61 C 421.71 349.01 420.59 348.43 419.47 347.87 Z" />
<path fill="#000306" d=" M 426.56 349.24 C 444.51 355.21 462.20 361.98 480.07 368.21 C 508.42 378.38 536.76 388.56 565.11 398.71 C 568.49 399.56 569.20 403.26 570.47 405.99 C 569.34 409.10 568.61 412.44 566.64 415.17 C 567.98 410.82 569.92 406.27 567.60 401.87 C 564.84 399.61 561.29 398.79 558.02 397.53 C 550.74 394.81 543.28 392.57 536.11 389.56 C 534.75 388.99 533.40 388.43 532.02 387.96 C 520.37 384.56 509.23 379.63 497.64 376.04 C 497.52 376.35 497.27 376.96 497.14 377.26 L 495.41 377.71 C 495.52 376.80 495.62 375.90 495.72 375.00 C 490.34 373.61 485.27 371.31 480.02 369.54 C 473.61 367.16 467.04 365.23 460.78 362.48 C 459.70 362.28 458.60 362.21 457.51 362.14 L 457.69 361.58 C 449.62 358.55 441.39 355.96 433.36 352.80 C 431.09 351.63 428.87 350.34 426.56 349.24 Z" />
<path fill="#28aafd" d=" M 414.88 375.29 C 418.16 366.87 421.12 358.33 424.60 349.99 C 427.48 351.06 430.42 351.94 433.36 352.80 C 441.39 355.96 449.62 358.55 457.69 361.58 L 457.51 362.14 C 454.61 370.05 451.88 378.03 448.72 385.84 C 448.42 387.69 446.57 386.59 445.49 386.38 C 435.22 382.89 425.11 378.91 414.88 375.29 Z" />
<path fill="#38383b" d=" M 232.78 353.67 C 239.68 355.61 246.41 358.24 253.05 360.94 C 252.15 362.81 250.31 361.29 248.97 361.08 C 243.85 359.10 238.57 357.52 233.55 355.29 C 233.36 354.89 232.98 354.07 232.78 353.67 Z" />
<path fill="#242424" d=" M 230.05 358.58 C 231.38 358.55 232.76 358.47 234.00 359.07 C 238.88 360.90 243.75 362.77 248.63 364.59 C 249.60 364.91 249.92 365.63 249.59 366.75 C 244.15 364.56 238.68 362.48 233.18 360.47 C 232.00 360.07 231.01 359.33 230.05 358.58 Z" />
<path fill="#000306" d=" M 154.84 368.09 C 151.61 366.95 153.33 360.83 156.91 362.28 C 164.80 365.41 172.83 368.19 180.74 371.28 C 183.52 371.93 182.78 375.29 182.41 377.36 C 181.12 377.39 179.76 377.68 178.53 377.15 C 170.63 374.15 162.78 370.99 154.84 368.09 Z" />
<path fill="#28aafd" d=" M 459.35 363.26 C 459.71 363.06 460.42 362.67 460.78 362.48 C 467.04 365.23 473.61 367.16 480.02 369.54 C 485.27 371.31 490.34 373.61 495.72 375.00 C 495.62 375.90 495.52 376.80 495.41 377.71 C 492.05 385.35 489.72 393.38 486.71 401.16 C 474.35 397.04 462.14 392.44 449.90 387.99 C 452.41 380.85 455.27 373.84 457.66 366.66 C 458.11 365.47 458.36 364.14 459.35 363.26 Z" />
<path fill="#036592" d=" M 154.35 365.15 C 154.45 362.54 157.29 364.09 158.66 364.44 C 166.27 367.25 173.89 370.02 181.44 372.97 C 181.43 373.86 181.40 375.62 181.39 376.51 C 174.17 374.48 167.40 371.16 160.31 368.74 C 158.17 367.86 155.60 367.30 154.35 365.15 Z" />
<path fill="#000306" d=" M 99.43 366.59 C 101.80 365.72 104.17 366.93 106.37 367.73 C 125.42 374.46 144.52 381.06 163.60 387.70 C 165.84 388.37 167.19 390.81 166.16 393.03 C 163.00 402.31 159.55 411.49 156.52 420.81 C 155.38 423.88 154.72 427.68 151.60 429.44 C 147.49 430.50 143.68 428.19 139.91 426.94 C 122.77 420.70 105.59 414.55 88.41 408.39 C 86.56 407.76 84.03 406.30 84.61 403.99 C 88.13 393.32 92.72 383.03 96.23 372.35 C 97.01 370.31 97.57 367.94 99.43 366.59 Z" />
<path fill="#28aafd" d=" M 381.96 365.38 C 392.21 368.89 402.46 372.46 412.50 376.55 C 409.24 384.82 406.16 393.15 402.92 401.42 C 392.77 397.84 382.71 394.03 372.57 390.42 C 372.48 388.88 372.89 387.38 373.47 385.97 C 376.19 379.06 379.12 372.24 381.96 365.38 Z" />
<path fill="#51ae5f" d=" M 99.96 367.77 C 101.95 366.84 103.92 368.37 105.79 368.90 C 124.76 375.74 143.88 382.16 162.90 388.84 C 165.62 389.25 164.94 392.46 164.35 394.34 C 160.85 403.81 157.77 413.43 154.39 422.95 C 153.65 424.94 152.88 427.10 151.07 428.38 C 147.53 429.14 144.37 426.97 141.12 425.96 C 124.76 420.09 108.42 414.16 92.05 408.31 C 89.74 407.55 87.51 406.55 85.49 405.17 C 89.20 394.75 93.55 384.57 97.02 374.07 C 97.82 371.90 98.36 369.52 99.96 367.77 Z" />
<path fill="#28aafd" d=" M 497.64 376.04 C 509.23 379.63 520.37 384.56 532.02 387.96 C 531.74 389.83 531.38 391.70 530.68 393.47 C 527.97 400.42 525.83 407.57 523.16 414.53 C 511.50 410.54 500.04 405.97 488.36 402.04 C 491.13 393.72 494.23 385.53 497.14 377.26 C 497.27 376.96 497.52 376.35 497.64 376.04 Z" />
<path fill="#28aafd" d=" M 414.15 377.02 C 425.38 380.71 436.33 385.17 447.53 388.96 C 444.72 397.40 441.36 405.64 438.34 414.01 C 426.81 410.79 415.84 405.84 404.49 402.06 C 407.84 393.77 410.89 385.35 414.15 377.02 Z" />
<path fill="#00060a" d=" M 219.50 389.59 C 222.54 388.58 225.56 390.34 228.39 391.33 C 231.80 392.88 236.11 393.18 238.52 396.39 C 239.94 397.95 239.98 400.22 239.71 402.19 C 238.15 408.21 233.39 413.07 232.29 419.19 C 238.00 420.37 243.60 422.05 249.19 423.70 C 253.35 424.77 257.10 429.77 254.56 433.91 C 252.49 438.15 250.86 442.61 248.54 446.72 C 247.39 449.15 244.25 448.80 242.18 447.89 C 237.42 445.89 232.75 443.66 227.98 441.69 C 225.87 440.80 223.81 442.13 221.87 442.83 C 219.81 448.22 217.88 453.66 215.58 458.95 C 214.94 460.55 213.41 461.49 212.22 462.65 C 207.86 462.64 204.01 460.43 200.00 459.05 C 195.79 457.72 193.62 453.17 193.52 449.03 L 194.51 449.84 C 197.05 454.43 202.53 455.49 207.11 457.03 C 209.23 457.91 211.76 456.83 212.57 454.68 C 215.20 449.09 216.92 443.13 219.56 437.54 C 221.56 437.10 223.57 436.17 225.65 436.43 C 232.01 438.03 237.49 442.33 243.99 443.34 C 247.22 442.13 247.60 437.85 249.21 435.14 C 250.03 432.29 253.03 429.00 251.07 426.11 C 245.09 423.42 238.51 422.49 232.29 420.52 C 230.13 420.01 228.92 417.82 228.43 415.83 C 230.35 410.03 234.04 405.00 236.35 399.36 C 236.97 398.10 237.09 396.13 235.42 395.69 C 231.10 393.71 226.62 391.97 222.00 390.85 C 220.59 390.34 219.38 391.76 218.88 392.91 C 216.62 398.11 216.36 403.94 214.15 409.15 C 212.23 410.88 209.30 411.07 206.97 410.11 C 201.08 408.21 195.82 403.51 189.46 403.57 C 186.12 408.45 184.65 414.60 182.41 420.12 C 188.80 423.41 196.07 424.42 202.55 427.45 C 204.67 429.46 205.60 433.19 203.07 435.31 C 202.84 434.12 202.67 432.94 202.55 431.75 C 196.99 430.03 191.39 428.38 185.90 426.41 C 182.09 425.33 180.16 420.28 181.84 416.82 C 183.74 412.64 185.43 408.37 187.30 404.18 C 187.87 402.69 189.60 401.21 191.26 401.89 C 196.93 404.13 202.50 406.62 208.12 409.00 C 209.85 409.94 211.57 408.67 213.21 408.16 C 214.25 403.80 215.36 399.45 216.48 395.11 C 217.06 393.09 217.61 390.81 219.50 389.59 Z" />
<path fill="#28aafd" d=" M 449.04 389.81 C 461.45 393.80 473.63 398.50 485.89 402.95 C 482.84 411.48 479.97 420.08 476.60 428.50 C 465.31 424.06 453.84 420.13 442.47 415.94 C 441.75 415.75 440.32 415.38 439.60 415.19 C 442.96 406.81 446.14 398.36 449.04 389.81 Z" />
<path fill="#28aafd" d=" M 534.05 389.35 C 534.56 389.40 535.60 389.50 536.11 389.56 C 543.28 392.57 550.74 394.81 558.02 397.53 C 561.29 398.79 564.84 399.61 567.60 401.87 C 565.48 410.60 561.50 418.74 558.54 427.20 C 547.27 423.38 536.07 419.33 524.93 415.15 C 527.82 406.50 530.78 397.86 534.05 389.35 Z" />
<path fill="#00312b" d=" M 218.88 392.91 C 219.38 391.76 220.59 390.34 222.00 390.85 C 226.62 391.97 231.10 393.71 235.42 395.69 C 237.09 396.13 236.97 398.10 236.35 399.36 C 234.04 405.00 230.35 410.03 228.43 415.83 C 228.92 417.82 230.13 420.01 232.29 420.52 C 238.51 422.49 245.09 423.42 251.07 426.11 C 253.03 429.00 250.03 432.29 249.21 435.14 C 247.60 437.85 247.22 442.13 243.99 443.34 C 237.49 442.33 232.01 438.03 225.65 436.43 C 223.57 436.17 221.56 437.10 219.56 437.54 C 216.92 443.13 215.20 449.09 212.57 454.68 C 211.76 456.83 209.23 457.91 207.11 457.03 C 202.53 455.49 197.05 454.43 194.51 449.84 L 193.92 449.02 L 194.45 448.58 C 198.50 445.35 201.32 440.41 202.17 435.32 L 203.07 435.31 C 205.60 433.19 204.67 429.46 202.55 427.45 C 196.07 424.42 188.80 423.41 182.41 420.12 C 184.65 414.60 186.12 408.45 189.46 403.57 C 195.82 403.51 201.08 408.21 206.97 410.11 C 209.30 411.07 212.23 410.88 214.15 409.15 C 216.36 403.94 216.62 398.11 218.88 392.91 Z" />
<path fill="#28aafd" d=" M 487.44 403.89 C 491.54 404.72 495.43 406.28 499.33 407.75 C 507.02 410.70 514.81 413.36 522.56 416.13 C 519.53 424.62 516.51 433.12 513.69 441.69 C 513.32 441.61 512.58 441.46 512.21 441.38 C 500.88 437.37 489.67 433.01 478.33 429.03 C 481.51 420.70 484.37 412.26 487.44 403.89 Z" />
<path fill="#000306" d=" M 409.99 408.04 C 415.80 408.81 421.16 411.45 426.47 413.81 C 420.82 412.48 415.21 410.38 409.99 408.04 Z" />
<path fill="#000306" d=" M 426.65 413.88 C 430.64 414.89 434.52 416.27 438.47 417.43 C 438.50 416.85 438.56 415.69 438.59 415.11 C 438.84 415.13 439.35 415.17 439.60 415.19 C 440.32 415.38 441.75 415.75 442.47 415.94 C 441.76 416.19 440.34 416.69 439.63 416.94 C 439.95 417.59 440.60 418.89 440.93 419.54 C 436.20 417.60 431.11 416.42 426.65 413.88 Z" />
<path fill="#000306" d=" M 357.04 417.81 C 357.41 416.28 358.66 415.31 359.84 414.41 C 370.32 419.08 381.38 422.22 392.09 426.29 C 403.04 430.68 414.51 433.73 425.23 438.71 C 425.89 440.51 426.61 442.29 427.41 444.04 C 425.37 449.81 423.07 455.49 421.17 461.31 C 420.08 464.36 419.34 467.98 416.17 469.58 C 394.81 462.09 373.54 454.31 352.35 446.38 C 362.05 448.61 371.18 452.84 380.64 455.91 C 380.42 455.25 380.00 453.95 379.78 453.30 C 380.66 452.94 381.54 452.58 382.43 452.24 L 381.98 453.34 C 382.44 453.49 383.36 453.79 383.82 453.94 C 383.16 454.24 381.85 454.84 381.19 455.14 C 384.43 459.03 389.97 459.81 394.69 460.74 C 399.19 461.74 403.51 463.48 407.61 465.57 C 407.91 465.84 408.51 466.39 408.80 466.67 C 409.69 466.82 410.59 466.94 411.50 467.05 C 413.14 467.22 414.79 467.37 416.43 467.53 C 416.94 467.08 417.95 466.17 418.45 465.71 C 420.47 463.78 420.90 460.85 421.70 458.30 C 422.79 453.71 424.76 449.42 426.64 445.12 C 425.85 443.04 425.09 440.96 424.18 438.95 L 423.03 438.64 C 413.67 435.77 404.56 432.05 395.35 428.72 C 393.01 427.33 390.44 426.45 387.77 426.01 C 379.22 422.98 370.62 420.09 362.16 416.85 C 361.11 416.45 359.99 416.40 358.91 416.28 C 356.28 423.07 353.83 429.96 350.61 436.49 C 348.33 438.78 349.09 441.88 349.85 444.66 C 348.90 442.53 347.68 440.09 348.83 437.79 C 351.54 431.12 354.58 424.58 357.04 417.81 Z" />
<path fill="#dedede" d=" M 358.91 416.28 C 359.99 416.40 361.11 416.45 362.16 416.85 C 370.62 420.09 379.22 422.98 387.77 426.01 C 388.38 426.37 389.60 427.10 390.20 427.47 C 386.87 435.81 383.69 444.21 380.49 452.61 C 370.35 448.69 359.94 445.50 349.95 441.21 C 350.15 439.63 350.36 438.06 350.61 436.49 C 353.83 429.96 356.28 423.07 358.91 416.28 Z" />
<path fill="#000306" d=" M 560.95 428.80 C 562.79 424.25 564.19 419.50 566.62 415.21 C 563.34 426.48 558.25 437.17 554.25 448.21 C 552.94 451.24 552.27 454.68 550.10 457.25 C 547.31 458.56 544.18 457.38 541.50 456.35 C 531.12 452.33 520.60 448.69 510.16 444.82 C 507.07 443.37 503.49 442.97 500.72 440.88 C 505.23 441.77 509.36 443.94 513.90 444.71 C 513.33 443.60 512.77 442.48 512.21 441.38 C 512.58 441.46 513.32 441.61 513.69 441.69 C 514.13 441.63 515.02 441.52 515.47 441.46 C 515.41 441.73 515.30 442.26 515.24 442.53 C 515.12 443.23 514.89 444.64 514.77 445.35 C 521.18 448.30 527.92 450.56 534.70 452.51 C 538.86 453.70 542.72 455.93 547.00 456.67 C 548.71 457.13 549.64 455.46 550.71 454.49 C 554.26 446.76 556.84 438.62 560.01 430.73 C 559.55 430.60 558.63 430.35 558.17 430.22 C 558.11 429.68 557.98 428.58 557.92 428.04 C 558.92 428.29 559.94 428.54 560.95 428.80 Z" />
<path fill="#28aafd" d=" M 524.17 416.92 C 535.40 420.81 546.59 424.81 557.72 429.00 C 554.64 436.57 552.11 444.37 548.76 451.83 C 548.11 453.80 545.77 453.95 544.18 453.12 C 534.58 449.45 524.87 446.11 515.24 442.53 C 515.30 442.26 515.41 441.73 515.47 441.46 C 518.42 433.30 521.11 425.04 524.17 416.92 Z" />
<path fill="#00060a" d=" M 214.22 423.20 C 214.60 421.67 215.73 420.68 216.98 419.85 C 217.70 420.11 219.13 420.62 219.84 420.87 C 219.56 421.60 218.99 423.04 218.71 423.76 C 217.21 423.57 215.71 423.38 214.22 423.20 Z" />
<path fill="#520b1c" d=" M 442.31 419.81 C 446.33 420.40 450.11 421.93 453.64 423.90 C 449.69 423.21 445.65 422.10 442.31 419.81 Z" />
<path fill="#89061c" d=" M 5.94 420.92 C 84.23 449.48 162.48 478.15 240.92 506.28 C 240.09 508.79 238.89 511.31 239.11 514.03 C 239.17 516.98 240.75 519.56 241.97 522.15 C 206.14 509.26 170.68 495.36 134.94 482.23 C 96.39 467.64 57.76 453.28 19.18 438.77 C 15.20 437.26 11.21 434.67 9.58 430.57 C 8.18 427.43 6.95 424.21 5.94 420.92 Z" />
<path fill="#3a3a3e" d=" M 387.77 426.01 C 390.44 426.45 393.01 427.33 395.35 428.72 C 394.46 428.55 392.68 428.23 391.79 428.07 C 388.64 436.12 385.55 444.18 382.43 452.24 C 381.54 452.58 380.66 452.94 379.78 453.30 C 380.00 453.95 380.42 455.25 380.64 455.91 C 371.18 452.84 362.05 448.61 352.35 446.38 C 351.21 446.35 350.26 445.72 349.85 444.66 C 349.09 441.88 348.33 438.78 350.61 436.49 C 350.36 438.06 350.15 439.63 349.95 441.21 C 359.94 445.50 370.35 448.69 380.49 452.61 C 383.69 444.21 386.87 435.81 390.20 427.47 C 389.60 427.10 388.38 426.37 387.77 426.01 Z" />
<path fill="#000306" d=" M 458.45 425.65 C 464.58 426.50 470.03 429.68 475.92 431.42 C 476.33 430.52 476.76 429.62 477.18 428.73 C 477.70 429.95 478.23 431.17 478.76 432.40 C 486.02 435.11 493.41 437.54 500.46 440.79 C 495.67 440.02 491.30 437.75 486.71 436.26 C 477.38 432.49 467.63 429.74 458.45 425.65 Z" />
<path fill="#dedede" d=" M 382.43 452.24 C 385.55 444.18 388.64 436.12 391.79 428.07 C 392.68 428.23 394.46 428.55 395.35 428.72 C 404.56 432.05 413.67 435.77 423.03 438.64 C 423.38 439.20 424.07 440.32 424.41 440.88 C 422.62 446.83 420.21 452.57 418.31 458.49 C 417.52 460.59 416.98 462.87 415.57 464.66 C 413.76 464.90 412.06 464.10 410.40 463.56 C 401.61 460.17 392.74 456.98 383.82 453.94 C 383.36 453.79 382.44 453.49 381.98 453.34 L 382.43 452.24 Z" />
<path fill="#00060a" d=" M 194.45 448.58 C 196.76 444.02 199.28 439.53 202.17 435.32 C 201.32 440.41 198.50 445.35 194.45 448.58 Z" />
<path fill="#38383b" d=" M 423.03 438.64 L 424.18 438.95 C 425.09 440.96 425.85 443.04 426.64 445.12 C 424.76 449.42 422.79 453.71 421.70 458.30 C 420.90 460.85 420.47 463.78 418.45 465.71 C 416.29 466.78 413.86 466.98 411.50 467.05 C 410.59 466.94 409.69 466.82 408.80 466.67 C 408.51 466.39 407.91 465.84 407.61 465.57 C 403.79 463.02 399.28 461.19 394.69 460.74 C 389.97 459.81 384.43 459.03 381.19 455.14 C 381.85 454.84 383.16 454.24 383.82 453.94 C 392.74 456.98 401.61 460.17 410.40 463.56 C 412.06 464.10 413.76 464.90 415.57 464.66 C 416.98 462.87 417.52 460.59 418.31 458.49 C 420.21 452.57 422.62 446.83 424.41 440.88 C 424.07 440.32 423.38 439.20 423.03 438.64 Z" />
<path fill="#002e29" d=" M 477.63 441.62 C 478.21 441.35 479.37 440.82 479.95 440.56 C 487.28 442.93 494.33 446.05 501.59 448.60 C 504.80 449.88 508.79 450.46 510.52 453.87 C 510.48 454.75 510.41 456.51 510.37 457.39 C 507.93 457.64 505.36 458.02 503.08 456.86 C 498.95 455.12 494.59 453.89 490.64 451.75 C 486.93 449.18 482.71 447.46 478.27 446.66 L 477.85 446.56 C 477.40 445.70 476.95 444.85 476.50 444.00 C 476.78 443.41 477.34 442.21 477.63 441.62 Z" />
<path fill="#2c0208" d=" M 478.27 446.66 C 482.71 447.46 486.93 449.18 490.64 451.75 C 486.37 450.57 481.75 449.49 478.27 446.66 Z" />
<path fill="#036592" d=" M 534.70 452.51 C 538.40 452.59 541.55 454.64 545.03 455.59 C 546.94 455.39 548.82 454.90 550.71 454.49 C 549.64 455.46 548.71 457.13 547.00 456.67 C 542.72 455.93 538.86 453.70 534.70 452.51 Z" />
<path fill="#002e29" d=" M 513.07 456.27 C 513.62 453.85 517.17 454.31 518.92 455.12 C 524.13 457.40 529.84 458.66 534.78 461.47 C 535.84 462.50 537.17 463.41 538.75 463.12 L 539.69 463.12 C 542.08 464.46 544.34 466.45 543.76 469.50 L 543.80 470.24 L 542.68 470.08 C 541.20 469.79 539.69 469.88 538.21 469.94 C 531.13 468.13 524.47 464.87 517.58 462.45 C 515.81 461.66 512.94 461.29 513.07 458.75 C 513.07 458.13 513.07 456.89 513.07 456.27 Z" />
<path fill="#49030f" d=" M 513.07 458.75 C 511.26 459.37 511.25 455.51 513.07 456.27 C 513.07 456.89 513.07 458.13 513.07 458.75 Z" />
<path fill="#dedede" d=" M 394.69 460.74 C 399.28 461.19 403.79 463.02 407.61 465.57 C 403.51 463.48 399.19 461.74 394.69 460.74 Z" />
<path fill="#4f0511" d=" M 534.78 461.47 C 535.95 460.56 539.12 461.42 538.75 463.12 C 537.17 463.41 535.84 462.50 534.78 461.47 Z" />
<path fill="#4f0612" d=" M 539.69 463.12 C 542.85 462.64 547.32 467.28 543.76 469.50 C 544.34 466.45 542.08 464.46 539.69 463.12 Z" />
<path fill="#dedede" d=" M 411.50 467.05 C 413.86 466.98 416.29 466.78 418.45 465.71 C 417.95 466.17 416.94 467.08 416.43 467.53 C 414.79 467.37 413.14 467.22 411.50 467.05 Z" />
<path fill="#000306" d=" M 336.24 474.35 C 337.06 472.39 337.55 470.15 339.13 468.64 C 343.07 467.17 346.92 469.46 350.53 470.78 C 369.64 477.98 388.82 485.02 407.91 492.27 C 409.53 492.89 410.98 493.87 412.45 494.80 C 412.91 497.50 412.75 500.30 411.56 502.81 C 409.86 506.56 409.21 510.83 406.71 514.18 C 407.25 508.16 410.88 502.96 411.48 496.99 C 410.76 494.52 407.91 493.92 405.86 492.98 C 394.95 488.90 384.11 484.64 373.13 480.75 C 364.15 476.77 354.64 474.20 345.61 470.35 C 343.54 469.36 341.24 469.38 339.02 469.67 C 337.59 474.83 335.89 479.93 333.82 484.88 C 333.38 486.27 332.25 487.19 331.12 488.01 C 332.64 483.39 334.66 478.95 336.24 474.35 Z" />
<path fill="#002e29" d=" M 339.02 469.67 C 341.24 469.38 343.54 469.36 345.61 470.35 C 354.64 474.20 364.15 476.77 373.13 480.75 C 384.11 484.64 394.95 488.90 405.86 492.98 C 407.91 493.92 410.76 494.52 411.48 496.99 C 410.88 502.96 407.25 508.16 406.71 514.18 L 406.61 514.34 C 405.10 516.35 403.79 518.49 402.36 520.56 C 399.48 521.67 396.48 520.07 393.77 519.13 C 385.14 515.40 376.25 512.33 367.41 509.15 C 355.98 504.01 343.96 500.34 332.45 495.43 C 329.92 494.19 332.13 491.05 331.53 489.07 L 331.12 488.01 C 332.25 487.19 333.38 486.27 333.82 484.88 C 335.89 479.93 337.59 474.83 339.02 469.67 Z" />
<path fill="#540311" d=" M 538.21 469.94 C 539.69 469.88 541.20 469.79 542.68 470.08 C 542.52 471.79 538.19 471.80 538.21 469.94 Z" />
<path fill="#512b32" d=" M 263.34 472.02 C 266.32 471.80 269.31 471.67 272.31 471.59 L 272.19 471.88 C 271.70 473.20 271.23 474.53 270.77 475.87 L 270.24 475.81 C 267.13 475.74 264.05 476.24 261.01 476.86 C 261.87 475.44 262.69 474.00 263.20 472.42 L 263.34 472.02 Z" />
<path fill="#510310" d=" M 272.19 471.88 C 277.10 472.59 281.69 474.58 285.94 477.07 C 286.91 477.74 287.86 478.46 288.78 479.24 C 286.68 480.92 289.95 482.61 290.75 484.10 C 288.67 482.70 286.95 480.65 284.56 479.82 L 283.95 480.83 C 279.86 478.48 275.45 476.63 270.77 475.87 C 271.23 474.53 271.70 473.20 272.19 471.88 Z" />
<path fill="#e9667c" d=" M 261.01 476.86 C 264.05 476.24 267.13 475.74 270.24 475.81 C 267.18 484.32 263.57 492.62 259.98 500.92 C 257.10 500.77 254.22 500.75 251.34 500.84 C 251.47 500.34 251.73 499.34 251.85 498.83 C 254.95 491.52 257.91 484.16 261.01 476.86 Z" />
<path fill="#dc0a2d" d=" M 270.24 475.81 L 270.77 475.87 C 275.45 476.63 279.86 478.48 283.95 480.83 C 281.49 489.57 277.02 497.57 274.04 506.13 C 269.67 503.62 264.97 501.70 259.98 500.92 C 263.57 492.62 267.18 484.32 270.24 475.81 Z" />
<path fill="#dc0a2d" d=" M 252.46 483.60 C 253.83 479.95 257.84 478.54 261.01 476.86 C 257.91 484.16 254.95 491.52 251.85 498.83 C 251.33 499.64 250.81 500.46 250.30 501.28 C 248.14 502.03 246.02 502.90 243.98 503.93 C 246.88 497.18 249.61 490.37 252.46 483.60 Z" />
<path fill="#89061c" d=" M 283.95 480.83 C 288.28 484.39 293.49 488.81 292.88 495.03 C 291.84 499.28 289.77 503.20 288.20 507.27 C 286.63 510.56 285.80 514.24 283.57 517.19 C 281.42 512.71 278.10 508.95 274.04 506.13 C 277.02 497.57 281.49 489.57 283.95 480.83 Z" />
<path fill="#291505" d=" M 512.39 484.66 C 520.39 481.29 530.47 488.26 529.86 497.00 C 530.41 503.77 524.64 509.92 517.99 510.42 C 511.13 511.20 504.59 505.63 503.66 498.92 C 502.81 492.93 506.63 486.59 512.39 484.66 Z" />
<path fill="#ffdf17" d=" M 514.41 485.66 C 516.77 485.26 519.18 485.58 521.50 486.14 C 519.40 486.35 517.31 486.64 515.23 486.91 C 517.03 489.00 520.09 490.86 519.63 494.04 C 519.73 497.03 516.97 499.89 513.93 499.69 C 510.60 500.18 508.91 496.87 506.91 494.89 C 506.45 498.98 507.66 502.96 509.51 506.56 C 507.36 504.12 505.26 501.28 505.20 497.89 C 504.75 492.29 508.96 486.83 514.41 485.66 Z" />
<path fill="#9f8b0f" d=" M 521.50 486.14 C 528.46 488.90 530.75 499.05 525.72 504.60 C 522.00 509.38 514.22 510.28 509.51 506.56 C 507.66 502.96 506.45 498.98 506.91 494.89 C 508.91 496.87 510.60 500.18 513.93 499.69 C 516.97 499.89 519.73 497.03 519.63 494.04 C 520.09 490.86 517.03 489.00 515.23 486.91 C 517.31 486.64 519.40 486.35 521.50 486.14 Z" />
<path fill="#000306" d=" M 330.98 487.97 L 331.53 489.07 C 332.13 491.05 329.92 494.19 332.45 495.43 C 343.96 500.34 355.98 504.01 367.41 509.15 C 376.25 512.33 385.14 515.40 393.77 519.13 C 396.48 520.07 399.48 521.67 402.36 520.56 C 403.79 518.49 405.10 516.35 406.61 514.34 C 406.46 518.14 403.83 524.00 399.12 522.42 C 378.88 514.85 358.76 506.94 338.52 499.36 C 335.97 498.29 333.24 497.55 330.89 496.07 C 328.13 494.08 330.15 490.44 330.98 487.97 Z" />
<path fill="#fff6c1" d=" M 509.56 489.60 C 512.01 488.89 514.61 489.35 515.64 491.98 C 514.86 494.98 511.89 496.35 509.32 494.37 C 509.31 492.77 509.39 491.18 509.56 489.60 Z" />
<path fill="#89061c" d=" M 250.26 503.39 C 261.24 500.91 273.70 505.56 280.02 514.97 C 282.53 518.67 282.66 524.20 279.49 527.56 C 276.48 530.46 272.21 531.75 268.09 531.80 C 258.54 532.14 248.84 527.75 243.21 519.96 C 241.21 517.01 240.63 513.13 241.76 509.76 C 243.22 506.30 246.72 504.19 250.26 503.39 Z" />
<path fill="#000306" d=" M 433.86 506.87 C 435.16 503.17 439.80 504.09 442.65 505.20 C 450.02 508.28 457.69 510.62 464.98 513.86 C 455.80 513.13 447.78 507.77 438.92 505.68 C 436.49 504.94 435.03 507.36 434.36 509.27 C 432.22 514.90 430.10 520.54 428.15 526.24 C 427.60 528.13 426.58 530.96 428.93 532.10 C 437.38 536.83 447.30 538.32 455.65 543.26 C 453.89 543.71 452.29 542.71 450.70 542.18 C 443.35 539.14 435.73 536.77 428.46 533.56 C 425.41 532.15 426.04 528.20 426.91 525.61 C 429.27 519.38 431.11 512.94 433.86 506.87 Z" />
<path fill="#002e29" d=" M 434.36 509.27 C 435.03 507.36 436.49 504.94 438.92 505.68 C 447.78 507.77 455.80 513.13 464.98 513.86 C 465.06 513.93 465.21 514.05 465.28 514.12 C 467.92 516.88 471.79 517.65 475.23 518.96 C 483.97 522.08 492.60 525.50 501.35 528.59 C 506.41 531.07 512.25 531.94 516.86 535.28 C 517.73 537.10 516.53 539.13 516.05 540.93 C 513.84 546.31 511.95 551.81 510.12 557.33 C 509.50 559.93 506.48 562.19 503.84 561.09 C 491.83 556.40 479.75 551.88 467.69 547.33 C 463.79 545.79 459.92 544.14 455.80 543.32 L 455.65 543.26 C 447.30 538.32 437.38 536.83 428.93 532.10 C 426.58 530.96 427.60 528.13 428.15 526.24 C 430.10 520.54 432.22 514.90 434.36 509.27 Z" />
<path fill="#000306" d=" M 465.28 514.12 C 469.57 514.92 473.46 517.03 477.57 518.42 C 488.82 522.45 499.90 526.93 511.14 531.00 C 513.27 531.82 515.50 532.50 517.45 533.75 C 519.10 534.68 518.64 536.96 518.33 538.51 C 516.06 544.88 513.67 551.21 511.30 557.54 C 510.30 560.71 506.95 563.80 503.45 562.38 C 487.29 556.18 471.14 549.92 454.92 543.85 L 455.80 543.32 C 459.92 544.14 463.79 545.79 467.69 547.33 C 479.75 551.88 491.83 556.40 503.84 561.09 C 506.48 562.19 509.50 559.93 510.12 557.33 C 511.95 551.81 513.84 546.31 516.05 540.93 C 516.53 539.13 517.73 537.10 516.86 535.28 C 512.25 531.94 506.41 531.07 501.35 528.59 C 492.60 525.50 483.97 522.08 475.23 518.96 C 471.79 517.65 467.92 516.88 465.28 514.12 Z" />
</svg>
