<?xml version="1.0" encoding="UTF-8" ?>
<!DOCTYPE svg PUBLIC "-//W3C//DTD SVG 1.1//EN" "http://www.w3.org/Graphics/SVG/1.1/DTD/svg11.dtd">
<svg width="894pt" height="893pt" viewBox="0 0 894 893" version="1.1" xmlns="http://www.w3.org/2000/svg">

<path fill="#2a2526" d=" M 417.41 25.50 C 485.75 20.73 555.29 32.91 617.76 61.15 C 689.08 93.10 750.87 145.72 794.12 210.78 C 834.46 271.23 858.46 342.45 862.86 414.99 C 863.73 422.29 863.09 429.69 864.38 436.96 C 864.74 498.20 851.51 559.52 826.13 615.27 C 801.94 668.33 766.35 716.08 722.63 754.65 C 677.33 794.84 623.09 824.89 564.99 842.00 C 529.31 852.50 492.22 858.31 455.03 858.87 C 445.71 859.84 436.39 858.55 427.07 858.55 C 351.33 855.34 276.64 830.70 213.81 788.28 C 147.03 743.41 93.51 678.95 62.22 604.78 C 53.82 584.99 46.98 564.54 41.73 543.69 C 37.43 525.16 32.35 506.74 30.46 487.75 C 29.32 476.54 28.63 465.25 28.81 453.98 C 29.88 441.02 28.85 427.96 30.10 415.00 C 34.11 349.25 54.16 284.53 88.00 228.00 C 121.64 171.59 168.80 123.34 224.41 88.39 C 282.22 51.88 349.21 30.13 417.41 25.50 Z" />
<path fill="#ef4036" d=" M 264.66 78.65 C 312.32 54.69 364.78 40.53 417.95 36.63 C 432.96 36.08 447.99 34.95 463.00 36.18 C 485.74 36.67 508.30 40.05 530.58 44.49 C 587.49 56.46 641.73 80.90 688.38 115.64 C 693.51 119.81 699.24 123.32 703.80 128.16 C 691.27 119.85 677.88 112.67 663.48 108.21 C 644.25 101.99 623.14 99.96 603.47 105.33 C 587.65 109.55 573.32 120.00 565.53 134.54 C 561.08 142.96 558.28 152.41 558.24 161.98 C 558.10 169.28 558.14 176.66 559.89 183.78 C 566.42 214.06 585.78 240.22 609.44 259.58 C 625.03 272.23 642.93 282.19 662.18 288.03 C 681.10 293.68 701.73 295.55 720.89 289.93 C 734.50 286.01 747.01 277.67 754.94 265.82 C 764.91 251.40 767.27 232.81 764.29 215.81 C 761.01 195.60 751.13 177.13 738.91 160.94 C 740.09 161.78 741.27 162.64 742.32 163.66 C 767.88 190.98 789.90 221.69 807.05 254.97 C 834.75 308.27 850.40 367.85 852.22 427.88 C 835.43 421.79 818.92 414.97 802.13 408.89 C 761.38 393.76 720.13 379.83 678.03 368.95 C 657.94 363.38 637.48 359.39 617.07 355.23 C 573.29 347.47 528.95 342.46 484.49 341.41 C 479.76 331.21 474.73 321.07 468.02 311.99 C 444.36 278.62 405.98 255.91 365.12 252.35 C 336.82 249.22 307.66 255.10 282.63 268.60 C 246.12 287.94 218.92 323.75 210.09 364.11 C 192.40 367.74 174.82 372.07 157.63 377.65 C 122.44 388.88 89.10 404.95 55.03 419.07 C 50.37 420.93 45.88 423.28 40.96 424.40 C 43.24 360.09 61.83 296.55 93.66 240.68 C 133.15 171.49 193.36 114.26 264.66 78.65 Z" />
<path fill="#ffffff" d=" M 603.47 105.33 C 623.14 99.96 644.25 101.99 663.48 108.21 C 677.88 112.67 691.27 119.85 703.80 128.16 C 716.88 137.47 728.70 148.55 738.91 160.94 C 751.13 177.13 761.01 195.60 764.29 215.81 C 767.27 232.81 764.91 251.40 754.94 265.82 C 747.01 277.67 734.50 286.01 720.89 289.93 C 701.73 295.55 681.10 293.68 662.18 288.03 C 642.93 282.19 625.03 272.23 609.44 259.58 C 585.78 240.22 566.42 214.06 559.89 183.78 C 558.14 176.66 558.10 169.28 558.24 161.98 C 558.28 152.41 561.08 142.96 565.53 134.54 C 573.32 120.00 587.65 109.55 603.47 105.33 Z" />
<path fill="#585759" d=" M 263.21 292.24 C 286.93 272.04 317.80 260.34 348.99 260.19 C 379.78 259.60 410.57 270.16 434.63 289.37 C 448.97 300.77 461.02 315.03 469.82 331.10 C 473.26 336.96 475.43 343.42 478.39 349.52 C 494.93 350.43 511.51 350.85 528.03 352.30 C 574.87 355.94 621.43 363.49 666.99 375.00 C 676.61 377.31 686.09 380.21 695.79 382.20 C 737.86 393.93 779.04 408.62 819.87 424.10 C 821.09 424.83 823.43 425.24 823.33 427.05 C 823.33 433.85 821.09 440.43 818.93 446.80 C 811.09 468.65 791.81 485.66 769.44 491.47 C 765.10 492.50 760.90 490.51 756.85 489.25 C 739.80 483.88 722.56 479.17 705.27 474.63 C 694.35 470.96 683.02 468.75 671.81 466.13 C 623.80 455.48 575.02 448.28 525.97 444.67 C 510.10 443.60 494.21 442.35 478.30 442.38 C 476.20 446.09 474.83 450.13 472.98 453.96 C 458.55 484.25 432.49 508.90 401.29 521.33 C 368.21 534.81 329.74 534.30 296.99 520.03 C 280.39 512.88 265.27 502.32 252.78 489.25 C 245.02 481.37 238.96 472.10 232.77 463.02 C 227.14 463.42 221.70 465.01 216.19 466.11 C 161.59 477.81 108.37 495.18 56.35 515.33 C 52.67 516.82 48.97 518.32 45.09 519.23 C 44.45 517.37 43.81 515.51 43.39 513.60 C 39.81 496.31 37.39 478.69 37.61 461.00 C 37.68 452.47 37.40 443.90 38.53 435.43 C 40.54 434.42 42.56 433.42 44.66 432.62 C 75.46 420.43 105.38 406.13 136.31 394.29 C 159.40 385.41 183.23 378.52 207.43 373.45 C 210.63 372.67 214.16 372.64 217.06 370.98 C 218.27 368.25 218.69 365.27 219.42 362.41 C 226.12 335.17 241.80 310.32 263.21 292.24 Z" />
<path fill="#2a2526" d=" M 335.39 293.41 C 357.52 290.83 380.53 295.68 399.47 307.49 C 421.16 320.75 437.44 342.56 443.81 367.19 C 452.09 397.94 444.45 432.48 423.78 456.74 C 412.07 470.72 396.49 481.50 379.17 487.24 C 363.74 492.61 346.97 493.67 330.88 491.20 C 306.00 487.22 283.03 473.22 267.74 453.26 C 256.49 438.49 249.31 420.52 247.78 402.00 C 247.42 392.69 247.17 383.26 249.00 374.07 C 253.39 350.40 266.74 328.49 285.84 313.80 C 300.06 302.62 317.43 295.52 335.39 293.41 Z" />
<path fill="#ffffff" d=" M 338.46 301.73 C 357.63 299.94 377.34 304.22 393.84 314.18 C 411.00 324.41 424.69 340.39 432.03 358.98 C 439.44 377.52 440.54 398.50 434.94 417.68 C 429.24 437.68 416.49 455.61 399.38 467.46 C 372.98 486.36 336.20 489.16 307.19 474.66 C 279.30 461.18 259.11 432.74 256.39 401.79 C 254.70 385.87 257.37 369.49 264.03 354.92 C 277.10 325.67 306.50 304.53 338.46 301.73 Z" />
<path fill="#2a2526" d=" M 338.48 322.86 C 355.69 320.79 373.64 325.12 387.75 335.25 C 402.87 345.83 413.47 362.64 416.43 380.86 C 418.84 394.19 416.98 408.18 411.63 420.60 C 404.45 437.24 390.56 450.86 373.76 457.69 C 362.16 462.54 349.28 463.80 336.87 462.16 C 318.83 459.53 301.98 449.53 291.09 434.91 C 282.58 423.75 277.64 409.99 276.94 395.99 C 276.06 378.51 282.03 360.74 293.41 347.41 C 304.64 333.94 321.09 325.03 338.48 322.86 Z" />
<path fill="#ffffff" d=" M 340.40 328.41 C 354.10 327.06 368.16 329.88 379.99 337.01 C 396.17 346.43 407.74 363.24 410.85 381.70 C 413.10 395.27 411.12 409.60 404.72 421.84 C 395.82 439.65 378.21 452.80 358.59 456.22 C 344.11 458.99 328.75 456.26 315.92 449.10 C 301.90 441.35 290.96 428.23 285.89 413.03 C 281.29 399.56 281.44 384.57 286.23 371.17 C 294.18 348.16 316.10 330.66 340.40 328.41 Z" />
<path fill="#ffffff" d=" M 468.93 477.03 C 474.89 468.77 479.12 459.49 483.75 450.48 C 561.49 453.27 638.99 464.65 714.11 485.03 C 712.59 494.46 709.31 503.47 706.46 512.55 C 695.11 546.23 678.94 578.33 658.27 607.26 C 650.93 617.77 642.66 627.60 634.48 637.46 C 626.21 645.53 618.99 654.62 610.42 662.40 C 600.60 671.32 590.13 679.50 579.67 687.66 C 516.39 735.15 437.11 760.86 358.00 759.47 C 279.47 759.05 201.50 731.61 139.57 683.41 C 131.69 677.70 124.78 670.83 117.15 664.81 C 111.61 659.64 106.07 654.48 99.96 649.98 C 97.36 647.16 95.71 643.62 93.66 640.40 C 74.14 606.30 59.96 569.20 51.02 530.96 C 50.74 529.56 50.50 528.16 50.31 526.76 C 53.63 524.73 57.40 523.68 60.98 522.23 C 113.47 502.02 167.19 484.69 222.28 473.12 C 224.80 472.86 228.55 470.93 230.22 473.70 C 248.09 501.52 275.96 522.69 307.49 532.61 C 334.10 541.13 363.12 541.53 389.96 533.79 C 410.19 528.06 429.04 517.67 444.95 503.95 C 453.71 495.70 462.25 487.10 468.93 477.03 Z" />
<path fill="#a29f9f" d=" M 714.11 485.03 C 756.70 496.41 798.62 510.25 839.73 526.18 C 840.98 526.72 842.21 527.35 843.47 527.96 C 841.09 541.20 837.01 554.08 832.96 566.90 C 813.19 627.06 778.88 682.34 733.96 726.97 C 687.85 773.10 630.46 807.89 568.14 827.20 C 534.39 837.64 499.31 843.97 464.00 845.34 C 456.57 845.00 449.16 846.11 441.75 845.52 C 364.49 845.03 287.51 821.50 223.11 778.78 C 179.10 749.56 140.67 711.84 110.94 668.15 C 107.21 662.15 102.71 656.53 99.96 649.98 C 106.07 654.48 111.61 659.64 117.15 664.81 C 124.78 670.83 131.69 677.70 139.57 683.41 C 201.50 731.61 279.47 759.05 358.00 759.47 C 437.11 760.86 516.39 735.15 579.67 687.66 C 590.13 679.50 600.60 671.32 610.42 662.40 C 618.99 654.62 626.21 645.53 634.48 637.46 C 642.66 627.60 650.93 617.77 658.27 607.26 C 678.94 578.33 695.11 546.23 706.46 512.55 C 709.31 503.47 712.59 494.46 714.11 485.03 Z" />
</svg>
