<?xml version="1.0" encoding="UTF-8" ?>
<!DOCTYPE svg PUBLIC "-//W3C//DTD SVG 1.1//EN" "http://www.w3.org/Graphics/SVG/1.1/DTD/svg11.dtd">
<svg width="650pt" height="650pt" viewBox="0 0 650 650" version="1.1" xmlns="http://www.w3.org/2000/svg">
<path fill="#260208" d=" M 125.59 120.47 C 214.42 96.82 303.24 73.13 392.07 49.48 C 395.11 48.28 398.90 49.55 399.88 52.84 C 449.43 185.04 499.04 317.27 548.59 449.49 C 549.02 450.79 549.32 452.14 549.65 453.49 C 554.23 462.87 557.06 473.02 561.00 482.68 C 563.14 489.24 559.01 495.96 553.95 499.92 C 548.05 504.40 540.29 507.10 532.87 505.82 C 442.04 533.49 351.33 561.58 260.47 589.16 C 253.32 591.72 244.86 587.44 242.71 580.18 C 198.19 442.13 153.43 304.15 109.22 166.00 C 106.72 158.19 103.58 149.90 105.73 141.63 C 108.69 136.99 112.27 132.78 115.43 128.27 C 117.83 124.67 121.28 121.50 125.59 120.47 Z" />
<path fill="#dc0a2d" d=" M 129.88 120.80 C 217.60 97.46 305.31 74.05 393.03 50.69 C 395.30 49.69 397.84 51.11 398.54 53.40 C 402.65 63.92 406.38 74.59 410.55 85.10 C 404.30 83.26 397.95 85.15 391.86 86.64 C 367.96 92.88 344.05 99.06 320.17 105.36 C 312.30 108.29 304.75 112.81 299.33 119.34 C 289.24 130.61 279.43 142.12 269.55 153.56 C 265.92 157.64 263.00 162.28 259.27 166.27 C 251.11 175.30 240.99 183.17 229.01 186.20 C 200.32 193.76 171.58 201.06 142.86 208.47 C 135.31 185.55 127.96 162.58 120.67 139.59 C 119.29 135.07 117.71 129.76 120.34 125.39 C 122.35 122.10 126.53 121.80 129.88 120.80 Z" />
<path fill="#dc0a2d" d=" M 396.81 87.02 C 398.62 86.67 400.43 86.33 402.24 85.97 C 405.02 92.96 407.33 100.13 410.22 107.09 L 410.39 107.52 C 408.41 108.03 406.42 108.47 404.45 108.98 C 401.98 101.64 398.86 94.50 396.81 87.02 Z" />
<path fill="#89061c" d=" M 402.24 85.97 C 405.22 86.21 408.82 85.54 411.20 87.79 C 414.19 94.46 416.33 101.50 419.11 108.27 C 416.19 107.55 413.21 107.22 410.22 107.09 C 407.33 100.13 405.02 92.96 402.24 85.97 Z" />
<path fill="#dc0a2d" d=" M 322.37 108.50 C 346.76 102.06 371.19 95.75 395.56 89.19 C 442.50 217.93 489.10 346.79 535.91 475.57 C 529.92 478.59 523.36 480.12 517.01 482.18 C 434.01 507.77 351.02 533.36 268.01 558.92 C 264.97 559.90 261.34 560.34 258.64 558.26 C 255.28 556.00 254.85 551.64 253.53 548.14 C 216.99 436.36 180.50 324.57 144.15 212.73 C 169.17 206.12 194.22 199.66 219.25 193.09 C 224.64 191.61 230.17 190.55 235.36 188.40 C 245.19 184.39 254.15 178.11 260.85 169.84 C 272.18 155.89 283.98 142.35 295.62 128.67 C 302.36 119.64 311.23 111.44 322.37 108.50 Z" />
<path fill="#260208" d=" M 261.01 101.99 C 263.95 99.54 268.37 100.71 270.56 103.57 C 272.43 105.29 271.45 108.06 271.63 110.28 C 270.76 111.33 269.90 112.40 269.06 113.47 C 266.26 113.83 263.03 114.39 260.70 112.37 C 257.45 109.85 257.57 104.29 261.01 101.99 Z" />
<path fill="#418b4c" d=" M 263.22 102.23 C 266.90 100.89 270.78 105.03 269.59 108.70 C 268.89 112.34 264.51 112.14 261.71 111.43 C 258.31 109.09 259.37 103.45 263.22 102.23 Z" />
<path fill="#a0d3a8" d=" M 261.46 108.51 C 258.83 106.55 262.69 104.89 264.56 105.38 C 265.35 107.63 263.74 109.91 261.46 108.51 Z" />
<path fill="#260208" d=" M 235.23 110.16 C 237.28 106.10 243.33 105.20 246.36 108.67 C 248.71 110.64 248.67 113.79 248.54 116.58 C 246.60 118.69 244.17 120.88 241.05 120.40 C 236.13 120.38 232.66 114.40 235.23 110.16 Z" />
<path fill="#ebcf1b" d=" M 236.45 116.83 C 234.33 112.60 237.24 108.09 241.72 107.45 C 241.57 108.04 241.26 109.21 241.11 109.80 C 242.12 110.92 243.12 112.04 244.14 113.16 C 243.46 114.24 242.75 115.30 242.03 116.35 C 240.18 116.64 238.31 116.71 236.45 116.83 Z" />
<path fill="#a18d0f" d=" M 241.72 107.45 C 243.79 108.41 246.03 109.73 246.61 112.12 C 247.59 115.51 244.49 119.28 240.96 118.83 C 239.20 118.92 237.79 117.79 236.45 116.83 C 238.31 116.71 240.18 116.64 242.03 116.35 C 242.75 115.30 243.46 114.24 244.14 113.16 C 243.12 112.04 242.12 110.92 241.11 109.80 C 241.26 109.21 241.57 108.04 241.72 107.45 Z" />
<path fill="#89061c" d=" M 409.02 111.83 C 413.47 110.61 420.24 110.90 422.00 116.07 C 463.71 227.42 505.50 338.76 547.22 450.12 C 543.27 448.61 539.10 447.62 534.84 447.92 C 522.23 412.21 508.81 376.77 495.90 341.17 C 467.86 264.69 439.79 188.22 411.78 111.73 C 411.09 111.76 409.71 111.81 409.02 111.83 Z" />
<path fill="#ffee7d" d=" M 238.08 111.91 C 240.73 110.19 241.63 114.97 239.02 115.32 C 237.49 115.05 236.32 112.78 238.08 111.91 Z" />
<path fill="#dc0a2d" d=" M 405.88 112.74 C 406.91 112.40 407.96 112.10 409.02 111.83 C 409.71 111.81 411.09 111.76 411.78 111.73 C 439.79 188.22 467.86 264.69 495.90 341.17 C 508.81 376.77 522.23 412.21 534.84 447.92 C 532.57 448.40 530.30 448.88 528.05 449.41 C 487.36 337.17 446.52 224.99 405.88 112.74 Z" />
<path fill="#260208" d=" M 213.34 114.33 C 218.41 111.30 225.12 116.48 224.25 122.09 C 223.68 127.60 216.28 130.42 212.11 126.83 C 207.87 123.78 208.59 116.50 213.34 114.33 Z" />
<path fill="#e60027" d=" M 210.97 119.13 C 211.77 116.30 214.63 115.20 217.23 114.65 C 217.86 116.75 218.55 118.84 218.95 121.01 C 218.83 124.01 215.17 123.25 213.17 123.81 C 213.26 124.44 213.42 125.70 213.50 126.33 C 211.69 124.41 209.86 121.89 210.97 119.13 Z" />
<path fill="#9f001b" d=" M 217.23 114.65 C 221.13 115.35 223.99 120.08 221.88 123.69 C 220.44 126.81 216.45 127.40 213.50 126.33 C 213.42 125.70 213.26 124.44 213.17 123.81 C 215.17 123.25 218.83 124.01 218.95 121.01 C 218.55 118.84 217.86 116.75 217.23 114.65 Z" />
<path fill="#fd6c84" d=" M 212.53 121.06 C 213.19 119.36 214.08 117.71 216.17 118.83 C 217.45 121.60 214.39 122.71 212.53 121.06 Z" />
<path fill="#280f13" d=" M 165.40 126.60 C 182.16 123.09 200.80 134.20 204.51 151.14 C 207.99 164.52 200.57 179.26 188.34 185.32 C 173.98 193.02 154.47 188.29 145.18 174.91 C 138.98 166.36 137.48 154.52 141.89 144.84 C 146.01 135.30 155.22 128.39 165.40 126.60 Z" />
<path fill="#dedede" d=" M 166.65 127.87 C 180.42 125.60 195.43 133.05 201.17 145.93 C 204.82 153.93 204.68 163.68 200.44 171.43 C 196.03 179.84 187.39 185.75 178.04 187.12 C 170.28 188.26 162.10 186.67 155.43 182.54 C 148.22 178.07 142.86 170.60 141.35 162.22 C 139.34 152.74 142.93 142.49 149.95 135.93 C 154.49 131.56 160.48 128.90 166.65 127.87 Z" />
<path fill="#dc0a2d" d=" M 107.13 142.17 C 110.25 137.12 114.23 132.65 117.51 127.71 C 116.76 134.33 119.41 140.54 121.29 146.73 C 127.66 166.70 134.08 186.66 140.58 206.58 C 142.57 211.78 138.18 216.44 136.77 221.25 C 173.72 335.87 210.93 450.41 247.98 565.00 C 249.29 570.13 254.14 573.77 259.48 573.37 C 258.02 578.43 256.69 583.53 255.51 588.67 C 250.16 588.13 245.21 584.42 243.85 579.11 C 199.12 440.41 154.14 301.79 109.74 162.98 C 107.58 156.34 105.22 149.13 107.13 142.17 Z" />
<path fill="#280f13" d=" M 165.37 129.48 C 177.14 125.77 190.82 131.94 196.17 142.98 C 200.29 151.07 199.98 161.35 195.04 169.02 C 189.07 178.68 176.35 183.57 165.46 180.26 C 154.39 177.32 146.04 166.46 146.24 154.97 C 145.90 143.43 154.24 132.45 165.37 129.48 Z" />
<path fill="#28aafd" d=" M 165.95 130.79 C 174.69 128.21 184.63 131.12 190.84 137.73 C 186.37 136.81 182.64 133.61 177.98 133.45 C 172.25 132.65 166.72 134.63 161.76 137.30 C 165.93 137.28 170.55 137.22 173.92 140.10 C 179.93 144.46 180.59 154.18 175.48 159.47 C 171.22 164.19 163.56 165.15 158.22 161.75 C 155.37 160.03 153.79 156.99 151.98 154.32 C 151.92 160.92 153.61 167.80 158.42 172.58 C 161.22 175.59 165.07 177.25 168.41 179.57 C 162.29 178.35 156.57 175.07 152.80 170.06 C 147.87 163.71 146.22 154.88 148.83 147.24 C 151.27 139.31 157.95 132.93 165.95 130.79 Z" />
<path fill="#196a9e" d=" M 161.76 137.30 C 166.72 134.63 172.25 132.65 177.98 133.45 C 182.64 133.61 186.37 136.81 190.84 137.73 L 191.22 137.83 C 199.75 147.08 199.63 162.83 190.85 171.89 C 185.43 177.88 177.14 180.29 169.26 180.14 C 169.04 180.00 168.62 179.71 168.41 179.57 C 165.07 177.25 161.22 175.59 158.42 172.58 C 153.61 167.80 151.92 160.92 151.98 154.32 C 153.79 156.99 155.37 160.03 158.22 161.75 C 163.56 165.15 171.22 164.19 175.48 159.47 C 180.59 154.18 179.93 144.46 173.92 140.10 C 170.55 137.22 165.93 137.28 161.76 137.30 Z" />
<path fill="#a1dafe" d=" M 155.37 148.08 C 156.37 145.37 158.45 142.33 161.82 143.28 C 166.85 143.78 166.84 152.19 161.82 152.72 C 158.51 153.66 156.47 150.70 155.37 148.08 Z" />
<path fill="#89061c" d=" M 145.34 209.47 C 175.86 201.57 206.49 194.03 236.89 185.65 C 234.24 187.44 231.17 188.38 228.11 189.16 C 203.76 195.46 179.45 201.87 155.11 208.21 C 150.83 209.30 146.60 210.63 142.23 211.35 C 143.15 210.52 144.19 209.90 145.34 209.47 Z" />
<path fill="#dc0a2d" d=" M 140.19 223.00 C 140.46 220.05 142.13 217.44 143.15 214.71 C 179.34 325.93 215.59 437.12 251.95 548.28 C 253.22 551.76 253.75 555.79 256.51 558.49 C 258.13 560.17 260.45 560.79 262.55 561.62 C 261.76 564.46 260.95 567.31 260.13 570.15 C 255.86 571.18 251.64 568.30 250.64 564.12 C 214.50 452.71 178.39 341.29 142.26 229.88 C 141.53 227.60 140.60 225.37 140.19 223.00 Z" />
<path fill="#260208" d=" M 191.62 340.52 C 200.86 344.12 209.92 348.19 218.98 352.24 C 215.10 362.86 210.85 373.36 206.54 383.81 C 206.23 383.83 205.61 383.87 205.30 383.89 C 201.31 372.31 197.86 360.55 194.01 348.93 C 193.08 346.16 192.24 343.36 191.62 340.52 Z" />
<path fill="#ffc300" d=" M 193.92 343.02 C 201.67 346.29 209.35 349.75 217.12 352.98 C 213.66 362.57 209.68 371.96 205.97 381.46 C 202.14 368.59 197.69 355.91 193.92 343.02 Z" />
<path fill="#510411" d=" M 528.05 449.41 C 530.30 448.88 532.57 448.40 534.84 447.92 C 537.92 449.28 541.24 449.86 544.46 450.77 C 539.33 450.89 534.14 450.63 529.14 452.01 C 529.20 451.56 529.33 450.67 529.39 450.22 C 529.05 450.02 528.38 449.61 528.05 449.41 Z" />
<path fill="#dc0a2d" d=" M 529.50 453.18 C 531.85 452.63 534.23 452.23 536.64 451.93 C 539.09 459.18 541.78 466.35 544.50 473.51 C 542.11 473.99 539.73 474.46 537.35 474.93 C 534.70 467.69 532.01 460.47 529.50 453.18 Z" />
<path fill="#89061c" d=" M 536.64 451.93 C 541.11 452.11 546.55 452.57 549.45 456.44 C 552.35 463.04 554.51 469.96 557.23 476.65 C 553.33 474.46 548.95 473.44 544.50 473.51 C 541.78 466.35 539.09 459.18 536.64 451.93 Z" />
<path fill="#260208" d=" M 435.35 454.40 C 437.75 453.57 441.17 454.35 441.85 457.11 C 442.34 460.15 440.09 463.42 437.14 464.24 C 403.74 474.21 370.34 484.20 336.94 494.18 C 334.30 494.94 331.72 495.99 328.98 496.30 C 326.07 496.61 323.21 494.12 323.32 491.16 C 323.48 488.59 325.93 487.02 328.16 486.31 C 363.91 475.74 399.60 464.97 435.35 454.40 Z" />
<path fill="#dc0a2d" d=" M 436.30 456.25 C 437.92 456.04 440.11 455.87 440.62 457.88 C 440.18 460.32 438.44 462.54 435.92 463.00 C 401.75 473.19 367.58 483.40 333.42 493.64 C 330.92 494.25 327.67 495.69 325.57 493.44 C 323.83 490.74 326.84 488.47 329.27 488.03 C 364.98 477.57 400.55 466.56 436.30 456.25 Z" />
<path fill="#89061c" d=" M 542.45 475.55 C 547.04 474.92 552.08 475.33 555.94 478.12 C 559.04 480.29 560.71 484.30 559.95 488.03 C 558.98 493.43 555.03 497.86 550.41 500.59 C 544.69 503.95 537.67 505.67 531.15 503.94 C 527.33 502.91 523.71 500.18 522.65 496.23 C 521.64 492.67 522.90 488.89 524.93 485.95 C 528.93 480.17 535.60 476.62 542.45 475.55 Z" />
<path fill="#89061c" d=" M 269.15 560.28 C 355.04 533.83 440.93 507.34 526.82 480.88 C 523.99 483.47 522.91 487.70 519.92 489.94 C 438.40 515.06 356.82 540.03 275.32 565.23 C 270.25 566.87 265.09 568.21 260.13 570.15 C 260.95 567.31 261.76 564.46 262.55 561.62 C 264.76 561.24 266.99 560.90 269.15 560.28 Z" />
<path fill="#89061c" d=" M 259.48 573.37 C 346.56 546.90 433.40 519.65 520.40 492.90 C 520.85 495.18 521.01 497.63 522.31 499.65 C 523.84 502.29 526.65 503.73 529.13 505.33 C 446.23 530.77 363.33 556.23 280.40 581.55 C 272.11 583.93 263.99 586.97 255.51 588.67 C 256.69 583.53 258.02 578.43 259.48 573.37 Z" />
</svg>
