<?xml version="1.0" encoding="UTF-8" ?>
<!DOCTYPE svg PUBLIC "-//W3C//DTD SVG 1.1//EN" "http://www.w3.org/Graphics/SVG/1.1/DTD/svg11.dtd">
<svg width="170pt" height="170pt" viewBox="0 0 170 170" version="1.1" xmlns="http://www.w3.org/2000/svg">
<g id="#ffffffff">
<path fill="#ffffff" opacity="1.00" d=" M 96.72 79.77 C 99.22 78.84 101.73 77.95 104.25 77.06 C 106.85 81.89 105.71 87.45 105.07 92.61 C 100.86 92.91 96.65 92.50 92.44 92.60 C 92.71 90.33 92.25 87.74 94.03 85.93 C 94.24 87.88 94.55 89.81 94.97 91.73 C 97.56 88.26 96.58 83.78 96.72 79.77 Z" />
<path fill="#ffffff" opacity="1.00" d=" M 52.09 91.76 C 51.31 87.26 50.94 82.45 52.51 78.07 C 55.54 78.99 58.56 79.93 61.60 80.81 C 61.61 84.15 60.41 87.84 62.41 90.85 C 59.83 93.25 55.39 91.15 52.09 91.76 Z" />
<path fill="#ffffff" opacity="1.00" d=" M 44.15 139.08 C 45.77 136.45 48.44 134.72 50.84 132.88 C 46.73 141.49 41.33 149.45 37.24 158.08 C 37.60 158.90 38.06 159.67 38.61 160.40 C 41.21 159.69 43.85 159.15 46.50 158.65 C 49.53 158.37 52.61 158.24 55.64 158.71 C 56.99 162.22 55.82 166.29 55.71 170.00 L 29.18 170.00 C 34.10 159.66 38.59 149.10 44.15 139.08 Z" />
<path fill="#ffffff" opacity="1.00" d=" M 107.56 134.93 C 112.76 136.63 114.25 142.13 116.71 146.39 C 120.88 153.84 122.68 162.27 126.25 169.99 L 125.09 170.00 L 102.27 170.00 C 102.23 166.78 102.17 163.56 102.04 160.34 C 107.32 159.29 112.70 158.98 118.08 159.11 C 114.46 151.10 111.05 143.00 107.56 134.93 Z" />
<path fill="#ffffff" opacity="1.00" d=" M 0.00 155.50 C 14.25 149.10 28.62 142.89 43.47 137.97 C 37.37 148.22 33.08 159.37 27.74 170.00 L 1.59 170.00 C 1.99 165.14 2.85 160.26 2.24 155.37 C 0.82 160.10 1.02 165.12 0.71 170.00 L 0.00 170.00 L 0.00 155.50 Z" />
<path fill="#ffffff" opacity="1.00" d=" M 113.02 137.62 C 124.36 142.06 135.83 146.15 147.12 150.70 C 151.02 152.36 155.11 153.50 159.18 154.70 C 163.46 155.91 167.05 158.77 170.00 162.01 L 170.00 170.00 L 167.98 170.00 C 167.80 166.85 167.70 163.68 167.10 160.58 C 166.10 163.62 166.14 166.84 166.27 170.00 L 127.54 170.00 C 125.85 165.97 124.56 161.80 123.16 157.67 C 120.71 150.56 116.94 144.00 113.02 137.62 Z" />
</g>
<g id="#666664ff">
<path fill="#666664" opacity="1.00" d=" M 47.36 1.49 C 55.53 4.57 62.39 10.20 70.39 13.60 C 83.40 17.38 96.91 19.11 109.91 22.95 C 113.28 23.82 115.90 26.30 118.21 28.79 C 122.84 34.00 126.96 40.11 127.84 47.18 C 126.43 52.37 127.93 57.68 127.68 62.94 C 127.47 67.55 126.97 72.15 126.99 76.77 C 125.89 76.19 124.78 75.61 123.68 75.04 C 120.99 75.57 118.23 75.80 115.55 75.11 C 115.37 74.85 115.03 74.33 114.86 74.08 C 116.75 73.48 118.62 72.82 120.51 72.20 C 118.51 72.14 116.04 72.78 115.03 70.51 C 114.74 70.91 114.18 71.73 113.90 72.14 C 114.21 66.41 114.69 60.66 114.50 54.92 C 114.21 49.53 109.88 45.75 106.45 42.08 C 104.91 40.60 103.50 37.90 100.94 38.96 C 93.61 40.71 86.22 42.23 78.97 44.29 C 80.34 46.55 82.11 48.84 81.81 51.65 C 80.29 50.06 78.86 48.39 77.49 46.68 C 77.68 50.22 77.63 53.76 77.30 57.28 C 73.19 53.60 72.61 47.74 69.59 43.44 C 62.29 41.54 55.00 39.50 47.57 38.15 C 44.68 43.53 42.41 49.36 42.21 55.53 C 41.88 60.57 41.90 65.64 42.45 70.67 C 41.89 71.40 41.32 72.12 40.74 72.83 C 40.07 68.25 40.90 63.63 40.44 59.04 C 39.96 51.18 42.52 43.58 46.38 36.84 C 55.09 37.05 63.07 41.07 71.65 42.21 C 72.71 45.85 73.94 49.45 75.85 52.74 C 76.02 49.73 76.01 46.70 76.00 43.69 C 82.74 41.58 89.63 40.06 96.48 38.35 C 99.19 37.70 102.00 37.70 104.77 37.84 C 108.66 42.15 112.66 46.40 115.56 51.46 C 116.64 48.63 117.47 45.59 119.37 43.17 C 121.87 43.58 123.66 45.59 125.63 47.02 C 125.79 46.24 126.10 44.68 126.25 43.91 C 123.01 38.80 120.56 33.11 116.38 28.66 C 113.37 25.45 109.07 23.99 104.88 23.05 C 95.04 20.75 85.05 19.17 75.23 16.75 C 66.12 14.96 58.90 8.72 50.72 4.74 C 52.57 6.95 54.12 9.38 55.64 11.82 C 49.27 11.92 42.98 12.91 36.70 13.84 C 38.73 15.96 40.86 17.99 43.08 19.92 C 40.39 20.55 37.70 21.12 35.00 21.66 C 37.04 21.87 39.08 22.09 41.11 22.34 C 33.88 25.59 26.31 28.03 18.75 30.37 C 20.65 33.05 22.46 35.79 24.33 38.50 C 23.62 38.36 22.19 38.09 21.48 37.95 C 22.41 39.41 23.34 40.87 24.24 42.35 L 24.29 42.44 C 23.69 42.47 23.10 42.50 22.50 42.53 C 21.05 40.06 19.59 37.60 18.11 35.15 C 18.28 34.74 18.63 33.93 18.80 33.52 C 17.81 32.37 16.84 31.22 15.87 30.06 C 18.26 29.10 20.65 28.16 23.06 27.25 C 27.10 26.12 31.06 24.71 34.94 23.13 C 32.67 22.32 30.39 21.55 28.12 20.72 C 31.80 20.01 35.51 19.45 39.21 18.89 C 37.40 16.99 35.25 15.26 34.16 12.81 C 40.22 11.57 46.41 11.15 52.48 10.00 C 50.44 7.38 48.59 4.59 47.36 1.49 M 120.31 69.45 C 120.74 70.75 124.36 70.55 124.70 69.12 C 123.38 68.38 121.55 68.69 120.31 69.45 Z" />
<path fill="#666664" opacity="1.00" d=" M 79.52 85.28 C 77.59 80.80 77.24 75.56 79.05 70.98 C 80.67 75.18 79.93 79.80 79.88 84.19 L 79.52 85.28 Z" />
</g>
<g id="#cbcd99ff">
<path fill="#cbcd99" opacity="1.00" d=" M 50.72 4.74 C 58.90 8.72 66.12 14.96 75.23 16.75 C 85.05 19.17 95.04 20.75 104.88 23.05 C 109.07 23.99 113.37 25.45 116.38 28.66 C 120.56 33.11 123.01 38.80 126.25 43.91 C 126.10 44.68 125.79 46.24 125.63 47.02 C 123.66 45.59 121.87 43.58 119.37 43.17 C 117.47 45.59 116.64 48.63 115.56 51.46 C 112.66 46.40 108.66 42.15 104.77 37.84 C 102.00 37.70 99.19 37.70 96.48 38.35 C 89.63 40.06 82.74 41.58 76.00 43.69 C 76.01 46.70 76.02 49.73 75.85 52.74 C 73.94 49.45 72.71 45.85 71.65 42.21 C 63.07 41.07 55.09 37.05 46.38 36.84 C 42.52 43.58 39.96 51.18 40.44 59.04 C 40.90 63.63 40.07 68.25 40.74 72.83 C 41.32 72.12 41.89 71.40 42.45 70.67 C 41.90 65.64 41.88 60.57 42.21 55.53 C 44.32 60.52 42.71 66.09 43.61 71.32 C 42.81 72.12 42.22 73.18 42.42 74.34 L 43.85 74.74 C 43.33 76.93 42.82 79.12 42.42 81.34 C 42.33 78.84 42.35 76.24 41.15 73.98 L 40.86 77.87 C 39.40 75.30 36.79 73.89 34.48 72.23 C 36.11 72.34 37.75 72.47 39.38 72.60 C 37.09 71.97 34.67 71.45 32.92 69.71 C 35.03 69.63 37.14 69.64 39.24 69.65 C 36.21 69.10 32.35 69.45 30.56 66.38 C 27.30 61.72 23.51 57.48 20.14 52.91 C 22.15 52.71 24.16 52.53 26.16 52.33 C 24.10 50.11 21.99 47.92 20.05 45.58 C 22.86 46.15 25.61 46.96 28.29 47.97 C 27.38 46.73 26.49 45.47 25.56 44.25 L 25.10 44.03 C 24.89 43.63 24.49 42.83 24.29 42.44 L 24.24 42.35 C 23.34 40.87 22.41 39.41 21.48 37.95 C 22.19 38.09 23.62 38.36 24.33 38.50 C 22.46 35.79 20.65 33.05 18.75 30.37 C 26.31 28.03 33.88 25.59 41.11 22.34 C 39.08 22.09 37.04 21.87 35.00 21.66 C 37.70 21.12 40.39 20.55 43.08 19.92 C 40.86 17.99 38.73 15.96 36.70 13.84 C 42.98 12.91 49.27 11.92 55.64 11.82 C 54.12 9.38 52.57 6.95 50.72 4.74 Z" />
<path fill="#cbcd99" opacity="1.00" d=" M 20.17 44.98 L 20.44 45.36 L 20.05 45.58 L 19.77 45.24 L 20.17 44.98 Z" />
</g>
<g id="#fdcd9aff">
<path fill="#fdcd9a" opacity="1.00" d=" M 42.21 55.53 C 42.41 49.36 44.68 43.53 47.57 38.15 C 55.00 39.50 62.29 41.54 69.59 43.44 C 72.61 47.74 73.19 53.60 77.30 57.28 C 77.63 53.76 77.68 50.22 77.49 46.68 C 78.86 48.39 80.29 50.06 81.81 51.65 C 82.11 48.84 80.34 46.55 78.97 44.29 C 86.22 42.23 93.61 40.71 100.94 38.96 C 103.50 37.90 104.91 40.60 106.45 42.08 C 105.51 43.58 105.38 45.42 105.40 47.14 C 105.70 53.39 106.50 59.73 105.24 65.92 C 96.40 69.40 88.85 75.92 83.00 83.32 C 81.96 83.60 80.92 83.89 79.88 84.19 C 79.93 79.80 80.67 75.18 79.05 70.98 C 77.24 75.56 77.59 80.80 79.52 85.28 C 80.33 85.24 81.96 85.15 82.78 85.11 C 85.23 83.89 87.90 83.26 90.62 82.98 C 92.02 82.18 93.34 81.25 94.64 80.29 C 94.45 82.17 94.23 84.05 94.03 85.93 C 92.25 87.74 92.71 90.33 92.44 92.60 C 96.85 94.15 101.61 93.43 106.19 93.61 C 107.21 87.81 107.47 81.96 106.07 76.19 C 109.00 75.49 111.95 74.86 114.86 74.08 C 115.03 74.33 115.37 74.85 115.55 75.11 C 117.53 79.63 115.91 84.52 115.35 89.15 C 114.45 84.54 116.46 79.85 115.42 75.18 C 112.33 75.12 108.81 75.76 107.28 78.82 C 107.37 80.75 107.77 82.66 107.93 84.59 C 108.06 87.43 106.40 90.44 108.06 93.10 C 107.08 93.75 105.65 94.90 106.27 96.24 L 106.41 96.68 C 107.03 96.88 108.28 97.28 108.90 97.48 C 108.76 102.13 109.27 106.88 108.32 111.46 C 106.18 115.18 103.34 118.67 99.70 121.02 C 99.48 119.79 99.25 118.56 99.02 117.34 C 97.27 117.60 96.48 118.99 96.00 120.55 C 97.23 120.71 98.47 120.86 99.70 121.02 C 97.38 126.78 90.12 129.10 88.99 135.53 C 83.68 136.12 78.32 135.87 72.98 135.86 C 67.85 136.14 64.73 131.44 60.93 128.82 C 54.10 123.98 47.04 119.45 40.55 114.14 C 41.50 103.22 42.79 92.32 42.42 81.34 C 42.82 79.12 43.33 76.93 43.85 74.74 C 46.41 75.40 48.87 76.37 51.28 77.44 C 50.07 82.40 49.50 87.65 51.04 92.61 C 55.67 92.78 60.35 93.19 64.92 92.19 C 63.04 89.29 63.03 85.47 64.18 82.32 C 67.39 83.28 70.57 84.33 73.88 84.93 C 73.35 81.59 72.99 78.22 72.38 74.89 C 71.38 77.62 71.96 80.51 72.35 83.29 C 65.37 76.57 58.79 69.07 50.08 64.51 C 48.00 66.85 45.85 69.13 43.61 71.32 C 42.71 66.09 44.32 60.52 42.21 55.53 M 47.04 90.02 C 46.80 93.06 48.94 95.77 52.03 95.99 C 50.41 93.96 48.76 91.96 47.04 90.02 M 60.86 95.96 C 63.67 95.40 67.69 95.53 69.06 92.48 C 66.35 93.58 62.73 93.46 60.86 95.96 M 88.13 93.97 C 91.30 95.12 94.37 96.77 97.75 97.26 C 95.42 94.94 91.36 92.29 88.13 93.97 M 74.21 99.27 C 74.14 101.80 72.77 103.77 70.75 105.14 C 72.37 107.06 73.95 109.03 75.42 111.08 L 75.43 112.26 C 77.63 111.80 79.83 111.30 81.98 110.64 C 81.95 110.12 81.88 109.07 81.85 108.54 C 80.83 108.03 79.81 107.52 78.79 107.01 C 79.07 106.42 79.65 105.25 79.93 104.66 C 78.53 105.52 77.12 106.35 75.69 107.15 C 76.14 107.29 77.05 107.55 77.50 107.68 C 76.97 108.04 75.92 108.76 75.39 109.12 C 75.26 106.00 75.71 102.89 75.53 99.77 L 74.21 99.27 M 58.49 119.97 C 59.68 118.73 60.66 117.32 61.35 115.74 C 58.84 114.84 56.69 117.89 58.49 119.97 M 64.39 116.81 C 63.14 116.85 62.49 117.89 61.83 118.78 C 70.09 116.92 78.70 115.85 87.05 117.82 C 89.93 118.11 92.69 120.06 95.62 119.26 C 93.97 118.19 92.18 117.31 90.24 116.96 C 81.75 115.19 72.88 114.92 64.39 116.81 M 70.11 122.43 C 72.71 125.02 77.19 123.15 80.51 123.89 C 78.53 124.22 76.56 124.61 74.57 124.89 C 75.75 126.21 76.72 128.90 78.98 128.21 C 81.76 127.45 83.82 125.16 86.65 124.43 C 86.84 124.09 87.21 123.41 87.40 123.07 L 86.61 123.31 C 81.18 122.22 75.62 122.19 70.11 122.43 Z" />
<path fill="#fdcd9a" opacity="1.00" d=" M 29.98 93.78 C 28.19 86.95 30.79 79.91 35.71 75.04 C 39.70 76.39 41.80 80.48 41.37 84.54 C 39.75 83.45 38.14 82.32 36.52 81.22 C 35.49 82.90 33.92 84.40 33.63 86.43 C 34.25 88.46 35.13 90.42 36.41 92.12 C 37.50 93.24 38.70 94.24 39.89 95.24 C 39.76 95.62 39.49 96.37 39.35 96.74 C 42.14 97.59 40.07 100.71 40.17 102.70 C 35.42 101.98 31.86 97.98 29.98 93.78 Z" />
<path fill="#fdcd9a" opacity="1.00" d=" M 118.43 77.67 C 119.55 77.34 120.69 77.10 121.85 76.95 C 122.13 77.42 122.41 77.88 122.69 78.34 C 124.80 76.52 127.76 77.82 128.80 80.11 C 131.78 85.32 131.79 92.44 128.42 97.49 C 130.05 92.64 131.67 86.89 128.27 82.38 C 128.09 81.16 127.70 80.01 127.11 78.93 C 123.78 80.62 120.16 82.73 118.86 86.46 L 120.99 86.70 C 120.43 87.79 119.92 88.90 119.39 90.00 C 120.56 91.71 121.71 93.44 122.86 95.16 C 121.49 96.48 120.05 97.72 118.54 98.87 C 118.21 100.50 117.80 102.19 118.66 103.73 C 119.10 103.45 119.97 102.89 120.40 102.60 C 120.09 103.33 119.47 104.79 119.16 105.52 L 121.25 105.72 C 120.02 106.26 118.73 106.67 117.46 107.11 C 117.38 106.57 117.22 105.50 117.14 104.97 C 117.27 102.90 117.46 100.85 117.69 98.80 C 119.04 97.60 121.00 96.80 121.67 95.01 C 120.62 92.86 118.89 91.17 117.22 89.51 C 117.90 86.10 119.37 82.92 121.37 80.09 C 120.87 79.45 120.37 78.81 119.87 78.18 C 119.53 79.10 118.86 80.94 118.52 81.86 C 118.50 80.46 118.47 79.06 118.43 77.67 Z" />
<path fill="#fdcd9a" opacity="1.00" d=" M 60.36 130.36 C 61.19 130.84 62.02 131.33 62.84 131.84 C 62.68 132.31 62.38 133.27 62.23 133.75 C 66.51 138.18 71.05 142.38 75.94 146.13 C 78.09 148.02 81.01 146.95 83.45 146.37 C 88.65 144.83 94.03 144.05 99.36 143.12 C 95.49 148.32 91.48 153.42 87.40 158.45 C 84.48 161.93 81.96 165.82 78.24 168.53 C 76.37 166.24 74.57 163.90 72.70 161.62 C 72.08 160.98 71.44 160.36 70.76 159.79 C 67.14 156.21 62.24 153.51 60.01 148.78 C 59.41 142.65 60.20 136.49 60.36 130.36 Z" />
</g>
<g id="#100709ff">
<path fill="#100709" opacity="1.00" d=" M 15.51 42.44 C 18.73 43.23 21.94 44.19 24.82 45.89 C 24.89 45.43 25.03 44.49 25.10 44.03 L 25.56 44.25 C 26.49 45.47 27.38 46.73 28.29 47.97 C 25.61 46.96 22.86 46.15 20.05 45.58 L 20.44 45.36 L 20.17 44.98 L 19.77 45.24 L 20.05 45.58 C 21.99 47.92 24.10 50.11 26.16 52.33 C 24.16 52.53 22.15 52.71 20.14 52.91 C 23.51 57.48 27.30 61.72 30.56 66.38 C 32.35 69.45 36.21 69.10 39.24 69.65 C 37.14 69.64 35.03 69.63 32.92 69.71 C 34.67 71.45 37.09 71.97 39.38 72.60 C 37.75 72.47 36.11 72.34 34.48 72.23 C 36.79 73.89 39.40 75.30 40.86 77.87 L 41.15 73.98 C 42.35 76.24 42.33 78.84 42.42 81.34 C 42.79 92.32 41.50 103.22 40.55 114.14 C 47.04 119.45 54.10 123.98 60.93 128.82 C 64.73 131.44 67.85 136.14 72.98 135.86 C 78.32 135.87 83.68 136.12 88.99 135.53 C 92.99 133.50 95.83 129.93 99.42 127.35 C 103.43 124.40 107.43 121.43 111.44 118.47 C 113.12 117.08 115.17 115.50 115.19 113.09 C 115.64 108.22 115.25 103.32 115.37 98.44 C 116.02 100.60 116.58 102.78 117.14 104.97 C 117.22 105.50 117.38 106.57 117.46 107.11 C 118.73 106.67 120.02 106.26 121.25 105.72 C 123.92 103.25 126.46 100.57 128.42 97.49 C 131.79 92.44 131.78 85.32 128.80 80.11 C 127.76 77.82 124.80 76.52 122.69 78.34 C 122.41 77.88 122.13 77.42 121.85 76.95 C 120.69 77.10 119.55 77.34 118.43 77.67 C 118.47 79.06 118.50 80.46 118.52 81.86 C 118.86 80.94 119.53 79.10 119.87 78.18 C 120.37 78.81 120.87 79.45 121.37 80.09 C 119.37 82.92 117.90 86.10 117.22 89.51 C 116.85 89.87 116.11 90.61 115.74 90.98 C 115.64 90.52 115.45 89.61 115.35 89.15 C 115.91 84.52 117.53 79.63 115.55 75.11 C 118.23 75.80 120.99 75.57 123.68 75.04 C 124.78 75.61 125.89 76.19 126.99 76.77 C 126.97 72.15 127.47 67.55 127.68 62.94 C 127.93 57.68 126.43 52.37 127.84 47.18 C 129.56 57.06 129.30 67.13 128.54 77.09 C 130.83 80.66 133.26 84.53 132.84 88.97 C 132.99 95.04 127.93 99.20 124.67 103.73 C 122.98 106.35 120.09 107.64 117.39 108.93 C 116.83 111.66 116.99 114.84 114.91 116.98 C 111.06 121.07 105.79 123.52 102.15 127.86 C 105.05 131.06 107.99 134.55 112.30 135.85 C 128.99 142.19 145.56 148.89 162.46 154.66 C 165.40 155.84 167.83 157.96 170.00 160.21 L 170.00 162.01 C 167.05 158.77 163.46 155.91 159.18 154.70 C 155.11 153.50 151.02 152.36 147.12 150.70 C 135.83 146.15 124.36 142.06 113.02 137.62 C 116.94 144.00 120.71 150.56 123.16 157.67 C 124.56 161.80 125.85 165.97 127.54 170.00 L 125.09 170.00 L 126.25 169.99 C 122.68 162.27 120.88 153.84 116.71 146.39 C 114.25 142.13 112.76 136.63 107.56 134.93 C 111.05 143.00 114.46 151.10 118.08 159.11 C 112.70 158.98 107.32 159.29 102.04 160.34 C 102.17 163.56 102.23 166.78 102.27 170.00 L 99.99 170.00 C 99.97 166.95 99.95 163.91 99.92 160.87 C 92.10 161.20 85.50 165.69 78.76 169.14 C 76.20 167.65 73.63 166.16 71.06 164.69 C 71.60 163.66 72.15 162.64 72.70 161.62 C 74.57 163.90 76.37 166.24 78.24 168.53 C 81.96 165.82 84.48 161.93 87.40 158.45 C 91.48 153.42 95.49 148.32 99.36 143.12 C 101.27 138.25 100.35 132.85 100.84 127.74 C 96.34 130.42 93.24 135.30 88.14 136.90 C 82.85 137.51 77.48 137.19 72.16 137.11 C 68.28 137.15 65.79 133.82 62.84 131.84 C 62.02 131.33 61.19 130.84 60.36 130.36 C 60.20 136.49 59.41 142.65 60.01 148.78 C 62.24 153.51 67.14 156.21 70.76 159.79 C 65.29 157.75 61.51 152.69 58.22 148.08 C 58.60 141.23 59.96 134.22 57.99 127.49 C 52.10 129.99 50.43 136.49 47.65 141.62 C 44.55 147.27 41.31 152.84 38.60 158.69 C 41.21 158.11 43.89 157.93 46.50 158.65 C 43.85 159.15 41.21 159.69 38.61 160.40 C 38.06 159.67 37.60 158.90 37.24 158.08 C 41.33 149.45 46.73 141.49 50.84 132.88 C 48.44 134.72 45.77 136.45 44.15 139.08 C 38.59 149.10 34.10 159.66 29.18 170.00 L 27.74 170.00 C 33.08 159.37 37.37 148.22 43.47 137.97 C 28.62 142.89 14.25 149.10 0.00 155.50 L 0.00 153.78 C 5.94 151.66 11.57 148.80 17.49 146.63 C 26.18 143.38 34.97 140.33 43.40 136.43 C 48.00 133.74 52.02 130.20 56.11 126.81 C 50.11 122.77 43.55 119.23 38.70 113.75 C 39.26 110.60 39.59 107.40 39.82 104.21 C 32.16 102.31 26.60 93.89 28.28 86.09 C 29.02 81.48 31.74 77.52 34.77 74.09 C 29.09 66.21 23.17 58.49 16.68 51.25 C 18.94 51.26 21.20 51.27 23.47 51.27 C 20.60 48.53 17.73 45.75 15.51 42.44 M 29.98 93.78 C 31.86 97.98 35.42 101.98 40.17 102.70 C 40.07 100.71 42.14 97.59 39.35 96.74 C 39.49 96.37 39.76 95.62 39.89 95.24 C 38.70 94.24 37.50 93.24 36.41 92.12 C 37.62 90.07 39.00 88.12 40.14 86.03 C 39.98 84.21 38.04 83.43 36.94 82.25 C 35.87 83.67 34.77 85.07 33.63 86.43 C 33.92 84.40 35.49 82.90 36.52 81.22 C 38.14 82.32 39.75 83.45 41.37 84.54 C 41.80 80.48 39.70 76.39 35.71 75.04 C 30.79 79.91 28.19 86.95 29.98 93.78 M 40.52 87.13 C 39.43 88.75 38.40 90.40 37.36 92.05 C 38.49 92.84 39.63 93.63 40.78 94.38 C 40.95 91.97 41.55 89.44 40.52 87.13 M 100.40 143.45 C 94.82 150.47 89.19 157.50 84.07 164.86 C 94.12 160.36 105.03 158.10 115.99 157.43 C 113.80 152.45 111.68 147.43 109.38 142.50 C 106.39 141.81 103.33 142.90 100.40 143.45 Z" />
<path fill="#100709" opacity="1.00" d=" M 43.61 71.32 C 45.85 69.13 48.00 66.85 50.08 64.51 C 58.79 69.07 65.37 76.57 72.35 83.29 C 71.96 80.51 71.38 77.62 72.38 74.89 C 72.99 78.22 73.35 81.59 73.88 84.93 C 70.57 84.33 67.39 83.28 64.18 82.32 C 63.03 85.47 63.04 89.29 64.92 92.19 C 60.35 93.19 55.67 92.78 51.04 92.61 C 49.50 87.65 50.07 82.40 51.28 77.44 C 48.87 76.37 46.41 75.40 43.85 74.74 L 42.42 74.34 C 42.22 73.18 42.81 72.12 43.61 71.32 M 52.09 91.76 C 55.39 91.15 59.83 93.25 62.41 90.85 C 60.41 87.84 61.61 84.15 61.60 80.81 C 58.56 79.93 55.54 78.99 52.51 78.07 C 50.94 82.45 51.31 87.26 52.09 91.76 Z" />
<path fill="#100709" opacity="1.00" d=" M 83.00 83.32 C 88.85 75.92 96.40 69.40 105.24 65.92 C 108.03 68.10 110.62 70.51 113.22 72.91 C 113.39 72.71 113.73 72.33 113.90 72.14 C 114.18 71.73 114.74 70.91 115.03 70.51 C 116.04 72.78 118.51 72.14 120.51 72.20 C 118.62 72.82 116.75 73.48 114.86 74.08 C 111.95 74.86 109.00 75.49 106.07 76.19 C 107.47 81.96 107.21 87.81 106.19 93.61 C 101.61 93.43 96.85 94.15 92.44 92.60 C 96.65 92.50 100.86 92.91 105.07 92.61 C 105.71 87.45 106.85 81.89 104.25 77.06 C 101.73 77.95 99.22 78.84 96.72 79.77 C 96.58 83.78 97.56 88.26 94.97 91.73 C 94.55 89.81 94.24 87.88 94.03 85.93 C 94.23 84.05 94.45 82.17 94.64 80.29 C 93.34 81.25 92.02 82.18 90.62 82.98 C 87.90 83.26 85.23 83.89 82.78 85.11 C 81.96 85.15 80.33 85.24 79.52 85.28 L 79.88 84.19 C 80.92 83.89 81.96 83.60 83.00 83.32 Z" />
<path fill="#100709" opacity="1.00" d=" M 120.31 69.45 C 121.55 68.69 123.38 68.38 124.70 69.12 C 124.36 70.55 120.74 70.75 120.31 69.45 Z" />
<path fill="#100709" opacity="1.00" d=" M 120.99 86.70 C 122.76 85.22 124.80 83.59 127.20 84.89 C 126.32 85.14 124.58 85.63 123.70 85.87 C 122.89 87.17 122.06 88.46 121.21 89.73 C 122.27 91.35 123.99 92.86 123.83 94.98 C 123.96 97.38 121.34 98.42 119.94 99.94 C 120.11 100.47 120.46 101.53 120.64 102.06 L 120.40 102.60 C 119.97 102.89 119.10 103.45 118.66 103.73 C 117.80 102.19 118.21 100.50 118.54 98.87 C 120.05 97.72 121.49 96.48 122.86 95.16 C 121.71 93.44 120.56 91.71 119.39 90.00 C 119.92 88.90 120.43 87.79 120.99 86.70 Z" />
<path fill="#100709" opacity="1.00" d=" M 47.04 90.02 C 48.76 91.96 50.41 93.96 52.03 95.99 C 48.94 95.77 46.80 93.06 47.04 90.02 Z" />
<path fill="#100709" opacity="1.00" d=" M 60.86 95.96 C 62.73 93.46 66.35 93.58 69.06 92.48 C 67.69 95.53 63.67 95.40 60.86 95.96 Z" />
<path fill="#100709" opacity="1.00" d=" M 88.13 93.97 C 91.36 92.29 95.42 94.94 97.75 97.26 C 94.37 96.77 91.30 95.12 88.13 93.97 Z" />
<path fill="#100709" opacity="1.00" d=" M 108.06 93.10 C 108.34 93.58 108.90 94.56 109.18 95.05 C 108.43 95.98 107.46 96.37 106.27 96.24 C 105.65 94.90 107.08 93.75 108.06 93.10 Z" />
<path fill="#100709" opacity="1.00" d=" M 74.21 99.27 L 75.53 99.77 C 75.71 102.89 75.26 106.00 75.39 109.12 C 75.40 109.61 75.41 110.59 75.42 111.08 C 73.95 109.03 72.37 107.06 70.75 105.14 C 72.77 103.77 74.14 101.80 74.21 99.27 Z" />
<path fill="#100709" opacity="1.00" d=" M 58.49 119.97 C 56.69 117.89 58.84 114.84 61.35 115.74 C 60.66 117.32 59.68 118.73 58.49 119.97 Z" />
<path fill="#100709" opacity="1.00" d=" M 64.39 116.81 C 72.88 114.92 81.75 115.19 90.24 116.96 C 92.18 117.31 93.97 118.19 95.62 119.26 C 92.69 120.06 89.93 118.11 87.05 117.82 C 78.70 115.85 70.09 116.92 61.83 118.78 C 62.49 117.89 63.14 116.85 64.39 116.81 Z" />
<path fill="#100709" opacity="1.00" d=" M 96.00 120.55 C 96.48 118.99 97.27 117.60 99.02 117.34 C 99.25 118.56 99.48 119.79 99.70 121.02 C 98.47 120.86 97.23 120.71 96.00 120.55 Z" />
<path fill="#100709" opacity="1.00" d=" M 70.11 122.43 C 75.62 122.19 81.18 122.22 86.61 123.31 C 86.18 123.43 85.34 123.68 84.92 123.81 C 83.45 123.88 81.98 123.87 80.51 123.89 C 77.19 123.15 72.71 125.02 70.11 122.43 Z" />
<path fill="#100709" opacity="1.00" d=" M 0.71 170.00 C 1.02 165.12 0.82 160.10 2.24 155.37 C 2.85 160.26 1.99 165.14 1.59 170.00 L 0.71 170.00 Z" />
<path fill="#100709" opacity="1.00" d=" M 46.13 157.34 C 50.87 157.03 55.63 157.40 60.24 158.56 C 56.05 160.66 57.82 166.24 57.18 170.00 L 55.71 170.00 C 55.82 166.29 56.99 162.22 55.64 158.71 C 52.61 158.24 49.53 158.37 46.50 158.65 L 46.13 157.34 Z" />
<path fill="#100709" opacity="1.00" d=" M 166.27 170.00 C 166.14 166.84 166.10 163.62 167.10 160.58 C 167.70 163.68 167.80 166.85 167.98 170.00 L 166.27 170.00 Z" />
</g>
<g id="#cc9934ff">
<path fill="#cc9934" opacity="1.00" d=" M 105.40 47.14 C 105.38 45.42 105.51 43.58 106.45 42.08 C 109.88 45.75 114.21 49.53 114.50 54.92 C 114.69 60.66 114.21 66.41 113.90 72.14 C 113.73 72.33 113.39 72.71 113.22 72.91 C 110.62 70.51 108.03 68.10 105.24 65.92 C 106.50 59.73 105.70 53.39 105.40 47.14 Z" />
<path fill="#cc9934" opacity="1.00" d=" M 107.28 78.82 C 108.81 75.76 112.33 75.12 115.42 75.18 C 116.46 79.85 114.45 84.54 115.35 89.15 C 115.45 89.61 115.64 90.52 115.74 90.98 C 116.11 90.61 116.85 89.87 117.22 89.51 C 118.89 91.17 120.62 92.86 121.67 95.01 C 121.00 96.80 119.04 97.60 117.69 98.80 C 117.46 100.85 117.27 102.90 117.14 104.97 C 116.58 102.78 116.02 100.60 115.37 98.44 C 115.25 103.32 115.64 108.22 115.19 113.09 C 115.17 115.50 113.12 117.08 111.44 118.47 C 107.43 121.43 103.43 124.40 99.42 127.35 C 95.83 129.93 92.99 133.50 88.99 135.53 C 90.12 129.10 97.38 126.78 99.70 121.02 C 103.34 118.67 106.18 115.18 108.32 111.46 C 109.27 106.88 108.76 102.13 108.90 97.48 C 108.28 97.28 107.03 96.88 106.41 96.68 L 106.27 96.24 C 107.46 96.37 108.43 95.98 109.18 95.05 C 108.90 94.56 108.34 93.58 108.06 93.10 C 106.40 90.44 108.06 87.43 107.93 84.59 C 107.77 82.66 107.37 80.75 107.28 78.82 Z" />
<path fill="#cc9934" opacity="1.00" d=" M 118.86 86.46 C 120.16 82.73 123.78 80.62 127.11 78.93 C 127.70 80.01 128.09 81.16 128.27 82.38 C 131.67 86.89 130.05 92.64 128.42 97.49 C 126.46 100.57 123.92 103.25 121.25 105.72 L 119.16 105.52 C 119.47 104.79 120.09 103.33 120.40 102.60 L 120.64 102.06 C 120.46 101.53 120.11 100.47 119.94 99.94 C 121.34 98.42 123.96 97.38 123.83 94.98 C 123.99 92.86 122.27 91.35 121.21 89.73 C 122.06 88.46 122.89 87.17 123.70 85.87 C 124.58 85.63 126.32 85.14 127.20 84.89 C 124.80 83.59 122.76 85.22 120.99 86.70 L 118.86 86.46 Z" />
<path fill="#cc9934" opacity="1.00" d=" M 33.63 86.43 C 34.77 85.07 35.87 83.67 36.94 82.25 C 38.04 83.43 39.98 84.21 40.14 86.03 C 39.00 88.12 37.62 90.07 36.41 92.12 C 35.13 90.42 34.25 88.46 33.63 86.43 Z" />
<path fill="#cc9934" opacity="1.00" d=" M 40.52 87.13 C 41.55 89.44 40.95 91.97 40.78 94.38 C 39.63 93.63 38.49 92.84 37.36 92.05 C 38.40 90.40 39.43 88.75 40.52 87.13 Z" />
<path fill="#cc9934" opacity="1.00" d=" M 75.69 107.15 C 77.12 106.35 78.53 105.52 79.93 104.66 C 79.65 105.25 79.07 106.42 78.79 107.01 C 79.81 107.52 80.83 108.03 81.85 108.54 C 81.88 109.07 81.95 110.12 81.98 110.64 C 79.83 111.30 77.63 111.80 75.43 112.26 L 75.42 111.08 C 75.41 110.59 75.40 109.61 75.39 109.12 C 75.92 108.76 76.97 108.04 77.50 107.68 C 77.05 107.55 76.14 107.29 75.69 107.15 Z" />
<path fill="#cc9934" opacity="1.00" d=" M 86.61 123.31 L 87.40 123.07 C 87.21 123.41 86.84 124.09 86.65 124.43 C 83.82 125.16 81.76 127.45 78.98 128.21 C 76.72 128.90 75.75 126.21 74.57 124.89 C 76.56 124.61 78.53 124.22 80.51 123.89 C 81.98 123.87 83.45 123.88 84.92 123.81 C 85.34 123.68 86.18 123.43 86.61 123.31 Z" />
<path fill="#cc9934" opacity="1.00" d=" M 100.84 127.74 C 100.35 132.85 101.27 138.25 99.36 143.12 C 94.03 144.05 88.65 144.83 83.45 146.37 C 81.01 146.95 78.09 148.02 75.94 146.13 C 71.05 142.38 66.51 138.18 62.23 133.75 C 62.38 133.27 62.68 132.31 62.84 131.84 C 65.79 133.82 68.28 137.15 72.16 137.11 C 77.48 137.19 82.85 137.51 88.14 136.90 C 93.24 135.30 96.34 130.42 100.84 127.74 Z" />
</g>
<g id="#ca3366ff">
<path fill="#ca3366" opacity="1.00" d=" M 47.65 141.62 C 50.43 136.49 52.10 129.99 57.99 127.49 C 59.96 134.22 58.60 141.23 58.22 148.08 C 61.51 152.69 65.29 157.75 70.76 159.79 C 71.44 160.36 72.08 160.98 72.70 161.62 C 72.15 162.64 71.60 163.66 71.06 164.69 C 73.63 166.16 76.20 167.65 78.76 169.14 C 85.50 165.69 92.10 161.20 99.92 160.87 C 99.95 163.91 99.97 166.95 99.99 170.00 L 57.18 170.00 C 57.82 166.24 56.05 160.66 60.24 158.56 C 55.63 157.40 50.87 157.03 46.13 157.34 L 46.50 158.65 C 43.89 157.93 41.21 158.11 38.60 158.69 C 41.31 152.84 44.55 147.27 47.65 141.62 Z" />
<path fill="#ca3366" opacity="1.00" d=" M 100.40 143.45 C 103.33 142.90 106.39 141.81 109.38 142.50 C 111.68 147.43 113.80 152.45 115.99 157.43 C 105.03 158.10 94.12 160.36 84.07 164.86 C 89.19 157.50 94.82 150.47 100.40 143.45 Z" />
</g>
</svg>
