<?xml version="1.0" encoding="UTF-8" ?>
<!DOCTYPE svg PUBLIC "-//W3C//DTD SVG 1.1//EN" "http://www.w3.org/Graphics/SVG/1.1/DTD/svg11.dtd">
<svg width="514pt" height="688pt" viewBox="0 0 514 688" version="1.1" xmlns="http://www.w3.org/2000/svg">
<g id="#7d7a79ff">
<path fill="#7d7a79" opacity="1.00" d=" M 0.00 0.00 L 0.12 0.00 C 0.09 0.03 0.03 0.09 0.00 0.12 L 0.00 0.00 Z" />
<path fill="#7d7a79" opacity="1.00" d=" M 122.74 7.75 C 127.48 3.66 134.15 4.59 139.94 4.34 C 145.31 3.93 150.63 4.83 155.98 5.21 C 165.94 5.55 175.92 4.91 185.87 5.41 C 184.01 14.56 179.55 22.94 176.58 31.76 C 173.38 41.50 168.42 50.55 165.21 60.29 C 164.18 63.09 163.25 66.02 161.40 68.41 C 159.30 68.81 157.14 68.76 155.01 68.77 C 134.05 68.54 113.09 68.77 92.13 68.57 C 94.91 60.51 99.15 53.05 102.35 45.17 C 105.47 37.56 109.98 30.62 113.10 23.01 C 115.37 17.41 118.47 12.07 122.74 7.75 Z" />
<path fill="#7d7a79" opacity="1.00" d=" M 195.45 5.51 C 204.28 4.86 213.17 5.23 221.96 6.26 C 238.19 6.46 254.44 6.13 270.67 6.30 C 269.55 11.02 267.45 15.43 265.89 20.01 C 263.41 27.29 261.07 34.63 258.85 42.00 C 256.66 48.42 253.93 54.65 251.97 61.15 C 250.98 63.97 250.30 67.02 248.41 69.41 C 246.97 69.67 245.51 69.74 244.06 69.76 C 219.79 69.61 195.52 69.71 171.25 69.61 C 172.52 62.97 175.59 56.86 177.64 50.46 C 183.11 37.07 188.29 23.57 193.08 9.92 C 193.71 8.39 194.26 6.72 195.45 5.51 M 219.28 22.09 C 211.25 23.18 203.95 28.00 199.80 34.94 C 198.39 38.29 198.12 42.23 199.08 45.74 C 201.80 50.11 206.72 53.35 211.97 53.41 C 218.89 53.78 226.11 52.74 232.19 49.25 C 237.33 45.67 242.47 40.60 242.92 33.99 C 242.31 30.83 240.72 27.79 238.43 25.54 C 233.02 21.46 225.75 20.90 219.28 22.09 Z" />
<path fill="#7d7a79" opacity="1.00" d=" M 280.51 6.58 C 286.75 5.87 293.09 6.24 299.33 6.83 C 313.54 7.45 327.77 7.32 342.00 7.29 C 345.85 7.27 349.78 7.00 353.56 7.94 C 352.05 14.47 347.93 19.99 346.23 26.45 C 344.61 32.75 341.78 38.63 339.48 44.70 C 336.20 53.31 332.83 61.89 329.43 70.45 C 320.31 71.11 311.12 70.71 302.03 69.73 C 287.40 69.50 272.75 69.96 258.13 69.57 C 258.97 64.67 261.21 60.18 262.52 55.41 C 266.43 41.73 272.04 28.62 276.09 14.98 C 277.21 12.07 277.75 8.43 280.51 6.58 Z" />
<path fill="#7d7a79" opacity="1.00" d=" M 232.81 26.04 C 234.90 27.63 236.99 29.62 237.55 32.30 C 238.04 35.13 237.42 38.04 236.47 40.71 C 236.01 40.63 235.09 40.48 234.63 40.40 C 233.12 38.58 232.51 35.51 229.89 35.00 C 227.39 35.29 225.42 37.03 223.38 38.34 C 220.68 40.33 217.71 42.03 215.40 44.49 C 214.49 46.46 214.78 48.74 214.40 50.84 C 211.08 49.84 207.99 48.24 205.01 46.50 C 210.05 44.67 212.73 39.91 216.19 36.20 C 220.76 31.15 229.23 32.30 232.81 26.04 Z" />
<path fill="#7d7a79" opacity="1.00" d=" M 109.98 84.83 C 115.61 83.93 121.33 84.60 127.00 84.45 C 132.18 84.30 137.38 84.31 142.53 85.06 C 149.93 86.12 157.42 84.77 164.82 85.89 C 170.51 86.70 176.26 86.57 181.99 86.40 C 187.69 86.23 193.29 87.50 198.98 87.53 C 224.65 87.37 250.32 88.22 276.00 88.26 C 281.68 88.17 287.40 88.07 293.00 89.14 C 297.88 90.09 302.87 89.77 307.79 90.28 C 308.47 97.30 306.73 104.24 306.19 111.21 C 305.67 118.85 304.08 126.38 303.66 134.03 C 303.35 139.73 301.83 145.29 301.78 151.02 C 301.67 157.65 300.00 164.10 299.38 170.68 C 297.78 181.43 297.89 192.36 295.77 203.04 C 293.55 225.06 290.88 247.02 288.99 269.07 C 286.26 290.16 284.86 311.38 282.26 332.48 C 280.97 341.79 280.67 351.20 279.23 360.49 C 278.47 365.81 278.83 371.30 277.44 376.52 C 271.64 377.14 265.80 376.47 259.99 376.66 C 246.94 377.05 234.03 374.20 220.99 374.68 C 213.65 374.94 206.32 374.54 199.03 373.75 C 190.31 374.14 181.71 372.19 173.00 372.70 C 168.84 372.86 164.66 372.76 160.52 372.25 C 149.63 370.84 138.61 372.49 127.72 371.13 C 122.01 370.34 116.23 371.01 110.53 370.24 C 106.04 369.69 101.51 369.50 96.99 369.66 C 89.11 370.07 81.31 368.62 73.44 368.56 C 79.36 327.56 84.83 286.49 90.69 245.49 C 91.04 239.92 91.71 234.39 93.02 228.97 C 96.52 199.68 102.12 170.56 102.86 141.01 C 104.72 127.80 105.34 114.43 107.94 101.32 C 109.07 95.88 107.47 89.98 109.98 84.83 Z" />
<path fill="#7d7a79" opacity="1.00" d=" M 388.47 92.52 C 397.28 91.90 406.20 92.13 414.99 93.10 C 422.58 93.74 430.22 92.83 437.80 93.61 C 448.65 95.06 459.75 93.32 470.47 95.96 C 467.80 108.13 467.97 120.63 466.77 132.97 C 466.84 141.03 465.27 148.99 465.67 157.06 C 464.60 169.04 464.20 181.08 462.97 193.05 C 462.34 197.95 463.04 202.92 462.42 207.82 C 461.34 215.50 461.94 223.29 460.80 230.97 C 460.89 239.28 459.74 247.52 459.39 255.81 C 458.41 263.18 458.95 270.63 457.89 277.99 C 457.64 290.36 455.93 302.65 455.55 315.01 C 455.33 319.02 454.57 322.99 454.62 327.02 C 454.56 333.15 455.26 339.49 453.46 345.45 C 445.90 346.40 438.33 344.90 430.85 344.01 C 422.10 343.09 413.27 344.35 404.54 343.23 C 397.68 342.23 390.71 343.07 383.86 342.04 C 378.06 341.21 372.20 341.99 366.39 341.53 C 365.65 334.25 368.62 327.25 368.33 319.98 C 368.10 314.12 368.58 308.28 369.73 302.53 C 371.16 288.03 372.46 273.50 373.38 258.96 C 373.27 252.25 375.06 245.71 375.22 239.02 C 375.40 233.32 376.45 227.68 376.35 221.97 C 376.31 218.48 376.29 214.98 376.74 211.52 C 378.86 198.50 379.16 185.27 380.65 172.18 C 381.57 159.29 383.11 146.45 383.72 133.53 C 385.00 122.99 385.58 112.38 386.96 101.85 C 387.54 98.83 386.43 95.01 388.47 92.52 Z" />
<path fill="#7d7a79" opacity="1.00" d=" M 365.40 348.43 C 371.95 347.46 378.45 349.52 385.02 349.27 C 391.71 348.97 398.31 350.56 405.01 350.30 C 413.72 349.87 422.34 351.80 431.06 351.34 C 438.37 352.34 445.75 352.13 453.09 352.58 C 453.03 357.06 452.46 361.52 452.66 366.02 C 452.88 374.42 450.72 382.64 450.72 391.02 C 450.11 402.85 448.60 414.63 448.45 426.46 C 426.52 440.35 405.39 455.43 383.56 469.49 C 377.79 473.37 372.29 477.63 366.36 481.26 C 362.13 483.83 358.87 487.78 354.39 489.96 C 353.74 482.46 354.73 474.95 355.77 467.53 C 357.70 447.89 359.49 428.23 360.72 408.53 C 362.83 388.55 364.93 368.52 365.40 348.43 Z" />
<path fill="#7d7a79" opacity="1.00" d=" M 45.86 398.76 C 46.93 397.31 47.90 395.12 50.04 395.31 C 59.72 395.02 69.39 395.46 79.03 396.33 C 89.00 395.83 98.88 397.54 108.85 397.39 C 108.61 401.49 107.06 405.33 106.08 409.28 C 103.66 420.81 100.44 432.15 97.28 443.49 C 92.54 464.50 87.23 485.37 82.21 506.32 C 77.55 522.67 73.27 539.12 69.38 555.67 C 68.42 559.40 67.66 563.20 66.39 566.85 C 62.34 563.68 60.72 558.46 57.36 554.66 C 46.93 539.44 36.48 524.23 25.91 509.09 C 21.87 502.56 16.39 497.05 12.73 490.27 C 10.62 486.43 7.65 482.98 6.43 478.70 C 5.83 476.61 7.08 474.63 7.86 472.78 C 12.98 462.84 17.84 452.77 22.94 442.82 C 25.67 437.52 27.88 431.96 30.98 426.85 C 36.47 417.78 40.33 407.82 45.86 398.76 Z" />
<path fill="#7d7a79" opacity="1.00" d=" M 119.51 398.53 C 126.00 397.73 132.59 398.23 139.07 398.95 C 147.46 399.88 155.93 398.59 164.31 399.80 C 171.82 400.86 179.40 399.81 186.93 400.48 C 198.07 401.89 209.37 400.69 220.48 402.62 C 222.26 408.90 223.10 415.42 225.04 421.67 C 228.39 441.00 231.39 460.41 235.65 479.57 C 226.39 480.39 217.21 478.56 207.96 478.58 C 202.96 478.54 198.01 477.55 193.00 477.71 C 187.65 477.91 182.34 477.20 177.03 476.73 C 164.36 476.34 151.63 477.37 139.01 475.87 C 131.54 475.17 124.01 476.21 116.55 475.21 C 110.96 474.38 105.30 474.94 99.70 474.43 C 100.06 470.27 101.50 466.33 102.47 462.30 C 106.43 446.01 110.70 429.79 114.72 413.52 C 116.35 408.54 116.84 403.10 119.51 398.53 Z" />
<path fill="#7d7a79" opacity="1.00" d=" M 231.24 403.38 C 238.82 402.84 246.42 403.26 253.96 404.12 C 266.88 404.69 279.93 403.47 292.77 405.51 C 293.98 405.64 294.43 406.99 295.10 407.83 C 301.46 418.85 308.35 429.61 313.71 441.18 C 318.73 451.76 324.63 461.90 329.31 472.63 C 333.26 479.57 336.00 487.09 339.63 494.19 C 340.82 496.68 342.35 499.03 343.23 501.66 C 333.59 511.52 323.65 521.13 313.99 530.97 C 300.72 543.03 288.14 555.79 275.49 568.49 C 271.90 572.66 267.04 575.42 263.39 579.54 C 262.26 578.05 262.02 576.15 261.65 574.39 C 252.23 521.95 242.38 469.62 233.03 417.18 C 232.18 412.62 231.04 408.05 231.24 403.38 Z" />
</g>
<g id="#fefdfdff">
</g>
<g id="#34312fff">
<path fill="#34312f" opacity="1.00" d=" M 121.71 2.72 C 123.63 0.87 126.46 0.98 128.93 0.84 C 160.96 1.13 193.00 1.11 225.03 1.42 C 254.66 2.73 284.35 1.58 313.97 3.00 C 325.67 3.00 337.36 3.25 349.06 3.24 C 352.26 3.34 355.52 3.41 358.61 4.35 C 361.75 5.28 363.46 8.33 364.98 10.98 C 368.46 17.69 371.48 24.62 374.54 31.53 C 376.84 36.76 380.05 41.53 382.26 46.80 C 386.14 56.26 391.23 65.16 395.30 74.53 C 397.41 78.86 398.87 83.53 401.55 87.56 C 404.31 88.40 407.23 88.23 410.07 88.37 C 415.91 88.43 421.71 89.07 427.53 89.50 C 439.35 90.52 451.25 89.69 463.07 90.96 C 467.91 91.51 473.89 91.52 476.99 95.96 C 481.29 102.41 483.24 110.40 482.33 118.12 C 481.93 126.64 481.28 135.15 480.98 143.66 C 486.37 144.56 492.71 142.84 497.18 146.81 C 501.92 150.25 502.69 156.52 502.96 161.94 C 503.12 174.46 503.39 187.52 497.95 199.13 C 491.72 201.13 484.93 199.68 478.70 201.62 C 476.28 208.47 476.41 215.87 475.97 223.03 C 475.95 232.42 475.00 241.77 474.32 251.13 C 473.67 266.82 472.47 282.48 471.33 298.14 C 470.36 317.78 469.12 337.40 467.93 357.03 C 467.08 370.71 466.61 384.40 465.32 398.05 C 464.91 409.05 463.95 420.02 463.14 430.99 C 462.67 435.55 463.42 440.65 460.67 444.62 C 457.45 449.74 452.15 452.89 447.48 456.49 C 437.13 464.11 427.02 472.04 416.59 479.55 C 415.15 480.80 413.07 481.94 413.04 484.10 C 412.40 489.75 412.77 495.47 412.15 501.13 C 410.81 514.00 410.90 526.98 409.49 539.85 C 408.69 546.23 409.13 552.70 408.04 559.06 C 406.81 566.29 406.67 573.70 404.75 580.82 C 402.67 591.02 399.00 600.79 396.84 610.97 C 393.28 621.32 390.05 631.93 384.40 641.39 C 380.73 647.76 377.35 654.29 373.51 660.56 C 369.82 666.68 363.82 670.84 359.36 676.35 C 356.09 680.67 350.42 681.15 345.61 682.58 C 337.91 684.77 329.86 683.58 322.02 683.14 C 315.34 682.64 308.64 682.99 301.96 682.56 C 274.22 680.51 246.42 679.81 218.65 678.27 C 201.62 676.58 184.45 676.98 167.42 675.32 C 162.87 674.87 158.92 672.34 155.38 669.63 C 151.62 666.73 147.48 664.25 144.28 660.69 C 141.34 657.52 139.75 653.35 136.65 650.32 C 134.25 648.00 132.06 645.41 130.79 642.29 C 125.56 630.08 116.00 619.65 113.92 606.20 C 113.47 602.90 110.76 600.33 107.66 599.43 C 100.29 597.71 92.43 600.37 85.21 597.78 C 80.35 594.67 77.53 589.32 74.16 584.79 C 71.67 581.63 71.33 577.58 70.28 573.85 C 66.79 571.67 63.33 569.38 61.15 565.78 C 50.18 549.54 38.26 533.98 27.18 517.82 C 19.60 507.38 12.14 496.85 4.54 486.43 C 1.71 482.90 2.47 477.96 0.00 474.25 L 0.00 473.18 C 0.85 468.05 1.43 462.89 1.89 457.71 C 2.50 451.23 4.93 445.10 5.73 438.66 C 7.05 421.07 10.07 403.66 12.44 386.19 C 15.68 363.65 20.00 341.29 22.91 318.70 C 27.60 288.74 31.56 258.66 36.75 228.78 C 39.12 209.46 42.51 190.29 45.26 171.03 C 48.80 151.49 51.02 131.75 54.30 112.17 C 55.77 103.86 55.83 95.12 59.35 87.31 C 60.85 83.74 63.49 80.85 65.78 77.79 C 81.56 57.19 96.64 36.04 112.46 15.47 C 115.56 11.24 117.82 6.33 121.71 2.72 M 122.74 7.75 C 118.47 12.07 115.37 17.41 113.10 23.01 C 109.98 30.62 105.47 37.56 102.35 45.17 C 99.15 53.05 94.91 60.51 92.13 68.57 C 113.09 68.77 134.05 68.54 155.01 68.77 C 157.14 68.76 159.30 68.81 161.40 68.41 C 163.25 66.02 164.18 63.09 165.21 60.29 C 168.42 50.55 173.38 41.50 176.58 31.76 C 179.55 22.94 184.01 14.56 185.87 5.41 C 175.92 4.91 165.94 5.55 155.98 5.21 C 150.63 4.83 145.31 3.93 139.94 4.34 C 134.15 4.59 127.48 3.66 122.74 7.75 M 195.45 5.51 C 194.26 6.72 193.71 8.39 193.08 9.92 C 188.29 23.57 183.11 37.07 177.64 50.46 C 175.59 56.86 172.52 62.97 171.25 69.61 C 195.52 69.71 219.79 69.61 244.06 69.76 C 245.51 69.74 246.97 69.67 248.41 69.41 C 250.30 67.02 250.98 63.97 251.97 61.15 C 253.93 54.65 256.66 48.42 258.85 42.00 C 261.07 34.63 263.41 27.29 265.89 20.01 C 267.45 15.43 269.55 11.02 270.67 6.30 C 254.44 6.13 238.19 6.46 221.96 6.26 C 213.17 5.23 204.28 4.86 195.45 5.51 M 280.51 6.58 C 277.75 8.43 277.21 12.07 276.09 14.98 C 272.04 28.62 266.43 41.73 262.52 55.41 C 261.21 60.18 258.97 64.67 258.13 69.57 C 272.75 69.96 287.40 69.50 302.03 69.73 C 311.12 70.71 320.31 71.11 329.43 70.45 C 332.83 61.89 336.20 53.31 339.48 44.70 C 341.78 38.63 344.61 32.75 346.23 26.45 C 347.93 19.99 352.05 14.47 353.56 7.94 C 349.78 7.00 345.85 7.27 342.00 7.29 C 327.77 7.32 313.54 7.45 299.33 6.83 C 293.09 6.24 286.75 5.87 280.51 6.58 M 62.28 92.21 C 60.71 93.69 61.02 96.05 60.60 97.99 C 57.53 118.58 54.43 139.17 50.89 159.68 C 49.40 171.37 48.00 183.08 45.75 194.65 C 44.23 202.78 43.89 211.07 42.38 219.20 C 40.76 228.49 39.82 237.87 38.34 247.18 C 34.82 263.36 33.70 279.93 30.53 296.18 C 29.11 305.82 28.36 315.58 26.25 325.12 C 23.21 339.11 22.17 353.42 19.68 367.51 C 18.47 374.98 17.13 382.43 16.02 389.91 C 13.49 413.71 8.88 437.23 6.04 460.98 C 11.58 450.51 16.70 439.81 22.35 429.39 C 27.29 418.88 33.22 408.89 38.33 398.46 C 40.37 394.36 42.82 390.32 43.47 385.70 C 45.32 372.79 46.93 359.83 48.71 346.91 C 50.77 329.54 53.77 312.30 55.61 294.90 C 58.38 274.32 60.95 253.73 64.09 233.21 C 66.71 216.87 68.65 200.44 70.82 184.03 C 72.48 176.09 72.93 167.97 74.49 160.02 C 78.39 131.08 82.57 102.17 87.04 73.31 C 78.15 78.73 69.77 84.97 62.28 92.21 M 332.40 75.70 C 331.28 80.27 331.43 85.05 330.90 89.71 C 323.89 156.82 317.60 224.00 310.49 291.10 C 309.20 298.34 309.44 305.74 308.27 313.00 C 305.31 341.71 302.56 370.44 299.42 399.14 C 299.06 401.75 300.77 403.96 301.88 406.17 C 308.90 419.40 316.43 432.35 323.54 445.53 C 330.96 460.00 339.02 474.13 346.64 488.50 C 347.32 489.89 348.35 491.04 349.50 492.07 C 349.75 487.04 349.84 481.99 350.54 477.00 C 352.32 462.92 352.13 448.66 354.37 434.65 C 354.84 415.70 358.47 397.00 358.92 378.05 C 359.89 369.35 360.63 360.63 361.45 351.92 C 362.45 345.66 362.85 339.33 362.64 333.00 C 362.43 326.60 364.51 320.42 364.56 314.04 C 364.66 306.81 365.55 299.64 366.26 292.46 C 367.28 275.50 368.27 258.52 370.32 241.64 C 370.71 230.05 372.81 218.58 372.72 206.97 C 372.77 201.26 374.39 195.70 374.53 190.00 C 374.65 186.38 374.66 182.76 375.01 179.15 C 376.91 158.33 378.60 137.49 380.24 116.64 C 381.52 108.84 381.65 100.94 382.25 93.08 C 382.27 91.75 382.10 89.97 380.71 89.37 C 376.76 87.52 372.55 86.31 368.52 84.62 C 362.67 82.21 356.30 81.68 350.29 79.82 C 344.49 77.89 338.56 75.85 332.40 75.70 M 109.98 84.83 C 107.47 89.98 109.07 95.88 107.94 101.32 C 105.34 114.43 104.72 127.80 102.86 141.01 C 102.12 170.56 96.52 199.68 93.02 228.97 C 91.71 234.39 91.04 239.92 90.69 245.49 C 84.83 286.49 79.36 327.56 73.44 368.56 C 81.31 368.62 89.11 370.07 96.99 369.66 C 101.51 369.50 106.04 369.69 110.53 370.24 C 116.23 371.01 122.01 370.34 127.72 371.13 C 138.61 372.49 149.63 370.84 160.52 372.25 C 164.66 372.76 168.84 372.86 173.00 372.70 C 181.71 372.19 190.31 374.14 199.03 373.75 C 206.32 374.54 213.65 374.94 220.99 374.68 C 234.03 374.20 246.94 377.05 259.99 376.66 C 265.80 376.47 271.64 377.14 277.44 376.52 C 278.83 371.30 278.47 365.81 279.23 360.49 C 280.67 351.20 280.97 341.79 282.26 332.48 C 284.86 311.38 286.26 290.16 288.99 269.07 C 290.88 247.02 293.55 225.06 295.77 203.04 C 297.89 192.36 297.78 181.43 299.38 170.68 C 300.00 164.10 301.67 157.65 301.78 151.02 C 301.83 145.29 303.35 139.73 303.66 134.03 C 304.08 126.38 305.67 118.85 306.19 111.21 C 306.73 104.24 308.47 97.30 307.79 90.28 C 302.87 89.77 297.88 90.09 293.00 89.14 C 287.40 88.07 281.68 88.17 276.00 88.26 C 250.32 88.22 224.65 87.37 198.98 87.53 C 193.29 87.50 187.69 86.23 181.99 86.40 C 176.26 86.57 170.51 86.70 164.82 85.89 C 157.42 84.77 149.93 86.12 142.53 85.06 C 137.38 84.31 132.18 84.30 127.00 84.45 C 121.33 84.60 115.61 83.93 109.98 84.83 M 388.47 92.52 C 386.43 95.01 387.54 98.83 386.96 101.85 C 385.58 112.38 385.00 122.99 383.72 133.53 C 383.11 146.45 381.57 159.29 380.65 172.18 C 379.16 185.27 378.86 198.50 376.74 211.52 C 376.29 214.98 376.31 218.48 376.35 221.97 C 376.45 227.68 375.40 233.32 375.22 239.02 C 375.06 245.71 373.27 252.25 373.38 258.96 C 372.46 273.50 371.16 288.03 369.73 302.53 C 368.58 308.28 368.10 314.12 368.33 319.98 C 368.62 327.25 365.65 334.25 366.39 341.53 C 372.20 341.99 378.06 341.21 383.86 342.04 C 390.71 343.07 397.68 342.23 404.54 343.23 C 413.27 344.35 422.10 343.09 430.85 344.01 C 438.33 344.90 445.90 346.40 453.46 345.45 C 455.26 339.49 454.56 333.15 454.62 327.02 C 454.57 322.99 455.33 319.02 455.55 315.01 C 455.93 302.65 457.64 290.36 457.89 277.99 C 458.95 270.63 458.41 263.18 459.39 255.81 C 459.74 247.52 460.89 239.28 460.80 230.97 C 461.94 223.29 461.34 215.50 462.42 207.82 C 463.04 202.92 462.34 197.95 462.97 193.05 C 464.20 181.08 464.60 169.04 465.67 157.06 C 465.27 148.99 466.84 141.03 466.77 132.97 C 467.97 120.63 467.80 108.13 470.47 95.96 C 459.75 93.32 448.65 95.06 437.80 93.61 C 430.22 92.83 422.58 93.74 414.99 93.10 C 406.20 92.13 397.28 91.90 388.47 92.52 M 478.51 148.45 C 476.76 150.22 476.37 152.83 476.14 155.20 L 475.34 155.28 C 474.17 159.47 473.03 163.76 473.16 168.15 C 472.06 174.98 471.50 182.21 474.34 188.73 C 475.57 191.33 476.22 195.23 479.41 196.08 C 483.52 195.85 487.61 196.13 491.70 196.56 C 495.63 194.86 497.54 190.12 497.64 186.01 C 497.82 181.25 500.06 176.80 499.80 172.00 C 499.56 165.71 498.21 159.54 497.35 153.33 C 497.14 150.05 493.33 150.48 491.01 150.19 C 486.76 150.19 482.77 147.35 478.51 148.45 M 365.40 348.43 C 364.93 368.52 362.83 388.55 360.72 408.53 C 359.49 428.23 357.70 447.89 355.77 467.53 C 354.73 474.95 353.74 482.46 354.39 489.96 C 358.87 487.78 362.13 483.83 366.36 481.26 C 372.29 477.63 377.79 473.37 383.56 469.49 C 405.39 455.43 426.52 440.35 448.45 426.46 C 448.60 414.63 450.11 402.85 450.72 391.02 C 450.72 382.64 452.88 374.42 452.66 366.02 C 452.46 361.52 453.03 357.06 453.09 352.58 C 445.75 352.13 438.37 352.34 431.06 351.34 C 422.34 351.80 413.72 349.87 405.01 350.30 C 398.31 350.56 391.71 348.97 385.02 349.27 C 378.45 349.52 371.95 347.46 365.40 348.43 M 45.86 398.76 C 40.33 407.82 36.47 417.78 30.98 426.85 C 27.88 431.96 25.67 437.52 22.94 442.82 C 17.84 452.77 12.98 462.84 7.86 472.78 C 7.08 474.63 5.83 476.61 6.43 478.70 C 7.65 482.98 10.62 486.43 12.73 490.27 C 16.39 497.05 21.87 502.56 25.91 509.09 C 36.48 524.23 46.93 539.44 57.36 554.66 C 60.72 558.46 62.34 563.68 66.39 566.85 C 67.66 563.20 68.42 559.40 69.38 555.67 C 73.27 539.12 77.55 522.67 82.21 506.32 C 87.23 485.37 92.54 464.50 97.28 443.49 C 100.44 432.15 103.66 420.81 106.08 409.28 C 107.06 405.33 108.61 401.49 108.85 397.39 C 98.88 397.54 89.00 395.83 79.03 396.33 C 69.39 395.46 59.72 395.02 50.04 395.31 C 47.90 395.12 46.93 397.31 45.86 398.76 M 119.51 398.53 C 116.84 403.10 116.35 408.54 114.72 413.52 C 110.70 429.79 106.43 446.01 102.47 462.30 C 101.50 466.33 100.06 470.27 99.70 474.43 C 105.30 474.94 110.96 474.38 116.55 475.21 C 124.01 476.21 131.54 475.17 139.01 475.87 C 151.63 477.37 164.36 476.34 177.03 476.73 C 182.34 477.20 187.65 477.91 193.00 477.71 C 198.01 477.55 202.96 478.54 207.96 478.58 C 217.21 478.56 226.39 480.39 235.65 479.57 C 231.39 460.41 228.39 441.00 225.04 421.67 C 223.10 415.42 222.26 408.90 220.48 402.62 C 209.37 400.69 198.07 401.89 186.93 400.48 C 179.40 399.81 171.82 400.86 164.31 399.80 C 155.93 398.59 147.46 399.88 139.07 398.95 C 132.59 398.23 126.00 397.73 119.51 398.53 M 231.24 403.38 C 231.04 408.05 232.18 412.62 233.03 417.18 C 242.38 469.62 252.23 521.95 261.65 574.39 C 262.02 576.15 262.26 578.05 263.39 579.54 C 267.04 575.42 271.90 572.66 275.49 568.49 C 288.14 555.79 300.72 543.03 313.99 530.97 C 323.65 521.13 333.59 511.52 343.23 501.66 C 342.35 499.03 340.82 496.68 339.63 494.19 C 336.00 487.09 333.26 479.57 329.31 472.63 C 324.63 461.90 318.73 451.76 313.71 441.18 C 308.35 429.61 301.46 418.85 295.10 407.83 C 294.43 406.99 293.98 405.64 292.77 405.51 C 279.93 403.47 266.88 404.69 253.96 404.12 C 246.42 403.26 238.82 402.84 231.24 403.38 M 138.58 483.68 C 137.36 490.42 141.27 496.77 144.94 502.10 C 150.16 508.90 158.56 512.95 167.01 513.78 C 176.26 513.80 185.30 509.28 191.35 502.37 C 195.08 497.57 198.22 491.73 197.78 485.47 C 190.93 484.79 184.03 485.77 177.20 484.83 C 170.52 483.87 163.76 484.59 157.07 483.87 C 150.94 483.29 144.71 482.72 138.58 483.68 M 84.38 535.21 C 81.40 546.09 79.58 557.25 76.19 568.01 C 75.36 570.95 74.31 574.03 74.98 577.12 C 75.69 581.06 79.01 583.67 81.25 586.78 C 83.47 589.45 85.28 593.03 88.95 593.91 C 94.83 595.51 100.98 594.12 106.95 594.95 C 118.91 596.56 131.00 595.08 143.00 595.88 C 157.98 597.94 173.19 595.43 188.17 597.42 C 194.99 598.20 201.87 597.04 208.67 598.16 C 217.38 599.44 226.19 598.05 234.92 598.98 C 243.51 600.11 252.19 599.72 260.81 599.63 C 259.63 594.04 256.12 589.26 255.19 583.57 C 249.81 582.73 244.36 583.77 238.96 583.27 C 219.49 581.12 199.83 583.47 180.35 581.67 C 179.36 583.31 179.14 585.60 177.58 586.78 C 174.15 587.77 170.50 587.35 166.98 587.38 C 162.36 587.21 157.71 587.67 153.12 587.07 C 151.89 585.17 151.89 582.79 151.33 580.65 C 144.22 580.75 137.12 580.08 130.00 580.33 C 122.78 580.16 115.52 580.81 108.33 579.84 C 103.46 579.17 98.53 579.45 93.65 579.04 C 95.28 577.23 97.94 577.35 100.16 577.01 C 107.60 576.57 115.09 576.44 122.51 577.29 C 131.32 578.36 140.20 577.29 149.03 577.87 C 162.30 579.37 175.67 578.45 188.98 578.77 C 196.88 578.34 204.74 579.41 212.64 579.29 C 225.72 580.58 238.92 578.77 251.98 580.47 C 253.77 580.70 253.96 578.42 253.60 577.17 C 249.14 555.24 245.76 533.10 241.54 511.12 C 238.94 516.53 236.66 522.15 233.08 527.02 C 225.57 538.48 214.67 547.45 202.42 553.47 C 194.48 557.63 185.58 559.34 176.82 560.78 C 168.57 562.01 160.23 560.94 152.18 559.01 C 144.00 557.55 136.48 553.81 129.31 549.74 C 118.74 543.21 110.31 533.69 103.70 523.26 C 98.96 514.81 96.18 505.42 94.39 495.95 C 90.73 508.94 87.87 522.16 84.38 535.21 M 384.95 503.93 C 377.25 509.53 370.08 515.83 362.22 521.21 C 359.93 522.97 357.02 521.66 354.43 521.76 C 341.20 535.72 327.32 549.10 313.77 562.75 C 312.21 564.45 310.60 566.55 311.00 569.02 C 311.39 573.34 312.35 577.64 312.01 582.01 C 311.59 587.43 312.32 592.88 313.95 598.05 C 316.27 606.17 317.41 614.64 320.45 622.55 C 325.07 632.35 328.87 642.74 335.73 651.27 C 338.36 654.71 342.72 656.62 347.04 656.08 C 351.76 655.99 355.08 652.14 357.64 648.61 C 360.90 643.86 365.28 639.87 367.65 634.53 C 374.09 622.57 378.88 609.77 382.79 596.77 C 385.49 584.57 387.25 572.17 390.11 560.01 C 393.27 539.10 394.08 517.93 394.88 496.84 C 391.16 498.58 388.27 501.59 384.95 503.93 Z" />
<path fill="#34312f" opacity="1.00" d=" M 219.28 22.09 C 225.75 20.90 233.02 21.46 238.43 25.54 C 240.72 27.79 242.31 30.83 242.92 33.99 C 242.47 40.60 237.33 45.67 232.19 49.25 C 226.11 52.74 218.89 53.78 211.97 53.41 C 206.72 53.35 201.80 50.11 199.08 45.74 C 198.12 42.23 198.39 38.29 199.80 34.94 C 203.95 28.00 211.25 23.18 219.28 22.09 M 215.60 25.73 C 210.93 27.95 205.54 30.37 203.65 35.61 C 201.73 39.08 202.20 43.64 205.01 46.50 C 207.99 48.24 211.08 49.84 214.40 50.84 C 214.78 48.74 214.49 46.46 215.40 44.49 C 217.71 42.03 220.68 40.33 223.38 38.34 C 225.42 37.03 227.39 35.29 229.89 35.00 C 232.51 35.51 233.12 38.58 234.63 40.40 C 235.09 40.48 236.01 40.63 236.47 40.71 C 237.42 38.04 238.04 35.13 237.55 32.30 C 236.99 29.62 234.90 27.63 232.81 26.04 C 227.67 22.78 220.94 23.15 215.60 25.73 Z" />
</g>
<g id="#b6acaaff">
<path fill="#b6acaa" opacity="1.00" d=" M 215.60 25.73 C 220.94 23.15 227.67 22.78 232.81 26.04 C 229.23 32.30 220.76 31.15 216.19 36.20 C 212.73 39.91 210.05 44.67 205.01 46.50 C 202.20 43.64 201.73 39.08 203.65 35.61 C 205.54 30.37 210.93 27.95 215.60 25.73 Z" />
<path fill="#b6acaa" opacity="1.00" d=" M 475.34 155.28 L 476.14 155.20 C 480.63 155.19 485.27 155.00 489.57 156.51 C 489.76 160.43 489.36 164.44 488.07 168.16 C 483.20 169.47 478.09 168.62 473.16 168.15 C 473.03 163.76 474.17 159.47 475.34 155.28 Z" />
<path fill="#b6acaa" opacity="1.00" d=" M 384.95 503.93 C 388.27 501.59 391.16 498.58 394.88 496.84 C 394.08 517.93 393.27 539.10 390.11 560.01 C 387.25 572.17 385.49 584.57 382.79 596.77 C 378.88 609.77 374.09 622.57 367.65 634.53 C 365.28 639.87 360.90 643.86 357.64 648.61 C 355.08 652.14 351.76 655.99 347.04 656.08 C 342.72 656.62 338.36 654.71 335.73 651.27 C 328.87 642.74 325.07 632.35 320.45 622.55 C 317.41 614.64 316.27 606.17 313.95 598.05 C 312.32 592.88 311.59 587.43 312.01 582.01 C 312.35 577.64 311.39 573.34 311.00 569.02 C 310.60 566.55 312.21 564.45 313.77 562.75 C 327.32 549.10 341.20 535.72 354.43 521.76 C 357.02 521.66 359.93 522.97 362.22 521.21 C 370.08 515.83 377.25 509.53 384.95 503.93 Z" />
</g>
<g id="#ae3743ff">
<path fill="#ae3743" opacity="1.00" d=" M 62.28 92.21 C 69.77 84.97 78.15 78.73 87.04 73.31 C 82.57 102.17 78.39 131.08 74.49 160.02 C 72.93 167.97 72.48 176.09 70.82 184.03 C 68.65 200.44 66.71 216.87 64.09 233.21 C 60.95 253.73 58.38 274.32 55.61 294.90 C 53.77 312.30 50.77 329.54 48.71 346.91 C 46.93 359.83 45.32 372.79 43.47 385.70 C 42.82 390.32 40.37 394.36 38.33 398.46 C 33.22 408.89 27.29 418.88 22.35 429.39 C 16.70 439.81 11.58 450.51 6.04 460.98 C 8.88 437.23 13.49 413.71 16.02 389.91 C 17.13 382.43 18.47 374.98 19.68 367.51 C 22.17 353.42 23.21 339.11 26.25 325.12 C 28.36 315.58 29.11 305.82 30.53 296.18 C 33.70 279.93 34.82 263.36 38.34 247.18 C 39.82 237.87 40.76 228.49 42.38 219.20 C 43.89 211.07 44.23 202.78 45.75 194.65 C 48.00 183.08 49.40 171.37 50.89 159.68 C 54.43 139.17 57.53 118.58 60.60 97.99 C 61.02 96.05 60.71 93.69 62.28 92.21 Z" />
<path fill="#ae3743" opacity="1.00" d=" M 332.40 75.70 C 338.56 75.85 344.49 77.89 350.29 79.82 C 356.30 81.68 362.67 82.21 368.52 84.62 C 372.55 86.31 376.76 87.52 380.71 89.37 C 382.10 89.97 382.27 91.75 382.25 93.08 C 381.65 100.94 381.52 108.84 380.24 116.64 C 378.60 137.49 376.91 158.33 375.01 179.15 C 374.66 182.76 374.65 186.38 374.53 190.00 C 374.39 195.70 372.77 201.26 372.72 206.97 C 372.81 218.58 370.71 230.05 370.32 241.64 C 368.27 258.52 367.28 275.50 366.26 292.46 C 365.55 299.64 364.66 306.81 364.56 314.04 C 364.51 320.42 362.43 326.60 362.64 333.00 C 362.85 339.33 362.45 345.66 361.45 351.92 C 360.63 360.63 359.89 369.35 358.92 378.05 C 358.47 397.00 354.84 415.70 354.37 434.65 C 352.13 448.66 352.32 462.92 350.54 477.00 C 349.84 481.99 349.75 487.04 349.50 492.07 C 348.35 491.04 347.32 489.89 346.64 488.50 C 339.02 474.13 330.96 460.00 323.54 445.53 C 316.43 432.35 308.90 419.40 301.88 406.17 C 300.77 403.96 299.06 401.75 299.42 399.14 C 302.56 370.44 305.31 341.71 308.27 313.00 C 309.44 305.74 309.20 298.34 310.49 291.10 C 317.60 224.00 323.89 156.82 330.90 89.71 C 331.43 85.05 331.28 80.27 332.40 75.70 Z" />
<path fill="#ae3743" opacity="1.00" d=" M 478.51 148.45 C 482.77 147.35 486.76 150.19 491.01 150.19 C 493.33 150.48 497.14 150.05 497.35 153.33 C 498.21 159.54 499.56 165.71 499.80 172.00 C 500.06 176.80 497.82 181.25 497.64 186.01 C 497.54 190.12 495.63 194.86 491.70 196.56 C 487.61 196.13 483.52 195.85 479.41 196.08 C 476.22 195.23 475.57 191.33 474.34 188.73 C 471.50 182.21 472.06 174.98 473.16 168.15 C 478.09 168.62 483.20 169.47 488.07 168.16 C 489.36 164.44 489.76 160.43 489.57 156.51 C 485.27 155.00 480.63 155.19 476.14 155.20 C 476.37 152.83 476.76 150.22 478.51 148.45 Z" />
<path fill="#ae3743" opacity="1.00" d=" M 138.58 483.68 C 144.71 482.72 150.94 483.29 157.07 483.87 C 163.76 484.59 170.52 483.87 177.20 484.83 C 184.03 485.77 190.93 484.79 197.78 485.47 C 198.22 491.73 195.08 497.57 191.35 502.37 C 185.30 509.28 176.26 513.80 167.01 513.78 C 158.56 512.95 150.16 508.90 144.94 502.10 C 141.27 496.77 137.36 490.42 138.58 483.68 Z" />
<path fill="#ae3743" opacity="1.00" d=" M 84.38 535.21 C 87.87 522.16 90.73 508.94 94.39 495.95 C 96.18 505.42 98.96 514.81 103.70 523.26 C 110.31 533.69 118.74 543.21 129.31 549.74 C 136.48 553.81 144.00 557.55 152.18 559.01 C 160.23 560.94 168.57 562.01 176.82 560.78 C 185.58 559.34 194.48 557.63 202.42 553.47 C 214.67 547.45 225.57 538.48 233.08 527.02 C 236.66 522.15 238.94 516.53 241.54 511.12 C 245.76 533.10 249.14 555.24 253.60 577.17 C 253.96 578.42 253.77 580.70 251.98 580.47 C 238.92 578.77 225.72 580.58 212.64 579.29 C 204.74 579.41 196.88 578.34 188.98 578.77 C 175.67 578.45 162.30 579.37 149.03 577.87 C 140.20 577.29 131.32 578.36 122.51 577.29 C 115.09 576.44 107.60 576.57 100.16 577.01 C 97.94 577.35 95.28 577.23 93.65 579.04 C 98.53 579.45 103.46 579.17 108.33 579.84 C 115.52 580.81 122.78 580.16 130.00 580.33 C 137.12 580.08 144.22 580.75 151.33 580.65 C 151.89 582.79 151.89 585.17 153.12 587.07 C 157.71 587.67 162.36 587.21 166.98 587.38 C 170.50 587.35 174.15 587.77 177.58 586.78 C 179.14 585.60 179.36 583.31 180.35 581.67 C 199.83 583.47 219.49 581.12 238.96 583.27 C 244.36 583.77 249.81 582.73 255.19 583.57 C 256.12 589.26 259.63 594.04 260.81 599.63 C 252.19 599.72 243.51 600.11 234.92 598.98 C 226.19 598.05 217.38 599.44 208.67 598.16 C 201.87 597.04 194.99 598.20 188.17 597.42 C 173.19 595.43 157.98 597.94 143.00 595.88 C 131.00 595.08 118.91 596.56 106.95 594.95 C 100.98 594.12 94.83 595.51 88.95 593.91 C 85.28 593.03 83.47 589.45 81.25 586.78 C 79.01 583.67 75.69 581.06 74.98 577.12 C 74.31 574.03 75.36 570.95 76.19 568.01 C 79.58 557.25 81.40 546.09 84.38 535.21 Z" />
</g>
</svg>
