<?xml version="1.0" encoding="UTF-8" ?>
<!DOCTYPE svg PUBLIC "-//W3C//DTD SVG 1.1//EN" "http://www.w3.org/Graphics/SVG/1.1/DTD/svg11.dtd">
<svg width="713pt" height="480pt" viewBox="0 0 713 480" version="1.1" xmlns="http://www.w3.org/2000/svg">
<g id="#1c1b21ff">
</g>
<g id="#a16469ff">
<path fill="#a16469" opacity="1.00" d=" M 506.90 20.89 C 518.57 17.35 529.06 28.05 532.56 38.35 C 535.02 46.81 539.74 54.53 541.88 63.00 C 541.90 63.52 541.92 64.56 541.94 65.08 C 535.57 53.58 532.31 40.65 525.78 29.25 C 518.70 20.83 506.48 22.17 497.00 25.00 C 470.89 29.34 445.03 35.26 418.81 38.95 L 419.35 38.27 C 447.67 31.57 478.04 27.48 506.90 20.89 Z" />
</g>
<g id="#c02326ff">
<path fill="#c02326" opacity="1.00" d=" M 497.00 25.00 C 506.48 22.17 518.70 20.83 525.78 29.25 C 532.31 40.65 535.57 53.58 541.94 65.08 C 547.17 76.60 551.54 88.53 556.92 99.96 C 558.75 104.61 560.68 109.23 562.59 113.85 C 560.73 116.20 557.68 116.66 554.90 116.99 C 557.56 112.76 557.10 107.54 554.76 103.28 C 551.06 95.03 548.31 86.29 543.46 78.62 C 541.59 73.57 540.21 67.67 535.62 64.36 C 533.45 60.95 533.31 56.44 530.67 53.34 C 523.23 52.59 515.21 48.26 507.98 51.54 C 499.48 48.77 490.21 46.17 481.38 49.19 C 470.98 52.34 461.71 44.28 452.29 43.07 C 451.10 47.08 447.64 49.79 443.35 48.57 C 438.55 47.31 438.05 54.00 436.81 56.97 C 429.18 57.79 421.79 56.65 414.38 55.43 C 408.61 55.45 408.84 65.65 402.27 63.45 C 398.55 70.68 386.73 69.20 385.60 77.63 C 380.42 75.65 378.04 79.87 381.21 84.00 C 376.94 83.54 377.96 79.22 377.83 75.91 C 391.30 63.40 404.01 49.99 418.81 38.95 C 445.03 35.26 470.89 29.34 497.00 25.00 Z" />
</g>
<g id="#dc7f58ff">
<path fill="#dc7f58" opacity="1.00" d=" M 415.14 39.05 C 416.48 38.53 417.88 38.13 419.35 38.27 L 418.81 38.95 C 404.01 49.99 391.30 63.40 377.83 75.91 C 375.96 78.02 374.08 80.12 372.10 82.12 L 371.05 82.03 C 372.00 80.68 372.96 79.33 373.93 77.99 C 379.91 71.30 386.32 65.01 392.92 58.94 C 400.39 52.38 408.00 45.97 415.14 39.05 Z" />
</g>
<g id="#e9c373ff">
<path fill="#e9c373" opacity="1.00" d=" M 404.24 41.20 C 407.14 38.88 411.60 39.66 415.14 39.05 C 408.00 45.97 400.39 52.38 392.92 58.94 C 393.25 53.32 395.95 48.69 400.11 45.05 C 401.54 43.83 402.90 42.52 404.24 41.20 Z" />
</g>
<g id="#f3ede9ff">
<path fill="#f3ede9" opacity="1.00" d=" M 241.12 70.18 C 295.24 59.38 350.49 53.12 404.24 41.20 C 402.90 42.52 401.54 43.83 400.11 45.05 C 387.09 52.51 380.18 66.85 367.37 74.38 C 365.58 75.43 364.54 77.19 363.99 79.13 C 360.68 82.54 357.17 85.80 354.61 89.84 C 334.85 112.85 319.63 139.60 307.19 167.05 C 301.23 167.28 295.70 170.43 289.67 169.87 L 290.05 168.98 C 295.34 165.89 304.35 168.50 307.08 162.04 C 314.82 143.57 325.73 126.96 335.87 109.82 C 344.73 99.96 348.19 85.80 359.83 78.56 C 361.69 66.55 352.18 77.06 347.06 78.15 C 346.79 75.45 346.74 72.68 345.84 70.09 C 342.98 70.17 340.42 72.00 337.53 71.62 C 321.93 70.03 347.56 73.17 332.70 73.79 C 325.05 78.07 314.89 75.54 308.14 81.71 C 302.34 76.91 297.38 88.59 291.90 85.18 C 289.27 79.09 282.04 83.78 277.40 83.89 C 276.13 75.58 266.72 72.05 259.17 72.81 C 264.87 78.92 253.20 78.83 249.09 76.95 C 240.48 73.16 233.47 81.28 225.00 81.00 C 218.91 80.57 214.71 86.37 208.65 85.87 C 203.57 85.89 207.11 91.13 204.69 93.73 C 202.96 97.36 200.10 90.74 197.38 92.26 C 193.04 98.65 184.71 100.57 177.90 101.94 C 174.26 108.18 166.41 108.34 160.14 110.22 C 155.02 111.88 148.46 108.08 144.33 112.02 C 145.67 114.81 148.78 121.56 141.05 117.80 C 134.54 116.10 127.96 117.32 122.68 121.58 C 134.21 118.20 124.75 127.47 121.86 124.15 C 113.65 117.39 102.20 119.77 92.72 116.21 C 88.11 112.30 82.30 117.52 77.17 114.75 C 71.00 110.99 63.91 109.77 57.06 107.80 C 57.18 106.88 57.26 105.97 57.33 105.05 C 79.53 98.70 103.38 98.69 125.88 92.82 C 164.39 87.44 202.77 78.90 241.12 70.18 Z" />
</g>
<g id="#c92326ff">
<path fill="#c92326" opacity="1.00" d=" M 452.29 43.07 C 461.71 44.28 470.98 52.34 481.38 49.19 C 490.21 46.17 499.48 48.77 507.98 51.54 C 515.21 48.26 523.23 52.59 530.67 53.34 C 533.31 56.44 533.45 60.95 535.62 64.36 C 540.21 67.67 541.59 73.57 543.46 78.62 C 548.31 86.29 551.06 95.03 554.76 103.28 C 557.10 107.54 557.56 112.76 554.90 116.99 C 542.26 118.67 529.94 122.54 517.29 123.86 C 511.99 98.34 481.00 84.08 457.88 95.94 C 450.76 99.00 443.20 101.31 436.79 105.77 C 435.51 106.20 434.26 106.66 433.02 107.17 C 430.12 102.62 437.77 103.71 438.88 99.86 C 440.98 96.90 444.74 96.14 447.75 94.47 C 451.12 85.49 440.98 88.04 436.17 87.15 C 434.28 87.89 434.20 91.93 431.52 90.13 C 427.43 87.83 419.30 91.55 422.55 97.25 C 420.92 100.54 414.72 97.96 412.03 98.00 C 407.47 96.60 401.71 87.26 398.07 94.08 C 389.52 96.91 380.10 93.82 371.13 94.49 C 371.27 95.66 372.41 97.90 370.36 96.54 C 364.75 93.62 358.43 99.07 360.50 105.10 C 352.99 109.35 345.67 117.00 342.66 125.76 C 341.26 128.06 339.14 130.05 336.59 128.06 C 336.63 127.53 336.72 126.48 336.76 125.95 C 340.13 124.05 341.61 120.25 342.98 116.83 C 343.56 115.87 344.14 114.92 344.74 113.98 C 350.57 110.94 352.70 102.90 357.23 98.15 C 361.77 92.42 367.24 87.55 372.10 82.12 C 374.08 80.12 375.96 78.02 377.83 75.91 C 377.96 79.22 376.94 83.54 381.21 84.00 C 378.04 79.87 380.42 75.65 385.60 77.63 C 386.73 69.20 398.55 70.68 402.27 63.45 C 408.84 65.65 408.61 55.45 414.38 55.43 C 421.79 56.65 429.18 57.79 436.81 56.97 C 438.05 54.00 438.55 47.31 443.35 48.57 C 447.64 49.79 451.10 47.08 452.29 43.07 Z" />
</g>
<g id="#f4deaeff">
<path fill="#f4deae" opacity="1.00" d=" M 367.37 74.38 C 380.18 66.85 387.09 52.51 400.11 45.05 C 395.95 48.69 393.25 53.32 392.92 58.94 C 386.32 65.01 379.91 71.30 373.93 77.99 C 370.50 76.94 366.96 76.90 363.99 79.13 C 364.54 77.19 365.58 75.43 367.37 74.38 Z" />
</g>
<g id="#cd817cff">
<path fill="#cd817c" opacity="1.00" d=" M 541.88 63.00 C 548.06 72.09 550.37 84.21 556.07 93.96 C 557.44 96.18 558.75 98.54 558.92 101.19 C 558.42 100.89 557.42 100.27 556.92 99.96 C 551.54 88.53 547.17 76.60 541.94 65.08 C 541.92 64.56 541.90 63.52 541.88 63.00 Z" />
</g>
<g id="#fbf3edff">
<path fill="#fbf3ed" opacity="1.00" d=" M 337.53 71.62 C 340.42 72.00 342.98 70.17 345.84 70.09 C 346.74 72.68 346.79 75.45 347.06 78.15 C 343.67 84.22 341.15 90.93 334.92 94.86 C 330.90 97.29 330.67 102.43 327.43 105.50 C 322.34 102.21 328.70 101.93 330.17 98.92 C 326.22 99.30 322.48 100.97 319.23 103.19 C 317.90 106.97 317.79 115.67 311.70 112.26 C 306.87 108.79 302.45 116.23 297.61 113.50 C 293.16 111.10 292.51 117.97 289.07 118.83 C 287.18 118.06 282.05 116.48 285.01 114.17 C 289.89 114.02 288.17 103.65 286.64 110.98 C 285.69 104.21 281.06 110.10 277.48 111.80 C 277.54 109.61 274.54 107.11 274.02 111.01 C 266.33 123.91 264.48 139.19 257.03 152.13 C 259.02 142.59 263.26 133.64 265.10 124.03 C 265.99 122.10 266.69 120.10 267.19 118.04 C 268.87 113.81 270.99 109.55 271.05 104.91 C 266.54 104.80 263.74 109.07 260.35 111.37 C 248.53 121.93 235.09 130.65 224.04 142.05 C 216.16 146.53 210.10 153.45 202.81 158.75 C 188.39 170.36 173.64 181.76 159.75 193.88 C 153.17 199.99 144.26 203.68 138.79 210.95 C 128.75 218.80 118.32 226.22 108.93 234.84 C 97.57 242.99 86.30 251.59 75.90 260.91 C 75.66 261.16 75.19 261.66 74.95 261.91 C 69.74 265.65 63.68 268.66 59.78 273.92 C 58.84 274.61 57.88 275.29 56.93 275.98 L 57.02 275.13 C 57.41 273.71 57.49 271.79 55.90 271.09 C 55.96 270.28 56.08 268.67 56.14 267.86 C 57.03 271.46 60.34 268.20 62.20 267.16 C 69.77 260.49 78.43 255.08 85.75 248.16 C 90.93 243.93 96.73 240.43 102.01 236.02 C 108.92 227.25 122.39 224.41 126.18 213.18 C 135.52 210.69 142.22 203.30 149.69 197.65 C 179.01 174.25 208.39 151.19 237.47 127.49 C 241.62 122.39 249.50 120.38 251.74 113.84 C 252.09 109.89 258.87 110.76 258.55 106.26 C 258.15 99.44 250.60 97.69 245.10 100.03 C 241.24 100.73 244.10 105.23 243.86 107.80 C 241.17 109.67 238.07 108.31 235.14 108.13 C 230.40 112.39 223.06 110.68 218.63 115.55 C 205.42 115.78 192.99 122.37 179.77 121.06 C 180.74 121.65 181.78 122.08 182.89 122.36 C 178.58 127.70 171.32 126.99 165.21 126.33 C 161.63 128.14 161.15 131.63 162.64 134.92 C 160.12 138.19 154.67 135.54 152.86 139.84 C 145.07 144.93 134.38 142.53 125.38 144.61 C 119.63 139.59 111.75 138.08 106.39 132.62 C 88.05 123.95 68.03 120.86 49.08 114.58 C 51.41 111.98 53.67 109.02 57.06 107.80 C 63.91 109.77 71.00 110.99 77.17 114.75 C 82.30 117.52 88.11 112.30 92.72 116.21 C 102.20 119.77 113.65 117.39 121.86 124.15 C 124.75 127.47 134.21 118.20 122.68 121.58 C 127.96 117.32 134.54 116.10 141.05 117.80 C 148.78 121.56 145.67 114.81 144.33 112.02 C 148.46 108.08 155.02 111.88 160.14 110.22 C 166.41 108.34 174.26 108.18 177.90 101.94 C 184.71 100.57 193.04 98.65 197.38 92.26 C 200.10 90.74 202.96 97.36 204.69 93.73 C 207.11 91.13 203.57 85.89 208.65 85.87 C 214.71 86.37 218.91 80.57 225.00 81.00 C 233.47 81.28 240.48 73.16 249.09 76.95 C 253.20 78.83 264.87 78.92 259.17 72.81 C 266.72 72.05 276.13 75.58 277.40 83.89 C 282.04 83.78 289.27 79.09 291.90 85.18 C 297.38 88.59 302.34 76.91 308.14 81.71 C 314.89 75.54 325.05 78.07 332.70 73.79 C 347.56 73.17 321.93 70.03 337.53 71.62 Z" />
</g>
<g id="#f1f4f5ff">
<path fill="#f1f4f5" opacity="1.00" d=" M 347.06 78.15 C 352.18 77.06 361.69 66.55 359.83 78.56 C 348.19 85.80 344.73 99.96 335.87 109.82 C 325.73 126.96 314.82 143.57 307.08 162.04 C 304.35 168.50 295.34 165.89 290.05 168.98 C 297.27 150.64 311.84 136.43 319.17 118.11 C 321.44 113.61 325.40 110.17 327.43 105.50 C 330.67 102.43 330.90 97.29 334.92 94.86 C 341.15 90.93 343.67 84.22 347.06 78.15 Z" />
</g>
<g id="#e7c782ff">
<path fill="#e7c782" opacity="1.00" d=" M 363.99 79.13 C 366.96 76.90 370.50 76.94 373.93 77.99 C 372.96 79.33 372.00 80.68 371.05 82.03 C 366.87 86.75 361.01 89.97 354.61 89.84 C 357.17 85.80 360.68 82.54 363.99 79.13 Z" />
</g>
<g id="#d5aa68ff">
<path fill="#d5aa68" opacity="1.00" d=" M 354.61 89.84 C 361.01 89.97 366.87 86.75 371.05 82.03 L 372.10 82.12 C 367.24 87.55 361.77 92.42 357.23 98.15 C 352.03 102.41 347.38 107.74 344.74 113.98 C 344.14 114.92 343.56 115.87 342.98 116.83 C 340.25 119.37 338.43 122.65 336.76 125.95 C 334.03 128.79 332.41 132.44 331.03 136.08 C 329.53 138.25 328.19 140.52 326.96 142.84 C 322.66 149.22 318.91 156.06 316.35 163.32 C 315.19 165.02 317.34 166.31 318.88 165.80 C 325.59 164.29 332.59 163.62 339.01 161.02 C 346.13 160.53 353.24 159.44 359.98 157.01 C 372.42 155.46 385.31 153.13 397.01 148.92 C 400.11 144.99 403.00 140.84 405.27 136.37 L 405.94 135.93 L 406.99 136.10 C 403.85 141.69 400.73 147.29 397.98 153.08 C 399.68 152.45 401.31 151.65 402.97 150.90 C 402.32 151.98 401.74 153.10 401.12 154.19 C 395.89 154.27 390.69 155.11 385.72 156.72 C 384.21 157.15 382.72 157.66 381.24 158.17 C 350.21 162.46 319.54 170.19 288.77 176.40 C 287.31 174.38 285.62 172.36 282.84 172.79 C 290.91 171.15 300.20 171.28 307.19 167.05 C 319.63 139.60 334.85 112.85 354.61 89.84 Z" />
</g>
<g id="#ce242cff">
<path fill="#ce242c" opacity="1.00" d=" M 431.52 90.13 C 434.20 91.93 434.28 87.89 436.17 87.15 C 440.98 88.04 451.12 85.49 447.75 94.47 C 444.74 96.14 440.98 96.90 438.88 99.86 C 437.77 103.71 430.12 102.62 433.02 107.17 C 422.90 115.51 412.24 124.17 405.94 135.93 L 405.27 136.37 C 399.50 139.36 402.80 130.03 404.14 128.25 C 409.12 127.67 406.26 120.90 401.27 124.09 C 398.45 125.44 402.28 129.23 399.83 130.50 C 395.02 130.42 389.90 129.56 385.76 132.48 C 374.50 129.79 362.75 128.30 352.12 123.41 C 351.72 124.80 352.37 127.00 350.43 127.28 C 351.86 123.80 347.86 124.76 346.15 126.16 C 337.12 130.31 337.07 141.09 329.89 146.86 C 327.44 152.72 321.31 156.95 321.81 163.82 C 320.51 163.99 319.20 164.05 317.89 164.00 C 318.84 156.19 325.97 150.62 326.96 142.84 C 328.19 140.52 329.53 138.25 331.03 136.08 C 332.96 133.47 334.86 130.82 336.59 128.06 C 339.14 130.05 341.26 128.06 342.66 125.76 C 345.67 117.00 352.99 109.35 360.50 105.10 C 358.43 99.07 364.75 93.62 370.36 96.54 C 372.41 97.90 371.27 95.66 371.13 94.49 C 380.10 93.82 389.52 96.91 398.07 94.08 C 401.71 87.26 407.47 96.60 412.03 98.00 C 414.72 97.96 420.92 100.54 422.55 97.25 C 419.30 91.55 427.43 87.83 431.52 90.13 Z" />
</g>
<g id="#ca7d43ff">
<path fill="#ca7d43" opacity="1.00" d=" M 457.88 95.94 C 481.00 84.08 511.99 98.34 517.29 123.86 C 529.94 122.54 542.26 118.67 554.90 116.99 C 557.68 116.66 560.73 116.20 562.59 113.85 C 563.60 115.80 564.25 117.99 563.13 120.06 C 546.34 123.55 529.50 126.75 512.75 130.44 C 511.04 126.94 511.04 122.89 509.95 119.18 C 509.50 115.01 507.26 111.43 503.93 108.93 C 500.99 105.89 497.84 103.01 494.17 100.88 C 487.93 96.18 479.58 97.40 472.26 96.77 C 470.37 90.57 462.06 97.49 457.88 95.94 Z" />
</g>
<g id="#d99e50ff">
<path fill="#d99e50" opacity="1.00" d=" M 457.88 95.94 C 462.06 97.49 470.37 90.57 472.26 96.77 C 470.14 97.41 468.06 98.13 466.00 98.90 C 460.50 99.38 455.26 101.55 450.85 104.84 C 448.98 106.00 447.15 107.20 445.25 108.30 C 444.72 108.21 443.66 108.04 443.13 107.95 C 446.34 101.96 440.05 105.63 436.85 106.77 L 436.79 105.77 C 443.20 101.31 450.76 99.00 457.88 95.94 Z" />
</g>
<g id="#816030ff">
<path fill="#816030" opacity="1.00" d=" M 466.00 98.90 C 468.06 98.13 470.14 97.41 472.26 96.77 C 479.58 97.40 487.93 96.18 494.17 100.88 C 484.97 98.32 475.50 97.37 466.00 98.90 Z" />
</g>
<g id="#d26c3eff">
<path fill="#d26c3e" opacity="1.00" d=" M 344.74 113.98 C 347.38 107.74 352.03 102.41 357.23 98.15 C 352.70 102.90 350.57 110.94 344.74 113.98 Z" />
</g>
<g id="#272220ff">
<path fill="#272220" opacity="1.00" d=" M 466.00 98.90 C 475.50 97.37 484.97 98.32 494.17 100.88 C 497.84 103.01 500.99 105.89 503.93 108.93 C 505.00 112.82 507.60 115.98 509.95 119.18 C 511.04 122.89 511.04 126.94 512.75 130.44 C 530.57 129.88 548.14 123.78 565.83 120.83 C 569.31 124.88 571.04 131.35 571.99 136.87 C 572.15 140.96 574.77 146.43 567.44 145.54 C 561.32 152.24 555.86 159.94 552.10 168.27 C 539.89 171.32 527.56 173.86 515.22 176.27 C 509.46 178.02 503.90 174.57 498.24 176.87 C 496.89 173.31 494.85 170.35 491.29 168.74 C 491.39 160.80 493.30 152.56 491.27 144.75 C 488.51 137.35 485.35 128.48 477.19 125.75 C 470.19 120.92 460.21 122.71 452.84 125.83 C 435.07 133.54 421.87 149.62 415.68 167.76 C 414.31 170.96 413.32 174.33 412.74 177.77 C 411.72 184.71 412.42 191.84 410.80 198.71 C 409.01 199.88 406.70 200.58 404.82 199.17 C 401.30 196.55 403.23 202.60 402.32 204.46 C 399.59 208.14 397.31 212.09 395.14 216.10 C 393.58 218.73 393.76 214.49 393.54 213.30 C 393.95 209.00 388.18 205.46 391.22 201.28 C 408.45 172.40 421.68 141.10 439.84 112.78 C 441.63 111.28 443.48 109.83 445.25 108.30 C 447.15 107.20 448.98 106.00 450.85 104.84 C 455.90 102.91 461.23 101.54 466.00 98.90 Z" />
</g>
<g id="#fbfaf8ff">
<path fill="#fbfaf8" opacity="1.00" d=" M 245.10 100.03 C 250.60 97.69 258.15 99.44 258.55 106.26 C 258.87 110.76 252.09 109.89 251.74 113.84 C 249.50 120.38 241.62 122.39 237.47 127.49 C 208.39 151.19 179.01 174.25 149.69 197.65 C 142.22 203.30 135.52 210.69 126.18 213.18 C 122.39 224.41 108.92 227.25 102.01 236.02 C 96.73 240.43 90.93 243.93 85.75 248.16 C 77.55 245.29 88.84 238.31 84.81 233.23 C 82.20 229.47 88.05 231.34 90.57 230.74 C 90.59 227.42 93.12 225.92 95.77 224.65 C 96.68 217.90 96.55 211.06 97.25 204.29 C 99.80 203.36 102.68 203.29 105.00 201.79 C 106.79 192.25 99.53 183.60 91.25 179.99 C 97.22 172.48 80.09 171.90 83.00 164.35 C 90.68 169.26 98.27 153.91 89.17 153.99 C 92.25 160.96 80.29 166.15 79.22 159.34 C 84.84 157.36 81.40 153.62 79.04 151.07 C 86.09 146.54 76.06 139.98 79.69 133.68 C 76.53 136.23 72.66 141.56 74.03 132.10 C 74.53 127.22 79.24 127.50 82.65 129.38 C 88.58 131.22 93.73 134.75 99.10 137.77 C 108.81 138.18 114.53 148.69 124.66 147.67 C 132.01 151.28 138.16 144.77 145.86 147.84 C 154.85 149.65 158.74 140.03 166.72 138.75 C 162.27 135.96 170.95 135.13 169.50 139.10 C 173.40 138.81 178.07 138.34 178.18 133.46 C 180.52 135.72 187.25 130.97 180.76 131.55 C 183.16 129.74 185.88 132.18 188.14 130.28 C 190.95 129.10 189.87 124.97 192.28 123.23 C 201.23 123.22 209.87 120.91 218.81 120.61 C 222.62 120.49 223.39 114.46 218.63 115.55 C 223.06 110.68 230.40 112.39 235.14 108.13 C 238.07 108.31 241.17 109.67 243.86 107.80 C 244.10 105.23 241.24 100.73 245.10 100.03 Z" />
</g>
<g id="#fcfaf7ff">
<path fill="#fcfaf7" opacity="1.00" d=" M 319.23 103.19 C 322.48 100.97 326.22 99.30 330.17 98.92 C 328.70 101.93 322.34 102.21 327.43 105.50 C 325.40 110.17 321.44 113.61 319.17 118.11 C 311.84 136.43 297.27 150.64 290.05 168.98 L 289.67 169.87 C 276.18 172.66 262.79 176.21 249.14 178.02 C 248.98 176.67 248.87 175.32 248.82 173.96 C 250.82 170.17 252.88 166.08 252.75 161.69 C 253.15 160.51 253.58 159.34 254.05 158.18 C 255.70 156.53 256.27 154.25 257.03 152.13 C 264.48 139.19 266.33 123.91 274.02 111.01 C 274.54 107.11 277.54 109.61 277.48 111.80 C 281.06 110.10 285.69 104.21 286.64 110.98 C 288.17 103.65 289.89 114.02 285.01 114.17 C 282.05 116.48 287.18 118.06 289.07 118.83 C 292.51 117.97 293.16 111.10 297.61 113.50 C 302.45 116.23 306.87 108.79 311.70 112.26 C 317.79 115.67 317.90 106.97 319.23 103.19 Z" />
</g>
<g id="#816633ff">
<path fill="#816633" opacity="1.00" d=" M 450.85 104.84 C 455.26 101.55 460.50 99.38 466.00 98.90 C 461.23 101.54 455.90 102.91 450.85 104.84 Z" />
</g>
<g id="#976563ff">
<path fill="#976563" opacity="1.00" d=" M 556.92 99.96 C 557.42 100.27 558.42 100.89 558.92 101.19 C 561.88 107.03 565.55 113.24 566.06 119.91 C 565.33 119.95 563.86 120.03 563.13 120.06 C 564.25 117.99 563.60 115.80 562.59 113.85 C 560.68 109.23 558.75 104.61 556.92 99.96 Z" />
</g>
<g id="#edd09eff">
<path fill="#edd09e" opacity="1.00" d=" M 436.85 106.77 C 440.05 105.63 446.34 101.96 443.13 107.95 C 427.11 119.40 413.47 134.25 402.97 150.90 C 401.31 151.65 399.68 152.45 397.98 153.08 C 400.73 147.29 403.85 141.69 406.99 136.10 C 415.23 124.68 425.03 114.51 436.85 106.77 Z" />
</g>
<g id="#f8f5f4ff">
<path fill="#f8f5f4" opacity="1.00" d=" M 39.00 107.91 C 45.21 107.60 51.08 104.62 57.33 105.05 C 57.26 105.97 57.18 106.88 57.06 107.80 C 53.67 109.02 51.41 111.98 49.08 114.58 C 68.03 120.86 88.05 123.95 106.39 132.62 C 111.75 138.08 119.63 139.59 125.38 144.61 C 134.38 142.53 145.07 144.93 152.86 139.84 C 154.67 135.54 160.12 138.19 162.64 134.92 C 161.15 131.63 161.63 128.14 165.21 126.33 C 171.32 126.99 178.58 127.70 182.89 122.36 C 181.78 122.08 180.74 121.65 179.77 121.06 C 192.99 122.37 205.42 115.78 218.63 115.55 C 223.39 114.46 222.62 120.49 218.81 120.61 C 209.87 120.91 201.23 123.22 192.28 123.23 C 189.87 124.97 190.95 129.10 188.14 130.28 C 185.88 132.18 183.16 129.74 180.76 131.55 C 187.25 130.97 180.52 135.72 178.18 133.46 C 178.07 138.34 173.40 138.81 169.50 139.10 C 170.95 135.13 162.27 135.96 166.72 138.75 C 158.74 140.03 154.85 149.65 145.86 147.84 C 138.16 144.77 132.01 151.28 124.66 147.67 C 114.53 148.69 108.81 138.18 99.10 137.77 C 93.73 134.75 88.58 131.22 82.65 129.38 C 79.24 127.50 74.53 127.22 74.03 132.10 C 72.66 141.56 76.53 136.23 79.69 133.68 C 76.06 139.98 86.09 146.54 79.04 151.07 C 81.40 153.62 84.84 157.36 79.22 159.34 C 80.29 166.15 92.25 160.96 89.17 153.99 C 98.27 153.91 90.68 169.26 83.00 164.35 C 80.09 171.90 97.22 172.48 91.25 179.99 C 99.53 183.60 106.79 192.25 105.00 201.79 C 102.68 203.29 99.80 203.36 97.25 204.29 C 96.55 211.06 96.68 217.90 95.77 224.65 C 93.12 225.92 90.59 227.42 90.57 230.74 C 88.05 231.34 82.20 229.47 84.81 233.23 C 88.84 238.31 77.55 245.29 85.75 248.16 C 78.43 255.08 69.77 260.49 62.20 267.16 C 60.34 268.20 57.03 271.46 56.14 267.86 C 56.06 265.89 55.85 263.83 53.83 262.92 C 54.44 261.29 54.65 259.21 53.04 258.08 C 51.91 253.31 52.28 247.69 49.17 243.68 C 48.76 242.18 48.31 240.69 47.91 239.18 C 47.87 235.39 48.45 230.49 45.00 227.86 C 44.74 226.42 44.22 223.54 43.96 222.10 C 42.94 216.64 42.80 210.82 40.02 205.87 C 39.58 204.68 39.16 203.49 38.80 202.27 C 38.59 196.01 37.53 189.25 33.95 183.97 C 33.84 180.82 33.55 177.70 32.13 174.87 L 31.87 174.12 C 29.84 161.91 26.79 149.61 23.10 137.79 C 22.75 136.88 22.41 135.96 22.08 135.05 C 21.70 130.32 20.61 125.72 19.87 121.05 C 20.67 112.19 31.30 108.43 39.00 107.91 Z" />
</g>
<g id="#cfba91ff">
<path fill="#cfba91" opacity="1.00" d=" M 260.35 111.37 C 263.74 109.07 266.54 104.80 271.05 104.91 C 270.99 109.55 268.87 113.81 267.19 118.04 C 265.06 114.56 272.92 105.73 267.39 107.43 C 255.15 118.19 241.81 127.64 229.87 138.73 C 227.95 139.88 226.04 141.04 224.04 142.05 C 235.09 130.65 248.53 121.93 260.35 111.37 Z" />
</g>
<g id="#db7359ff">
<path fill="#db7359" opacity="1.00" d=" M 433.02 107.17 C 434.26 106.66 435.51 106.20 436.79 105.77 L 436.85 106.77 C 425.03 114.51 415.23 124.68 406.99 136.10 L 405.94 135.93 C 412.24 124.17 422.90 115.51 433.02 107.17 Z" />
</g>
<g id="#97783cff">
<path fill="#97783c" opacity="1.00" d=" M 267.39 107.43 C 272.92 105.73 265.06 114.56 267.19 118.04 C 264.40 118.86 265.18 121.78 265.10 124.03 C 260.16 132.55 258.34 142.64 255.02 151.93 C 250.99 156.87 248.00 162.46 244.84 167.95 C 245.42 163.13 247.34 158.61 249.00 154.08 C 252.38 144.56 256.95 135.15 258.15 125.03 C 258.14 124.21 260.13 121.07 258.17 122.15 C 246.24 130.28 235.92 140.72 224.06 149.04 L 223.06 149.05 C 225.81 145.94 228.58 142.75 229.87 138.73 C 241.81 127.64 255.15 118.19 267.39 107.43 Z" />
</g>
<g id="#968c6eff">
<path fill="#968c6e" opacity="1.00" d=" M 402.97 150.90 C 413.47 134.25 427.11 119.40 443.13 107.95 C 443.66 108.04 444.72 108.21 445.25 108.30 C 443.48 109.83 441.63 111.28 439.84 112.78 C 436.77 115.00 433.91 117.49 431.19 120.12 C 420.83 128.21 412.89 138.88 405.82 149.85 C 404.42 151.45 403.29 153.56 401.12 154.19 C 401.74 153.10 402.32 151.98 402.97 150.90 Z" />
</g>
<g id="#78582fff">
<path fill="#78582f" opacity="1.00" d=" M 503.93 108.93 C 507.26 111.43 509.50 115.01 509.95 119.18 C 507.60 115.98 505.00 112.82 503.93 108.93 Z" />
</g>
<g id="#34302cff">
<path fill="#34302c" opacity="1.00" d=" M 431.19 120.12 C 433.91 117.49 436.77 115.00 439.84 112.78 C 421.68 141.10 408.45 172.40 391.22 201.28 C 388.18 205.46 393.95 209.00 393.54 213.30 C 393.76 214.49 393.58 218.73 395.14 216.10 C 397.31 212.09 399.59 208.14 402.32 204.46 C 403.23 202.60 401.30 196.55 404.82 199.17 C 406.70 200.58 409.01 199.88 410.80 198.71 C 412.42 191.84 411.72 184.71 412.74 177.77 C 412.52 187.78 413.15 201.46 422.78 207.24 C 430.38 213.33 441.53 213.04 450.10 209.17 C 466.03 202.91 479.78 189.39 485.13 173.05 C 486.41 169.39 487.79 165.77 489.12 162.12 C 491.52 156.67 490.85 150.56 491.27 144.75 C 493.30 152.56 491.39 160.80 491.29 168.74 C 494.85 170.35 496.89 173.31 498.24 176.87 C 503.90 174.57 509.46 178.02 515.22 176.27 C 510.80 177.58 505.84 177.60 501.75 179.78 C 497.82 183.72 495.30 188.86 492.81 193.80 C 483.37 205.96 473.11 217.43 460.93 226.94 C 455.41 230.09 449.97 233.40 444.26 236.20 C 434.50 238.45 424.76 240.70 414.68 239.33 C 398.86 235.73 390.79 220.10 388.69 205.27 C 387.10 203.49 387.11 201.30 387.93 199.16 C 390.45 195.60 392.98 192.01 395.05 188.15 C 408.86 166.45 419.52 142.70 431.19 120.12 Z" />
</g>
<g id="#d56d43ff">
<path fill="#d56d43" opacity="1.00" d=" M 336.76 125.95 C 338.43 122.65 340.25 119.37 342.98 116.83 C 341.61 120.25 340.13 124.05 336.76 125.95 Z" />
</g>
<g id="#cabb96ff">
<path fill="#cabb96" opacity="1.00" d=" M 265.10 124.03 C 265.18 121.78 264.40 118.86 267.19 118.04 C 266.69 120.10 265.99 122.10 265.10 124.03 Z" />
</g>
<g id="#434243ff">
<path fill="#434243" opacity="1.00" d=" M 405.82 149.85 C 412.89 138.88 420.83 128.21 431.19 120.12 C 419.52 142.70 408.86 166.45 395.05 188.15 C 398.12 178.37 404.89 169.96 407.86 159.99 C 406.04 156.83 404.09 153.56 405.82 149.85 Z" />
</g>
<g id="#745531ff">
<path fill="#745531" opacity="1.00" d=" M 512.75 130.44 C 529.50 126.75 546.34 123.55 563.13 120.06 C 563.86 120.03 565.33 119.95 566.06 119.91 L 565.83 120.83 C 548.14 123.78 530.57 129.88 512.75 130.44 Z" />
</g>
<g id="#9eaaaaff">
<path fill="#9eaaaa" opacity="1.00" d=" M 19.08 125.90 C 19.35 124.51 17.86 120.87 19.87 121.05 C 20.61 125.72 21.70 130.32 22.08 135.05 C 21.05 132.00 20.10 128.94 19.08 125.90 Z" />
</g>
<g id="#1c1a16ff">
<path fill="#1c1a16" opacity="1.00" d=" M 224.06 149.04 C 235.92 140.72 246.24 130.28 258.17 122.15 C 260.13 121.07 258.14 124.21 258.15 125.03 C 254.42 134.47 251.00 144.11 249.00 154.08 C 247.34 158.61 245.42 163.13 244.84 167.95 C 243.91 169.97 243.09 172.04 242.20 174.08 C 239.29 177.90 234.08 181.34 235.68 186.84 C 233.40 189.09 227.03 189.50 230.55 185.11 C 230.20 178.54 221.66 185.04 225.80 187.86 C 216.64 187.57 219.25 199.87 212.38 203.35 C 210.67 207.62 207.02 216.76 201.13 212.05 C 197.73 215.90 201.31 222.96 195.55 225.41 C 190.90 227.25 188.31 232.13 184.60 235.41 C 185.22 238.53 183.84 240.71 181.18 242.26 C 181.68 245.34 183.78 242.33 185.29 241.61 C 188.61 242.30 196.15 242.34 191.00 246.08 C 179.07 248.64 167.17 251.38 155.25 253.99 C 155.66 248.04 142.36 243.33 149.58 238.53 C 152.50 236.64 151.07 232.41 152.74 229.79 C 156.23 228.72 159.54 227.15 162.31 224.73 C 160.88 219.11 165.36 213.57 170.37 211.49 C 171.64 203.93 182.73 204.42 183.76 196.75 C 191.47 197.72 192.19 179.76 183.98 182.96 C 196.75 170.97 212.07 161.83 224.06 149.04 Z" />
</g>
<g id="#d6272fff">
<path fill="#d6272f" opacity="1.00" d=" M 352.12 123.41 C 362.75 128.30 374.50 129.79 385.76 132.48 C 389.90 129.56 395.02 130.42 399.83 130.50 C 402.28 129.23 398.45 125.44 401.27 124.09 C 406.26 120.90 409.12 127.67 404.14 128.25 C 402.80 130.03 399.50 139.36 405.27 136.37 C 403.00 140.84 400.11 144.99 397.01 148.92 C 384.56 150.89 371.93 153.17 359.98 157.01 C 352.85 157.17 345.58 158.11 339.01 161.02 C 333.11 160.81 327.50 162.64 321.81 163.82 C 321.31 156.95 327.44 152.72 329.89 146.86 C 337.07 141.09 337.12 130.31 346.15 126.16 C 347.86 124.76 351.86 123.80 350.43 127.28 C 352.37 127.00 351.72 124.80 352.12 123.41 Z" />
</g>
<g id="#6b5b33ff">
<path fill="#6b5b33" opacity="1.00" d=" M 452.84 125.83 C 460.21 122.71 470.19 120.92 477.19 125.75 C 470.16 124.30 462.82 122.99 455.95 125.78 C 455.18 125.79 453.62 125.82 452.84 125.83 Z" />
</g>
<g id="#cfba8eff">
<path fill="#cfba8e" opacity="1.00" d=" M 255.02 151.93 C 258.34 142.64 260.16 132.55 265.10 124.03 C 263.26 133.64 259.02 142.59 257.03 152.13 C 256.27 154.25 255.70 156.53 254.05 158.18 C 254.33 156.09 254.66 154.01 255.02 151.93 Z" />
</g>
<g id="#caaa5cff">
<path fill="#caaa5c" opacity="1.00" d=" M 455.95 125.78 C 462.82 122.99 470.16 124.30 477.19 125.75 C 488.85 134.01 491.61 148.83 489.12 162.12 C 487.79 165.77 486.41 169.39 485.13 173.05 L 484.13 173.05 C 485.43 169.26 485.76 165.25 484.86 161.32 C 483.82 154.23 487.11 146.29 483.06 139.82 C 483.39 137.73 482.60 135.07 480.09 135.02 C 479.88 134.76 479.45 134.23 479.24 133.96 C 474.04 126.39 463.46 129.95 455.86 126.65 L 455.95 125.78 Z" />
</g>
<g id="#5b4623ff">
<path fill="#5b4623" opacity="1.00" d=" M 249.00 154.08 C 251.00 144.11 254.42 134.47 258.15 125.03 C 256.95 135.15 252.38 144.56 249.00 154.08 Z" />
</g>
<g id="#4f5e60ff">
<path fill="#4f5e60" opacity="1.00" d=" M 18.08 129.94 C 18.31 128.74 17.01 125.61 19.08 125.90 C 20.10 128.94 21.05 132.00 22.08 135.05 C 22.41 135.96 22.75 136.88 23.10 137.79 C 24.08 150.25 28.23 162.25 31.87 174.12 L 32.13 174.87 C 32.11 178.00 32.95 181.01 33.95 183.97 C 35.30 190.13 36.78 196.29 38.80 202.27 C 39.16 203.49 39.58 204.68 40.02 205.87 C 40.55 211.42 41.43 217.08 43.96 222.10 C 44.22 223.54 44.74 226.42 45.00 227.86 C 45.90 231.65 46.81 235.44 47.91 239.18 C 48.31 240.69 48.76 242.18 49.17 243.68 C 49.56 248.66 50.48 253.72 53.04 258.08 C 52.60 259.72 52.46 261.66 53.83 262.92 C 54.45 265.67 55.16 268.36 55.90 271.09 C 55.58 272.52 55.68 274.22 57.02 275.13 L 56.93 275.98 L 56.77 276.74 C 56.56 277.28 56.14 278.35 55.93 278.89 C 53.06 270.64 50.19 258.56 47.59 248.57 C 37.75 209.00 27.55 169.56 18.08 129.94 Z" />
</g>
<g id="#d66744ff">
<path fill="#d66744" opacity="1.00" d=" M 331.03 136.08 C 332.41 132.44 334.03 128.79 336.76 125.95 C 336.72 126.48 336.63 127.53 336.59 128.06 C 334.86 130.82 332.96 133.47 331.03 136.08 Z" />
</g>
<g id="#918464ff">
<path fill="#918464" opacity="1.00" d=" M 415.68 167.76 C 421.87 149.62 435.07 133.54 452.84 125.83 C 453.62 125.82 455.18 125.79 455.95 125.78 L 455.86 126.65 C 451.58 128.12 447.31 129.87 443.96 132.99 C 438.74 136.60 433.04 140.12 429.82 145.78 C 425.64 149.69 423.22 154.74 420.65 159.70 C 418.49 162.76 417.82 166.50 416.86 170.04 L 415.89 169.87 C 415.83 169.34 415.73 168.28 415.68 167.76 Z" />
</g>
<g id="#7c6435ff">
<path fill="#7c6435" opacity="1.00" d=" M 477.19 125.75 C 485.35 128.48 488.51 137.35 491.27 144.75 C 490.85 150.56 491.52 156.67 489.12 162.12 C 491.61 148.83 488.85 134.01 477.19 125.75 Z" />
</g>
<g id="#e3d29bff">
<path fill="#e3d29b" opacity="1.00" d=" M 443.96 132.99 C 447.31 129.87 451.58 128.12 455.86 126.65 C 463.46 129.95 474.04 126.39 479.24 133.96 C 473.08 130.04 465.26 128.38 458.35 131.37 C 453.69 132.83 448.76 135.00 443.96 132.99 Z" />
</g>
<g id="#dcdad4ff">
<path fill="#dcdad4" opacity="1.00" d=" M 458.35 131.37 C 465.26 128.38 473.08 130.04 479.24 133.96 C 479.45 134.23 479.88 134.76 480.09 135.02 C 480.53 136.92 481.41 138.70 483.06 139.82 C 483.26 146.90 485.25 154.25 482.16 160.99 C 475.81 179.08 464.20 195.32 446.06 202.93 C 442.21 204.79 438.04 205.98 433.79 206.36 C 429.07 204.92 424.54 202.47 421.80 198.23 C 419.73 190.74 419.41 182.83 421.13 175.23 C 423.40 165.17 431.29 156.58 429.82 145.78 C 433.04 140.12 438.74 136.60 443.96 132.99 C 448.76 135.00 453.69 132.83 458.35 131.37 Z" />
</g>
<g id="#dcc59bff">
<path fill="#dcc59b" opacity="1.00" d=" M 480.09 135.02 C 482.60 135.07 483.39 137.73 483.06 139.82 C 481.41 138.70 480.53 136.92 480.09 135.02 Z" />
</g>
<g id="#343130ff">
<path fill="#343130" opacity="1.00" d=" M 571.99 136.87 C 578.54 142.42 578.73 152.10 583.15 159.19 C 583.04 159.85 582.83 161.16 582.73 161.82 C 572.55 164.10 562.34 166.30 552.10 168.27 C 555.86 159.94 561.32 152.24 567.44 145.54 C 574.77 146.43 572.15 140.96 571.99 136.87 Z" />
</g>
<g id="#b0ada8ff">
<path fill="#b0ada8" opacity="1.00" d=" M 23.10 137.79 C 26.79 149.61 29.84 161.91 31.87 174.12 C 28.23 162.25 24.08 150.25 23.10 137.79 Z" />
</g>
<g id="#ba9653ff">
<path fill="#ba9653" opacity="1.00" d=" M 224.04 142.05 C 226.04 141.04 227.95 139.88 229.87 138.73 C 228.58 142.75 225.81 145.94 223.06 149.05 C 220.07 151.44 217.09 153.84 214.08 156.20 C 212.92 149.25 220.51 146.71 224.04 142.05 Z" />
</g>
<g id="#e3cf90ff">
<path fill="#e3cf90" opacity="1.00" d=" M 483.06 139.82 C 487.11 146.29 483.82 154.23 484.86 161.32 C 485.76 165.25 485.43 169.26 484.13 173.05 C 483.13 174.77 482.14 176.49 481.15 178.22 C 476.59 172.86 481.64 166.78 482.16 160.99 C 485.25 154.25 483.26 146.90 483.06 139.82 Z" />
</g>
<g id="#d7bb7aff">
<path fill="#d7bb7a" opacity="1.00" d=" M 202.81 158.75 C 210.10 153.45 216.16 146.53 224.04 142.05 C 220.51 146.71 212.92 149.25 214.08 156.20 C 209.39 160.58 204.31 164.52 199.04 168.17 C 199.78 164.84 201.27 161.77 202.81 158.75 Z" />
</g>
<g id="#d46d46ff">
<path fill="#d46d46" opacity="1.00" d=" M 316.35 163.32 C 318.91 156.06 322.66 149.22 326.96 142.84 C 325.97 150.62 318.84 156.19 317.89 164.00 C 319.20 164.05 320.51 163.99 321.81 163.82 C 327.50 162.64 333.11 160.81 339.01 161.02 C 332.59 163.62 325.59 164.29 318.88 165.80 C 317.34 166.31 315.19 165.02 316.35 163.32 Z" />
</g>
<g id="#ebddafff">
<path fill="#ebddaf" opacity="1.00" d=" M 420.65 159.70 C 423.22 154.74 425.64 149.69 429.82 145.78 C 431.29 156.58 423.40 165.17 421.13 175.23 C 421.26 170.04 422.11 164.78 420.65 159.70 Z" />
</g>
<g id="#75653fff">
<path fill="#75653f" opacity="1.00" d=" M 214.08 156.20 C 217.09 153.84 220.07 151.44 223.06 149.05 L 224.06 149.04 C 212.07 161.83 196.75 170.97 183.98 182.96 C 182.65 183.69 181.29 184.38 179.92 185.01 C 185.91 178.98 192.69 173.81 199.04 168.17 C 204.31 164.52 209.39 160.58 214.08 156.20 Z" />
</g>
<g id="#d96a45ff">
<path fill="#d96a45" opacity="1.00" d=" M 359.98 157.01 C 371.93 153.17 384.56 150.89 397.01 148.92 C 385.31 153.13 372.42 155.46 359.98 157.01 Z" />
</g>
<g id="#4c4b4fff">
<path fill="#4c4b4f" opacity="1.00" d=" M 401.12 154.19 C 403.29 153.56 404.42 151.45 405.82 149.85 C 404.09 153.56 406.04 156.83 407.86 159.99 C 404.89 169.96 398.12 178.37 395.05 188.15 C 392.98 192.01 390.45 195.60 387.93 199.16 C 390.30 189.18 398.77 181.03 398.03 170.16 C 386.05 163.59 375.67 176.02 363.43 174.55 C 353.42 177.87 343.12 170.73 333.35 174.37 C 326.88 177.50 319.04 173.30 313.20 178.06 C 304.84 178.90 296.02 178.80 287.77 180.89 C 280.10 186.48 273.87 194.37 269.94 203.04 C 265.46 207.41 263.65 214.00 258.72 217.87 C 264.96 204.02 276.30 192.88 282.22 178.99 C 282.73 178.79 283.76 178.39 284.27 178.19 C 285.87 177.84 287.47 177.47 289.10 177.17 C 319.85 171.19 350.85 165.65 381.24 158.17 C 382.72 157.66 384.21 157.15 385.72 156.72 C 390.99 157.15 396.25 156.15 401.12 154.19 Z" />
</g>
<g id="#af8b4cff">
<path fill="#af8b4c" opacity="1.00" d=" M 244.84 167.95 C 248.00 162.46 250.99 156.87 255.02 151.93 C 254.66 154.01 254.33 156.09 254.05 158.18 C 253.58 159.34 253.15 160.51 252.75 161.69 C 250.70 165.51 249.71 169.75 248.82 173.96 C 247.59 175.74 246.66 177.75 246.92 179.97 C 259.06 178.54 270.81 174.88 282.84 172.79 C 285.62 172.36 287.31 174.38 288.77 176.40 L 289.10 177.17 C 287.47 177.47 285.87 177.84 284.27 178.19 C 272.52 178.07 261.01 181.77 249.72 184.75 C 248.44 185.11 247.19 185.51 245.97 186.02 C 243.42 185.64 238.92 187.58 238.85 184.11 C 240.77 181.09 241.77 177.62 242.20 174.08 C 243.09 172.04 243.91 169.97 244.84 167.95 Z" />
</g>
<g id="#938661ff">
<path fill="#938661" opacity="1.00" d=" M 385.72 156.72 C 390.69 155.11 395.89 154.27 401.12 154.19 C 396.25 156.15 390.99 157.15 385.72 156.72 Z" />
</g>
<g id="#db7047ff">
<path fill="#db7047" opacity="1.00" d=" M 339.01 161.02 C 345.58 158.11 352.85 157.17 359.98 157.01 C 353.24 159.44 346.13 160.53 339.01 161.02 Z" />
</g>
<g id="#8f805cff">
<path fill="#8f805c" opacity="1.00" d=" M 288.77 176.40 C 319.54 170.19 350.21 162.46 381.24 158.17 C 350.85 165.65 319.85 171.19 289.10 177.17 L 288.77 176.40 Z" />
</g>
<g id="#eee099ff">
<path fill="#eee099" opacity="1.00" d=" M 159.75 193.88 C 173.64 181.76 188.39 170.36 202.81 158.75 C 201.27 161.77 199.78 164.84 199.04 168.17 C 192.69 173.81 185.91 178.98 179.92 185.01 C 178.00 184.82 176.53 186.18 176.07 187.96 C 173.13 189.18 170.64 191.19 168.16 193.14 C 165.32 191.72 162.43 192.57 159.75 193.88 Z" />
</g>
<g id="#806640ff">
<path fill="#806640" opacity="1.00" d=" M 583.15 159.19 C 584.97 158.41 583.71 162.08 584.17 163.12 C 557.04 168.82 529.81 174.55 502.81 180.63 C 499.64 184.92 497.19 189.72 493.85 193.90 L 492.81 193.80 C 495.30 188.86 497.82 183.72 501.75 179.78 C 505.84 177.60 510.80 177.58 515.22 176.27 C 527.56 173.86 539.89 171.32 552.10 168.27 C 562.34 166.30 572.55 164.10 582.73 161.82 C 582.83 161.16 583.04 159.85 583.15 159.19 Z" />
</g>
<g id="#d9c37fff">
<path fill="#d9c37f" opacity="1.00" d=" M 416.86 170.04 C 417.82 166.50 418.49 162.76 420.65 159.70 C 422.11 164.78 421.26 170.04 421.13 175.23 C 419.41 182.83 419.73 190.74 421.80 198.23 C 415.67 190.15 419.99 179.10 416.86 170.04 Z" />
</g>
<g id="#efe5bfff">
<path fill="#efe5bf" opacity="1.00" d=" M 446.06 202.93 C 464.20 195.32 475.81 179.08 482.16 160.99 C 481.64 166.78 476.59 172.86 481.15 178.22 C 475.47 189.45 466.11 199.06 455.08 205.17 C 452.20 203.99 449.25 202.73 446.06 202.93 Z" />
</g>
<g id="#d6be91ff">
<path fill="#d6be91" opacity="1.00" d=" M 248.82 173.96 C 249.71 169.75 250.70 165.51 252.75 161.69 C 252.88 166.08 250.82 170.17 248.82 173.96 Z" />
</g>
<g id="#c79f5cff">
<path fill="#c79f5c" opacity="1.00" d=" M 502.81 180.63 C 529.81 174.55 557.04 168.82 584.17 163.12 L 584.09 164.09 C 583.59 164.92 583.07 165.73 582.52 166.52 C 571.59 170.33 559.77 171.04 548.88 174.96 C 547.99 175.34 547.09 175.72 546.20 176.09 C 531.53 175.21 517.07 186.30 502.81 180.63 Z" />
</g>
<g id="#d7b485ff">
<path fill="#d7b485" opacity="1.00" d=" M 584.09 164.09 C 584.85 167.51 588.41 171.79 590.19 175.75 C 588.35 175.61 585.18 173.44 585.04 177.02 C 578.65 191.34 575.54 207.00 567.91 220.81 C 564.68 226.12 560.91 231.24 559.12 237.27 C 557.23 240.29 555.57 243.48 553.24 246.19 C 551.48 248.10 549.82 250.07 548.18 252.07 C 548.13 250.01 548.56 247.07 545.69 248.65 C 559.77 225.23 576.11 201.94 581.92 174.80 C 582.79 172.57 583.82 170.36 584.11 167.96 C 572.37 170.29 560.84 173.92 548.88 174.96 C 559.77 171.04 571.59 170.33 582.52 166.52 C 583.07 165.73 583.59 164.92 584.09 164.09 Z" />
</g>
<g id="#e1cea5ff">
<path fill="#e1cea5" opacity="1.00" d=" M 289.67 169.87 C 295.70 170.43 301.23 167.28 307.19 167.05 C 300.20 171.28 290.91 171.15 282.84 172.79 C 270.81 174.88 259.06 178.54 246.92 179.97 C 246.66 177.75 247.59 175.74 248.82 173.96 C 248.87 175.32 248.98 176.67 249.14 178.02 C 262.79 176.21 276.18 172.66 289.67 169.87 Z" />
</g>
<g id="#4e505aff">
<path fill="#4e505a" opacity="1.00" d=" M 363.43 174.55 C 375.67 176.02 386.05 163.59 398.03 170.16 C 398.77 181.03 390.30 189.18 387.93 199.16 C 387.11 201.30 387.10 203.49 388.69 205.27 C 388.05 205.16 386.76 204.94 386.12 204.82 C 381.12 200.63 390.02 193.94 389.10 188.08 C 379.36 188.21 370.86 195.04 361.15 191.41 C 353.13 193.86 343.36 188.19 336.45 193.51 C 324.88 191.82 312.86 191.74 301.90 196.76 C 295.02 193.96 287.00 200.05 280.60 195.40 C 275.75 194.08 273.06 200.62 269.94 203.04 C 273.87 194.37 280.10 186.48 287.77 180.89 C 296.02 178.80 304.84 178.90 313.20 178.06 C 319.04 173.30 326.88 177.50 333.35 174.37 C 343.12 170.73 353.42 177.87 363.43 174.55 Z" />
</g>
<g id="#7e683aff">
<path fill="#7e683a" opacity="1.00" d=" M 412.74 177.77 C 413.32 174.33 414.31 170.96 415.68 167.76 C 415.73 168.28 415.83 169.34 415.89 169.87 C 412.61 182.74 413.37 196.98 422.78 207.24 C 413.15 201.46 412.52 187.78 412.74 177.77 Z" />
</g>
<g id="#e1dfdeff">
<path fill="#e1dfde" opacity="1.00" d=" M 548.88 174.96 C 560.84 173.92 572.37 170.29 584.11 167.96 C 583.82 170.36 582.79 172.57 581.92 174.80 C 568.79 202.48 550.96 227.62 530.13 250.01 C 528.80 250.77 527.47 251.50 526.14 252.23 C 537.40 238.38 549.80 225.26 558.81 209.87 C 560.40 205.45 552.87 211.33 552.82 207.17 C 552.48 205.13 549.91 200.70 548.51 204.40 C 547.19 212.89 537.24 206.60 531.44 209.42 C 524.19 216.52 519.54 225.66 514.15 234.11 C 511.14 234.79 508.47 237.51 505.60 237.63 C 503.80 233.55 498.00 231.56 500.11 225.99 C 498.74 225.83 501.75 216.38 498.54 220.46 C 496.34 219.31 491.30 217.97 493.71 214.73 C 494.59 211.65 497.59 212.89 499.97 212.91 C 501.20 209.08 497.74 210.46 495.35 210.56 C 493.45 209.30 492.87 207.18 492.76 205.01 C 500.96 199.16 503.31 187.52 513.18 183.97 C 524.03 180.71 535.46 179.69 546.20 176.09 C 547.09 175.72 547.99 175.34 548.88 174.96 Z" />
</g>
<g id="#c4a55aff">
<path fill="#c4a55a" opacity="1.00" d=" M 415.89 169.87 L 416.86 170.04 C 419.99 179.10 415.67 190.15 421.80 198.23 C 424.54 202.47 429.07 204.92 433.79 206.36 C 437.80 207.72 441.96 208.74 446.18 209.35 C 438.19 212.20 430.36 209.85 422.78 207.24 C 413.37 196.98 412.61 182.74 415.89 169.87 Z" />
</g>
<g id="#958969ff">
<path fill="#958969" opacity="1.00" d=" M 484.13 173.05 L 485.13 173.05 C 479.78 189.39 466.03 202.91 450.10 209.17 L 448.98 209.05 C 450.94 207.65 453.03 206.44 455.08 205.17 C 466.11 199.06 475.47 189.45 481.15 178.22 C 482.14 176.49 483.13 174.77 484.13 173.05 Z" />
</g>
<g id="#201e1bff">
<path fill="#201e1b" opacity="1.00" d=" M 235.68 186.84 C 234.08 181.34 239.29 177.90 242.20 174.08 C 241.77 177.62 240.77 181.09 238.85 184.11 C 235.85 189.14 243.65 188.51 245.97 186.02 C 247.19 185.51 248.44 185.11 249.72 184.75 C 260.84 184.61 271.27 180.15 282.22 178.99 C 276.30 192.88 264.96 204.02 258.72 217.87 C 253.97 223.23 251.42 230.31 246.09 235.17 C 238.55 236.48 229.68 236.00 223.01 240.08 C 212.74 240.18 202.98 243.95 192.97 245.91 C 192.48 245.95 191.50 246.04 191.00 246.08 C 196.15 242.34 188.61 242.30 185.29 241.61 C 183.78 242.33 181.68 245.34 181.18 242.26 C 183.84 240.71 185.22 238.53 184.60 235.41 C 188.31 232.13 190.90 227.25 195.55 225.41 C 201.31 222.96 197.73 215.90 201.13 212.05 C 207.02 216.76 210.67 207.62 212.38 203.35 C 219.25 199.87 216.64 187.57 225.80 187.86 C 221.66 185.04 230.20 178.54 230.55 185.11 C 227.03 189.50 233.40 189.09 235.68 186.84 Z" />
</g>
<g id="#a9a6a5ff">
<path fill="#a9a6a5" opacity="1.00" d=" M 32.13 174.87 C 33.55 177.70 33.84 180.82 33.95 183.97 C 32.95 181.01 32.11 178.00 32.13 174.87 Z" />
</g>
<g id="#aeafafff">
<path fill="#aeafaf" opacity="1.00" d=" M 530.13 250.01 C 550.96 227.62 568.79 202.48 581.92 174.80 C 576.11 201.94 559.77 225.23 545.69 248.65 C 539.75 255.10 535.63 263.14 529.13 269.07 C 525.04 270.38 523.20 274.50 520.21 277.21 C 516.14 281.12 511.20 275.90 506.92 274.81 C 512.99 265.39 523.82 259.31 530.13 250.01 Z" />
</g>
<g id="#df9360ff">
<path fill="#df9360" opacity="1.00" d=" M 585.04 177.02 C 585.18 173.44 588.35 175.61 590.19 175.75 C 590.38 176.30 590.76 177.40 590.95 177.94 C 589.91 177.48 588.64 176.63 588.35 178.32 C 582.67 192.86 576.75 207.39 568.94 220.94 L 567.91 220.81 C 575.54 207.00 578.65 191.34 585.04 177.02 Z" />
</g>
<g id="#dcc286ff">
<path fill="#dcc286" opacity="1.00" d=" M 502.81 180.63 C 517.07 186.30 531.53 175.21 546.20 176.09 C 535.46 179.69 524.03 180.71 513.18 183.97 C 503.66 182.31 502.87 195.49 493.62 194.76 L 493.85 193.90 C 497.19 189.72 499.64 184.92 502.81 180.63 Z" />
</g>
<g id="#d02e2eff">
<path fill="#d02e2e" opacity="1.00" d=" M 588.35 178.32 C 588.64 176.63 589.91 177.48 590.95 177.94 C 591.12 178.53 591.45 179.69 591.62 180.27 C 592.99 185.79 595.70 190.83 598.01 195.98 C 600.59 202.61 603.29 209.21 606.18 215.72 C 604.87 215.40 603.55 215.10 602.22 215.02 C 592.12 235.19 582.76 255.72 572.92 276.03 L 571.98 276.15 C 575.49 266.12 580.05 256.44 583.25 246.27 C 576.64 248.60 569.13 248.91 562.29 247.38 C 558.52 247.89 551.64 259.76 548.71 253.94 C 550.41 251.47 551.83 248.83 553.24 246.19 C 555.57 243.48 557.23 240.29 559.12 237.27 C 563.15 232.37 566.37 226.73 568.94 220.94 C 576.75 207.39 582.67 192.86 588.35 178.32 Z" />
</g>
<g id="#6e5630ff">
<path fill="#6e5630" opacity="1.00" d=" M 249.72 184.75 C 261.01 181.77 272.52 178.07 284.27 178.19 C 283.76 178.39 282.73 178.79 282.22 178.99 C 271.27 180.15 260.84 184.61 249.72 184.75 Z" />
</g>
<g id="#88717aff">
<path fill="#88717a" opacity="1.00" d=" M 591.62 180.27 C 595.98 183.71 597.96 190.71 599.77 196.21 C 599.33 196.16 598.45 196.04 598.01 195.98 C 595.70 190.83 592.99 185.79 591.62 180.27 Z" />
</g>
<g id="#191510ff">
<path fill="#191510" opacity="1.00" d=" M 183.98 182.96 C 192.19 179.76 191.47 197.72 183.76 196.75 C 182.73 204.42 171.64 203.93 170.37 211.49 C 165.36 213.57 160.88 219.11 162.31 224.73 C 159.54 227.15 156.23 228.72 152.74 229.79 C 151.07 232.41 152.50 236.64 149.58 238.53 C 142.36 243.33 155.66 248.04 155.25 253.99 C 143.85 256.83 132.04 258.30 120.90 261.98 C 119.99 262.36 119.08 262.71 118.15 263.03 C 112.95 262.92 107.72 263.77 103.00 266.01 C 95.60 267.17 87.63 267.37 80.95 271.12 C 68.85 273.06 80.31 266.66 83.08 263.01 C 85.27 260.86 87.64 258.91 90.11 257.10 C 92.06 257.15 93.51 255.73 93.87 253.88 C 95.55 252.62 97.20 251.32 98.87 250.05 C 101.13 249.44 102.78 247.84 104.08 245.97 C 104.34 245.78 104.85 245.39 105.11 245.19 C 108.84 243.04 112.37 240.45 115.09 237.08 C 115.34 236.86 115.84 236.41 116.09 236.19 C 123.22 231.51 130.01 226.21 135.97 220.10 C 139.88 218.24 143.36 215.50 146.01 212.08 C 156.73 205.04 166.85 196.89 176.07 187.96 C 178.01 188.19 179.49 186.81 179.92 185.01 C 181.29 184.38 182.65 183.69 183.98 182.96 Z" />
</g>
<g id="#aeaeacff">
<path fill="#aeaeac" opacity="1.00" d=" M 33.95 183.97 C 37.53 189.25 38.59 196.01 38.80 202.27 C 36.78 196.29 35.30 190.13 33.95 183.97 Z" />
</g>
<g id="#5a4b35ff">
<path fill="#5a4b35" opacity="1.00" d=" M 245.97 186.02 C 243.65 188.51 235.85 189.14 238.85 184.11 C 238.92 187.58 243.42 185.64 245.97 186.02 Z" />
</g>
<g id="#eee0bbff">
<path fill="#eee0bb" opacity="1.00" d=" M 493.62 194.76 C 502.87 195.49 503.66 182.31 513.18 183.97 C 503.31 187.52 500.96 199.16 492.76 205.01 C 490.62 207.14 487.56 206.78 484.75 206.83 C 487.79 202.87 490.81 198.89 493.62 194.76 Z" />
</g>
<g id="#8c8456ff">
<path fill="#8c8456" opacity="1.00" d=" M 176.07 187.96 C 176.53 186.18 178.00 184.82 179.92 185.01 C 179.49 186.81 178.01 188.19 176.07 187.96 Z" />
</g>
<g id="#8e8248ff">
<path fill="#8e8248" opacity="1.00" d=" M 168.16 193.14 C 170.64 191.19 173.13 189.18 176.07 187.96 C 166.85 196.89 156.73 205.04 146.01 212.08 C 147.69 209.74 149.93 207.90 152.16 206.10 C 157.57 201.88 162.88 197.53 168.16 193.14 Z" />
</g>
<g id="#555761ff">
<path fill="#555761" opacity="1.00" d=" M 361.15 191.41 C 370.86 195.04 379.36 188.21 389.10 188.08 C 390.02 193.94 381.12 200.63 386.12 204.82 C 384.36 204.97 382.60 205.13 380.90 205.61 C 368.56 209.42 355.63 210.59 343.23 214.14 C 338.31 214.26 333.38 215.06 328.78 216.84 C 326.96 217.42 325.13 217.98 323.26 218.37 C 316.23 215.70 309.61 218.24 302.93 219.99 C 299.52 220.08 306.50 214.45 302.37 214.62 C 297.74 210.14 294.76 219.25 291.01 216.01 C 286.54 209.50 273.55 216.28 272.32 207.96 C 262.31 213.53 256.95 224.37 250.32 233.30 L 249.84 234.05 C 248.94 234.43 248.03 234.78 247.10 235.10 L 246.09 235.17 C 251.42 230.31 253.97 223.23 258.72 217.87 C 263.65 214.00 265.46 207.41 269.94 203.04 C 273.06 200.62 275.75 194.08 280.60 195.40 C 287.00 200.05 295.02 193.96 301.90 196.76 C 312.86 191.74 324.88 191.82 336.45 193.51 C 343.36 188.19 353.13 193.86 361.15 191.41 Z" />
</g>
<g id="#f2e47eff">
<path fill="#f2e47e" opacity="1.00" d=" M 159.75 193.88 C 162.43 192.57 165.32 191.72 168.16 193.14 C 162.88 197.53 157.57 201.88 152.16 206.10 C 146.68 204.61 143.07 208.74 138.79 210.95 C 144.26 203.68 153.17 199.99 159.75 193.88 Z" />
</g>
<g id="#8f856bff">
<path fill="#8f856b" opacity="1.00" d=" M 460.93 226.94 C 473.11 217.43 483.37 205.96 492.81 193.80 L 493.85 193.90 L 493.62 194.76 C 490.81 198.89 487.79 202.87 484.75 206.83 C 482.04 209.46 479.32 212.09 476.75 214.86 C 474.74 216.81 472.73 218.76 470.74 220.73 C 468.10 222.76 465.56 224.88 462.93 226.91 C 462.43 226.92 461.43 226.93 460.93 226.94 Z" />
</g>
<g id="#1f1b22ff">
</g>
<g id="#913d42ff">
<path fill="#913d42" opacity="1.00" d=" M 598.01 195.98 C 598.45 196.04 599.33 196.16 599.77 196.21 C 601.63 202.36 605.14 208.07 607.46 213.83 C 607.24 214.91 607.04 215.99 606.86 217.07 C 606.69 216.74 606.35 216.06 606.18 215.72 C 603.29 209.21 600.59 202.61 598.01 195.98 Z" />
</g>
<g id="#ddc685ff">
<path fill="#ddc685" opacity="1.00" d=" M 446.06 202.93 C 449.25 202.73 452.20 203.99 455.08 205.17 C 453.03 206.44 450.94 207.65 448.98 209.05 C 448.28 209.13 446.88 209.27 446.18 209.35 C 441.96 208.74 437.80 207.72 433.79 206.36 C 438.04 205.98 442.21 204.79 446.06 202.93 Z" />
</g>
<g id="#e6e6e6ff">
<path fill="#e6e6e6" opacity="1.00" d=" M 548.51 204.40 C 549.91 200.70 552.48 205.13 552.82 207.17 C 552.87 211.33 560.40 205.45 558.81 209.87 C 549.80 225.26 537.40 238.38 526.14 252.23 C 514.55 264.23 501.06 274.56 485.92 281.64 C 479.98 285.16 473.73 288.32 467.04 290.11 L 465.92 289.95 C 478.39 284.68 489.79 277.52 500.95 269.91 C 504.09 266.86 510.08 264.29 509.03 258.98 C 504.29 257.59 506.77 263.32 504.34 265.31 C 499.76 267.68 494.67 269.31 490.39 272.40 C 483.79 277.00 477.02 268.32 475.33 262.64 C 474.82 257.91 469.47 259.40 466.05 259.55 C 466.59 256.49 467.77 253.54 467.87 250.42 C 462.61 249.18 457.61 247.44 455.79 242.09 C 450.01 242.10 444.64 245.65 438.74 244.78 C 446.87 242.13 454.88 239.01 461.91 234.06 C 468.71 230.58 481.11 224.27 476.75 214.86 C 479.32 212.09 482.04 209.46 484.75 206.83 C 487.56 206.78 490.62 207.14 492.76 205.01 C 492.87 207.18 493.45 209.30 495.35 210.56 C 497.74 210.46 501.20 209.08 499.97 212.91 C 497.59 212.89 494.59 211.65 493.71 214.73 C 491.30 217.97 496.34 219.31 498.54 220.46 C 501.75 216.38 498.74 225.83 500.11 225.99 C 498.00 231.56 503.80 233.55 505.60 237.63 C 508.47 237.51 511.14 234.79 514.15 234.11 C 519.54 225.66 524.19 216.52 531.44 209.42 C 537.24 206.60 547.19 212.89 548.51 204.40 Z" />
</g>
<g id="#9c7e43ff">
<path fill="#9c7e43" opacity="1.00" d=" M 380.90 205.61 C 382.60 205.13 384.36 204.97 386.12 204.82 C 386.76 204.94 388.05 205.16 388.69 205.27 C 390.79 220.10 398.86 235.73 414.68 239.33 C 420.71 242.34 427.75 240.74 434.20 240.11 C 431.30 241.56 428.43 243.06 425.76 244.91 C 420.05 245.44 414.49 243.99 408.93 243.05 C 406.95 242.12 405.05 241.04 403.12 240.02 C 397.14 235.20 392.41 229.17 388.00 222.93 L 387.85 222.15 C 387.02 216.30 384.92 209.76 380.90 205.61 Z" />
</g>
<g id="#b0b0b2ff">
<path fill="#b0b0b2" opacity="1.00" d=" M 40.02 205.87 C 42.80 210.82 42.94 216.64 43.96 222.10 C 41.43 217.08 40.55 211.42 40.02 205.87 Z" />
</g>
<g id="#eac657ff">
<path fill="#eac657" opacity="1.00" d=" M 138.79 210.95 C 143.07 208.74 146.68 204.61 152.16 206.10 C 149.93 207.90 147.69 209.74 146.01 212.08 C 142.25 214.18 138.36 216.39 135.97 220.10 C 130.98 222.86 126.56 226.48 122.14 230.04 C 117.48 230.87 113.23 232.95 108.93 234.84 C 118.32 226.22 128.75 218.80 138.79 210.95 Z" />
</g>
<g id="#c3b47cff">
<path fill="#c3b47c" opacity="1.00" d=" M 343.23 214.14 C 355.63 210.59 368.56 209.42 380.90 205.61 C 384.92 209.76 387.02 216.30 387.85 222.15 C 385.81 219.10 384.70 215.60 383.54 212.16 C 379.52 211.42 375.68 212.74 371.91 213.85 C 347.12 217.89 322.93 224.59 298.21 228.81 C 297.33 224.14 292.25 226.64 288.88 226.75 L 288.94 225.82 C 294.51 224.33 300.18 223.29 305.74 221.75 C 310.37 221.83 315.04 221.18 319.27 219.22 C 320.60 218.96 321.94 218.69 323.26 218.37 C 325.13 217.98 326.96 217.42 328.78 216.84 C 333.67 216.67 338.74 216.28 343.23 214.14 Z" />
</g>
<g id="#7b6740ff">
<path fill="#7b6740" opacity="1.00" d=" M 422.78 207.24 C 430.36 209.85 438.19 212.20 446.18 209.35 C 446.88 209.27 448.28 209.13 448.98 209.05 L 450.10 209.17 C 441.53 213.04 430.38 213.33 422.78 207.24 Z" />
</g>
<g id="#5c5f68ff">
<path fill="#5c5f68" opacity="1.00" d=" M 250.32 233.30 C 256.95 224.37 262.31 213.53 272.32 207.96 C 273.55 216.28 286.54 209.50 291.01 216.01 C 294.76 219.25 297.74 210.14 302.37 214.62 C 306.50 214.45 299.52 220.08 302.93 219.99 C 309.61 218.24 316.23 215.70 323.26 218.37 C 321.94 218.69 320.60 218.96 319.27 219.22 C 314.63 219.06 310.14 220.45 305.74 221.75 C 300.18 223.29 294.51 224.33 288.94 225.82 C 280.50 226.62 271.98 228.08 264.00 230.97 C 259.37 231.18 254.73 231.85 250.32 233.30 Z" />
</g>
<g id="#8b772bff">
<path fill="#8b772b" opacity="1.00" d=" M 135.97 220.10 C 138.36 216.39 142.25 214.18 146.01 212.08 C 143.36 215.50 139.88 218.24 135.97 220.10 Z" />
</g>
<g id="#f0eeeeff">
<path fill="#f0eeee" opacity="1.00" d=" M 371.91 213.85 C 375.68 212.74 379.52 211.42 383.54 212.16 C 384.70 215.60 385.81 219.10 387.85 222.15 L 388.00 222.93 C 389.32 230.53 395.90 237.57 403.12 240.02 C 405.05 241.04 406.95 242.12 408.93 243.05 C 418.18 248.46 428.85 246.95 438.74 244.78 C 444.64 245.65 450.01 242.10 455.79 242.09 C 457.61 247.44 462.61 249.18 467.87 250.42 C 467.77 253.54 466.59 256.49 466.05 259.55 C 469.47 259.40 474.82 257.91 475.33 262.64 C 477.02 268.32 483.79 277.00 490.39 272.40 C 494.67 269.31 499.76 267.68 504.34 265.31 C 506.77 263.32 504.29 257.59 509.03 258.98 C 510.08 264.29 504.09 266.86 500.95 269.91 C 489.79 277.52 478.39 284.68 465.92 289.95 C 448.80 295.07 430.35 295.61 413.06 290.94 C 412.60 290.67 411.68 290.14 411.22 289.87 C 406.99 286.97 402.60 284.29 398.11 281.84 C 393.89 278.45 390.59 274.13 386.92 270.20 C 386.35 266.90 384.36 264.16 382.02 261.86 C 380.25 257.99 378.71 254.01 376.97 250.13 C 374.92 238.77 371.78 227.52 371.89 215.84 C 371.90 215.35 371.90 214.35 371.91 213.85 Z" />
</g>
<g id="#938867ff">
<path fill="#938867" opacity="1.00" d=" M 328.78 216.84 C 333.38 215.06 338.31 214.26 343.23 214.14 C 338.74 216.28 333.67 216.67 328.78 216.84 Z" />
</g>
<g id="#bbb7a4ff">
<path fill="#bbb7a4" opacity="1.00" d=" M 298.21 228.81 C 322.93 224.59 347.12 217.89 371.91 213.85 C 371.90 214.35 371.90 215.35 371.89 215.84 C 348.20 220.71 324.61 226.40 300.95 230.94 C 296.24 234.09 297.19 240.98 295.34 245.89 C 294.88 250.33 294.99 254.85 294.35 259.28 C 294.16 253.78 293.95 248.31 293.88 242.81 C 295.02 238.28 293.47 231.65 298.21 228.81 Z" />
</g>
<g id="#bf686fff">
<path fill="#bf686f" opacity="1.00" d=" M 606.86 217.07 C 607.04 215.99 607.24 214.91 607.46 213.83 C 609.15 218.51 611.77 223.25 611.65 228.25 C 609.86 224.60 608.34 220.84 606.86 217.07 Z" />
</g>
<g id="#ecdeb5ff">
<path fill="#ecdeb5" opacity="1.00" d=" M 470.74 220.73 C 472.73 218.76 474.74 216.81 476.75 214.86 C 481.11 224.27 468.71 230.58 461.91 234.06 C 466.36 230.60 469.77 226.39 470.74 220.73 Z" />
</g>
<g id="#cd2226ff">
<path fill="#cd2226" opacity="1.00" d=" M 602.22 215.02 C 603.55 215.10 604.87 215.40 606.18 215.72 C 606.35 216.06 606.69 216.74 606.86 217.07 C 608.34 220.84 609.86 224.60 611.65 228.25 C 613.95 234.41 616.70 240.39 619.74 246.22 C 622.29 252.93 624.28 259.91 627.68 266.26 C 631.44 275.73 636.81 284.57 639.54 294.44 C 641.35 299.64 637.74 304.01 634.98 307.92 C 627.45 309.12 620.07 311.38 612.88 313.87 L 612.14 314.11 C 598.84 316.02 585.63 319.35 572.98 323.92 C 563.32 324.54 554.32 328.42 544.82 329.93 C 545.58 328.34 546.37 326.76 547.12 325.16 C 571.36 323.08 594.37 314.09 618.11 309.16 C 624.26 307.24 632.35 307.10 636.67 301.65 C 638.94 294.74 635.33 287.17 631.67 281.25 C 628.72 275.99 624.19 268.66 617.02 270.08 C 602.25 271.45 587.43 272.99 572.92 276.03 C 582.76 255.72 592.12 235.19 602.22 215.02 Z" />
</g>
<g id="#aeb2bbff">
<path fill="#aeb2bb" opacity="1.00" d=" M 300.95 230.94 C 324.61 226.40 348.20 220.71 371.89 215.84 C 371.78 227.52 374.92 238.77 376.97 250.13 C 373.57 244.33 373.48 237.41 371.70 231.06 C 368.99 230.84 368.54 234.52 367.01 236.03 C 357.77 251.83 349.27 268.06 339.82 283.73 C 334.63 290.32 331.87 298.36 327.09 305.20 C 333.32 287.86 343.83 272.19 351.44 255.38 C 353.62 249.64 344.39 252.79 341.07 252.93 C 337.37 249.55 333.65 245.87 328.34 247.72 C 325.72 244.17 321.67 242.14 317.19 242.01 C 313.30 245.48 321.26 243.64 320.97 246.69 C 317.10 244.85 313.41 252.63 310.41 248.61 C 308.13 245.95 301.60 241.27 302.72 248.07 C 300.23 247.43 297.90 246.26 295.34 245.89 C 297.19 240.98 296.24 234.09 300.95 230.94 Z" />
</g>
<g id="#928869ff">
<path fill="#928869" opacity="1.00" d=" M 305.74 221.75 C 310.14 220.45 314.63 219.06 319.27 219.22 C 315.04 221.18 310.37 221.83 305.74 221.75 Z" />
</g>
<g id="#8b6e29ff">
<path fill="#8b6e29" opacity="1.00" d=" M 122.14 230.04 C 126.56 226.48 130.98 222.86 135.97 220.10 C 130.01 226.21 123.22 231.51 116.09 236.19 C 117.65 233.72 119.92 231.88 122.14 230.04 Z" />
</g>
<g id="#dac489ff">
<path fill="#dac489" opacity="1.00" d=" M 462.93 226.91 C 465.56 224.88 468.10 222.76 470.74 220.73 C 469.77 226.39 466.36 230.60 461.91 234.06 C 454.88 239.01 446.87 242.13 438.74 244.78 C 428.85 246.95 418.18 248.46 408.93 243.05 C 414.49 243.99 420.05 245.44 425.76 244.91 C 434.87 245.13 443.80 241.82 451.90 237.93 C 455.06 233.79 458.63 229.96 462.93 226.91 Z" />
</g>
<g id="#e48455ff">
<path fill="#e48455" opacity="1.00" d=" M 559.12 237.27 C 560.91 231.24 564.68 226.12 567.91 220.81 L 568.94 220.94 C 566.37 226.73 563.15 232.37 559.12 237.27 Z" />
</g>
<g id="#adabadff">
<path fill="#adabad" opacity="1.00" d=" M 43.96 222.10 C 44.22 223.54 44.74 226.42 45.00 227.86 C 44.74 226.42 44.22 223.54 43.96 222.10 Z" />
</g>
<g id="#cfbc95ff">
<path fill="#cfbc95" opacity="1.00" d=" M 388.00 222.93 C 392.41 229.17 397.14 235.20 403.12 240.02 C 395.90 237.57 389.32 230.53 388.00 222.93 Z" />
</g>
<g id="#9e977aff">
<path fill="#9e977a" opacity="1.00" d=" M 264.00 230.97 C 271.98 228.08 280.50 226.62 288.94 225.82 L 288.88 226.75 C 284.15 227.51 279.42 228.25 274.83 229.62 C 271.23 230.28 267.65 230.88 264.00 230.97 Z" />
</g>
<g id="#e3c58bff">
<path fill="#e3c58b" opacity="1.00" d=" M 288.88 226.75 C 292.25 226.64 297.33 224.14 298.21 228.81 C 293.47 231.65 295.02 238.28 293.88 242.81 C 282.74 250.77 290.22 266.47 287.63 278.29 C 287.34 276.51 287.09 274.72 286.92 272.93 C 286.74 259.26 287.21 245.60 287.99 231.95 C 282.71 231.62 277.88 233.81 272.84 234.89 C 273.91 233.23 279.28 229.63 274.83 229.62 C 279.42 228.25 284.15 227.51 288.88 226.75 Z" />
</g>
<g id="#b69651ff">
<path fill="#b69651" opacity="1.00" d=" M 444.26 236.20 C 449.97 233.40 455.41 230.09 460.93 226.94 C 461.43 226.93 462.43 226.92 462.93 226.91 C 458.63 229.96 455.06 233.79 451.90 237.93 C 443.80 241.82 434.87 245.13 425.76 244.91 C 428.43 243.06 431.30 241.56 434.20 240.11 C 437.70 239.23 441.17 238.13 444.26 236.20 Z" />
</g>
<g id="#b1b1aeff">
<path fill="#b1b1ae" opacity="1.00" d=" M 45.00 227.86 C 48.45 230.49 47.87 235.39 47.91 239.18 C 46.81 235.44 45.90 231.65 45.00 227.86 Z" />
</g>
<g id="#b65d71ff">
<path fill="#b65d71" opacity="1.00" d=" M 611.65 228.25 C 616.76 232.13 619.85 239.77 619.74 246.22 C 616.70 240.39 613.95 234.41 611.65 228.25 Z" />
</g>
<g id="#c79140ff">
<path fill="#c79140" opacity="1.00" d=" M 108.93 234.84 C 113.23 232.95 117.48 230.87 122.14 230.04 C 119.92 231.88 117.65 233.72 116.09 236.19 C 115.84 236.41 115.34 236.86 115.09 237.08 C 111.33 239.17 107.24 241.26 105.11 245.19 C 104.85 245.39 104.34 245.78 104.08 245.97 C 101.83 246.59 100.19 248.20 98.87 250.05 C 97.20 251.32 95.55 252.62 93.87 253.88 C 91.94 253.86 90.50 255.27 90.11 257.10 C 87.64 258.91 85.27 260.86 83.08 263.01 C 78.74 265.17 74.62 267.87 71.90 271.97 C 74.70 274.12 78.05 271.59 80.95 271.12 C 88.38 269.90 95.99 268.88 103.00 266.01 C 104.95 265.88 106.90 265.80 108.84 265.63 C 109.14 265.92 109.73 266.52 110.03 266.82 C 96.67 269.11 83.65 273.10 70.11 274.20 C 64.94 274.08 61.16 277.13 58.70 281.26 C 58.07 279.74 57.42 278.24 56.77 276.74 L 56.93 275.98 C 57.88 275.29 58.84 274.61 59.78 273.92 C 65.06 270.31 71.13 267.18 74.95 261.91 C 75.19 261.66 75.66 261.16 75.90 260.91 C 87.47 253.20 99.31 244.89 108.93 234.84 Z" />
</g>
<g id="#f4d9a2ff">
<path fill="#f4d9a2" opacity="1.00" d=" M 264.00 230.97 C 267.65 230.88 271.23 230.28 274.83 229.62 C 279.28 229.63 273.91 233.23 272.84 234.89 C 266.30 236.71 259.07 236.75 253.01 240.07 C 248.62 240.50 244.07 240.45 239.83 241.83 C 236.17 242.91 232.51 243.96 228.83 244.93 C 224.25 245.98 219.62 246.80 215.08 247.98 C 208.85 245.58 198.61 254.20 194.82 247.16 C 204.14 244.46 213.82 243.10 223.01 240.08 C 231.09 238.69 239.22 237.42 247.10 235.10 C 248.03 234.78 248.94 234.43 249.84 234.05 C 254.65 233.68 259.82 233.71 264.00 230.97 Z" />
</g>
<g id="#a5a38aff">
<path fill="#a5a38a" opacity="1.00" d=" M 250.32 233.30 C 254.73 231.85 259.37 231.18 264.00 230.97 C 259.82 233.71 254.65 233.68 249.84 234.05 L 250.32 233.30 Z" />
</g>
<g id="#908d8fff">
<path fill="#908d8f" opacity="1.00" d=" M 367.01 236.03 C 368.54 234.52 368.99 230.84 371.70 231.06 C 373.48 237.41 373.57 244.33 376.97 250.13 C 378.71 254.01 380.25 257.99 382.02 261.86 C 383.02 264.98 384.45 267.98 386.92 270.20 C 390.59 274.13 393.89 278.45 398.11 281.84 C 401.81 285.43 405.80 289.38 411.22 289.87 C 411.68 290.14 412.60 290.67 413.06 290.94 C 429.84 298.75 450.14 296.85 467.04 290.11 C 473.73 288.32 479.98 285.16 485.92 281.64 C 490.12 282.09 486.61 286.27 485.23 288.03 C 476.67 293.29 474.82 311.99 461.99 308.31 C 440.20 309.66 419.81 318.62 397.97 319.80 C 374.85 320.54 350.98 325.47 328.36 318.55 C 322.79 315.66 328.86 308.81 329.95 304.98 C 332.33 297.47 339.61 291.90 339.82 283.73 C 349.27 268.06 357.77 251.83 367.01 236.03 Z" />
</g>
<g id="#df8167ff">
<path fill="#df8167" opacity="1.00" d=" M 272.84 234.89 C 277.88 233.81 282.71 231.62 287.99 231.95 C 287.21 245.60 286.74 259.26 286.92 272.93 L 286.07 273.10 C 285.83 259.70 285.83 246.30 286.99 232.95 C 275.60 234.95 264.46 238.37 253.01 240.07 C 259.07 236.75 266.30 236.71 272.84 234.89 Z" />
</g>
<g id="#e0424cff">
<path fill="#e0424c" opacity="1.00" d=" M 253.01 240.07 C 264.46 238.37 275.60 234.95 286.99 232.95 C 285.83 246.30 285.83 259.70 286.07 273.10 C 283.55 281.19 276.24 271.54 272.47 268.51 C 269.02 264.89 263.48 264.14 260.75 259.69 C 255.22 260.19 249.29 255.73 248.57 250.22 C 237.42 249.05 233.90 263.46 226.71 268.93 C 231.47 259.87 237.55 251.61 242.96 242.95 C 238.26 243.65 233.60 244.72 228.83 244.93 C 232.51 243.96 236.17 242.91 239.83 241.83 C 244.32 242.35 248.93 242.15 253.01 240.07 Z" />
</g>
<g id="#e8c488ff">
<path fill="#e8c488" opacity="1.00" d=" M 75.90 260.91 C 86.30 251.59 97.57 242.99 108.93 234.84 C 99.31 244.89 87.47 253.20 75.90 260.91 Z" />
</g>
<g id="#837751ff">
<path fill="#837751" opacity="1.00" d=" M 223.01 240.08 C 229.68 236.00 238.55 236.48 246.09 235.17 L 247.10 235.10 C 239.22 237.42 231.09 238.69 223.01 240.08 Z" />
</g>
<g id="#796137ff">
<path fill="#796137" opacity="1.00" d=" M 414.68 239.33 C 424.76 240.70 434.50 238.45 444.26 236.20 C 441.17 238.13 437.70 239.23 434.20 240.11 C 427.75 240.74 420.71 242.34 414.68 239.33 Z" />
</g>
<g id="#755824ff">
<path fill="#755824" opacity="1.00" d=" M 105.11 245.19 C 107.24 241.26 111.33 239.17 115.09 237.08 C 112.37 240.45 108.84 243.04 105.11 245.19 Z" />
</g>
<g id="#8e8053ff">
<path fill="#8e8053" opacity="1.00" d=" M 192.97 245.91 C 202.98 243.95 212.74 240.18 223.01 240.08 C 213.82 243.10 204.14 244.46 194.82 247.16 C 194.35 247.09 193.40 246.94 192.92 246.87 L 192.97 245.91 Z" />
</g>
<g id="#e99073ff">
<path fill="#e99073" opacity="1.00" d=" M 239.83 241.83 C 244.07 240.45 248.62 240.50 253.01 240.07 C 248.93 242.15 244.32 242.35 239.83 241.83 Z" />
</g>
<g id="#b3b8c3ff">
<path fill="#b3b8c3" opacity="1.00" d=" M 317.19 242.01 C 321.67 242.14 325.72 244.17 328.34 247.72 C 333.65 245.87 337.37 249.55 341.07 252.93 C 344.39 252.79 353.62 249.64 351.44 255.38 C 343.83 272.19 333.32 287.86 327.09 305.20 C 325.73 308.08 324.25 310.90 322.93 313.81 C 322.46 314.15 321.50 314.83 321.02 315.17 C 322.01 309.05 326.76 303.58 326.68 297.40 C 323.63 295.45 323.26 291.50 320.65 289.39 C 307.30 287.06 294.54 276.12 294.27 261.74 C 294.29 261.13 294.33 259.90 294.35 259.28 C 294.99 254.85 294.88 250.33 295.34 245.89 C 297.90 246.26 300.23 247.43 302.72 248.07 C 301.60 241.27 308.13 245.95 310.41 248.61 C 313.41 252.63 317.10 244.85 320.97 246.69 C 321.26 243.64 313.30 245.48 317.19 242.01 Z" />
</g>
<g id="#d71e22ff">
<path fill="#d71e22" opacity="1.00" d=" M 228.83 244.93 C 233.60 244.72 238.26 243.65 242.96 242.95 C 237.55 251.61 231.47 259.87 226.71 268.93 C 217.06 283.35 207.68 297.94 198.75 312.82 C 197.20 314.67 195.83 316.67 194.65 318.79 C 176.64 346.80 158.94 374.98 141.05 403.06 C 137.80 409.02 132.44 414.19 131.09 421.01 C 126.32 423.72 124.74 430.37 121.87 435.01 C 119.68 430.21 112.84 437.20 111.57 431.35 C 108.55 426.84 118.39 426.65 114.57 421.39 C 112.92 417.30 117.01 411.13 112.95 408.03 C 109.27 402.42 115.21 392.51 108.48 388.49 C 103.58 385.48 106.94 377.97 100.32 376.65 C 95.25 367.13 108.35 370.56 114.30 369.78 C 110.29 367.48 105.80 365.44 101.16 365.03 C 99.44 365.52 97.40 369.97 96.25 366.71 C 95.16 363.87 98.47 359.91 101.87 361.79 C 106.06 361.37 103.77 355.96 103.03 353.21 C 101.16 350.73 103.91 342.83 99.40 343.11 C 98.92 346.40 97.96 349.54 94.93 346.04 C 88.03 341.16 102.50 339.69 96.55 336.62 C 88.66 337.35 90.04 328.79 90.88 324.13 C 87.71 320.40 86.58 315.82 87.53 310.95 C 83.65 312.15 79.01 312.44 78.94 307.11 C 82.00 303.15 89.15 301.65 86.72 294.99 C 89.24 293.36 88.80 300.67 92.35 298.56 C 97.55 296.36 98.46 301.75 100.14 305.44 C 105.26 305.11 110.02 303.30 115.11 305.91 C 120.79 308.74 129.81 302.19 132.43 309.59 C 135.72 314.69 146.74 307.38 145.57 314.94 C 148.84 315.93 152.38 315.95 155.56 317.30 C 157.55 318.84 160.07 314.49 161.11 317.76 C 160.92 322.22 165.17 326.92 162.31 331.19 C 161.97 334.65 166.98 336.92 166.99 340.59 C 165.47 341.18 162.92 340.73 162.99 343.02 C 162.91 347.38 157.43 344.90 154.99 347.20 C 154.81 350.61 157.75 353.13 159.22 355.97 C 165.29 356.94 163.46 347.21 169.51 347.43 C 170.54 341.52 176.00 338.84 179.91 334.99 C 184.97 325.58 193.07 318.10 197.21 308.17 C 201.96 303.76 205.49 298.55 207.37 292.36 C 217.35 284.03 219.41 270.25 227.45 260.41 C 228.53 257.77 231.95 253.58 229.76 251.28 C 214.67 253.20 199.14 254.04 184.56 258.47 C 173.99 257.54 164.43 265.03 153.80 261.78 C 164.56 259.01 175.68 257.57 186.27 254.21 C 195.87 252.12 205.66 250.78 215.08 247.98 C 219.62 246.80 224.25 245.98 228.83 244.93 Z" />
</g>
<g id="#ebd6abff">
<path fill="#ebd6ab" opacity="1.00" d=" M 287.63 278.29 C 290.22 266.47 282.74 250.77 293.88 242.81 C 293.95 248.31 294.16 253.78 294.35 259.28 C 294.33 259.90 294.29 261.13 294.27 261.74 C 294.00 267.22 294.33 272.73 294.85 278.19 C 293.76 275.70 292.24 273.02 289.02 273.95 C 287.87 283.01 292.79 291.34 292.71 300.31 C 290.15 295.44 291.06 289.46 288.19 284.73 C 288.05 283.12 287.77 279.90 287.63 278.29 Z" />
</g>
<g id="#aaaaaaff">
<path fill="#aaaaaa" opacity="1.00" d=" M 49.17 243.68 C 52.28 247.69 51.91 253.31 53.04 258.08 C 50.48 253.72 49.56 248.66 49.17 243.68 Z" />
</g>
<g id="#6e4d22ff">
<path fill="#6e4d22" opacity="1.00" d=" M 98.87 250.05 C 100.19 248.20 101.83 246.59 104.08 245.97 C 102.78 247.84 101.13 249.44 98.87 250.05 Z" />
</g>
<g id="#7e5c29ff">
<path fill="#7e5c29" opacity="1.00" d=" M 155.25 253.99 C 167.17 251.38 179.07 248.64 191.00 246.08 C 191.50 246.04 192.48 245.95 192.97 245.91 L 192.92 246.87 C 175.65 251.31 158.04 254.31 140.78 258.81 C 134.15 259.85 127.62 261.60 120.90 261.98 C 132.04 258.30 143.85 256.83 155.25 253.99 Z" />
</g>
<g id="#ec946eff">
<path fill="#ec946e" opacity="1.00" d=" M 548.18 252.07 C 549.82 250.07 551.48 248.10 553.24 246.19 C 551.83 248.83 550.41 251.47 548.71 253.94 C 540.98 264.13 533.11 274.23 524.72 283.90 C 520.98 287.47 517.45 291.25 513.93 295.03 C 510.40 298.12 507.03 301.40 503.84 304.84 C 500.33 308.01 496.68 311.02 493.04 314.04 L 491.99 313.93 C 512.34 294.84 532.32 275.18 548.18 252.07 Z" />
</g>
<g id="#da3536ff">
<path fill="#da3536" opacity="1.00" d=" M 562.29 247.38 C 569.13 248.91 576.64 248.60 583.25 246.27 C 580.05 256.44 575.49 266.12 571.98 276.15 C 570.89 278.27 569.68 280.33 568.33 282.29 C 568.37 279.11 570.53 274.25 565.89 274.07 C 558.22 275.77 550.21 276.05 542.41 275.03 C 544.68 280.61 535.88 278.31 533.02 281.03 C 530.42 282.37 524.45 291.06 524.72 283.90 C 533.11 274.23 540.98 264.13 548.71 253.94 C 551.64 259.76 558.52 247.89 562.29 247.38 Z" />
</g>
<g id="#ab5a6bff">
<path fill="#ab5a6b" opacity="1.00" d=" M 619.74 246.22 C 625.90 249.92 626.25 259.74 627.68 266.26 C 624.28 259.91 622.29 252.93 619.74 246.22 Z" />
</g>
<g id="#eda34fff">
<path fill="#eda34f" opacity="1.00" d=" M 140.78 258.81 C 158.04 254.31 175.65 251.31 192.92 246.87 C 193.40 246.94 194.35 247.09 194.82 247.16 C 198.61 254.20 208.85 245.58 215.08 247.98 C 205.66 250.78 195.87 252.12 186.27 254.21 C 172.30 255.48 158.19 258.65 144.80 262.88 C 144.39 263.01 143.58 263.26 143.18 263.39 C 139.57 263.90 139.80 261.37 140.78 258.81 Z" />
</g>
<g id="#f4e1b2ff">
<path fill="#f4e1b2" opacity="1.00" d=" M 545.69 248.65 C 548.56 247.07 548.13 250.01 548.18 252.07 C 532.32 275.18 512.34 294.84 491.99 313.93 C 485.61 318.54 479.47 323.48 473.11 328.11 C 468.98 329.60 465.45 333.70 460.81 333.45 C 461.53 331.63 462.20 329.79 462.86 327.95 C 479.72 316.09 497.28 304.52 511.00 288.95 C 517.37 282.64 523.55 276.09 529.13 269.07 C 535.63 263.14 539.75 255.10 545.69 248.65 Z" />
</g>
<g id="#e94d58ff">
<path fill="#e94d58" opacity="1.00" d=" M 226.71 268.93 C 233.90 263.46 237.42 249.05 248.57 250.22 C 249.29 255.73 255.22 260.19 260.75 259.69 C 263.48 264.14 269.02 264.89 272.47 268.51 C 276.24 271.54 283.55 281.19 286.07 273.10 L 286.92 272.93 C 287.09 274.72 287.34 276.51 287.63 278.29 C 287.77 279.90 288.05 283.12 288.19 284.73 C 288.08 289.85 290.24 295.22 287.82 300.06 C 286.15 299.87 285.49 296.87 283.79 297.90 C 276.79 300.82 272.41 290.32 265.02 291.83 C 253.66 291.39 246.45 281.20 235.75 279.05 C 231.77 278.25 234.66 270.58 228.28 274.16 C 220.98 282.08 213.92 290.42 208.79 299.95 C 205.64 304.38 202.87 309.17 198.75 312.82 C 207.68 297.94 217.06 283.35 226.71 268.93 Z" />
</g>
<g id="#b4b8bfff">
<path fill="#b4b8bf" opacity="1.00" d=" M 526.14 252.23 C 527.47 251.50 528.80 250.77 530.13 250.01 C 523.82 259.31 512.99 265.39 506.92 274.81 C 511.20 275.90 516.14 281.12 520.21 277.21 C 523.20 274.50 525.04 270.38 529.13 269.07 C 523.55 276.09 517.37 282.64 511.00 288.95 C 503.44 293.63 495.97 302.42 486.10 299.11 C 480.42 301.55 477.38 307.04 473.08 311.12 C 473.09 310.60 473.10 309.55 473.10 309.03 C 476.80 301.85 482.59 295.72 485.23 288.03 C 486.61 286.27 490.12 282.09 485.92 281.64 C 501.06 274.56 514.55 264.23 526.14 252.23 Z" />
</g>
<g id="#df1a1eff">
<path fill="#df1a1e" opacity="1.00" d=" M 184.56 258.47 C 199.14 254.04 214.67 253.20 229.76 251.28 C 231.95 253.58 228.53 257.77 227.45 260.41 C 219.41 270.25 217.35 284.03 207.37 292.36 C 205.49 298.55 201.96 303.76 197.21 308.17 C 193.07 318.10 184.97 325.58 179.91 334.99 C 176.00 338.84 170.54 341.52 169.51 347.43 C 163.46 347.21 165.29 356.94 159.22 355.97 C 157.75 353.13 154.81 350.61 154.99 347.20 C 157.43 344.90 162.91 347.38 162.99 343.02 C 162.92 340.73 165.47 341.18 166.99 340.59 C 166.98 336.92 161.97 334.65 162.31 331.19 C 165.17 326.92 160.92 322.22 161.11 317.76 C 160.07 314.49 157.55 318.84 155.56 317.30 C 152.38 315.95 148.84 315.93 145.57 314.94 C 146.74 307.38 135.72 314.69 132.43 309.59 C 129.81 302.19 120.79 308.74 115.11 305.91 C 110.02 303.30 105.26 305.11 100.14 305.44 C 98.46 301.75 97.55 296.36 92.35 298.56 C 88.80 300.67 89.24 293.36 86.72 294.99 C 85.14 289.19 78.57 287.37 76.85 282.06 C 79.13 282.28 81.38 282.93 83.68 282.90 C 85.01 278.02 90.61 278.61 94.09 276.16 C 96.72 274.68 93.14 275.11 91.94 274.93 C 108.96 270.85 126.20 267.62 143.18 263.39 C 143.58 263.26 144.39 263.01 144.80 262.88 C 147.82 262.66 150.80 262.17 153.80 261.78 C 164.43 265.03 173.99 257.54 184.56 258.47 Z" />
</g>
<g id="#6f4e21ff">
<path fill="#6f4e21" opacity="1.00" d=" M 90.11 257.10 C 90.50 255.27 91.94 253.86 93.87 253.88 C 93.51 255.73 92.06 257.15 90.11 257.10 Z" />
</g>
<g id="#ed6730ff">
<path fill="#ed6730" opacity="1.00" d=" M 144.80 262.88 C 158.19 258.65 172.30 255.48 186.27 254.21 C 175.68 257.57 164.56 259.01 153.80 261.78 C 150.80 262.17 147.82 262.66 144.80 262.88 Z" />
</g>
<g id="#aaadacff">
<path fill="#aaadac" opacity="1.00" d=" M 53.04 258.08 C 54.65 259.21 54.44 261.29 53.83 262.92 C 52.46 261.66 52.60 259.72 53.04 258.08 Z" />
</g>
<g id="#df8438ff">
<path fill="#df8438" opacity="1.00" d=" M 120.90 261.98 C 127.62 261.60 134.15 259.85 140.78 258.81 C 139.80 261.37 139.57 263.90 143.18 263.39 C 126.20 267.62 108.96 270.85 91.94 274.93 C 80.86 277.07 69.86 279.56 58.70 281.26 C 61.16 277.13 64.94 274.08 70.11 274.20 C 83.65 273.10 96.67 269.11 110.03 266.82 C 109.73 266.52 109.14 265.92 108.84 265.63 C 111.97 264.86 115.08 264.00 118.15 263.03 C 119.08 262.71 119.99 262.36 120.90 261.98 Z" />
</g>
<g id="#eccb95ff">
<path fill="#eccb95" opacity="1.00" d=" M 59.78 273.92 C 63.68 268.66 69.74 265.65 74.95 261.91 C 71.13 267.18 65.06 270.31 59.78 273.92 Z" />
</g>
<g id="#bbc4cdff">
<path fill="#bbc4cd" opacity="1.00" d=" M 294.27 261.74 C 294.54 276.12 307.30 287.06 320.65 289.39 C 323.26 291.50 323.63 295.45 326.68 297.40 C 326.76 303.58 322.01 309.05 321.02 315.17 C 319.17 319.42 315.94 323.25 315.82 328.07 L 315.31 327.55 C 315.13 327.20 314.78 326.51 314.61 326.16 C 316.31 320.91 319.50 315.98 318.98 310.22 C 311.24 305.08 300.35 302.00 298.19 291.78 C 296.47 287.42 295.45 282.82 294.85 278.19 C 294.33 272.73 294.00 267.22 294.27 261.74 Z" />
</g>
<g id="#bebcbdff">
<path fill="#bebcbd" opacity="1.00" d=" M 382.02 261.86 C 384.36 264.16 386.35 266.90 386.92 270.20 C 384.45 267.98 383.02 264.98 382.02 261.86 Z" />
</g>
<g id="#b1b1b2ff">
<path fill="#b1b1b2" opacity="1.00" d=" M 53.83 262.92 C 55.85 263.83 56.06 265.89 56.14 267.86 C 56.08 268.67 55.96 270.28 55.90 271.09 C 55.16 268.36 54.45 265.67 53.83 262.92 Z" />
</g>
<g id="#79521bff">
<path fill="#79521b" opacity="1.00" d=" M 71.90 271.97 C 74.62 267.87 78.74 265.17 83.08 263.01 C 80.31 266.66 68.85 273.06 80.95 271.12 C 78.05 271.59 74.70 274.12 71.90 271.97 Z" />
</g>
<g id="#795629ff">
<path fill="#795629" opacity="1.00" d=" M 103.00 266.01 C 107.72 263.77 112.95 262.92 118.15 263.03 C 115.08 264.00 111.97 264.86 108.84 265.63 C 106.90 265.80 104.95 265.88 103.00 266.01 Z" />
</g>
<g id="#735220ff">
<path fill="#735220" opacity="1.00" d=" M 80.95 271.12 C 87.63 267.37 95.60 267.17 103.00 266.01 C 95.99 268.88 88.38 269.90 80.95 271.12 Z" />
</g>
<g id="#a34e61ff">
<path fill="#a34e61" opacity="1.00" d=" M 627.68 266.26 C 631.99 269.61 634.86 277.19 637.24 282.83 C 641.58 290.70 645.32 304.47 634.85 308.88 L 634.98 307.92 C 637.74 304.01 641.35 299.64 639.54 294.44 C 636.81 284.57 631.44 275.73 627.68 266.26 Z" />
</g>
<g id="#e41e22ff">
<path fill="#e41e22" opacity="1.00" d=" M 572.92 276.03 C 587.43 272.99 602.25 271.45 617.02 270.08 C 624.19 268.66 628.72 275.99 631.67 281.25 C 635.33 287.17 638.94 294.74 636.67 301.65 C 632.35 307.10 624.26 307.24 618.11 309.16 C 594.37 314.09 571.36 323.08 547.12 325.16 C 554.28 310.92 561.74 296.82 568.33 282.29 C 569.68 280.33 570.89 278.27 571.98 276.15 L 572.92 276.03 Z" />
</g>
<g id="#a9a6a1ff">
<path fill="#a9a6a1" opacity="1.00" d=" M 55.90 271.09 C 57.49 271.79 57.41 273.71 57.02 275.13 C 55.68 274.22 55.58 272.52 55.90 271.09 Z" />
</g>
<g id="#e85a65ff">
<path fill="#e85a65" opacity="1.00" d=" M 228.28 274.16 C 234.66 270.58 231.77 278.25 235.75 279.05 C 246.45 281.20 253.66 291.39 265.02 291.83 C 272.41 290.32 276.79 300.82 283.79 297.90 C 285.49 296.87 286.15 299.87 287.82 300.06 C 290.24 295.22 288.08 289.85 288.19 284.73 C 291.06 289.46 290.15 295.44 292.71 300.31 C 294.28 304.10 295.96 307.85 297.11 311.81 C 298.22 316.40 298.86 322.38 292.29 321.81 C 288.67 316.94 284.12 312.35 277.48 312.39 C 264.55 303.61 247.94 303.98 234.28 296.95 C 228.16 297.84 226.59 290.58 221.18 290.37 C 215.81 291.75 213.12 296.97 208.79 299.95 C 213.92 290.42 220.98 282.08 228.28 274.16 Z" />
</g>
<g id="#f8eddfff">
<path fill="#f8eddf" opacity="1.00" d=" M 289.02 273.95 C 292.24 273.02 293.76 275.70 294.85 278.19 C 295.45 282.82 296.47 287.42 298.19 291.78 C 300.27 304.59 306.92 315.94 314.61 326.16 C 314.78 326.51 315.13 327.20 315.31 327.55 C 317.23 331.65 314.75 332.74 310.84 332.17 C 303.78 327.07 301.82 318.58 297.11 311.81 C 295.96 307.85 294.28 304.10 292.71 300.31 C 292.79 291.34 287.87 283.01 289.02 273.95 Z" />
</g>
<g id="#e93b3cff">
<path fill="#e93b3c" opacity="1.00" d=" M 542.41 275.03 C 550.21 276.05 558.22 275.77 565.89 274.07 C 570.53 274.25 568.37 279.11 568.33 282.29 C 561.74 296.82 554.28 310.92 547.12 325.16 C 546.37 326.76 545.58 328.34 544.82 329.93 L 544.01 330.15 C 543.80 329.62 543.39 328.55 543.19 328.02 C 550.20 314.89 557.94 301.58 561.91 287.25 C 553.53 283.69 542.95 290.78 534.02 291.04 C 529.97 290.94 527.49 297.33 523.53 294.59 C 520.03 291.98 513.29 301.68 513.93 295.03 C 517.45 291.25 520.98 287.47 524.72 283.90 C 524.45 291.06 530.42 282.37 533.02 281.03 C 535.88 278.31 544.68 280.61 542.41 275.03 Z" />
</g>
<g id="#cf1b1eff">
<path fill="#cf1b1e" opacity="1.00" d=" M 58.70 281.26 C 69.86 279.56 80.86 277.07 91.94 274.93 C 93.14 275.11 96.72 274.68 94.09 276.16 C 90.61 278.61 85.01 278.02 83.68 282.90 C 81.38 282.93 79.13 282.28 76.85 282.06 C 78.57 287.37 85.14 289.19 86.72 294.99 C 89.15 301.65 82.00 303.15 78.94 307.11 C 79.01 312.44 83.65 312.15 87.53 310.95 C 86.58 315.82 87.71 320.40 90.88 324.13 C 90.04 328.79 88.66 337.35 96.55 336.62 C 102.50 339.69 88.03 341.16 94.93 346.04 C 97.96 349.54 98.92 346.40 99.40 343.11 C 103.91 342.83 101.16 350.73 103.03 353.21 C 103.77 355.96 106.06 361.37 101.87 361.79 C 98.47 359.91 95.16 363.87 96.25 366.71 C 97.40 369.97 99.44 365.52 101.16 365.03 C 105.80 365.44 110.29 367.48 114.30 369.78 C 108.35 370.56 95.25 367.13 100.32 376.65 C 106.94 377.97 103.58 385.48 108.48 388.49 C 115.21 392.51 109.27 402.42 112.95 408.03 C 117.01 411.13 112.92 417.30 114.57 421.39 C 118.39 426.65 108.55 426.84 111.57 431.35 C 112.84 437.20 119.68 430.21 121.87 435.01 L 121.88 435.94 C 120.67 436.39 119.47 436.88 118.24 437.28 C 106.78 439.45 97.17 431.36 94.21 420.80 C 87.11 394.03 80.86 367.04 73.64 340.30 C 73.71 330.77 70.84 321.45 67.08 312.79 C 64.31 302.28 62.00 291.63 58.70 281.26 Z" />
</g>
<g id="#211c26ff">
</g>
<g id="#5a2c2fff">
<path fill="#5a2c2f" opacity="1.00" d=" M 55.93 278.89 C 56.14 278.35 56.56 277.28 56.77 276.74 C 57.42 278.24 58.07 279.74 58.70 281.26 C 62.00 291.63 64.31 302.28 67.08 312.79 C 68.30 322.13 71.19 331.24 73.64 340.30 C 80.86 367.04 87.11 394.03 94.21 420.80 C 94.09 421.53 93.84 423.00 93.72 423.73 C 93.53 424.28 93.14 425.39 92.95 425.94 C 85.93 401.98 79.94 374.23 73.15 348.90 C 67.54 325.55 61.04 302.37 55.93 278.89 Z" />
</g>
<g id="#bfbdbeff">
<path fill="#bfbdbe" opacity="1.00" d=" M 398.11 281.84 C 402.60 284.29 406.99 286.97 411.22 289.87 C 405.80 289.38 401.81 285.43 398.11 281.84 Z" />
</g>
<g id="#979699ff">
<path fill="#979699" opacity="1.00" d=" M 327.09 305.20 C 331.87 298.36 334.63 290.32 339.82 283.73 C 339.61 291.90 332.33 297.47 329.95 304.98 C 328.86 308.81 322.79 315.66 328.36 318.55 C 350.98 325.47 374.85 320.54 397.97 319.80 C 419.81 318.62 440.20 309.66 461.99 308.31 C 474.82 311.99 476.67 293.29 485.23 288.03 C 482.59 295.72 476.80 301.85 473.10 309.03 C 467.45 313.13 465.84 323.35 456.97 322.00 C 415.12 328.72 371.89 341.07 329.71 331.52 C 325.81 330.36 319.12 332.05 318.03 326.93 C 319.27 322.43 321.54 318.27 322.93 313.81 C 324.25 310.90 325.73 308.08 327.09 305.20 Z" />
</g>
<g id="#f04446ff">
<path fill="#f04446" opacity="1.00" d=" M 534.02 291.04 C 542.95 290.78 553.53 283.69 561.91 287.25 C 557.94 301.58 550.20 314.89 543.19 328.02 C 542.28 323.08 545.65 318.81 546.09 314.02 C 535.94 315.05 525.60 314.75 515.66 312.79 C 509.80 316.19 501.46 311.92 503.84 304.84 C 507.03 301.40 510.40 298.12 513.93 295.03 C 513.29 301.68 520.03 291.98 523.53 294.59 C 527.49 297.33 529.97 290.94 534.02 291.04 Z" />
</g>
<g id="#c7cdcfff">
<path fill="#c7cdcf" opacity="1.00" d=" M 486.10 299.11 C 495.97 302.42 503.44 293.63 511.00 288.95 C 497.28 304.52 479.72 316.09 462.86 327.95 L 463.12 327.06 C 466.37 321.70 469.88 316.51 473.08 311.12 C 477.38 307.04 480.42 301.55 486.10 299.11 Z" />
</g>
<g id="#e8626fff">
<path fill="#e8626f" opacity="1.00" d=" M 221.18 290.37 C 226.59 290.58 228.16 297.84 234.28 296.95 C 247.94 303.98 264.55 303.61 277.48 312.39 C 284.12 312.35 288.67 316.94 292.29 321.81 C 298.86 322.38 298.22 316.40 297.11 311.81 C 301.82 318.58 303.78 327.07 310.84 332.17 L 311.41 332.69 L 310.90 333.45 C 306.35 339.28 303.30 346.06 299.31 352.24 C 300.00 347.23 302.05 342.37 301.90 337.29 C 290.91 334.23 282.90 325.22 271.86 322.16 C 252.56 316.67 231.84 315.06 214.48 304.46 C 204.79 302.56 201.76 316.16 195.11 321.08 C 195.00 320.51 194.77 319.36 194.65 318.79 C 195.83 316.67 197.20 314.67 198.75 312.82 C 202.87 309.17 205.64 304.38 208.79 299.95 C 213.12 296.97 215.81 291.75 221.18 290.37 Z" />
</g>
<g id="#c1bfc0ff">
<path fill="#c1bfc0" opacity="1.00" d=" M 413.06 290.94 C 430.35 295.61 448.80 295.07 465.92 289.95 L 467.04 290.11 C 450.14 296.85 429.84 298.75 413.06 290.94 Z" />
</g>
<g id="#c6d0daff">
<path fill="#c6d0da" opacity="1.00" d=" M 298.19 291.78 C 300.35 302.00 311.24 305.08 318.98 310.22 C 319.50 315.98 316.31 320.91 314.61 326.16 C 306.92 315.94 300.27 304.59 298.19 291.78 Z" />
</g>
<g id="#e96c79ff">
<path fill="#e96c79" opacity="1.00" d=" M 195.11 321.08 C 201.76 316.16 204.79 302.56 214.48 304.46 C 231.84 315.06 252.56 316.67 271.86 322.16 C 282.90 325.22 290.91 334.23 301.90 337.29 C 302.05 342.37 300.00 347.23 299.31 352.24 L 299.04 352.95 C 298.56 353.27 297.61 353.90 297.13 354.22 C 297.30 350.50 299.48 345.07 294.82 343.20 C 277.36 337.70 260.56 328.69 241.70 329.63 C 234.82 330.33 230.06 324.37 223.31 324.67 C 215.57 324.65 210.24 317.35 203.14 315.98 C 198.43 319.28 195.29 324.39 190.77 327.93 C 192.01 325.52 193.47 323.23 195.11 321.08 Z" />
</g>
<g id="#eb4c53ff">
<path fill="#eb4c53" opacity="1.00" d=" M 493.04 314.04 C 496.68 311.02 500.33 308.01 503.84 304.84 C 501.46 311.92 509.80 316.19 515.66 312.79 C 525.60 314.75 535.94 315.05 546.09 314.02 C 545.65 318.81 542.28 323.08 543.19 328.02 C 543.39 328.55 543.80 329.62 544.01 330.15 C 526.51 330.34 509.63 336.94 492.23 337.45 C 487.94 338.06 485.70 331.64 481.89 334.75 C 478.62 333.87 477.03 328.44 480.25 326.25 C 483.20 320.79 490.17 319.55 493.04 314.04 Z" />
</g>
<g id="#7a2327ff">
<path fill="#7a2327" opacity="1.00" d=" M 612.88 313.87 C 620.07 311.38 627.45 309.12 634.98 307.92 L 634.85 308.88 C 634.82 310.06 634.33 310.64 633.38 310.62 C 626.45 309.63 619.88 314.20 612.88 313.87 Z" />
</g>
<g id="#a0a0a2ff">
<path fill="#a0a0a2" opacity="1.00" d=" M 456.97 322.00 C 465.84 323.35 467.45 313.13 473.10 309.03 C 473.10 309.55 473.09 310.60 473.08 311.12 C 469.88 316.51 466.37 321.70 463.12 327.06 C 453.73 332.05 444.17 336.64 434.41 340.86 C 430.74 338.78 426.86 340.78 422.99 340.54 C 397.11 341.58 371.13 343.33 345.12 342.82 C 337.57 343.06 331.36 338.67 324.54 336.30 C 321.34 333.86 318.50 331.04 315.82 328.07 C 315.94 323.25 319.17 319.42 321.02 315.17 C 321.50 314.83 322.46 314.15 322.93 313.81 C 321.54 318.27 319.27 322.43 318.03 326.93 C 319.12 332.05 325.81 330.36 329.71 331.52 C 371.89 341.07 415.12 328.72 456.97 322.00 Z" />
</g>
<g id="#261719ff">
<path fill="#261719" opacity="1.00" d=" M 612.88 313.87 C 619.88 314.20 626.45 309.63 633.38 310.62 C 628.66 316.47 619.42 315.42 612.90 317.86 C 475.91 352.43 338.90 386.60 201.70 420.25 C 201.74 419.49 201.80 418.73 201.87 417.98 C 225.29 410.67 249.64 406.37 273.06 399.08 C 279.28 398.08 285.31 396.26 291.22 394.11 C 295.40 393.06 299.58 391.97 303.73 390.79 C 310.74 390.57 317.45 388.47 323.95 385.97 C 329.02 385.00 334.49 384.82 338.99 382.00 C 347.15 381.09 355.73 379.80 363.13 376.11 L 363.87 375.85 C 369.44 375.75 374.92 374.19 380.01 371.98 C 384.98 370.76 390.79 371.37 394.99 368.00 C 410.28 365.47 425.30 361.28 440.23 357.13 C 441.42 356.72 442.59 356.26 443.78 355.84 C 455.07 354.79 466.40 351.94 477.01 348.02 C 498.65 342.65 520.76 338.74 542.08 332.15 C 552.44 329.63 562.93 327.57 572.98 323.92 C 586.07 321.00 599.50 318.70 612.14 314.11 L 612.88 313.87 Z" />
</g>
<g id="#a21f22ff">
<path fill="#a21f22" opacity="1.00" d=" M 67.08 312.79 C 70.84 321.45 73.71 330.77 73.64 340.30 C 71.19 331.24 68.30 322.13 67.08 312.79 Z" />
</g>
<g id="#e2595dff">
<path fill="#e2595d" opacity="1.00" d=" M 473.11 328.11 C 479.47 323.48 485.61 318.54 491.99 313.93 L 493.04 314.04 C 490.17 319.55 483.20 320.79 480.25 326.25 C 477.03 328.44 478.62 333.87 481.89 334.75 C 485.70 331.64 487.94 338.06 492.23 337.45 C 509.63 336.94 526.51 330.34 544.01 330.15 C 543.36 330.81 542.71 331.48 542.08 332.15 C 520.25 336.16 497.92 340.82 477.01 348.02 C 467.26 348.22 458.48 353.23 448.84 353.94 C 449.36 350.47 458.78 343.17 452.95 340.69 C 454.58 339.77 456.25 338.90 457.93 338.07 C 463.62 335.79 468.83 332.54 473.11 328.11 Z" />
</g>
<g id="#852625ff">
<path fill="#852625" opacity="1.00" d=" M 572.98 323.92 C 585.63 319.35 598.84 316.02 612.14 314.11 C 599.50 318.70 586.07 321.00 572.98 323.92 Z" />
</g>
<g id="#e87584ff">
<path fill="#e87584" opacity="1.00" d=" M 190.77 327.93 C 195.29 324.39 198.43 319.28 203.14 315.98 C 210.24 317.35 215.57 324.65 223.31 324.67 C 230.06 324.37 234.82 330.33 241.70 329.63 C 260.56 328.69 277.36 337.70 294.82 343.20 C 299.48 345.07 297.30 350.50 297.13 354.22 C 296.09 357.26 294.00 359.71 292.04 362.19 C 291.64 358.07 296.85 350.98 290.56 349.54 C 260.34 343.07 227.65 343.82 200.31 327.69 C 194.12 324.71 190.53 331.57 186.73 334.80 C 187.87 332.40 189.20 330.08 190.77 327.93 Z" />
</g>
<g id="#e1575bff">
<path fill="#e1575b" opacity="1.00" d=" M 141.05 403.06 C 158.94 374.98 176.64 346.80 194.65 318.79 C 194.77 319.36 195.00 320.51 195.11 321.08 C 193.47 323.23 192.01 325.52 190.77 327.93 C 189.20 330.08 187.87 332.40 186.73 334.80 C 183.86 338.11 181.61 341.90 179.81 345.89 C 177.89 347.46 176.62 349.59 175.70 351.87 C 171.48 357.16 168.04 363.03 164.74 368.93 C 161.09 374.05 157.58 379.34 154.92 385.07 C 149.93 390.59 146.88 397.55 142.87 403.76 C 138.18 408.98 135.98 415.96 131.09 421.01 C 132.44 414.19 137.80 409.02 141.05 403.06 Z" />
</g>
<g id="#802823ff">
<path fill="#802823" opacity="1.00" d=" M 544.82 329.93 C 554.32 328.42 563.32 324.54 572.98 323.92 C 562.93 327.57 552.44 329.63 542.08 332.15 C 542.71 331.48 543.36 330.81 544.01 330.15 L 544.82 329.93 Z" />
</g>
<g id="#e97d8fff">
<path fill="#e97d8f" opacity="1.00" d=" M 186.73 334.80 C 190.53 331.57 194.12 324.71 200.31 327.69 C 227.65 343.82 260.34 343.07 290.56 349.54 C 296.85 350.98 291.64 358.07 292.04 362.19 C 287.69 373.50 279.24 382.68 274.98 394.04 C 274.59 395.01 274.23 395.99 273.88 396.98 C 273.62 397.25 273.09 397.80 272.83 398.07 C 271.57 398.41 270.32 398.78 269.07 399.14 C 269.74 390.75 277.56 386.00 280.56 378.61 C 282.98 372.25 287.64 366.82 288.83 360.02 C 276.46 354.77 262.56 359.38 249.98 355.20 C 228.86 353.77 207.88 347.07 189.93 335.88 C 186.11 338.74 183.35 342.71 179.81 345.89 C 181.61 341.90 183.86 338.11 186.73 334.80 Z" />
</g>
<g id="#bcaa81ff">
<path fill="#bcaa81" opacity="1.00" d=" M 434.41 340.86 C 444.17 336.64 453.73 332.05 463.12 327.06 L 462.86 327.95 C 462.20 329.79 461.53 331.63 460.81 333.45 C 460.36 333.55 459.44 333.75 458.99 333.85 C 458.96 333.42 458.91 332.55 458.88 332.12 C 442.99 340.73 426.47 348.22 408.98 352.94 C 402.15 354.54 395.23 355.68 388.24 356.21 C 381.41 355.77 374.43 356.85 367.71 355.34 C 390.71 356.13 413.68 350.68 434.41 340.86 Z" />
</g>
<g id="#f7e7bfff">
<path fill="#f7e7bf" opacity="1.00" d=" M 315.31 327.55 L 315.82 328.07 C 318.50 331.04 321.34 333.86 324.54 336.30 C 333.36 346.05 346.55 350.63 358.93 353.90 C 362.12 354.69 364.32 357.58 360.24 358.67 C 349.09 357.77 338.92 352.57 328.94 347.93 C 326.67 346.21 324.34 344.59 321.96 343.06 C 321.68 342.84 321.12 342.42 320.84 342.21 C 318.08 338.69 315.27 335.06 311.41 332.69 L 310.84 332.17 C 314.75 332.74 317.23 331.65 315.31 327.55 Z" />
</g>
<g id="#f2aa7bff">
<path fill="#f2aa7b" opacity="1.00" d=" M 460.81 333.45 C 465.45 333.70 468.98 329.60 473.11 328.11 C 468.83 332.54 463.62 335.79 457.93 338.07 C 458.25 336.65 458.60 335.25 458.99 333.85 C 459.44 333.75 460.36 333.55 460.81 333.45 Z" />
</g>
<g id="#c18b3fff">
<path fill="#c18b3f" opacity="1.00" d=" M 408.98 352.94 C 426.47 348.22 442.99 340.73 458.88 332.12 C 458.91 332.55 458.96 333.42 458.99 333.85 C 458.60 335.25 458.25 336.65 457.93 338.07 C 456.25 338.90 454.58 339.77 452.95 340.69 C 452.05 341.17 451.15 341.65 450.26 342.12 C 435.59 346.06 422.46 355.36 407.00 357.12 C 407.66 355.73 408.30 354.32 408.98 352.94 Z" />
</g>
<g id="#86443fff">
<path fill="#86443f" opacity="1.00" d=" M 477.01 348.02 C 497.92 340.82 520.25 336.16 542.08 332.15 C 520.76 338.74 498.65 342.65 477.01 348.02 Z" />
</g>
<g id="#f59f85ff">
<path fill="#f59f85" opacity="1.00" d=" M 311.41 332.69 C 315.27 335.06 318.08 338.69 320.84 342.21 C 317.20 339.67 313.96 336.64 310.90 333.45 L 311.41 332.69 Z" />
</g>
<g id="#db212aff">
<path fill="#db212a" opacity="1.00" d=" M 299.31 352.24 C 303.30 346.06 306.35 339.28 310.90 333.45 C 313.96 336.64 317.20 339.67 320.84 342.21 C 321.12 342.42 321.68 342.84 321.96 343.06 C 324.20 344.79 326.53 346.41 328.94 347.93 C 335.65 354.85 345.91 356.51 354.72 359.27 C 366.33 364.29 379.44 361.14 391.72 362.10 C 392.82 362.50 393.92 362.91 395.02 363.34 C 388.62 368.44 379.72 367.56 372.38 370.43 C 342.96 377.05 313.95 385.70 284.56 392.48 C 279.33 395.63 278.61 390.84 279.71 387.79 C 285.65 375.90 293.94 365.24 299.04 352.95 L 299.31 352.24 Z" />
</g>
<g id="#e8889dff">
<path fill="#e8889d" opacity="1.00" d=" M 179.81 345.89 C 183.35 342.71 186.11 338.74 189.93 335.88 C 207.88 347.07 228.86 353.77 249.98 355.20 C 262.56 359.38 276.46 354.77 288.83 360.02 C 287.64 366.82 282.98 372.25 280.56 378.61 C 277.56 386.00 269.74 390.75 269.07 399.14 C 261.42 401.36 253.57 402.84 245.88 404.94 C 246.99 403.66 248.08 402.36 249.08 401.00 C 246.23 400.24 238.15 404.58 239.20 400.28 C 244.95 397.68 249.71 393.14 252.75 387.63 C 252.42 381.07 251.24 374.01 247.69 368.35 C 228.59 358.61 205.79 357.14 188.31 343.67 C 182.91 341.53 180.53 350.21 175.70 351.87 C 176.62 349.59 177.89 347.46 179.81 345.89 Z" />
</g>
<g id="#aaaaa9ff">
<path fill="#aaaaa9" opacity="1.00" d=" M 324.54 336.30 C 331.36 338.67 337.57 343.06 345.12 342.82 C 371.13 343.33 397.11 341.58 422.99 340.54 C 426.86 340.78 430.74 338.78 434.41 340.86 C 413.68 350.68 390.71 356.13 367.71 355.34 C 364.82 354.67 361.89 354.11 358.93 353.90 C 346.55 350.63 333.36 346.05 324.54 336.30 Z" />
</g>
<g id="#cc302dff">
<path fill="#cc302d" opacity="1.00" d=" M 450.26 342.12 C 451.15 341.65 452.05 341.17 452.95 340.69 C 458.78 343.17 449.36 350.47 448.84 353.94 C 447.12 354.51 445.44 355.15 443.78 355.84 C 442.59 356.26 441.42 356.72 440.23 357.13 C 429.54 357.52 419.38 361.72 409.00 363.96 C 404.43 365.56 398.97 364.94 394.99 368.00 C 389.91 368.95 384.59 369.42 380.01 371.98 C 374.46 372.28 369.03 373.84 363.87 375.85 L 363.13 376.11 C 355.04 377.66 346.55 378.64 338.99 382.00 C 333.96 383.17 328.23 382.72 323.95 385.97 C 317.12 386.92 309.94 387.59 303.73 390.79 C 299.58 391.97 295.40 393.06 291.22 394.11 C 285.28 393.96 279.76 396.65 273.88 396.98 C 274.23 395.99 274.59 395.01 274.98 394.04 C 276.58 391.97 278.16 389.89 279.71 387.79 C 278.61 390.84 279.33 395.63 284.56 392.48 C 313.95 385.70 342.96 377.05 372.38 370.43 C 379.72 367.56 388.62 368.44 395.02 363.34 C 393.92 362.91 392.82 362.50 391.72 362.10 C 394.95 361.40 398.34 360.98 401.21 359.21 C 401.61 359.13 402.41 358.97 402.80 358.88 C 419.41 357.11 436.31 351.36 450.26 342.12 Z" />
</g>
<g id="#d86b34ff">
<path fill="#d86b34" opacity="1.00" d=" M 407.00 357.12 C 422.46 355.36 435.59 346.06 450.26 342.12 C 436.31 351.36 419.41 357.11 402.80 358.88 C 404.19 358.28 405.59 357.70 407.00 357.12 Z" />
</g>
<g id="#e892a3ff">
<path fill="#e892a3" opacity="1.00" d=" M 175.70 351.87 C 180.53 350.21 182.91 341.53 188.31 343.67 C 205.79 357.14 228.59 358.61 247.69 368.35 C 251.24 374.01 252.42 381.07 252.75 387.63 C 249.71 393.14 244.95 397.68 239.20 400.28 C 238.15 404.58 246.23 400.24 249.08 401.00 C 248.08 402.36 246.99 403.66 245.88 404.94 C 229.81 408.74 213.80 412.88 197.82 417.00 C 200.47 414.69 205.63 412.27 198.95 412.79 C 202.11 406.34 212.53 407.31 218.22 403.18 C 223.48 397.37 228.13 390.27 235.97 387.77 C 234.94 378.62 215.78 379.93 217.45 369.22 C 208.56 361.48 196.80 358.47 187.00 352.06 C 174.40 346.64 173.37 364.14 164.74 368.93 C 168.04 363.03 171.48 357.16 175.70 351.87 Z" />
</g>
<g id="#f59f88ff">
<path fill="#f59f88" opacity="1.00" d=" M 321.96 343.06 C 324.34 344.59 326.67 346.21 328.94 347.93 C 326.53 346.41 324.20 344.79 321.96 343.06 Z" />
</g>
<g id="#f2bc7fff">
<path fill="#f2bc7f" opacity="1.00" d=" M 328.94 347.93 C 338.92 352.57 349.09 357.77 360.24 358.67 C 364.32 357.58 362.12 354.69 358.93 353.90 C 361.89 354.11 364.82 354.67 367.71 355.34 C 374.43 356.85 381.41 355.77 388.24 356.21 C 385.29 357.55 382.40 359.03 379.77 360.93 C 371.32 361.88 363.04 360.30 354.72 359.27 C 345.91 356.51 335.65 354.85 328.94 347.93 Z" />
</g>
<g id="#7b3c39ff">
<path fill="#7b3c39" opacity="1.00" d=" M 448.84 353.94 C 458.48 353.23 467.26 348.22 477.01 348.02 C 466.40 351.94 455.07 354.79 443.78 355.84 C 445.44 355.15 447.12 354.51 448.84 353.94 Z" />
</g>
<g id="#e99eaaff">
<path fill="#e99eaa" opacity="1.00" d=" M 164.74 368.93 C 173.37 364.14 174.40 346.64 187.00 352.06 C 196.80 358.47 208.56 361.48 217.45 369.22 C 215.78 379.93 234.94 378.62 235.97 387.77 C 228.13 390.27 223.48 397.37 218.22 403.18 C 212.53 407.31 202.11 406.34 198.95 412.79 C 205.63 412.27 200.47 414.69 197.82 417.00 C 184.57 421.90 170.01 422.61 157.00 428.03 C 145.67 428.65 135.16 433.44 124.01 435.14 C 125.98 430.23 130.26 426.35 131.09 421.01 C 135.98 415.96 138.18 408.98 142.87 403.76 C 141.34 411.91 132.18 418.20 134.06 426.91 C 152.70 417.90 172.67 411.37 190.95 402.13 C 193.70 397.07 196.64 391.38 202.64 389.68 C 198.78 386.88 209.52 388.40 206.96 383.22 C 196.11 376.84 182.77 371.41 170.19 367.30 C 162.55 371.00 160.98 379.94 154.92 385.07 C 157.58 379.34 161.09 374.05 164.74 368.93 Z" />
</g>
<g id="#e24e5dff">
<path fill="#e24e5d" opacity="1.00" d=" M 297.13 354.22 C 297.61 353.90 298.56 353.27 299.04 352.95 C 293.94 365.24 285.65 375.90 279.71 387.79 C 278.16 389.89 276.58 391.97 274.98 394.04 C 279.24 382.68 287.69 373.50 292.04 362.19 C 294.00 359.71 296.09 357.26 297.13 354.22 Z" />
</g>
<g id="#e3a555ff">
<path fill="#e3a555" opacity="1.00" d=" M 388.24 356.21 C 395.23 355.68 402.15 354.54 408.98 352.94 C 408.30 354.32 407.66 355.73 407.00 357.12 C 405.59 357.70 404.19 358.28 402.80 358.88 C 402.41 358.97 401.61 359.13 401.21 359.21 C 394.06 359.76 386.95 360.86 379.77 360.93 C 382.40 359.03 385.29 357.55 388.24 356.21 Z" />
</g>
<g id="#7f2b27ff">
<path fill="#7f2b27" opacity="1.00" d=" M 409.00 363.96 C 419.38 361.72 429.54 357.52 440.23 357.13 C 425.30 361.28 410.28 365.47 394.99 368.00 C 398.97 364.94 404.43 365.56 409.00 363.96 Z" />
</g>
<g id="#e66e3eff">
<path fill="#e66e3e" opacity="1.00" d=" M 354.72 359.27 C 363.04 360.30 371.32 361.88 379.77 360.93 C 386.95 360.86 394.06 359.76 401.21 359.21 C 398.34 360.98 394.95 361.40 391.72 362.10 C 379.44 361.14 366.33 364.29 354.72 359.27 Z" />
</g>
<g id="#edacb3ff">
<path fill="#edacb3" opacity="1.00" d=" M 170.19 367.30 C 182.77 371.41 196.11 376.84 206.96 383.22 C 209.52 388.40 198.78 386.88 202.64 389.68 C 196.64 391.38 193.70 397.07 190.95 402.13 C 172.67 411.37 152.70 417.90 134.06 426.91 C 132.18 418.20 141.34 411.91 142.87 403.76 C 146.88 397.55 149.93 390.59 154.92 385.07 C 160.98 379.94 162.55 371.00 170.19 367.30 Z" />
</g>
<g id="#7a2725ff">
<path fill="#7a2725" opacity="1.00" d=" M 380.01 371.98 C 384.59 369.42 389.91 368.95 394.99 368.00 C 390.79 371.37 384.98 370.76 380.01 371.98 Z" />
</g>
<g id="#772a23ff">
<path fill="#772a23" opacity="1.00" d=" M 363.87 375.85 C 369.03 373.84 374.46 372.28 380.01 371.98 C 374.92 374.19 369.44 375.75 363.87 375.85 Z" />
</g>
<g id="#7a2926ff">
<path fill="#7a2926" opacity="1.00" d=" M 338.99 382.00 C 346.55 378.64 355.04 377.66 363.13 376.11 C 355.73 379.80 347.15 381.09 338.99 382.00 Z" />
</g>
<g id="#782c25ff">
<path fill="#782c25" opacity="1.00" d=" M 323.95 385.97 C 328.23 382.72 333.96 383.17 338.99 382.00 C 334.49 384.82 329.02 385.00 323.95 385.97 Z" />
</g>
<g id="#782a24ff">
<path fill="#782a24" opacity="1.00" d=" M 303.73 390.79 C 309.94 387.59 317.12 386.92 323.95 385.97 C 317.45 388.47 310.74 390.57 303.73 390.79 Z" />
</g>
<g id="#7b2c28ff">
<path fill="#7b2c28" opacity="1.00" d=" M 273.88 396.98 C 279.76 396.65 285.28 393.96 291.22 394.11 C 285.31 396.26 279.28 398.08 273.06 399.08 L 272.83 398.07 C 273.09 397.80 273.62 397.25 273.88 396.98 Z" />
</g>
<g id="#856165ff">
<path fill="#856165" opacity="1.00" d=" M 269.07 399.14 C 270.32 398.78 271.57 398.41 272.83 398.07 L 273.06 399.08 C 249.64 406.37 225.29 410.67 201.87 417.98 C 186.76 420.49 172.28 426.43 157.00 428.03 C 170.01 422.61 184.57 421.90 197.82 417.00 C 213.80 412.88 229.81 408.74 245.88 404.94 C 253.57 402.84 261.42 401.36 269.07 399.14 Z" />
</g>
<g id="#2f2120ff">
<path fill="#2f2120" opacity="1.00" d=" M 157.00 428.03 C 172.28 426.43 186.76 420.49 201.87 417.98 C 201.80 418.73 201.74 419.49 201.70 420.25 C 174.66 428.48 144.92 434.24 116.94 441.91 C 106.12 445.03 93.80 437.08 92.95 425.94 C 93.14 425.39 93.53 424.28 93.72 423.73 C 96.92 433.81 107.66 441.04 118.24 437.28 C 119.47 436.88 120.67 436.39 121.88 435.94 L 122.72 435.79 C 134.31 434.74 146.25 432.60 157.00 428.03 Z" />
</g>
<g id="#821c1dff">
<path fill="#821c1d" opacity="1.00" d=" M 94.21 420.80 C 97.17 431.36 106.78 439.45 118.24 437.28 C 107.66 441.04 96.92 433.81 93.72 423.73 C 93.84 423.00 94.09 421.53 94.21 420.80 Z" />
</g>
<g id="#dd5d61ff">
<path fill="#dd5d61" opacity="1.00" d=" M 121.87 435.01 C 124.74 430.37 126.32 423.72 131.09 421.01 C 130.26 426.35 125.98 430.23 124.01 435.14 C 123.69 435.31 123.04 435.63 122.72 435.79 L 121.88 435.94 L 121.87 435.01 Z" />
</g>
<g id="#8a666bff">
<path fill="#8a666b" opacity="1.00" d=" M 124.01 435.14 C 135.16 433.44 145.67 428.65 157.00 428.03 C 146.25 432.60 134.31 434.74 122.72 435.79 C 123.04 435.63 123.69 435.31 124.01 435.14 Z" />
</g>
</svg>
